<?xml version="1.0" standalone="no"?>
<!DOCTYPE svg PUBLIC "-//W3C//DTD SVG 1.1//EN" "http://www.w3.org/Graphics/SVG/1.1/DTD/svg11.dtd" >
<svg>
<metadata>
Created by FontForge 20090914 at Sun Jan 10 14:47:43 2016
 By www-data
Copyright (c) 2011-2015 by Omnibus-Type (www.omnibus-type.com omnibus.type@gmail.com)
</metadata>
<defs>
<font id="Chivo-Regular" horiz-adv-x="615" >
  <font-face 
    font-family="Chivo"
    font-weight="400"
    font-stretch="normal"
    units-per-em="1000"
    panose-1="2 11 5 3 3 2 2 2 8 4"
    ascent="800"
    descent="-200"
    x-height="511"
    cap-height="686"
    bbox="-169 -250.003 1004 926"
    underline-thickness="50"
    underline-position="-50"
    unicode-range="U+0020-U+FB02"
  />
<missing-glyph horiz-adv-x="500" 
d="M500 0h-500v700h500v-700zM80 650l170 -255l170 255h-340zM50 95l170 255l-170 255v-510zM280 350l170 -255v510zM80 50h340l-170 255z" />
    <glyph glyph-name="uniFB01" unicode="fi" horiz-adv-x="601" 
d="M316 709v-68.999c-20 8.66699 -37 13 -51 13c-26.667 0 -44.667 -4.83301 -54 -14.5s-14 -25.834 -14 -48.501v-79h119v-75h-119v-436h-94v436h-56v75h56v69c0 98.667 39.667 148 119 148c38 0 69.333 -6.33301 94 -19zM522 633.001h-98v87h98v-87zM520 0.000976562h-94
v511h94v-511z" />
    <glyph glyph-name="uniFB02" unicode="fl" horiz-adv-x="607" 
d="M316 709v-68.999c-20 8.66699 -37 13 -51 13c-26.667 0 -44.667 -4.83301 -54 -14.5s-14 -25.834 -14 -48.501v-79h119v-75h-119v-436h-94v436h-56v75h56v69c0 98.667 39.667 148 119 148c38 0 69.333 -6.33301 94 -19zM520 0.000976562h-94v720h94v-720z" />
    <glyph glyph-name=".notdef" horiz-adv-x="500" 
d="M500 0h-500v700h500v-700zM80 650l170 -255l170 255h-340zM50 95l170 255l-170 255v-510zM280 350l170 -255v510zM80 50h340l-170 255z" />
    <glyph glyph-name="space" unicode=" " horiz-adv-x="244" 
 />
    <glyph glyph-name="exclam" unicode="!" horiz-adv-x="269" 
d="M168 174h-90.001v512h115c-1.33301 -11.333 -9.66602 -182 -24.999 -512zM185.999 0h-101v111h101v-111z" />
    <glyph glyph-name="quotedbl" unicode="&#x22;" horiz-adv-x="364" 
d="M146 539l-21 -132h-39l-22 132v147h82v-147zM300 539l-7 -42l-15 -90h-39l-21 132v147h82v-147z" />
    <glyph glyph-name="numbersign" unicode="#" horiz-adv-x="643" 
d="M508 486h105v-76h-122l-34 -155h116v-76h-133l-40 -179h-76l40 179h-150l-40 -179h-76l40 179h-110v76h127l34 155h-121v76h138l47 210h76l-47 -210h150l47 210h76zM265 410l-34 -155h150l34 155h-150z" />
    <glyph glyph-name="dollar" unicode="$" horiz-adv-x="546" 
d="M296 671c62 -3.33301 111.167 -20.0039 147.5 -50.0039s54.5 -72 54.5 -126v-12h-95v14c0 28.667 -11.833 50.667 -35.5 66s-54.834 23 -93.501 23c-39.333 0 -71.333 -6.83301 -96 -20.5s-37 -33.834 -37 -60.501c0 -20 6.66699 -36.167 20 -48.5s30 -22.166 50 -29.499
s48 -16 84 -26c46.667 -12 84.5 -24 113.5 -36s53.833 -30 74.5 -54s31 -55.667 31 -95c0 -61.333 -18.5 -108.666 -55.5 -141.999s-91.167 -51.666 -162.5 -54.999l11 -85h-73l10 86c-69.333 4.66699 -122.166 22.834 -158.499 54.501s-54.5 76.5 -54.5 134.5l1 18h95
l-1 -19c0 -34 12.833 -59.667 38.5 -77s60.167 -26 103.5 -26c101.333 0 152 32.333 152 97c0 21.333 -7 38.833 -21 52.5s-31.667 24.334 -53 32.001s-50.333 16.5 -87 26.5c-46 12.667 -83 24.667 -111 36s-52 28.333 -72 51s-30 52.667 -30 90
c0 58.667 17.833 102.5 53.5 131.5s84.167 45.5 145.5 49.5l-11 89h73z" />
    <glyph glyph-name="percent" unicode="%" horiz-adv-x="699" 
d="M177 0h-70l418 686h68zM245 650.5c22.667 -23 34 -51.833 34 -86.5v-107c0 -34.667 -11.5 -63.5 -34.5 -86.5s-51.833 -34.5 -86.5 -34.5h-7c-34.667 0 -63.5 11.5 -86.5 34.5s-34.5 51.833 -34.5 86.5v107c0 34.667 11.333 63.5 34 86.5s51.667 34.5 87 34.5h7
c35.333 0 64.333 -11.5 87 -34.5zM110.5 613.5c-11 -11 -16.5 -25.167 -16.5 -42.5v-121c0 -17.333 5.5 -31.5 16.5 -42.5s25.833 -16.5 44.5 -16.5s33.334 5.5 44.001 16.5s16 25.167 16 42.5v121c0 17.333 -5.33301 31.5 -16 42.5s-25.334 16.5 -44.001 16.5
s-33.5 -5.5 -44.5 -16.5zM634.5 313.5c23 -23 34.5 -51.833 34.5 -86.5v-107c0 -34.667 -11.333 -63.5 -34 -86.5s-51.667 -34.5 -87 -34.5h-7c-35.333 0 -64.333 11.5 -87 34.5s-34 51.833 -34 86.5v107c0 34.667 11.5 63.5 34.5 86.5s51.833 34.5 86.5 34.5h7
c34.667 0 63.5 -11.5 86.5 -34.5zM500.5 276.5c-11 -11 -16.5 -25.167 -16.5 -42.5v-121c0 -17.333 5.5 -31.5 16.5 -42.5s25.833 -16.5 44.5 -16.5s33.334 5.5 44.001 16.5s16 25.167 16 42.5v121c0 17.333 -5.33301 31.5 -16 42.5s-25.334 16.5 -44.001 16.5
s-33.5 -5.5 -44.5 -16.5z" />
    <glyph glyph-name="ampersand" unicode="&#x26;" horiz-adv-x="662" 
d="M361 689v-91.002c-18.667 6 -37.334 9 -56.001 9c-40.667 0 -73.167 -9.16699 -97.5 -27.5s-36.5 -43.833 -36.5 -76.5c0 -31.333 12.833 -57.166 38.5 -77.499s57.834 -30.5 96.501 -30.5h123l28 143h68v-143h108v-89h-108v-306h-225
c-72.667 0 -131.167 16.833 -175.5 50.5s-66.5 81.167 -66.5 142.5c0 82.667 42 136.334 126 161.001l3 2c-34.667 15.333 -62.167 35 -82.5 59s-30.5 52.667 -30.5 86c0 44 10.667 80.667 32 110s48.5 50.833 81.5 64.5s67.5 20.5 103.5 20.5c26 0 49.333 -2.33301 70 -7z
M313 305.998c-50.667 0 -89.5 -9.16797 -116.5 -27.501s-40.5 -45.166 -40.5 -80.499s13.833 -62.333 41.5 -81s66.5 -28 116.5 -28h113v217h-114z" />
    <glyph glyph-name="quotesingle" unicode="'" horiz-adv-x="210" 
d="M146 539l-22 -132h-39l-21 132v147h82v-147z" />
    <glyph glyph-name="parenleft" unicode="(" horiz-adv-x="289" 
d="M165 482c-22.667 -72.667 -34 -145 -34 -217s11.333 -143.833 34 -215.5s54.334 -140.5 95.001 -206.5h-52c-51.333 58.667 -90.666 124 -117.999 196s-41 147 -41 225s13.667 153.167 41 225.5s66.666 137.833 117.999 196.5h52
c-40.667 -63.333 -72.334 -131.333 -95.001 -204z" />
    <glyph glyph-name="parenright" unicode=")" horiz-adv-x="288" 
d="M199 489.5c27.333 -72.333 41 -147.167 41 -224.5c0 -78 -13.667 -153.167 -41 -225.5s-66.666 -137.833 -117.999 -196.5h-52c40 63.333 71.333 131.333 94 204s34 145.334 34 218.001c0 70.667 -11.5 142.667 -34.5 216s-54.167 141.666 -93.5 204.999h52
c51.333 -58.667 90.666 -124.167 117.999 -196.5z" />
    <glyph glyph-name="asterisk" unicode="*" horiz-adv-x="468" 
d="M259 519l158 65l23 -78l-165 -38l109 -125l-64 -49l-88 144l-87 -142l-64 48l111 125l-163 40l25 77l155 -66l-13 166h79z" />
    <glyph glyph-name="plus" unicode="+" 
d="M348 297h215v-84h-215v-213h-83v213h-214v84h214v214h83v-214z" />
    <glyph glyph-name="comma" unicode="," horiz-adv-x="238" 
d="M170 26l-35 -150h-52l27 124h-41v111h101v-85z" />
    <glyph glyph-name="hyphen" unicode="-" horiz-adv-x="391" 
d="M322 221h-253v98h253v-98z" />
    <glyph glyph-name="period" unicode="." horiz-adv-x="239" 
d="M170 0h-101v111h101v-111z" />
    <glyph glyph-name="slash" unicode="/" horiz-adv-x="600" 
d="M96 -171h-81l490 857h80z" />
    <glyph glyph-name="zero" unicode="0" 
d="M428.5 666c35 -20 62.832 -47.666 83.499 -82.999s31 -75 31 -119v-243c0 -43.333 -10 -82.5 -30 -117.5s-47.5 -62.667 -82.5 -83s-74.167 -30.5 -117.5 -30.5h-13c-44 0 -83.5 10.167 -118.5 30.5s-62.167 48.166 -81.5 83.499s-29 74.333 -29 117v243
c0 44.667 10.167 84.667 30.5 120s47.833 62.833 82.5 82.5s73.334 29.5 116.001 29.5h13c42 0 80.5 -10 115.5 -30zM208.999 568.501c-26.667 -25.667 -40 -57.832 -40 -96.499v-258c0 -38.667 13.333 -70.834 40 -96.501s59.334 -38.5 98.001 -38.5c40 0 73 13 99 39
s39 58 39 96v258c0 38 -13 70 -39 96s-59 39 -99 39c-38.667 0 -71.334 -12.833 -98.001 -38.5z" />
    <glyph glyph-name="one" unicode="1" 
d="M377 89h180v-89h-458v89h180v466h-182v64c79.333 8 160 30.333 242 67h38v-597z" />
    <glyph glyph-name="two" unicode="2" 
d="M438 667c33.333 -19.333 58.332 -44.332 74.999 -74.999s25 -63 25 -97c0 -48 -9.66699 -87.333 -29 -118s-50.333 -62.334 -93 -95.001l-191 -146c-15.333 -10.667 -27.166 -20.167 -35.499 -28.5s-12.5 -14.5 -12.5 -18.5h364v-89h-471v24c0 34 8.16699 66.5 24.5 97.5
s39.166 57.5 68.499 79.5l199 150c28 22.667 48 45 60 67s18 46.333 18 73c0 20 -5 38.833 -15 56.5s-24.667 32 -44 43s-42.666 16.5 -69.999 16.5c-28 0 -52.833 -6 -74.5 -18s-38.5 -28 -50.5 -48s-18 -42 -18 -66v-14c0 -5.33301 0.333008 -9.33301 1 -12h-98l-1 10v8
c0 38.667 8.66699 75.5 26 110.5s44.333 63.5 81 85.5s83 33 139 33c48 0 88.667 -9.66699 122 -29z" />
    <glyph glyph-name="three" unicode="3" 
d="M424 672c34 -16 60.3359 -38.168 79.0029 -66.501s28 -60.166 28 -95.499c0 -38 -9.5 -69.167 -28.5 -93.5s-45.833 -44.5 -80.5 -60.5l1 -3c38 -12 68.167 -32.167 90.5 -60.5s33.5 -64.5 33.5 -108.5c0 -37.333 -10.333 -70.666 -31 -99.999
s-49.334 -52.333 -86.001 -69s-77.334 -25 -122.001 -25h-12c-72.667 0 -130.5 18.167 -173.5 54.5s-64.5 86.166 -64.5 149.499v8h98v-11c0 -36.667 12.333 -64.5 37 -83.5s60 -28.5 106 -28.5c47.333 0 84.166 9.5 110.499 28.5s39.5 47.833 39.5 86.5
c0 73.333 -51.333 110 -154 110h-75v90h77c40.667 0 73.5 9.33301 98.5 28s37.5 45.334 37.5 80.001c0 34 -12.167 60 -36.5 78s-56.833 27 -97.5 27c-38 0 -68.667 -9.33301 -92 -28s-35 -44.667 -35 -78v-9h-98v18c0 36.667 9.83301 69.167 29.5 97.5
s46.667 50.166 81 65.499s72.5 23 114.5 23h9c43.333 0 82 -8 116 -24z" />
    <glyph glyph-name="four" unicode="4" 
d="M270 460.5c-46.667 -90.333 -88.999 -157.834 -126.999 -202.501h230v199c22.667 44.667 40.667 90.334 54 137.001h44v-336h87v-89h-87v-169h-98v169h-323v90c90.667 136 161.667 281.667 213 437h105c-18.667 -66.667 -51.334 -145.167 -98.001 -235.5z" />
    <glyph glyph-name="five" unicode="5" 
d="M509 597l-303.998 0.00195312l-15 -201c43.333 34 86.666 51 129.999 51c76.667 0 133.334 -20.833 170.001 -62.5s55 -95.834 55 -162.501c0 -45.333 -9.83301 -85.5 -29.5 -120.5s-47.334 -62.333 -83.001 -82s-77.167 -29.5 -124.5 -29.5
c-44.667 0 -85 9.66699 -121 29s-64.167 46 -84.5 80s-30.833 72.333 -31.5 115h98c1.33301 -38.667 15.166 -70.834 41.499 -96.501s58.833 -38.5 97.5 -38.5c41.333 0 74.833 13.167 100.5 39.5s38.5 61.833 38.5 106.5c0 40 -13 73 -39 99s-58 39 -96 39
c-56.667 0 -99.667 -23 -129 -69l-88 13l28 379h386v-89z" />
    <glyph glyph-name="six" unicode="6" 
d="M429.5 668c35 -18.667 62.3311 -44.8359 81.998 -78.5029s29.5 -72.5 29.5 -116.5h-98c0 41.333 -12 74 -36 98s-56.333 36 -97 36c-24 0 -46.167 -6 -66.5 -18s-36.5 -28.167 -48.5 -48.5s-18 -42.5 -18 -66.5v-108c41.333 44 93 66 155 66
c40 0 76.833 -9.33301 110.5 -28s60.334 -44.167 80.001 -76.5s29.5 -67.833 29.5 -106.5c0 -45.333 -10 -85.5 -30 -120.5s-48 -62.167 -84 -81.5s-76.667 -29 -122 -29s-86 9.83301 -122 29.5s-64.167 47.334 -84.5 83.001s-30.5 75.834 -30.5 120.501v242
c0 41.333 10.333 79.833 31 115.5s48.834 63.834 84.501 84.501s74.167 31 115.5 31c44.667 0 84.5 -9.33301 119.5 -28zM216.998 305.498c-26.667 -25 -40 -56.498 -40 -94.498s13.333 -69.5 40 -94.5s59.667 -37.5 99 -37.5s72.166 12.167 98.499 36.5
s39.5 56.166 39.5 95.499s-13.167 71.166 -39.5 95.499s-59.166 36.5 -98.499 36.5s-72.333 -12.5 -99 -37.5z" />
    <glyph glyph-name="seven" unicode="7" 
d="M555 633c-82.667 -97.333 -147.167 -195.667 -193.5 -295s-69.5 -195 -69.5 -287v-23l2 -28h-114c0 189.333 83.333 388.333 250 597h-357v89h482v-53z" />
    <glyph glyph-name="eight" unicode="8" 
d="M464.5 644c39.667 -34.667 59.501 -81 59.501 -139c0 -36 -7.5 -65.333 -22.5 -88s-38.5 -43.667 -70.5 -63v-4c38 -17.333 66.833 -38.666 86.5 -63.999s29.5 -59 29.5 -101c0 -61.333 -20.833 -109.166 -62.5 -143.499s-100.834 -51.5 -177.501 -51.5
c-73.333 0 -131.666 17.167 -174.999 51.5s-65 82.166 -65 143.499c0 42 10 76.167 30 102.5s48.667 47.166 86 62.499v4c-36.667 22.667 -61.334 45 -74.001 67s-19 48 -19 78c0 64 20 112.833 60 146.5s92.333 50.5 157 50.5c65.333 0 117.833 -17.333 157.5 -52z
M220.501 577c-21.667 -20 -32.5 -45.333 -32.5 -76s10.833 -56 32.5 -76s50.5 -30 86.5 -30s64.833 10 86.5 30s32.5 45.333 32.5 76s-10.833 56 -32.5 76s-50.5 30 -86.5 30s-64.833 -10 -86.5 -30zM176.001 242c-7.33301 -16 -11 -32.666 -11 -49.999
c0 -37.333 13.333 -65.5 40 -84.5s60.667 -28.5 102 -28.5c42 0 76.167 9.83301 102.5 29.5s39.5 47.5 39.5 83.5c0 35.333 -12.833 63.166 -38.5 83.499s-60.167 30.5 -103.5 30.5c-65.333 0 -109 -21.333 -131 -64z" />
    <glyph glyph-name="nine" unicode="9" 
d="M421.5 666c35.667 -20 63.6699 -47.666 84.0029 -82.999s30.5 -75.333 30.5 -120v-242c0 -41.333 -10.333 -79.833 -31 -115.5s-48.834 -63.834 -84.501 -84.501s-74.167 -31 -115.5 -31c-45.333 0 -85.5 9.5 -120.5 28.5s-62.167 45.333 -81.5 79s-29 72.167 -29 115.5
h98c0 -41.333 12 -74 36 -98s56.333 -36 97 -36c24 0 46.167 6 66.5 18s36.5 28.167 48.5 48.5s18 42.5 18 66.5v108c-40.667 -44 -92.334 -66 -155.001 -66c-40 0 -76.833 9.33301 -110.5 28s-60.334 44.167 -80.001 76.5s-29.5 67.833 -29.5 106.5
c0 45.333 10 85.5 30 120.5s47.833 62.167 83.5 81.5s76.5 29 122.5 29s86.833 -10 122.5 -30zM200.503 570.501c-26.333 -24.333 -39.5 -56.1699 -39.5 -95.5029s13.167 -71.166 39.5 -95.499s59.166 -36.5 98.499 -36.5s72.333 12.333 99 37s40 56.334 40 95.001
s-13.333 70.334 -40 95.001s-59.667 37 -99 37s-72.166 -12.167 -98.499 -36.5z" />
    <glyph glyph-name="colon" unicode=":" horiz-adv-x="239" 
d="M170 399h-101v112h101v-112zM170 0h-101v111h101v-111z" />
    <glyph glyph-name="semicolon" unicode=";" horiz-adv-x="239" 
d="M170 399h-101v112h101v-112zM170 26l-35 -150h-52l27 124h-41v111h101v-85z" />
    <glyph glyph-name="less" unicode="&#x3c;" 
d="M553 414l-429 -160l429 -160v-90l-509 196v107l509 197v-90z" />
    <glyph glyph-name="equal" unicode="=" 
d="M559 318h-504v84h504v-84zM559 106h-504v83h504v-83z" />
    <glyph glyph-name="greater" unicode="&#x3e;" 
d="M571 307v-106.999l-509 -196v90l24 9c8.66699 3.33301 18 6.66602 28 9.99902l376 141l-408 152l-20 8v90z" />
    <glyph glyph-name="question" unicode="?" horiz-adv-x="502" 
d="M366.5 667.5c31.667 -19 55.5029 -44.166 71.5029 -75.499s24 -64.666 24 -99.999c0 -38 -8.33301 -69.167 -25 -93.5s-40 -49.5 -70 -75.5c-20.667 -18.667 -35.834 -34.334 -45.501 -47.001s-14.5 -26.667 -14.5 -42v-49h-100v64c0 22.667 6.66699 43.167 20 61.5
s33 39.833 59 64.5c26 25.333 45.333 46.666 58 63.999s19 37 19 59c0 31.333 -11.333 57.333 -34 78s-50.667 31 -84 31c-36.667 0 -65.834 -10.333 -87.501 -31s-32.5 -47.667 -32.5 -81l2 -37h-98c-2 8 -3 20.667 -3 38c0 32 8.66699 63.333 26 94s42.666 56 75.999 76
s72.666 30 117.999 30h6c44.667 0 82.834 -9.5 114.501 -28.5zM309.003 0.000976562h-104v111h104v-111z" />
    <glyph glyph-name="at" unicode="@" horiz-adv-x="885" 
d="M750.5 602.5c69.667 -63 104.499 -154.497 104.499 -274.497c0 -73.333 -9 -132.833 -27 -178.5s-41.167 -78.334 -69.5 -98.001s-58.5 -29.5 -90.5 -29.5c-33.333 0 -58 7.16699 -74 21.5s-25 36.166 -27 65.499l-3 -3c-36.667 -56 -92 -84 -166 -84
c-52.667 0 -92 11.333 -118 34s-39 58.667 -39 108c0 39.333 10.167 70.166 30.5 92.499s53.5 38.5 99.5 48.5s109.667 15 191 15v44c0 31.333 -9.33301 53.666 -28 66.999s-46 20 -82 20c-33.333 0 -59.5 -6.83301 -78.5 -20.5s-28.5 -32.167 -28.5 -55.5v-11h-86
c-1.33301 9.33301 -2 19.666 -2 30.999c0 20.667 8.16699 40.834 24.5 60.501s39.5 35.5 69.5 47.5s64.333 18 103 18h9c62.667 0 109.667 -12.667 141 -38s47 -61.666 47 -108.999v-245c0 -25.333 12.333 -38 37 -38c34.667 0 61.334 19.667 80.001 59s28 99.333 28 180
c0 100 -29.333 177 -88 231s-142 81 -250 81c-115.333 0 -204.333 -32.5 -267 -97.5s-94 -157.833 -94 -278.5c0 -124 26.5 -215.667 79.5 -275s135.5 -89 247.5 -89c31.333 0 64 3.83301 98 11.5s56.333 14.5 67 20.5v-60c-24.667 -10 -53.834 -17 -87.501 -21
s-59.5 -6 -77.5 -6c-126.667 0 -222.667 35 -288 105s-98 175.333 -98 316c0 94.667 17.5 174 52.5 238s84.167 111.833 147.5 143.5s137 47.5 221 47.5c124.667 0 221.834 -31.5 291.501 -94.5zM413.999 241.003c-33.333 -6.66699 -55.834 -16.5 -67.501 -29.5
s-17.5 -30.833 -17.5 -53.5c0 -44 33 -66 99 -66c38 0 69.833 13.5 95.5 40.5s38.5 60.5 38.5 100.5v18c-65.333 0 -114.666 -3.33301 -147.999 -10z" />
    <glyph glyph-name="A" unicode="A" horiz-adv-x="652" 
d="M648 0h-106l-58 149h-328l-57 -149h-95l268 686h108zM318 568l-127 -330h259l-126 330h-6z" />
    <glyph glyph-name="B" unicode="B" horiz-adv-x="651" 
d="M486 663.5c27.333 -15 49.167 -35.333 65.5 -61s24.5 -53.834 24.5 -84.501c0 -40.667 -10 -74.667 -30 -102s-50 -46.666 -90 -57.999v-5c39.333 -6 71.833 -23.667 97.5 -53s38.5 -67 38.5 -113c0 -36.667 -8.83301 -69.167 -26.5 -97.5s-41.167 -50.333 -70.5 -66
s-60.333 -23.5 -93 -23.5h-310v686h304c32.667 0 62.667 -7.5 90 -22.5zM190.001 597l-0.000976562 -203h186c26.667 0 50.334 9.66699 71.001 29s31 43.333 31 72c0 28 -10 52 -30 72s-44 30 -72 30h-186zM190 305v-216h196c30 0 55.5 10.5 76.5 31.5s31.5 46.5 31.5 76.5
s-10.5 55.5 -31.5 76.5s-46.5 31.5 -76.5 31.5h-196z" />
    <glyph glyph-name="C" unicode="C" horiz-adv-x="663" 
d="M484 663c40 -22 70.833 -53.501 92.5 -94.501s32.5 -89.5 32.5 -145.5h-98c0 58 -14.333 103.167 -43 135.5s-70 48.5 -124 48.5c-60 0 -105.667 -18.5 -137 -55.5s-47 -91.5 -47 -163.5v-90c0 -71.333 15.333 -125.666 46 -162.999s76 -56 136 -56
c56 0 98.833 16 128.5 48s44.5 76.667 44.5 134h94c0 -55.333 -10.833 -103.333 -32.5 -144s-52.5 -72 -92.5 -94s-86.667 -33 -140 -33c-88.667 0 -157.834 27.167 -207.501 81.5s-74.5 129.833 -74.5 226.5v90c0 96 24.833 171.333 74.5 226s118.834 82 207.501 82
c53.333 0 100 -11 140 -33z" />
    <glyph glyph-name="D" unicode="D" horiz-adv-x="675" 
d="M480 648.5c42.667 -25 75.667 -60.667 99 -107s35 -100.833 35 -163.5v-70c0 -62.667 -11.667 -117.167 -35 -163.5s-56.333 -82 -99 -107s-92.667 -37.5 -150 -37.5h-238v686h238c57.333 0 107.333 -12.5 150 -37.5zM190 597l0.00195312 -508.001h140
c59.333 0 105.166 18.5 137.499 55.5s48.5 91.5 48.5 163.5v70c0 70.667 -15.833 124.834 -47.5 162.501s-77.834 56.5 -138.501 56.5h-140z" />
    <glyph glyph-name="E" unicode="E" horiz-adv-x="593" 
d="M529 597h-339v-202h307v-89h-307v-217h345l14 -89h-457v686h450z" />
    <glyph glyph-name="F" unicode="F" horiz-adv-x="550" 
d="M511 597h-321v-209h280v-89h-280v-299h-98v686h432z" />
    <glyph glyph-name="G" unicode="G" horiz-adv-x="677" 
d="M483.5 665c39.667 -20.667 70.167 -49.998 91.5 -87.998s32 -82 32 -132h-98c0 51.333 -14.167 91.166 -42.5 119.499s-69.166 42.5 -122.499 42.5c-60 0 -105.667 -18.5 -137 -55.5s-47 -91.5 -47 -163.5v-90c0 -72 15.5 -126.5 46.5 -163.5s76.833 -55.5 137.5 -55.5
c58 0 100.333 14.5 127 43.5s40 75.167 40 138.5v13h-194v88h290v-234c0 -55.333 2 -98 6 -128h-58c-8.66699 27.333 -15.334 54.666 -20.001 81.999c-43.333 -61.333 -107 -92 -191 -92c-88.667 0 -157.834 27.167 -207.501 81.5s-74.5 129.833 -74.5 226.5v90
c0 96 24.833 171.333 74.5 226s118.834 82 207.501 82c53.333 0 99.833 -10.333 139.5 -31z" />
    <glyph glyph-name="H" unicode="H" horiz-adv-x="693" 
d="M601 0h-98v306h-313v-306h-98v686h98v-291h313v291h98v-686z" />
    <glyph glyph-name="I" unicode="I" horiz-adv-x="364" 
d="M311 597h-80v-508h80v-89h-258v89h80v508h-80v89h258v-89z" />
    <glyph glyph-name="J" unicode="J" horiz-adv-x="526" 
d="M439 187c0 -60.667 -18.665 -108.668 -55.998 -144.001s-86.333 -53 -147 -53h-9c-60.667 0 -108.834 17 -144.501 51s-53.5 82.667 -53.5 146v21h98v-27c0 -30 10.167 -54.5 30.5 -73.5s46.166 -28.5 77.499 -28.5s56.833 9.33301 76.5 28s29.5 43.334 29.5 74.001v505
h98v-499z" />
    <glyph glyph-name="K" unicode="K" horiz-adv-x="623" 
d="M349 383l260 -383h-114l-208 308l-97 -102v-206h-98v686h98v-357l298 357h113z" />
    <glyph glyph-name="L" unicode="L" horiz-adv-x="536" 
d="M190 89h315l14 -89h-427v686h98v-597z" />
    <glyph glyph-name="M" unicode="M" horiz-adv-x="938" 
d="M846 0h-98v571h-6l-237 -571h-83l-236 571h-5v-571h-89v686h154l221 -540h4l222 540h153v-686z" />
    <glyph glyph-name="N" unicode="N" horiz-adv-x="694" 
d="M602 0h-83l-335 502l-3 -1v-501h-89v686h86l332 -496l3 1v495h89v-686z" />
    <glyph glyph-name="O" unicode="O" horiz-adv-x="690" 
d="M494 659c42.667 -24.667 75.834 -60.167 99.501 -106.5s35.5 -101.166 35.5 -164.499v-90c0 -63.333 -11.833 -118.166 -35.5 -164.499s-56.834 -81.833 -99.501 -106.5s-92.334 -37 -149.001 -37s-106.334 12.333 -149.001 37s-75.834 60.167 -99.501 106.5
s-35.5 101.166 -35.5 164.499v90c0 63.333 11.833 118.166 35.5 164.499s56.834 81.833 99.501 106.5s92.334 37 149.001 37s106.334 -12.333 149.001 -37zM208 551c-32.667 -37.333 -49 -91.667 -49 -163v-90c0 -71.333 15.833 -125.666 47.5 -162.999
s77.834 -56 138.501 -56c58.667 0 104.334 18.5 137.001 55.5s49 91.5 49 163.5v90c0 71.333 -15.833 125.666 -47.5 162.999s-77.834 56 -138.501 56c-58.667 0 -104.334 -18.667 -137.001 -56z" />
    <glyph glyph-name="P" unicode="P" horiz-adv-x="624" 
d="M493 660c31.333 -17.333 55.833 -41.168 73.5 -71.501s26.5 -64.5 26.5 -102.5s-8.83301 -72.167 -26.5 -102.5s-42.167 -54.166 -73.5 -71.499s-66.333 -26 -105 -26h-198v-286h-98v686h296c38.667 0 73.667 -8.66699 105 -26zM190 596.998v-222h189
c31.333 0 58.5 10.833 81.5 32.5s34.5 47.834 34.5 78.501c0 31.333 -11.5 57.666 -34.5 78.999s-50.167 32 -81.5 32h-189z" />
    <glyph glyph-name="Q" unicode="Q" horiz-adv-x="690" 
d="M494 659c42.667 -24.667 75.8301 -60.167 99.4971 -106.5s35.5 -101.166 35.5 -164.499v-90c0 -83.333 -20 -151.833 -60 -205.5s-95.667 -86.167 -167 -97.5c6 -22.667 17.833 -39.167 35.5 -49.5s38.834 -15.5 63.501 -15.5c30 0 65 8 105 24l12 4v-70
c-38.667 -22 -78.334 -33 -119.001 -33c-65.333 0 -112 12.5 -140 37.5s-46 58.167 -54 99.5c-77.333 9.33301 -137.333 40.833 -180 94.5s-64 124.167 -64 211.5v90c0 63.333 11.833 118.166 35.5 164.499s56.834 81.833 99.501 106.5s92.334 37 149.001 37
s106.334 -12.333 149.001 -37zM207.996 551c-32.667 -37.333 -49 -91.667 -49 -163v-90c0 -71.333 15.833 -125.666 47.5 -162.999s77.834 -56 138.501 -56c58.667 0 104.334 18.5 137.001 55.5s49 91.5 49 163.5v90c0 71.333 -15.833 125.666 -47.5 162.999
s-77.834 56 -138.501 56c-58.667 0 -104.334 -18.667 -137.001 -56z" />
    <glyph glyph-name="R" unicode="R" horiz-adv-x="670" 
d="M533.5 643c39 -28.667 58.5 -67.999 58.5 -117.999c0 -44.667 -11.833 -82.667 -35.5 -114s-52.834 -50.333 -87.501 -57v-5c32 -12.667 58.333 -34.667 79 -66s31 -69 31 -113c0 -36.667 2 -64.334 6 -83.001s9.33301 -31.667 16 -39s16.334 -13 29.001 -17v-28
c-14.667 -6 -30.334 -9 -47.001 -9c-32 0 -57 9.5 -75 28.5s-27 54.833 -27 107.5c0 54 -11.167 96.167 -33.5 126.5s-50.166 45.5 -83.499 45.5h-174v-302h-98v686h292c60.667 0 110.5 -14.333 149.5 -43zM190 597.001v-206h195c28.667 0 54 9.66699 76 29s33 43.333 33 72
v4c0 29.333 -10 53.5 -30 72.5s-46.333 28.5 -79 28.5h-195z" />
    <glyph glyph-name="S" unicode="S" horiz-adv-x="627" 
d="M491.5 646c43 -33.333 64.5039 -80.6689 64.5039 -142.002v-12h-98v15c0 32 -13 56.667 -39 74s-60.333 26 -103 26c-47.333 0 -84.166 -7.83301 -110.499 -23.5s-39.5 -38.167 -39.5 -67.5c0 -22 7.5 -40 22.5 -54s33.667 -25 56 -33s53.166 -17 92.499 -27
c50.667 -13.333 91.667 -26.333 123 -39s58.166 -31.667 80.499 -57s33.5 -59 33.5 -101c0 -74.667 -22.833 -129.167 -68.5 -163.5s-109.834 -51.5 -192.501 -51.5s-146.834 17.5 -192.501 52.5s-68.5 85.833 -68.5 152.5l1 20h98l-1 -21c0 -38.667 14.5 -67.5 43.5 -86.5
s69.167 -28.5 120.5 -28.5c50 0 89.5 9.16699 118.5 27.5s43.5 43.5 43.5 75.5c0 25.333 -7.83301 45.833 -23.5 61.5s-35.334 27.834 -59.001 36.501s-55.834 18.334 -96.501 29.001c-50 13.333 -90 26 -120 38s-55.667 30.5 -77 55.5s-32 57.833 -32 98.5
c0 66 22.333 115 67 147s104.334 48 179.001 48c75.333 0 134.5 -16.667 177.5 -50z" />
    <glyph glyph-name="T" unicode="T" horiz-adv-x="578" 
d="M553 597h-215v-597h-98v597h-215v89h528v-89z" />
    <glyph glyph-name="U" unicode="U" horiz-adv-x="680" 
d="M594 219c0 -45.333 -10.167 -85.334 -30.5 -120.001s-49.333 -61.5 -87 -80.5s-81.167 -28.5 -130.5 -28.5h-13c-49.333 0 -92.5 9.33301 -129.5 28s-65.833 45.334 -86.5 80.001s-31 75 -31 121v467h98v-465c0 -42.667 14.833 -77 44.5 -103s67.5 -39 113.5 -39
c47.333 0 84.833 13 112.5 39s41.5 60.333 41.5 103v465h98v-467z" />
    <glyph glyph-name="V" unicode="V" horiz-adv-x="603" 
d="M354 0h-105l-244 686h105l193 -553h6l194 553h95z" />
    <glyph glyph-name="W" unicode="W" horiz-adv-x="916" 
d="M702 0h-100l-140 496h-7l-145 -496h-100l-196 686h105l145 -517h6l146 517h95l145 -517h6l146 517h95z" />
    <glyph glyph-name="X" unicode="X" horiz-adv-x="631" 
d="M372 361l249 -361h-118l-190 276l-195 -276h-109l250 355l-227 330h118l168 -245l117 167l41 58l14 20h109z" />
    <glyph glyph-name="Y" unicode="Y" horiz-adv-x="572" 
d="M335 265v-265h-98v265l-242 421h112l183 -319h4l181 319h101z" />
    <glyph glyph-name="Z" unicode="Z" horiz-adv-x="596" 
d="M547 648l-366 -559h374v-89h-523v38l365 559h-341v89h491v-38z" />
    <glyph glyph-name="bracketleft" unicode="[" horiz-adv-x="293" 
d="M254 631h-88v-737h88v-55h-169v847h169v-55z" />
    <glyph glyph-name="backslash" unicode="\" horiz-adv-x="600" 
d="M585 -171h-81l-489 857h80z" />
    <glyph glyph-name="bracketright" unicode="]" horiz-adv-x="293" 
d="M208 -161h-169v55h88v737h-88v55h169v-847z" />
    <glyph glyph-name="asciicircum" unicode="^" horiz-adv-x="596" 
d="M546 0h-84l-140 358l-12 32l-12 31l-165 -421h-84l197 511h103z" />
    <glyph glyph-name="underscore" unicode="_" horiz-adv-x="694" 
d="M597 -124h-500v60h500v-60z" />
    <glyph glyph-name="grave" unicode="`" horiz-adv-x="333" 
d="M253 575h-70l-115 142l1 3h89z" />
    <glyph glyph-name="a" unicode="a" horiz-adv-x="585" 
d="M434.5 481c33 -26.667 49.5029 -65.334 49.5029 -116.001v-265c0 -12 2.66699 -20.833 8 -26.5s12 -8.5 20 -8.5c15.333 0 30.666 4.66699 45.999 14v-69c-22.667 -13.333 -48.334 -20 -77.001 -20s-50 8.16699 -64 24.5s-21.667 38.833 -23 67.5
c-41.333 -61.333 -101 -92 -179 -92c-56 0 -97.833 12.167 -125.5 36.5s-41.5 62.833 -41.5 115.5c0 41.333 10.667 73.833 32 97.5s56.666 40.834 105.999 51.501s117.333 16 204 16v47c0 34 -10 57.833 -30 71.5s-49 20.5 -87 20.5c-36 0 -64 -7 -84 -21
s-30 -33.667 -30 -59v-12h-92c-1.33301 9.33301 -2 20.333 -2 33c0 23.333 9.33301 45.333 28 66s44 37.167 76 49.5s67.333 18.5 106 18.5h9c67.333 0 117.5 -13.333 150.5 -40zM231.503 223.5c-35.667 -7 -59.5 -17.5 -71.5 -31.5s-18 -33.333 -18 -58
c0 -46 35 -69 105 -69c24.667 0 48 6.16699 70 18.5s39.667 29.833 53 52.5s20 48.667 20 78v20c-70 0 -122.833 -3.5 -158.5 -10.5z" />
    <glyph glyph-name="b" unicode="b" horiz-adv-x="583" 
d="M177 446c15.333 22 36.167 40 62.5 54s54.833 21 85.5 21c65.333 0 116 -22.833 152 -68.5s54 -107.5 54 -185.5v-11c0 -82.667 -18.5 -147.667 -55.5 -195s-87.5 -71 -151.5 -71c-76 0 -133.333 30.333 -172 91l-33 -81h-36v720h94v-274zM207.501 399.5
c-21 -31 -31.5 -79.167 -31.5 -144.5s10.667 -113.333 32 -144s54 -46 98 -46c87.333 0 131 63.333 131 190c0 65.333 -11 113.5 -33 144.5s-54.667 46.5 -98 46.5c-44.667 0 -77.5 -15.5 -98.5 -46.5z" />
    <glyph glyph-name="c" unicode="c" horiz-adv-x="544" 
d="M392.5 494.5c32.333 -17.667 57.499 -42.499 75.499 -74.499s27 -68.667 27 -110h-93c0 41.333 -10.5 74.333 -31.5 99s-51.167 37 -90.5 37c-41.333 0 -74.166 -13.833 -98.499 -41.5s-36.5 -65.5 -36.5 -113.5v-54c0 -58 12 -101.167 36 -129.5s58 -42.5 102 -42.5
c40.667 0 71.167 12.167 91.5 36.5s30.5 57.166 30.5 98.499h90c0 -64 -19.167 -115 -57.5 -153s-89.5 -57 -153.5 -57h-8c-45.333 0 -85 10.5 -119 31.5s-60.167 50.5 -78.5 88.5s-27.5 82.333 -27.5 133v24c0 50.667 9.33301 95.167 28 133.5s45 68 79 89
s73 31.5 117 31.5h8c40.667 0 77.167 -8.83301 109.5 -26.5z" />
    <glyph glyph-name="d" unicode="d" horiz-adv-x="583" 
d="M500 0l-69.999 0.000976562c-4.66699 21.333 -9 44.666 -13 69.999c-38 -53.333 -90.667 -80 -158 -80c-64 0 -114.5 23.667 -151.5 71s-55.5 112.333 -55.5 195v11c0 78 18.167 139.833 54.5 185.5s87.166 68.5 152.499 68.5c63.333 0 112.333 -25 147 -75v274h94v-720z
M177.501 399.501c-21 -31 -31.5 -79.167 -31.5 -144.5s10.667 -113.333 32 -144s54 -46 98 -46c87.333 0 131 63.333 131 190c0 65.333 -11 113.5 -33 144.5s-54.667 46.5 -98 46.5c-44.667 0 -77.5 -15.5 -98.5 -46.5z" />
    <glyph glyph-name="e" unicode="e" horiz-adv-x="556" 
d="M399.5 494.5c32.333 -17.667 57.4961 -42.833 75.4961 -75.5s27 -70.667 27 -114v-71h-357c1.33301 -54 14 -95.667 38 -125s59.667 -44 107 -44c42 0 73 12.333 93 37s30 54 30 88h89c0 -40 -9.16699 -75 -27.5 -105s-43.666 -53.333 -75.999 -70
s-69.166 -25 -110.499 -25h-4c-72 0 -128.833 23.167 -170.5 69.5s-62.5 108.166 -62.5 185.499v20c0 50.667 9.33301 95.334 28 134.001s45.334 68.667 80.001 90s75.334 32 122.001 32h7c42 0 79.167 -8.83301 111.5 -26.5zM190.496 411.001
c-23.667 -23.333 -38.167 -58 -43.5 -104h262v12c0 38 -11.5 68.667 -34.5 92s-53.5 35 -91.5 35s-68.833 -11.667 -92.5 -35z" />
    <glyph glyph-name="f" unicode="f" horiz-adv-x="338" 
d="M316 709v-68.999c-20 8.66699 -37 13 -51 13c-26.667 0 -44.667 -4.83301 -54 -14.5s-14 -25.834 -14 -48.501v-79h119v-75h-119v-436h-94v436h-56v75h56v69c0 98.667 39.667 148 119 148c38 0 69.333 -6.33301 94 -19z" />
    <glyph glyph-name="g" unicode="g" horiz-adv-x="568" 
d="M524 517.5c-18 -23 -43.001 -37.835 -75.001 -44.502l-2 -3c33.333 -29.333 50 -66 50 -110c0 -48 -18 -86.667 -54 -116s-85 -44 -147 -44h-68c-20 0 -36.667 -5.16699 -50 -15.5s-20 -23.5 -20 -39.5s6.33301 -28.667 19 -38s29.667 -14 51 -14h193
c39.333 0 70.833 -12.333 94.5 -37s35.5 -56 35.5 -94c0 -45.333 -17.167 -81.666 -51.5 -108.999s-80.5 -41 -138.5 -41h-201c-22.667 0 -43.5 6 -62.5 18s-34 27.167 -45 45.5s-16.5 37.166 -16.5 56.499c0 28 6.83301 52.333 20.5 73s31.834 36 54.501 46
c-30.667 18.667 -46 46.334 -46 83.001c0 24 7 44.667 21 62s33.667 30.333 59 39c-44.667 24.667 -67 66.334 -67 125.001c0 49.333 18.167 88.5 54.5 117.5s86.833 43.5 151.5 43.5h4c37.333 0 71.333 -5.66699 102 -17c47.333 23.333 74.333 56.333 81 99h80
c0 -34 -9 -62.5 -27 -85.5zM202.499 425.498c-21 -13.667 -31.5 -35.5 -31.5 -65.5s10.5 -51.667 31.5 -65s49.167 -20 84.5 -20s63.666 6.66699 84.999 20s32 35 32 65s-10.667 51.833 -32 65.5s-49.666 20.5 -84.999 20.5s-63.5 -6.83301 -84.5 -20.5zM186.999 2.99805
c-16 0 -29.666 -5.66699 -40.999 -17s-17 -25 -17 -41s5.66699 -29.667 17 -41s25 -17 41 -17h193c21.333 0 39.666 6.16699 54.999 18.5s23 26.5 23 42.5c0 16.667 -5.66699 30 -17 40s-27.333 15 -48 15h-206z" />
    <glyph glyph-name="h" unicode="h" horiz-adv-x="593" 
d="M177 447c42 49.333 94.668 74.001 158.001 74.001c56 0 100 -15 132 -45s48 -74 48 -132v-344h-94v327c0 79.333 -36 119 -108 119c-24 0 -46.333 -6.33301 -67 -19s-37.334 -29.834 -50.001 -51.501s-19 -45.5 -19 -71.5v-304h-94v720h94v-273z" />
    <glyph glyph-name="i" unicode="i" horiz-adv-x="260" 
d="M179 633h-98v87h98v-87zM177 0h-94v511h94v-511z" />
    <glyph glyph-name="j" unicode="j" horiz-adv-x="260" 
d="M179 633h-98v87h98v-87zM177 -15c0 -60.667 -9.33203 -104.333 -27.999 -131s-51 -40 -97 -40c-34.667 0 -63.334 6.33301 -86.001 19v70c22 -10 39.333 -15 52 -15c24.667 0 41.667 5.16699 51 15.5s14 27.833 14 52.5v555h94v-526z" />
    <glyph glyph-name="k" unicode="k" horiz-adv-x="535" 
d="M177 226l228 285h103l-197 -248l210 -263h-114l-153 190l-77 -80v-110h-94v720h94v-494z" />
    <glyph glyph-name="l" unicode="l" horiz-adv-x="268" 
d="M181 0h-94v720h94v-720z" />
    <glyph glyph-name="m" unicode="m" horiz-adv-x="867" 
d="M745 475c29.333 -30.667 43.9971 -74.3311 43.9971 -130.998v-344h-94v327c0 79.333 -30.667 119 -92 119c-21.333 0 -41.166 -6.33301 -59.499 -19s-33 -29.834 -44 -51.501s-16.5 -45.5 -16.5 -71.5v-304h-94v327c0 79.333 -30.667 119 -92 119
c-21.333 0 -41.166 -6.33301 -59.499 -19s-33 -29.834 -44 -51.501s-16.5 -45.5 -16.5 -71.5v-304h-94v511h68l13 -75c38.667 56.667 92.334 85 161.001 85c67.333 0 114 -28.333 140 -85c22.667 32 47 54.167 73 66.5s54 18.5 84 18.5c52.667 0 93.667 -15.333 123 -46z
" />
    <glyph glyph-name="n" unicode="n" horiz-adv-x="593" 
d="M467 476c32 -30 48.001 -73.999 48.001 -131.999v-344h-94v327c0 79.333 -36 119 -108 119c-24 0 -46.333 -6.33301 -67 -19s-37.334 -29.834 -50.001 -51.501s-19 -45.5 -19 -71.5v-304h-94v511h68l13 -75c42.667 56.667 99.667 85 171 85c56 0 100 -15 132 -45z" />
    <glyph glyph-name="o" unicode="o" horiz-adv-x="574" 
d="M458 455c42.667 -44 64 -104.333 64 -181v-37c0 -76.667 -21 -137 -63 -181s-99.333 -66 -172 -66s-130 22 -172 66s-63 104.333 -63 181v37c0 76.667 21.333 137 64 181s99.667 66 171 66s128.333 -22 171 -66zM183 400c-24.667 -30.667 -36.999 -75.667 -36.999 -135
v-19c0 -58 12.167 -102.667 36.5 -134s59.166 -47 104.499 -47c44 0 78.5 15.5 103.5 46.5s37.5 75.833 37.5 134.5v19c0 58 -12.167 102.667 -36.5 134s-59.166 47 -104.499 47c-44.667 0 -79.334 -15.333 -104.001 -46z" />
    <glyph glyph-name="p" unicode="p" horiz-adv-x="583" 
d="M476 450c36.667 -47.333 54.998 -112.334 54.998 -195.001v-11c0 -78.667 -18.167 -140.667 -54.5 -186s-87.166 -68 -152.499 -68c-62.667 0 -111.667 25 -147 75v-246h-94v692h70c4.66699 -21.333 9 -44.666 13 -69.999c38 53.333 90.667 80 158 80
c64.667 0 115.334 -23.667 152.001 -71zM207.498 398.999c-21 -31.333 -31.5 -79 -31.5 -143c0 -65.333 10.833 -113.5 32.5 -144.5s54.5 -46.5 98.5 -46.5s76.667 15.667 98 47s32 79.333 32 144c0 65.333 -10.833 113.333 -32.5 144s-54.167 46 -97.5 46
c-45.333 0 -78.5 -15.667 -99.5 -47z" />
    <glyph glyph-name="q" unicode="q" horiz-adv-x="583" 
d="M431 430l32.998 81h36v-691h-94v245c-15.333 -22 -36.166 -40 -62.499 -54s-54.833 -21 -85.5 -21c-65.333 0 -116 22.833 -152 68.5s-54 107.5 -54 185.5v11c0 83.333 18.333 148.5 55 195.5s87.334 70.5 152.001 70.5c76 0 133.333 -30.333 172 -91zM177.498 399
c-21 -31.333 -31.5 -79 -31.5 -143c0 -65.333 10.833 -113.5 32.5 -144.5s54.5 -46.5 98.5 -46.5s76.667 15.667 98 47s32 79.333 32 144c0 65.333 -10.833 113.333 -32.5 144s-54.167 46 -97.5 46c-45.333 0 -78.5 -15.667 -99.5 -47z" />
    <glyph glyph-name="r" unicode="r" horiz-adv-x="490" 
d="M424 475.5c26.667 -30.333 39.999 -68.499 39.999 -114.499l-3 -38h-83v22c0 20 -5 37.667 -15 53s-22.667 27.166 -38 35.499s-30.666 12.5 -45.999 12.5c-32 0 -57 -12.667 -75 -38s-27 -59.666 -27 -102.999v-305h-94v511h67l14 -76c4 13.333 13 26.666 27 39.999
s31.5 24.333 52.5 33s44.167 13 69.5 13c47.333 0 84.333 -15.167 111 -45.5z" />
    <glyph glyph-name="s" unicode="s" horiz-adv-x="534" 
d="M379.5 503c29.667 -12 52.666 -28.665 68.999 -49.998s24.5 -45 24.5 -71l-1 -18h-93v9c0 48.667 -37.667 73 -113 73c-74.667 0 -112 -22.333 -112 -67c0 -20.667 10.667 -35.834 32 -45.501s54 -18.834 98 -27.501c42 -8.66699 76.5 -17.667 103.5 -27s50 -24 69 -44
s28.5 -47 28.5 -81c0 -54.667 -18.667 -95.667 -56 -123s-91 -41 -161 -41h-15c-42 0 -78.667 6.5 -110 19.5s-55.5 30.667 -72.5 53s-25.167 47.5 -24.5 75.5v22h93v-10c0 -56.667 47.667 -85 143 -85c28 0 53.167 6.33301 75.5 19s33.5 30 33.5 52
c0 18.667 -6.16699 33.334 -18.5 44.001s-27.5 18.667 -45.5 24s-43 10.666 -75 15.999c-41.333 8 -74.666 16.167 -99.999 24.5s-47 22.5 -65 42.5s-27 47.333 -27 82c0 47.333 18.667 84.5 56 111.5s88.333 40.5 153 40.5h9c38 0 71.833 -6 101.5 -18z" />
    <glyph glyph-name="t" unicode="t" horiz-adv-x="346" 
d="M193 511h119v-75h-119v-305c0 -24 4.66699 -41.333 14 -52s23.666 -16 42.999 -16c17.333 0 38 5 62 15v-70c-24 -12 -55 -18 -93 -18c-39.333 0 -69.166 11.667 -89.499 35s-30.5 60.333 -30.5 111v300h-56v75h59l32 163h59v-163z" />
    <glyph glyph-name="u" unicode="u" horiz-adv-x="618" 
d="M510 100c0 -12 2.66602 -20.833 7.99902 -26.5s12 -8.5 20 -8.5c14.667 0 29.667 4.66699 45 14v-69c-20.667 -13.333 -41.667 -20 -63 -20c-36 0 -61.167 7.33301 -75.5 22s-22.166 35.334 -23.499 62.001c-18 -26.667 -41.167 -47.334 -69.5 -62.001
s-60.833 -22 -97.5 -22c-51.333 0 -93.5 15.167 -126.5 45.5s-49.5 74.166 -49.5 131.499v344h94v-327c0 -79.333 36 -119 108 -119c23.333 0 45.5 6.33301 66.5 19s37.833 29.834 50.5 51.501s19 45.5 19 71.5v304h94v-411z" />
    <glyph glyph-name="v" unicode="v" horiz-adv-x="512" 
d="M306 0h-100l-194 511h100l146 -391h4l146 391h92z" />
    <glyph glyph-name="w" unicode="w" horiz-adv-x="811" 
d="M622 0h-98l-118 357h-4l-116 -357h-98l-168 511h97l119 -374h4l121 374h92l119 -374h4l121 374h92z" />
    <glyph glyph-name="x" unicode="x" horiz-adv-x="519" 
d="M313 265l188 -265h-112l-133 187l-135 -187h-103l188 259l-178 252h112l123 -174l126 174h103z" />
    <glyph glyph-name="y" unicode="y" horiz-adv-x="512" 
d="M309 20c-22.667 -56 -43.666 -98.832 -62.999 -128.499s-39 -50 -59 -61s-43.333 -16.5 -70 -16.5c-24.667 0 -48 4.66699 -70 14v77c22 -9.33301 38.667 -14 50 -14c27.333 0 50.166 9.16699 68.499 27.5s33.5 47.166 45.5 86.499l-199 506h100l147 -377h4l145 377h92z
" />
    <glyph glyph-name="z" unicode="z" horiz-adv-x="463" 
d="M415 474l-250 -399h258v-75h-387v38l249 398h-234v75h364v-37z" />
    <glyph glyph-name="braceleft" unicode="{" horiz-adv-x="315" 
d="M275 636c-52.667 0 -79 -25.3359 -79 -76.0029c0 -42 -1.66699 -91.333 -5 -148l-2 -41c-1.33301 -34.667 -8.66602 -60.5 -21.999 -77.5s-35.666 -25.5 -66.999 -25.5v-9c31.333 0 53.666 -8.5 66.999 -25.5s20.666 -42.833 21.999 -77.5l2 -44
c3.33301 -55.333 5 -100.666 5 -135.999s6.83301 -58.333 20.5 -69s33.167 -16 58.5 -16v-50c-55.333 0 -95.5 11 -120.5 33s-37.5 57.667 -37.5 107v186c0 16.667 -7 30.334 -21 41.001s-32.667 16 -56 16v79c22.667 0 41.167 4.83301 55.5 14.5s21.5 23.834 21.5 42.501
v186c0 50 12.833 85.833 38.5 107.5s65.5 32.5 119.5 32.5v-50z" />
    <glyph glyph-name="bar" unicode="|" horiz-adv-x="248" 
d="M164 -199h-80v920h80v-920z" />
    <glyph glyph-name="braceright" unicode="}" horiz-adv-x="315" 
d="M160.5 653c25 -22 37.5 -57.667 37.5 -107v-186c0 -18 6.66699 -32 20 -42s32.333 -15 57 -15v-79c-22.667 0 -41.167 -4.83301 -55.5 -14.5s-21.5 -23.834 -21.5 -42.501v-186c0 -50.667 -12.833 -86.667 -38.5 -108s-65.5 -32 -119.5 -32v50c52.667 0 79 25.667 79 77
c0 41.333 1.66699 90.333 5 147l2 41c1.33301 34.667 8.66602 60.5 21.999 77.5s35.666 25.5 66.999 25.5v9c-31.333 0 -53.666 8.5 -66.999 25.5s-20.666 42.833 -21.999 77.5l-2 43c-3.33301 56.667 -5 102.667 -5 138c0 34.667 -7 57.334 -21 68.001s-33.333 16 -58 16
v50c55.333 0 95.5 -11 120.5 -33z" />
    <glyph glyph-name="asciitilde" unicode="~" horiz-adv-x="689" 
d="M628 301c-19.333 -22 -43.667 -40.499 -73 -55.499s-58.666 -22.5 -87.999 -22.5c-20 0 -39 2.83301 -57 8.5s-38.667 13.834 -62 24.501c-26.667 11.333 -48.667 19.666 -66 24.999s-36 8 -56 8c-26 0 -53.833 -6.83301 -83.5 -20.5s-55.834 -32.834 -78.501 -57.501v85
c22.667 24 49 43 79 57s58 21 84 21c18.667 0 36.5 -2.66699 53.5 -8s37.833 -13.333 62.5 -24c24.667 -11.333 46.167 -19.833 64.5 -25.5s37.833 -8.5 58.5 -8.5c27.333 0 56 7 86 21s55.333 33 76 57v-85z" />
    <glyph glyph-name="uni00A0" unicode="&#xa0;" horiz-adv-x="244" 
 />
    <glyph glyph-name="exclamdown" unicode="&#xa1;" horiz-adv-x="254" 
d="M177 399h-101v111h101v-111zM184 -176h-90v511h90v-511z" />
    <glyph glyph-name="cent" unicode="&#xa2;" horiz-adv-x="527" 
d="M303 608c56.667 -6 102.329 -27.167 136.996 -63.5s52 -85.166 52 -146.499h-93c0 41.333 -10.5 74.333 -31.5 99s-51.167 37 -90.5 37c-41.333 0 -74.166 -13.833 -98.499 -41.5s-36.5 -65.5 -36.5 -113.5v-54c0 -58 12 -101.167 36 -129.5s58 -42.5 102 -42.5
c40.667 0 71.167 12.167 91.5 36.5s30.5 57.166 30.5 98.499h90c0 -60 -17.167 -108.833 -51.5 -146.5s-80.166 -58.5 -137.499 -62.5l11 -86h-73l10 86c-61.333 4 -110.5 28.667 -147.5 74s-55.5 104.666 -55.5 177.999v24c0 48 8.33301 90.667 25 128
s40.334 66.833 71.001 88.5s66.334 33.834 107.001 36.501l-10 85h73z" />
    <glyph glyph-name="sterling" unicode="&#xa3;" horiz-adv-x="597" 
d="M511.5 645c35.667 -34 53.499 -82.668 53.499 -146.001v-9h-98v15c0 30 -10.167 54.5 -30.5 73.5s-45.833 28.5 -76.5 28.5c-32 0 -57.833 -9.16699 -77.5 -27.5s-29.5 -43.166 -29.5 -74.499v-123h187v-89h-187l-17 -204h303v-89h-474v89h90v204h-126v89h126v117
c0 60.667 18.667 108.667 56 144s86.333 53 147 53h9c60.667 0 108.834 -17 144.501 -51z" />
    <glyph glyph-name="currency" unicode="&#xa4;" horiz-adv-x="624" 
d="M565 539l-53.998 -53.999c32.667 -44.667 49 -94 49 -148c0 -54.667 -17 -104.667 -51 -150l55 -54l-48 -48l-55 54c-45.333 -33.333 -95 -50 -149 -50c-54.667 0 -104.334 16.333 -149.001 49l-53 -53l-48 48l53 53c-34 45.333 -51 95.333 -51 150
c0 53.333 16.667 103.666 50 150.999l-51 52l48 48l51 -52c47.333 33.333 97.666 50 150.999 50c54.667 0 104.667 -17.333 150 -52l54 54zM223.002 491.501c-27.333 -16.333 -49.167 -38.165 -65.5 -65.498s-24.5 -57 -24.5 -89c0 -32.667 8 -62.667 24 -90
s37.667 -49 65 -65s57.333 -24 90 -24c32 0 61.667 8.16699 89 24.5s49.166 38.166 65.499 65.499s24.5 57 24.5 89s-8.16699 61.667 -24.5 89s-38.166 49.166 -65.499 65.499s-57 24.5 -89 24.5s-61.667 -8.16699 -89 -24.5z" />
    <glyph glyph-name="yen" unicode="&#xa5;" horiz-adv-x="634" 
d="M466 440h111v-64h-148l-41 -73h189v-64h-211v-239h-98v239h-209v64h187l-42 73h-145v64h108l-141 246h112l183 -319h4l181 319h101z" />
    <glyph glyph-name="brokenbar" unicode="&#xa6;" horiz-adv-x="269" 
d="M179 419h-89v267h89v-267zM179 0h-89v266h89v-266z" />
    <glyph glyph-name="section" unicode="&#xa7;" horiz-adv-x="514" 
d="M369.5 678c29.667 -12 52.667 -28.668 69 -50.001s24.5 -45 24.5 -71l-1 -18h-93v9c0 48.667 -37.667 73 -113 73c-74.667 0 -112 -22.333 -112 -67c0 -19.333 6.5 -36.5 19.5 -51.5s29.333 -27.833 49 -38.5s46.167 -23.667 79.5 -39c40 -17.333 72 -33 96 -47
s44.5 -31.667 61.5 -53s25.5 -47 25.5 -77c0 -64.667 -28.667 -114.667 -86 -150c49.333 -35.333 74 -78 74 -128c0 -49.333 -18.5 -87.666 -55.5 -114.999s-88.167 -41 -153.5 -41h-9c-38 0 -71.833 6 -101.5 18s-52.667 28.667 -69 50s-24.5 45 -24.5 71l1 18h93v-9
c0 -48.667 37.667 -73 113 -73c36.667 0 64.5 5.83301 83.5 17.5s28.5 28.167 28.5 49.5c0 28 -12.333 51 -37 69s-61.667 37.667 -111 59c-40 17.333 -72 33 -96 47s-44.5 31.833 -61.5 53.5s-25.5 47.5 -25.5 77.5c0 66 28.333 116 85 150
c-23.333 16.667 -41.333 35.5 -54 56.5s-19 46.167 -19 75.5c0 47.333 18.667 84.5 56 111.5s88.333 40.5 153 40.5h9c38 0 71.833 -6 101.5 -18zM131 288.999c0 -22 6.5 -40.8311 19.5 -56.498s29.167 -28.834 48.5 -39.501s46 -23.667 80 -39c10 -4 25 -10.667 45 -20
c38.667 26 58 55.333 58 88c0 20 -6.5 37.667 -19.5 53s-29.5 28.666 -49.5 39.999s-47.667 25 -83 41l-41 19c-38.667 -23.333 -58 -52 -58 -86z" />
    <glyph glyph-name="dieresis" unicode="&#xa8;" horiz-adv-x="440" 
d="M171 633h-90v98h90v-98zM360 633h-91v98h91v-98z" />
    <glyph glyph-name="copyright" unicode="&#xa9;" horiz-adv-x="780" 
d="M567.5 648.5c54.333 -31.667 97.333 -74.333 129 -128s47.5 -112.5 47.5 -176.5c0 -64.667 -15.833 -124 -47.5 -178s-74.667 -96.833 -129 -128.5s-113.5 -47.5 -177.5 -47.5c-64.667 0 -124 15.833 -178 47.5s-96.833 74.5 -128.5 128.5s-47.5 113.333 -47.5 178
c0 64 15.833 123 47.5 177s74.5 96.667 128.5 128s113.333 47 178 47c64 0 123.167 -15.833 177.5 -47.5zM229.5 613.501c-47.667 -27.667 -85.167 -65.1689 -112.5 -112.502s-41 -99.666 -41 -156.999c0 -58.667 13.667 -112 41 -160s64.833 -85.667 112.5 -113
s101.167 -41 160.5 -41c57.333 0 110 13.667 158 41s85.833 65 113.5 113s41.5 101 41.5 159c0 59.333 -14.167 112.833 -42.5 160.5s-66.5 84.834 -114.5 111.501s-100 40 -156 40c-59.333 0 -112.833 -13.833 -160.5 -41.5zM514.5 512.999
c29 -28.667 43.501 -70.334 43.501 -125.001h-67v13c0 28.667 -9.16699 52.167 -27.5 70.5s-41.833 27.5 -70.5 27.5c-31.333 0 -56.666 -8.33301 -75.999 -25s-29 -41 -29 -73v-115c0 -31.333 9.66699 -55.666 29 -72.999s45 -26 77 -26c29.333 0 53.166 9.5 71.499 28.5
s27.5 45.833 27.5 80.5h65c0 -52.667 -14.833 -93.667 -44.5 -123s-68.834 -44 -117.501 -44h-5c-51.333 0 -92.5 15.5 -123.5 46.5s-46.5 72.5 -46.5 124.5v86c0 52 15.333 93.333 46 124s71.667 46 123 46h5c50.667 0 90.5 -14.333 119.5 -43z" />
    <glyph glyph-name="ordfeminine" unicode="&#xaa;" horiz-adv-x="415" 
d="M320 601l-0.00195312 -161.001c0 -6.66699 1.83301 -11.834 5.5 -15.501s7.83398 -5.5 12.501 -5.5c4 0 13 2.66699 27 8v-42c-16 -8 -31.333 -12 -46 -12c-32.667 0 -50.667 18.667 -54 56c-25.333 -37.333 -61.333 -56 -108 -56c-68 0 -102 29.667 -102 89
c0 26.667 6.66699 47.5 20 62.5s34.833 25.667 64.5 32s70.834 9.5 123.501 9.5v28c0 37.333 -23.667 56 -71 56c-21.333 0 -38.333 -4.16699 -51 -12.5s-19 -20.166 -19 -35.499v-8h-55c-1.33301 6.66699 -2 11.334 -2 14.001c0 26 11.833 47.167 35.5 63.5
s54.5 24.5 92.5 24.5h5c81.333 0 122 -31.667 122 -95zM148.498 509.999c-24.333 -8 -36.5 -22.999 -36.5 -44.999c0 -17.333 5.16699 -29.333 15.5 -36s26.833 -10 49.5 -10s42.667 8.16699 60 24.5s26 38.166 26 65.499v13c-52 0 -90.167 -4 -114.5 -12z" />
    <glyph glyph-name="guillemotleft" unicode="&#xab;" horiz-adv-x="460" 
d="M128 337l94 -174h-51l-122 174l122 174h51zM311 337l93 -174h-50l-123 174l123 174h50z" />
    <glyph glyph-name="logicalnot" unicode="&#xac;" horiz-adv-x="617" 
d="M556 174h-84v186h-435v93h519v-279z" />
    <glyph glyph-name="uni00AD" unicode="&#xad;" horiz-adv-x="391" 
d="M322 221h-253v98h253v-98z" />
    <glyph glyph-name="registered" unicode="&#xae;" horiz-adv-x="780" 
d="M567.5 648.5c54.333 -31.667 97.333 -74.333 129 -128s47.5 -112.5 47.5 -176.5c0 -64.667 -15.833 -124 -47.5 -178s-74.667 -96.833 -129 -128.5s-113.5 -47.5 -177.5 -47.5c-64.667 0 -124 15.833 -178 47.5s-96.833 74.5 -128.5 128.5s-47.5 113.333 -47.5 178
c0 64 15.833 123 47.5 177s74.5 96.667 128.5 128s113.333 47 178 47c64 0 123.167 -15.833 177.5 -47.5zM229.5 614.501c-47.667 -27.667 -85.167 -65.167 -112.5 -112.5s-41 -100 -41 -158c0 -58.667 13.667 -112 41 -160s64.833 -85.667 112.5 -113
s101.167 -41 160.5 -41c58 0 110.833 13.5 158.5 40.5s85.5 64.5 113.5 112.5s42 101.667 42 161c0 60 -14.167 113.833 -42.5 161.5s-66.5 84.667 -114.5 111s-100.333 39.5 -157 39.5c-59.333 0 -112.833 -13.833 -160.5 -41.5zM512 517.501
c23.333 -19.667 35.0029 -42.499 35.0029 -68.499c0 -25.333 -6.5 -46.833 -19.5 -64.5s-28.833 -30.167 -47.5 -37.5c21.333 -8.66699 35.666 -22.167 42.999 -40.5s12.666 -42.833 15.999 -73.5c2 -22.667 5 -40.167 9 -52.5s11.667 -20.5 23 -24.5v-18
c-10 -4 -20 -6 -30 -6c-22.667 0 -39.167 6 -49.5 18s-15.5 30.333 -15.5 55c0 41.333 -6.5 70.666 -19.5 87.999s-28.833 26 -47.5 26h-99v-184h-64v412h187c29.333 0 55.666 -9.83301 78.999 -29.5zM310.003 492.002v-119h111c17.333 0 32.166 5.66699 44.499 17
s18.5 25 18.5 41v4c0 16 -6.16699 29.5 -18.5 40.5s-27.166 16.5 -44.499 16.5h-111z" />
    <glyph glyph-name="macron" unicode="&#xaf;" horiz-adv-x="460" 
d="M389 662h-318v74h318v-74z" />
    <glyph glyph-name="degree" unicode="&#xb0;" horiz-adv-x="394" 
d="M270.5 675c23 -14 41.5 -32.499 55.5 -55.499s21 -47.5 21 -73.5c0 -27.333 -7 -52.5 -21 -75.5s-32.5 -41.167 -55.5 -54.5s-47.5 -20 -73.5 -20s-50.5 6.66699 -73.5 20s-41.5 31.5 -55.5 54.5s-21 48.167 -21 75.5c0 25.333 6.5 49.666 19.5 72.999s31 42 54 56
s48.5 21 76.5 21c26 0 50.5 -7 73.5 -21zM130.5 609.001c-18.333 -17.333 -27.5 -38.6699 -27.5 -64.0029s9.16699 -46.666 27.5 -63.999s40.5 -26 66.5 -26c25.333 0 47.166 8.83301 65.499 26.5s27.5 38.834 27.5 63.501s-9.16699 45.834 -27.5 63.501
s-40.5 26.5 -66.5 26.5c-25.333 0 -47.166 -8.66699 -65.499 -26z" />
    <glyph glyph-name="plusminus" unicode="&#xb1;" 
d="M348 364h215v-84h-215v-146h-83v146h-214v84h214v147h83v-147zM558 0h-503v83h503v-83z" />
    <glyph glyph-name="uni00B2" unicode="&#xb2;" horiz-adv-x="384" 
d="M284.5 768.5c23 -21 34.501 -45.834 34.501 -74.501c0 -25.333 -4.5 -46.833 -13.5 -64.5s-27.167 -36.834 -54.5 -57.501l-105 -80c-17.333 -13.333 -26 -22 -26 -26h200v-49h-259v13c0 40.667 17 73.334 51 98.001l110 82c28.667 20.667 43 46.667 43 78
c0 18 -6.33301 33 -19 45s-31 18 -55 18c-25.333 0 -44.333 -7.83301 -57 -23.5s-19 -32.167 -19 -49.5v-14h-53c-0.666992 2 -1 5.66699 -1 11c0 7.33301 1.33301 17.333 4 30s7.66699 25.334 15 38.001c23.333 38 61.666 57 114.999 57c36.667 0 66.5 -10.5 89.5 -31.5z
" />
    <glyph glyph-name="uni00B3" unicode="&#xb3;" horiz-adv-x="363" 
d="M267.5 772c23 -18.667 34.499 -43.333 34.499 -74c0 -37.333 -20 -65.666 -60 -84.999c46 -16.667 69 -48 69 -94c0 -32 -12.167 -57.833 -36.5 -77.5s-55.833 -29.5 -94.5 -29.5h-7c-41.333 0 -73.5 10 -96.5 30s-34.5 47.333 -34.5 82v4h54v-6c0 -40.667 26 -61 78 -61
c26 0 46.333 5.33301 61 16s22 27 22 49c0 20.667 -8 35.667 -24 45s-36.333 14 -61 14h-41v49h42c22 0 40 5.33301 54 16s21 25.667 21 45c0 18.667 -6.66699 32.667 -20 42s-30.666 14 -51.999 14c-20.667 0 -37.667 -5 -51 -15s-20 -24.333 -20 -43v-5h-54v10
c0 31.333 11.5 56.166 34.5 74.499s52.833 27.5 89.5 27.5h5c35.333 0 64.5 -9.33301 87.5 -28z" />
    <glyph glyph-name="acute" unicode="&#xb4;" horiz-adv-x="333" 
d="M253 717l-116 -142h-69l94 145h90z" />
    <glyph glyph-name="uni00B5" unicode="&#xb5;" horiz-adv-x="612" 
d="M514 100c0 -12 2.66699 -20.8359 8 -26.5029s12 -8.5 20 -8.5c14.667 0 29.667 4.66699 45 14v-69c-20.667 -13.333 -41.667 -20 -63 -20c-36 0 -61.167 7.33301 -75.5 22s-22.166 35.334 -23.499 62.001c-16.667 -25.333 -39.334 -45.666 -68.001 -60.999
s-59.667 -23 -93 -23c-36 0 -67.333 8.33301 -94 25l6 -47v-129h-94v672h94v-327c0 -79.333 36 -119 108 -119c23.333 0 45.5 6.33301 66.5 19s37.833 29.834 50.5 51.501s19 45.5 19 71.5v304h94v-411z" />
    <glyph glyph-name="paragraph" unicode="&#xb6;" horiz-adv-x="524" 
d="M481 625h-65.999v-794h-63v794h-72v-794h-63v419c-36 4.66699 -68.667 17 -98 37s-52.333 45.667 -69 77s-25 65.666 -25 102.999c0 39.333 9.66699 75.833 29 109.5s45.666 60.334 78.999 80.001s70 29.5 110 29.5h238v-61z" />
    <glyph glyph-name="periodcentered" unicode="&#xb7;" horiz-adv-x="239" 
d="M170 232h-101v112h101v-112z" />
    <glyph glyph-name="cedilla" unicode="&#xb8;" horiz-adv-x="350" 
d="M280 -106c0 -27.333 -10.5 -49.333 -31.5 -66s-45.5 -25 -73.5 -25c-43.333 0 -78.333 7.33301 -105 22l9 49c28 -13.333 52.333 -20 73 -20c44 0 66 15 66 45c0 12.667 -5 22.667 -15 30s-22.333 11 -37 11h-21v43h24c74 0 111 -29.667 111 -89z" />
    <glyph glyph-name="uni00B9" unicode="&#xb9;" horiz-adv-x="334" 
d="M203 471l81 0.000976562v-49h-234v49h99v253h-99v35c38 3.33301 82 15.666 132 36.999h21v-325z" />
    <glyph glyph-name="ordmasculine" unicode="&#xba;" horiz-adv-x="392" 
d="M301 656c25.333 -26.667 38 -63.334 38 -110.001v-23c0 -47.333 -12.833 -84.166 -38.5 -110.499s-60.5 -39.5 -104.5 -39.5s-78.833 13.167 -104.5 39.5s-38.5 63.166 -38.5 110.499v23c0 46.667 12.667 83.334 38 110.001s60.333 40 105 40s79.667 -13.333 105 -40z
M134 623c-16 -18 -24 -45.667 -24 -83v-11c0 -37.333 8 -65 24 -83s36.667 -27 62 -27s46 9 62 27s24 45.667 24 83v11c0 37.333 -8 65 -24 83s-36.667 27 -62 27s-46 -9 -62 -27z" />
    <glyph glyph-name="guillemotright" unicode="&#xbb;" horiz-adv-x="460" 
d="M230 337l-123 -174h-51l94 174l-94 174h51zM411 337l-122 -174h-50l93 174l-93 174h50z" />
    <glyph glyph-name="onequarter" unicode="&#xbc;" horiz-adv-x="702" 
d="M198 0h-55l420 686h52zM189 359l81 0.000976562v-49h-234v49h99v253h-99v35c38 3.33301 82 15.666 132 36.999h21v-325zM515 235.501c-26 -46.333 -46.999 -78.168 -62.999 -95.501h123v105c13.333 27.333 23 52 29 74h25v-179h46v-49h-46v-91h-54v91h-173v50
c49.333 74.667 87.666 152.334 114.999 233.001h55c-12 -46 -31 -92.167 -57 -138.5z" />
    <glyph glyph-name="onehalf" unicode="&#xbd;" horiz-adv-x="726" 
d="M178 0h-55l420 686h52zM186 359l81 0.000976562v-49h-234v49h99v253h-99v35c38 3.33301 82 15.666 132 36.999h21v-325zM660 351.501c23.333 -21 35.001 -45.834 35.001 -74.501c0 -25.333 -4.5 -46.833 -13.5 -64.5s-27.167 -36.834 -54.5 -57.501l-105 -80
c-17.333 -13.333 -26 -22 -26 -26h200v-49h-259v13c0 40.667 17 73.334 51 98.001l110 82c28.667 20.667 43 46.667 43 78c0 18 -6.33301 33 -19 45s-31 18 -55 18c-25.333 0 -44.333 -7.83301 -57 -23.5s-19 -32.167 -19 -49.5v-14h-53c-0.666992 2 -1 5.66699 -1 11
c0 7.33301 1.33301 17.333 4 30s7.66699 25.334 15 38.001c23.333 38 61.666 57 114.999 57c36 0 65.667 -10.5 89 -31.5z" />
    <glyph glyph-name="threequarters" unicode="&#xbe;" horiz-adv-x="698" 
d="M256.5 658c23 -18.667 34.499 -43.334 34.499 -74.001c0 -37.333 -20 -65.666 -60 -84.999c46 -17.333 69 -48.666 69 -93.999c0 -32 -12.167 -57.833 -36.5 -77.5s-55.833 -29.5 -94.5 -29.5h-7c-41.333 0 -73.5 10 -96.5 30s-34.5 47.333 -34.5 82v4h54v-6
c0 -40.667 26 -61 78 -61c26 0 46.333 5.33301 61 16s22 27 22 49c0 20.667 -8 35.667 -24 45s-36.333 14 -61 14h-41v49h42c22 0 40 5.33301 54 16s21 25.667 21 45c0 18.667 -6.66699 32.667 -20 42s-30.666 14 -51.999 14c-20.667 0 -37.667 -5 -51 -15
s-20 -24.333 -20 -43v-5h-54v10c0 31.333 11.5 56.166 34.5 74.499s52.833 27.5 89.5 27.5h5c35.333 0 64.5 -9.33301 87.5 -28zM197.999 0h-55l420 686h52zM509.999 235.5c-26 -46.333 -46.999 -78.168 -62.999 -95.501h123v105c13.333 27.333 23 52 29 74h25v-179h46v-49
h-46v-91h-54v91h-173v50c49.333 74.667 87.666 152.334 114.999 233.001h55c-12 -46 -31 -92.167 -57 -138.5z" />
    <glyph glyph-name="questiondown" unicode="&#xbf;" horiz-adv-x="495" 
d="M292 400h-104v111h104v-111zM290 262c0 -23.333 -6.66602 -44.166 -19.999 -62.499s-33 -39.5 -59 -63.5c-26 -24.667 -45.333 -45.834 -58 -63.501s-19 -37.5 -19 -59.5c0 -31.333 11 -57.333 33 -78s50.333 -31 85 -31c36.667 0 65.834 10.167 87.501 30.5
s32.5 47.5 32.5 81.5l-2 37h98c2 -8 3 -20.667 3 -38c0 -32 -8.5 -63.333 -25.5 -94s-42.167 -56 -75.5 -76s-73 -30 -119 -30h-6c-44 0 -81.833 9.33301 -113.5 28s-55.667 43.667 -72 75s-24.5 65.333 -24.5 102c0 26 4.33301 48.833 13 68.5s19.167 36.167 31.5 49.5
s28.166 28.333 47.499 45c21.333 18 37.166 33.667 47.499 47s15.5 29 15.5 47v49h100v-64z" />
    <glyph glyph-name="Agrave" unicode="&#xc0;" horiz-adv-x="652" 
d="M360 750h-70l-115 142l1 3h89zM648 0h-106l-58 149h-328l-57 -149h-95l268 686h108zM318 568l-127 -330h259l-126 330h-6z" />
    <glyph glyph-name="Aacute" unicode="&#xc1;" horiz-adv-x="652" 
d="M477 892l-116 -142h-69l94 145h90zM648 0h-106l-58 149h-328l-57 -149h-95l268 686h108zM318 568l-127 -330h259l-126 330h-6z" />
    <glyph glyph-name="Acircumflex" unicode="&#xc2;" horiz-adv-x="652" 
d="M498 750h-80l-94 89l-95 -89h-80l136 145h78zM648 0h-106l-58 149h-328l-57 -149h-95l268 686h108zM318 568l-127 -330h259l-126 330h-6z" />
    <glyph glyph-name="Atilde" unicode="&#xc3;" horiz-adv-x="652" 
d="M486 779.5c-20.667 -19.667 -47.666 -29.5 -80.999 -29.5c-22.667 0 -46 3.66699 -70 11c-6 1.33301 -11.5 2.83301 -16.5 4.5s-9.83301 3.16699 -14.5 4.5c-16.667 5.33301 -29.5 9 -38.5 11s-18.833 3 -29.5 3c-30 0 -48.333 -11.333 -55 -34h-50c0 28 10 52.333 30 73
s47 31 81 31c15.333 0 29.333 -1.5 42 -4.5s28.667 -7.5 48 -13.5c38 -11.333 64.667 -17 80 -17c29.333 0 47.666 11.667 54.999 35h50c0 -30 -10.333 -54.833 -31 -74.5zM648.001 0h-106l-58 149h-328l-57 -149h-95l268 686h108zM318.001 568l-127 -330h259l-126 330h-6z
" />
    <glyph glyph-name="Adieresis" unicode="&#xc4;" horiz-adv-x="652" 
d="M274 749h-90v98h90v-98zM463 749h-91v98h91v-98zM648 0h-106l-58 149h-328l-57 -149h-95l268 686h108zM318 568l-127 -330h259l-126 330h-6z" />
    <glyph glyph-name="Aring" unicode="&#xc5;" horiz-adv-x="652" 
d="M396 896.5c20.667 -19.667 31 -43.5 31 -71.5c0 -27.333 -9.83301 -50.833 -29.5 -70.5s-43.5 -29.5 -71.5 -29.5c-27.333 0 -51 9.66699 -71 29s-30 43 -30 71s9.83301 51.833 29.5 71.5s43.5 29.5 71.5 29.5c26 0 49.333 -9.83301 70 -29.5zM286.5 863.5
c-11 -10.333 -16.5 -23.166 -16.5 -38.499s5.33301 -28 16 -38s24 -15 40 -15c15.333 0 28.5 5.16699 39.5 15.5s16.5 23.166 16.5 38.499c0 14.667 -5.5 27.167 -16.5 37.5s-24.167 15.5 -39.5 15.5s-28.5 -5.16699 -39.5 -15.5zM648 0h-106l-58 149h-328l-57 -149h-95
l268 686h108zM318 568l-127 -330h259l-126 330h-6z" />
    <glyph glyph-name="AE" unicode="&#xc6;" horiz-adv-x="983" 
d="M919 597h-418l50 -202h336v-89h-314l54 -217h298l14 -89h-395l-37 149h-328l-78 -149h-94l364 686h561zM400 568l-173 -330h259l-80 330h-6z" />
    <glyph glyph-name="Ccedilla" unicode="&#xc7;" horiz-adv-x="663" 
d="M484 663c40 -22 70.833 -53.501 92.5 -94.501s32.5 -89.5 32.5 -145.5h-98c0 58 -14.333 103.167 -43 135.5s-70 48.5 -124 48.5c-60 0 -105.667 -18.5 -137 -55.5s-47 -91.5 -47 -163.5v-90c0 -71.333 15.333 -125.666 46 -162.999s76 -56 136 -56
c56 0 98.833 16 128.5 48s44.5 76.667 44.5 134h94c0 -55.333 -10.833 -103.333 -32.5 -144s-52.5 -72 -92.5 -94s-86.667 -33 -140 -33c-88.667 0 -157.834 27.167 -207.501 81.5s-74.5 129.833 -74.5 226.5v90c0 96 24.833 171.333 74.5 226s118.834 82 207.501 82
c53.333 0 100 -11 140 -33zM449 -106.001c0 -27.333 -10.5 -49.333 -31.5 -66s-45.5 -25 -73.5 -25c-43.333 0 -78.333 7.33301 -105 22l9 49c28 -13.333 52 -20 72 -20c44.667 0 67 15 67 45c0 12.667 -5 22.667 -15 30s-22.333 11 -37 11h-21v43h24
c74 0 111 -29.667 111 -89z" />
    <glyph glyph-name="Egrave" unicode="&#xc8;" horiz-adv-x="593" 
d="M365 750h-70l-115 142l1 3h89zM529 597h-339v-202h307v-89h-307v-217h345l14 -89h-457v686h450z" />
    <glyph glyph-name="Eacute" unicode="&#xc9;" horiz-adv-x="593" 
d="M469 892l-116 -142h-69l94 145h90zM529 597h-339v-202h307v-89h-307v-217h345l14 -89h-457v686h450z" />
    <glyph glyph-name="Ecircumflex" unicode="&#xca;" horiz-adv-x="593" 
d="M489 750h-80l-94 89l-95 -89h-80l136 145h78zM529 597h-339v-202h307v-89h-307v-217h345l14 -89h-457v686h450z" />
    <glyph glyph-name="Edieresis" unicode="&#xcb;" horiz-adv-x="593" 
d="M268 750h-90v98h90v-98zM457 750h-91v98h91v-98zM529 597h-339v-202h307v-89h-307v-217h345l14 -89h-457v686h450z" />
    <glyph glyph-name="Igrave" unicode="&#xcc;" horiz-adv-x="364" 
d="M217 750h-70l-115 142l1 3h89zM311 597h-80v-508h80v-89h-258v89h80v508h-80v89h258v-89z" />
    <glyph glyph-name="Iacute" unicode="&#xcd;" horiz-adv-x="364" 
d="M329 892l-116 -142h-69l94 145h90zM311 597h-80v-508h80v-89h-258v89h80v508h-80v89h258v-89z" />
    <glyph glyph-name="Icircumflex" unicode="&#xce;" horiz-adv-x="364" 
d="M357 750h-80l-94 89l-95 -89h-80l136 145h78zM311 597h-80v-508h80v-89h-258v89h80v508h-80v89h258v-89z" />
    <glyph glyph-name="Idieresis" unicode="&#xcf;" horiz-adv-x="364" 
d="M133 750h-90v98h90v-98zM322 750h-91v98h91v-98zM311 597h-80v-508h80v-89h-258v89h80v508h-80v89h258v-89z" />
    <glyph glyph-name="Eth" unicode="&#xd0;" horiz-adv-x="681" 
d="M486 648.5c42.667 -25 75.667 -60.667 99 -107s35 -100.833 35 -163.5v-70c0 -62.667 -11.667 -117.167 -35 -163.5s-56.333 -82 -99 -107s-92.667 -37.5 -150 -37.5h-238v310h-93v65h93v311h238c57.333 0 107.333 -12.5 150 -37.5zM196 597l0.00195312 -222.001h145v-65
h-145v-221h140c59.333 0 105.166 18.5 137.499 55.5s48.5 91.5 48.5 163.5v70c0 70.667 -15.833 124.834 -47.5 162.501s-77.834 56.5 -138.501 56.5h-140z" />
    <glyph glyph-name="Ntilde" unicode="&#xd1;" horiz-adv-x="694" 
d="M510 779.5c-20.667 -19.667 -47.666 -29.5 -80.999 -29.5c-22.667 0 -46 3.66699 -70 11c-6 1.33301 -11.5 2.83301 -16.5 4.5s-9.83301 3.16699 -14.5 4.5c-16.667 5.33301 -29.5 9 -38.5 11s-18.833 3 -29.5 3c-30 0 -48.333 -11.333 -55 -34h-50c0 28 10 52.333 30 73
s47 31 81 31c15.333 0 29.333 -1.5 42 -4.5s28.667 -7.5 48 -13.5c38 -11.333 64.667 -17 80 -17c29.333 0 47.666 11.667 54.999 35h50c0 -30 -10.333 -54.833 -31 -74.5zM602.001 0h-83l-335 502l-3 -1v-501h-89v686h86l332 -496l3 1v495h89v-686z" />
    <glyph glyph-name="Ograve" unicode="&#xd2;" horiz-adv-x="690" 
d="M383 750h-70l-115 142l1 3h89zM494 659c42.667 -24.667 75.834 -60.167 99.501 -106.5s35.5 -101.166 35.5 -164.499v-90c0 -63.333 -11.833 -118.166 -35.5 -164.499s-56.834 -81.833 -99.501 -106.5s-92.334 -37 -149.001 -37s-106.334 12.333 -149.001 37
s-75.834 60.167 -99.501 106.5s-35.5 101.166 -35.5 164.499v90c0 63.333 11.833 118.166 35.5 164.499s56.834 81.833 99.501 106.5s92.334 37 149.001 37s106.334 -12.333 149.001 -37zM208 551c-32.667 -37.333 -49 -91.667 -49 -163v-90
c0 -71.333 15.833 -125.666 47.5 -162.999s77.834 -56 138.501 -56c58.667 0 104.334 18.5 137.001 55.5s49 91.5 49 163.5v90c0 71.333 -15.833 125.666 -47.5 162.999s-77.834 56 -138.501 56c-58.667 0 -104.334 -18.667 -137.001 -56z" />
    <glyph glyph-name="Oacute" unicode="&#xd3;" horiz-adv-x="690" 
d="M491 892l-116 -142h-69l94 145h90zM494 659c42.667 -24.667 75.834 -60.167 99.501 -106.5s35.5 -101.166 35.5 -164.499v-90c0 -63.333 -11.833 -118.166 -35.5 -164.499s-56.834 -81.833 -99.501 -106.5s-92.334 -37 -149.001 -37s-106.334 12.333 -149.001 37
s-75.834 60.167 -99.501 106.5s-35.5 101.166 -35.5 164.499v90c0 63.333 11.833 118.166 35.5 164.499s56.834 81.833 99.501 106.5s92.334 37 149.001 37s106.334 -12.333 149.001 -37zM208 551c-32.667 -37.333 -49 -91.667 -49 -163v-90
c0 -71.333 15.833 -125.666 47.5 -162.999s77.834 -56 138.501 -56c58.667 0 104.334 18.5 137.001 55.5s49 91.5 49 163.5v90c0 71.333 -15.833 125.666 -47.5 162.999s-77.834 56 -138.501 56c-58.667 0 -104.334 -18.667 -137.001 -56z" />
    <glyph glyph-name="Ocircumflex" unicode="&#xd4;" horiz-adv-x="690" 
d="M517 750h-80l-94 89l-95 -89h-80l136 145h78zM494 659c42.667 -24.667 75.834 -60.167 99.501 -106.5s35.5 -101.166 35.5 -164.499v-90c0 -63.333 -11.833 -118.166 -35.5 -164.499s-56.834 -81.833 -99.501 -106.5s-92.334 -37 -149.001 -37
s-106.334 12.333 -149.001 37s-75.834 60.167 -99.501 106.5s-35.5 101.166 -35.5 164.499v90c0 63.333 11.833 118.166 35.5 164.499s56.834 81.833 99.501 106.5s92.334 37 149.001 37s106.334 -12.333 149.001 -37zM208 551c-32.667 -37.333 -49 -91.667 -49 -163v-90
c0 -71.333 15.833 -125.666 47.5 -162.999s77.834 -56 138.501 -56c58.667 0 104.334 18.5 137.001 55.5s49 91.5 49 163.5v90c0 71.333 -15.833 125.666 -47.5 162.999s-77.834 56 -138.501 56c-58.667 0 -104.334 -18.667 -137.001 -56z" />
    <glyph glyph-name="Otilde" unicode="&#xd5;" horiz-adv-x="690" 
d="M507 779c-20.667 -19.333 -47.666 -29 -80.999 -29c-22.667 0 -46 3.66699 -70 11c-6 1.33301 -11.5 2.83301 -16.5 4.5s-9.83301 3.16699 -14.5 4.5c-16.667 5.33301 -29.5 9 -38.5 11s-18.833 3 -29.5 3c-30 0 -48.333 -11.333 -55 -34h-50c0 28.667 10 53.167 30 73.5
s47 30.5 81 30.5c12.667 0 24.5 -1.16699 35.5 -3.5s21.5 -5 31.5 -8l22 -6.5c34 -11.333 61 -17 81 -17c29.333 0 47.666 11.667 54.999 35h50c0 -30.667 -10.333 -55.667 -31 -75zM494.001 659c42.667 -24.667 75.834 -60.167 99.501 -106.5s35.5 -101.166 35.5 -164.499
v-90c0 -63.333 -11.833 -118.166 -35.5 -164.499s-56.834 -81.833 -99.501 -106.5s-92.334 -37 -149.001 -37s-106.334 12.333 -149.001 37s-75.834 60.167 -99.501 106.5s-35.5 101.166 -35.5 164.499v90c0 63.333 11.833 118.166 35.5 164.499s56.834 81.833 99.501 106.5
s92.334 37 149.001 37s106.334 -12.333 149.001 -37zM208.001 551c-32.667 -37.333 -49 -91.667 -49 -163v-90c0 -71.333 15.833 -125.666 47.5 -162.999s77.834 -56 138.501 -56c58.667 0 104.334 18.5 137.001 55.5s49 91.5 49 163.5v90
c0 71.333 -15.833 125.666 -47.5 162.999s-77.834 56 -138.501 56c-58.667 0 -104.334 -18.667 -137.001 -56z" />
    <glyph glyph-name="Odieresis" unicode="&#xd6;" horiz-adv-x="690" 
d="M297 750h-90v98h90v-98zM486 750h-91v98h91v-98zM494 659c42.667 -24.667 75.834 -60.167 99.501 -106.5s35.5 -101.166 35.5 -164.499v-90c0 -63.333 -11.833 -118.166 -35.5 -164.499s-56.834 -81.833 -99.501 -106.5s-92.334 -37 -149.001 -37
s-106.334 12.333 -149.001 37s-75.834 60.167 -99.501 106.5s-35.5 101.166 -35.5 164.499v90c0 63.333 11.833 118.166 35.5 164.499s56.834 81.833 99.501 106.5s92.334 37 149.001 37s106.334 -12.333 149.001 -37zM208 551c-32.667 -37.333 -49 -91.667 -49 -163v-90
c0 -71.333 15.833 -125.666 47.5 -162.999s77.834 -56 138.501 -56c58.667 0 104.334 18.5 137.001 55.5s49 91.5 49 163.5v90c0 71.333 -15.833 125.666 -47.5 162.999s-77.834 56 -138.501 56c-58.667 0 -104.334 -18.667 -137.001 -56z" />
    <glyph glyph-name="multiply" unicode="&#xd7;" 
d="M516 407l-153 -152l153 -151l-55 -59l-153 150l-154 -150l-55 59l153 151l-153 152l55 59l154 -152l153 152z" />
    <glyph glyph-name="Oslash" unicode="&#xd8;" horiz-adv-x="690" 
d="M544 621c56.667 -54 85.001 -131.666 85.001 -232.999v-90c0 -63.333 -11.833 -118.166 -35.5 -164.499s-56.834 -81.833 -99.501 -106.5s-92.334 -37 -149.001 -37c-58.667 0 -110.334 13.333 -155.001 40l-56 -95h-64l77 128c-57.333 55.333 -86 133.666 -86 234.999
v90c0 63.333 11.833 118.166 35.5 164.499s56.834 81.833 99.501 106.5s92.334 37 149.001 37c59.333 0 111.333 -13.667 156 -41l59 99h64zM206.501 551.501c-31.667 -37 -47.499 -91.501 -47.499 -163.501v-90c0 -65.333 12.667 -115.666 38 -150.999l257 430
c-30 20 -62.333 30 -97 30c-68.667 0 -118.834 -18.5 -150.501 -55.5zM237.002 108c29.333 -19.333 61.333 -29 96 -29c68 0 118 18.5 150 55.5s48 91.5 48 163.5v90c0 62 -12.333 111.667 -37 149z" />
    <glyph glyph-name="Ugrave" unicode="&#xd9;" horiz-adv-x="680" 
d="M383 750h-70l-115 142l1 3h89zM594 219c0 -45.333 -10.167 -85.334 -30.5 -120.001s-49.333 -61.5 -87 -80.5s-81.167 -28.5 -130.5 -28.5h-13c-49.333 0 -92.5 9.33301 -129.5 28s-65.833 45.334 -86.5 80.001s-31 75 -31 121v467h98v-465
c0 -42.667 14.833 -77 44.5 -103s67.5 -39 113.5 -39c47.333 0 84.833 13 112.5 39s41.5 60.333 41.5 103v465h98v-467z" />
    <glyph glyph-name="Uacute" unicode="&#xda;" horiz-adv-x="680" 
d="M489 892l-116 -142h-69l94 145h90zM594 219c0 -45.333 -10.167 -85.334 -30.5 -120.001s-49.333 -61.5 -87 -80.5s-81.167 -28.5 -130.5 -28.5h-13c-49.333 0 -92.5 9.33301 -129.5 28s-65.833 45.334 -86.5 80.001s-31 75 -31 121v467h98v-465
c0 -42.667 14.833 -77 44.5 -103s67.5 -39 113.5 -39c47.333 0 84.833 13 112.5 39s41.5 60.333 41.5 103v465h98v-467z" />
    <glyph glyph-name="Ucircumflex" unicode="&#xdb;" horiz-adv-x="680" 
d="M514 750h-80l-94 89l-95 -89h-80l136 145h78zM594 219c0 -45.333 -10.167 -85.334 -30.5 -120.001s-49.333 -61.5 -87 -80.5s-81.167 -28.5 -130.5 -28.5h-13c-49.333 0 -92.5 9.33301 -129.5 28s-65.833 45.334 -86.5 80.001s-31 75 -31 121v467h98v-465
c0 -42.667 14.833 -77 44.5 -103s67.5 -39 113.5 -39c47.333 0 84.833 13 112.5 39s41.5 60.333 41.5 103v465h98v-467z" />
    <glyph glyph-name="Udieresis" unicode="&#xdc;" horiz-adv-x="680" 
d="M291 750h-90v98h90v-98zM480 750h-91v98h91v-98zM594 219c0 -45.333 -10.167 -85.334 -30.5 -120.001s-49.333 -61.5 -87 -80.5s-81.167 -28.5 -130.5 -28.5h-13c-49.333 0 -92.5 9.33301 -129.5 28s-65.833 45.334 -86.5 80.001s-31 75 -31 121v467h98v-465
c0 -42.667 14.833 -77 44.5 -103s67.5 -39 113.5 -39c47.333 0 84.833 13 112.5 39s41.5 60.333 41.5 103v465h98v-467z" />
    <glyph glyph-name="Yacute" unicode="&#xdd;" horiz-adv-x="572" 
d="M444 892l-116 -142h-69l94 145h90zM335 265v-265h-98v265l-242 421h112l183 -319h4l181 319h101z" />
    <glyph glyph-name="Thorn" unicode="&#xde;" horiz-adv-x="633" 
d="M190 562l198 -0.00195312c38.667 0 73.667 -8.66699 105 -26s55.833 -41.166 73.5 -71.499s26.5 -64.5 26.5 -102.5s-8.83301 -72.167 -26.5 -102.5s-42.167 -54.166 -73.5 -71.499s-66.333 -26 -105 -26h-198v-162h-98v686h98v-124zM190 472.998v-222h189
c31.333 0 58.5 10.833 81.5 32.5s34.5 47.834 34.5 78.501c0 31.333 -11.5 57.666 -34.5 78.999s-50.167 32 -81.5 32h-189z" />
    <glyph glyph-name="germandbls" unicode="&#xdf;" horiz-adv-x="614" 
d="M440 704c32 -16 57 -38.001 75 -66.001s27 -59.667 27 -95c0 -33.333 -9.33301 -64.166 -28 -92.499s-42.667 -48.166 -72 -59.499l2 -4c36.667 -14 66 -37.5 88 -70.5s33 -71.833 33 -116.5c0 -36.667 -10 -70.167 -30 -100.5s-47 -54.5 -81 -72.5s-71.333 -27 -112 -27
h-83v75h73c26.667 0 50.5 6.5 71.5 19.5s37.5 30.167 49.5 51.5s18 44 18 68c0 23.333 -6.33301 45.166 -19 65.499s-29.667 36.5 -51 48.5s-44.333 18 -69 18h-73v74h65c34.667 0 64 11.5 88 34.5s36 51.5 36 85.5s-10.833 61.333 -32.5 82s-51.167 31 -88.5 31
c-38 0 -69 -12.833 -93 -38.5s-36 -59.5 -36 -101.5v-579h-94v502h-58v75h58c0.666992 43.333 11 81.5 31 114.5s47.167 58.333 81.5 76s72.5 26.5 114.5 26.5c40.667 0 77 -8 109 -24z" />
    <glyph glyph-name="agrave" unicode="&#xe0;" horiz-adv-x="585" 
d="M314 575h-70l-115 142l1 3h89zM434.5 481c33 -26.667 49.5029 -65.334 49.5029 -116.001v-265c0 -12 2.66699 -20.833 8 -26.5s12 -8.5 20 -8.5c15.333 0 30.666 4.66699 45.999 14v-69c-22.667 -13.333 -48.334 -20 -77.001 -20s-50 8.16699 -64 24.5
s-21.667 38.833 -23 67.5c-41.333 -61.333 -101 -92 -179 -92c-56 0 -97.833 12.167 -125.5 36.5s-41.5 62.833 -41.5 115.5c0 41.333 10.667 73.833 32 97.5s56.666 40.834 105.999 51.501s117.333 16 204 16v47c0 34 -10 57.833 -30 71.5s-49 20.5 -87 20.5
c-36 0 -64 -7 -84 -21s-30 -33.667 -30 -59v-12h-92c-1.33301 9.33301 -2 20.333 -2 33c0 23.333 9.33301 45.333 28 66s44 37.167 76 49.5s67.333 18.5 106 18.5h9c67.333 0 117.5 -13.333 150.5 -40zM231.503 223.5c-35.667 -7 -59.5 -17.5 -71.5 -31.5
s-18 -33.333 -18 -58c0 -46 35 -69 105 -69c24.667 0 48 6.16699 70 18.5s39.667 29.833 53 52.5s20 48.667 20 78v20c-70 0 -122.833 -3.5 -158.5 -10.5z" />
    <glyph glyph-name="aacute" unicode="&#xe1;" horiz-adv-x="585" 
d="M431 717l-116 -142h-69l94 145h90zM434.5 481c33 -26.667 49.5029 -65.334 49.5029 -116.001v-265c0 -12 2.66699 -20.833 8 -26.5s12 -8.5 20 -8.5c15.333 0 30.666 4.66699 45.999 14v-69c-22.667 -13.333 -48.334 -20 -77.001 -20s-50 8.16699 -64 24.5
s-21.667 38.833 -23 67.5c-41.333 -61.333 -101 -92 -179 -92c-56 0 -97.833 12.167 -125.5 36.5s-41.5 62.833 -41.5 115.5c0 41.333 10.667 73.833 32 97.5s56.666 40.834 105.999 51.501s117.333 16 204 16v47c0 34 -10 57.833 -30 71.5s-49 20.5 -87 20.5
c-36 0 -64 -7 -84 -21s-30 -33.667 -30 -59v-12h-92c-1.33301 9.33301 -2 20.333 -2 33c0 23.333 9.33301 45.333 28 66s44 37.167 76 49.5s67.333 18.5 106 18.5h9c67.333 0 117.5 -13.333 150.5 -40zM231.503 223.5c-35.667 -7 -59.5 -17.5 -71.5 -31.5
s-18 -33.333 -18 -58c0 -46 35 -69 105 -69c24.667 0 48 6.16699 70 18.5s39.667 29.833 53 52.5s20 48.667 20 78v20c-70 0 -122.833 -3.5 -158.5 -10.5z" />
    <glyph glyph-name="acircumflex" unicode="&#xe2;" horiz-adv-x="585" 
d="M452 575h-80l-94 89l-95 -89h-80l136 145h78zM434.5 481c33 -26.667 49.5029 -65.334 49.5029 -116.001v-265c0 -12 2.66699 -20.833 8 -26.5s12 -8.5 20 -8.5c15.333 0 30.666 4.66699 45.999 14v-69c-22.667 -13.333 -48.334 -20 -77.001 -20s-50 8.16699 -64 24.5
s-21.667 38.833 -23 67.5c-41.333 -61.333 -101 -92 -179 -92c-56 0 -97.833 12.167 -125.5 36.5s-41.5 62.833 -41.5 115.5c0 41.333 10.667 73.833 32 97.5s56.666 40.834 105.999 51.501s117.333 16 204 16v47c0 34 -10 57.833 -30 71.5s-49 20.5 -87 20.5
c-36 0 -64 -7 -84 -21s-30 -33.667 -30 -59v-12h-92c-1.33301 9.33301 -2 20.333 -2 33c0 23.333 9.33301 45.333 28 66s44 37.167 76 49.5s67.333 18.5 106 18.5h9c67.333 0 117.5 -13.333 150.5 -40zM231.503 223.5c-35.667 -7 -59.5 -17.5 -71.5 -31.5
s-18 -33.333 -18 -58c0 -46 35 -69 105 -69c24.667 0 48 6.16699 70 18.5s39.667 29.833 53 52.5s20 48.667 20 78v20c-70 0 -122.833 -3.5 -158.5 -10.5z" />
    <glyph glyph-name="atilde" unicode="&#xe3;" horiz-adv-x="585" 
d="M440 645.5c-20.667 -19.667 -47.666 -29.5 -80.999 -29.5c-22.667 0 -46 3.66699 -70 11c-6 1.33301 -11.5 2.83301 -16.5 4.5s-9.83301 3.16699 -14.5 4.5c-16.667 5.33301 -29.5 9 -38.5 11s-18.833 3 -29.5 3c-30 0 -48.333 -11.333 -55 -34h-50c0 28 10 52.333 30 73
s47 31 81 31c15.333 0 29.333 -1.5 42 -4.5s28.667 -7.5 48 -13.5c38 -11.333 64.667 -17 80 -17c29.333 0 47.666 11.667 54.999 35h50c0 -30 -10.333 -54.833 -31 -74.5zM434.501 481c33 -26.667 49.5029 -65.334 49.5029 -116.001v-265c0 -12 2.66699 -20.833 8 -26.5
s12 -8.5 20 -8.5c15.333 0 30.666 4.66699 45.999 14v-69c-22.667 -13.333 -48.334 -20 -77.001 -20s-50 8.16699 -64 24.5s-21.667 38.833 -23 67.5c-41.333 -61.333 -101 -92 -179 -92c-56 0 -97.833 12.167 -125.5 36.5s-41.5 62.833 -41.5 115.5
c0 41.333 10.667 73.833 32 97.5s56.666 40.834 105.999 51.501s117.333 16 204 16v47c0 34 -10 57.833 -30 71.5s-49 20.5 -87 20.5c-36 0 -64 -7 -84 -21s-30 -33.667 -30 -59v-12h-92c-1.33301 9.33301 -2 20.333 -2 33c0 23.333 9.33301 45.333 28 66s44 37.167 76 49.5
s67.333 18.5 106 18.5h9c67.333 0 117.5 -13.333 150.5 -40zM231.504 223.5c-35.667 -7 -59.5 -17.5 -71.5 -31.5s-18 -33.333 -18 -58c0 -46 35 -69 105 -69c24.667 0 48 6.16699 70 18.5s39.667 29.833 53 52.5s20 48.667 20 78v20c-70 0 -122.833 -3.5 -158.5 -10.5z" />
    <glyph glyph-name="adieresis" unicode="&#xe4;" horiz-adv-x="585" 
d="M226 622h-90v98h90v-98zM415 622h-91v98h91v-98zM434.5 481c33 -26.667 49.5029 -65.334 49.5029 -116.001v-265c0 -12 2.66699 -20.833 8 -26.5s12 -8.5 20 -8.5c15.333 0 30.666 4.66699 45.999 14v-69c-22.667 -13.333 -48.334 -20 -77.001 -20s-50 8.16699 -64 24.5
s-21.667 38.833 -23 67.5c-41.333 -61.333 -101 -92 -179 -92c-56 0 -97.833 12.167 -125.5 36.5s-41.5 62.833 -41.5 115.5c0 41.333 10.667 73.833 32 97.5s56.666 40.834 105.999 51.501s117.333 16 204 16v47c0 34 -10 57.833 -30 71.5s-49 20.5 -87 20.5
c-36 0 -64 -7 -84 -21s-30 -33.667 -30 -59v-12h-92c-1.33301 9.33301 -2 20.333 -2 33c0 23.333 9.33301 45.333 28 66s44 37.167 76 49.5s67.333 18.5 106 18.5h9c67.333 0 117.5 -13.333 150.5 -40zM231.503 223.5c-35.667 -7 -59.5 -17.5 -71.5 -31.5
s-18 -33.333 -18 -58c0 -46 35 -69 105 -69c24.667 0 48 6.16699 70 18.5s39.667 29.833 53 52.5s20 48.667 20 78v20c-70 0 -122.833 -3.5 -158.5 -10.5z" />
    <glyph glyph-name="aring" unicode="&#xe5;" horiz-adv-x="585" 
d="M347.5 728c20.333 -19.333 30.5 -43.333 30.5 -72c0 -27.333 -9.83301 -50.833 -29.5 -70.5s-43.5 -29.5 -71.5 -29.5c-27.333 0 -51 9.5 -71 28.5s-30 42.833 -30 71.5c0 28 9.83301 51.833 29.5 71.5s43.5 29.5 71.5 29.5c26.667 0 50.167 -9.66699 70.5 -29z
M237.5 694.5c-11 -10.333 -16.5 -23.166 -16.5 -38.499s5.33301 -28 16 -38s24 -15 40 -15c15.333 0 28.5 5.16699 39.5 15.5s16.5 23.166 16.5 38.499c0 14.667 -5.5 27.167 -16.5 37.5s-24.167 15.5 -39.5 15.5s-28.5 -5.16699 -39.5 -15.5zM434.5 481
c33 -26.667 49.5029 -65.334 49.5029 -116.001v-265c0 -12 2.66699 -20.833 8 -26.5s12 -8.5 20 -8.5c15.333 0 30.666 4.66699 45.999 14v-69c-22.667 -13.333 -48.334 -20 -77.001 -20s-50 8.16699 -64 24.5s-21.667 38.833 -23 67.5c-41.333 -61.333 -101 -92 -179 -92
c-56 0 -97.833 12.167 -125.5 36.5s-41.5 62.833 -41.5 115.5c0 41.333 10.667 73.833 32 97.5s56.666 40.834 105.999 51.501s117.333 16 204 16v47c0 34 -10 57.833 -30 71.5s-49 20.5 -87 20.5c-36 0 -64 -7 -84 -21s-30 -33.667 -30 -59v-12h-92
c-1.33301 9.33301 -2 20.333 -2 33c0 23.333 9.33301 45.333 28 66s44 37.167 76 49.5s67.333 18.5 106 18.5h9c67.333 0 117.5 -13.333 150.5 -40zM231.503 223.5c-35.667 -7 -59.5 -17.5 -71.5 -31.5s-18 -33.333 -18 -58c0 -46 35 -69 105 -69
c24.667 0 48 6.16699 70 18.5s39.667 29.833 53 52.5s20 48.667 20 78v20c-70 0 -122.833 -3.5 -158.5 -10.5z" />
    <glyph glyph-name="ae" unicode="&#xe6;" horiz-adv-x="895" 
d="M738 495c32.667 -17.333 58 -42.3359 76 -75.0029s27 -71 27 -115v-71h-357c1.33301 -54 14 -95.667 38 -125s59.667 -44 107 -44c42 0 73 12.333 93 37s30 54 30 88h89c0 -39.333 -9 -74.166 -27 -104.499s-43.167 -53.833 -75.5 -70.5s-69.5 -25 -111.5 -25h-4
c-44.667 0 -84.167 9.5 -118.5 28.5s-61.5 46.5 -81.5 82.5c-22 -35.333 -51.833 -62.666 -89.5 -81.999s-77.167 -29 -118.5 -29c-56 0 -97.833 12.167 -125.5 36.5s-41.5 62.833 -41.5 115.5c0 41.333 10.667 73.833 32 97.5s56.666 40.834 105.999 51.501
s117.333 16 204 16v47c0 34 -10 57.833 -30 71.5s-49 20.5 -87 20.5c-36 0 -64 -7 -84 -21s-30 -33.667 -30 -59v-12h-92c-1.33301 9.33301 -2 20.333 -2 33c0 23.333 9.33301 45.333 28 66s44 37.167 76 49.5s67.333 18.5 106 18.5h9c84.667 0 142.334 -21.333 173.001 -64
c40 42.667 94.333 64 163 64h7c41.333 0 78.333 -8.66699 111 -26zM529.5 410.997c-23.667 -23.333 -38.167 -58 -43.5 -104h262v12c0 38 -11.5 68.667 -34.5 92s-53.5 35 -91.5 35s-68.833 -11.667 -92.5 -35zM231.5 223.497c-35.667 -7 -59.5 -17.5 -71.5 -31.5
s-18 -33.333 -18 -58c0 -46 35 -69 105 -69c24.667 0 48 6.16699 70 18.5s39.667 29.833 53 52.5s20 48.667 20 78v20c-70 0 -122.833 -3.5 -158.5 -10.5z" />
    <glyph glyph-name="ccedilla" unicode="&#xe7;" horiz-adv-x="544" 
d="M392.5 494.5c32.333 -17.667 57.499 -42.499 75.499 -74.499s27 -68.667 27 -110h-93c0 41.333 -10.5 74.333 -31.5 99s-51.167 37 -90.5 37c-41.333 0 -74.166 -13.833 -98.499 -41.5s-36.5 -65.5 -36.5 -113.5v-54c0 -58 12 -101.167 36 -129.5s58 -42.5 102 -42.5
c40.667 0 71.167 12.167 91.5 36.5s30.5 57.166 30.5 98.499h90c0 -64 -19.167 -115 -57.5 -153s-89.5 -57 -153.5 -57h-8c-45.333 0 -85 10.5 -119 31.5s-60.167 50.5 -78.5 88.5s-27.5 82.333 -27.5 133v24c0 50.667 9.33301 95.167 28 133.5s45 68 79 89
s73 31.5 117 31.5h8c40.667 0 77.167 -8.83301 109.5 -26.5zM388.999 -105.999c0 -27.333 -10.5 -49.333 -31.5 -66s-45.5 -25 -73.5 -25c-43.333 0 -78.333 7.33301 -105 22l9 49c28 -13.333 52 -20 72 -20c44.667 0 67 15 67 45c0 12.667 -5 22.667 -15 30
s-22.333 11 -37 11h-21v43h24c74 0 111 -29.667 111 -89z" />
    <glyph glyph-name="egrave" unicode="&#xe8;" horiz-adv-x="556" 
d="M320 575h-70l-115 142l1 3h89zM399.5 494.5c32.333 -17.667 57.4961 -42.833 75.4961 -75.5s27 -70.667 27 -114v-71h-357c1.33301 -54 14 -95.667 38 -125s59.667 -44 107 -44c42 0 73 12.333 93 37s30 54 30 88h89c0 -40 -9.16699 -75 -27.5 -105
s-43.666 -53.333 -75.999 -70s-69.166 -25 -110.499 -25h-4c-72 0 -128.833 23.167 -170.5 69.5s-62.5 108.166 -62.5 185.499v20c0 50.667 9.33301 95.334 28 134.001s45.334 68.667 80.001 90s75.334 32 122.001 32h7c42 0 79.167 -8.83301 111.5 -26.5zM190.496 411.001
c-23.667 -23.333 -38.167 -58 -43.5 -104h262v12c0 38 -11.5 68.667 -34.5 92s-53.5 35 -91.5 35s-68.833 -11.667 -92.5 -35z" />
    <glyph glyph-name="eacute" unicode="&#xe9;" horiz-adv-x="556" 
d="M431 717l-116 -142h-69l94 145h90zM399.5 494.5c32.333 -17.667 57.4961 -42.833 75.4961 -75.5s27 -70.667 27 -114v-71h-357c1.33301 -54 14 -95.667 38 -125s59.667 -44 107 -44c42 0 73 12.333 93 37s30 54 30 88h89c0 -40 -9.16699 -75 -27.5 -105
s-43.666 -53.333 -75.999 -70s-69.166 -25 -110.499 -25h-4c-72 0 -128.833 23.167 -170.5 69.5s-62.5 108.166 -62.5 185.499v20c0 50.667 9.33301 95.334 28 134.001s45.334 68.667 80.001 90s75.334 32 122.001 32h7c42 0 79.167 -8.83301 111.5 -26.5zM190.496 411.001
c-23.667 -23.333 -38.167 -58 -43.5 -104h262v12c0 38 -11.5 68.667 -34.5 92s-53.5 35 -91.5 35s-68.833 -11.667 -92.5 -35z" />
    <glyph glyph-name="ecircumflex" unicode="&#xea;" horiz-adv-x="556" 
d="M457 575h-80l-94 89l-95 -89h-80l136 145h78zM399.5 494.5c32.333 -17.667 57.4961 -42.833 75.4961 -75.5s27 -70.667 27 -114v-71h-357c1.33301 -54 14 -95.667 38 -125s59.667 -44 107 -44c42 0 73 12.333 93 37s30 54 30 88h89c0 -40 -9.16699 -75 -27.5 -105
s-43.666 -53.333 -75.999 -70s-69.166 -25 -110.499 -25h-4c-72 0 -128.833 23.167 -170.5 69.5s-62.5 108.166 -62.5 185.499v20c0 50.667 9.33301 95.334 28 134.001s45.334 68.667 80.001 90s75.334 32 122.001 32h7c42 0 79.167 -8.83301 111.5 -26.5zM190.496 411.001
c-23.667 -23.333 -38.167 -58 -43.5 -104h262v12c0 38 -11.5 68.667 -34.5 92s-53.5 35 -91.5 35s-68.833 -11.667 -92.5 -35z" />
    <glyph glyph-name="edieresis" unicode="&#xeb;" horiz-adv-x="556" 
d="M233 622h-90v98h90v-98zM422 622h-91v98h91v-98zM399.5 494.5c32.333 -17.667 57.4961 -42.833 75.4961 -75.5s27 -70.667 27 -114v-71h-357c1.33301 -54 14 -95.667 38 -125s59.667 -44 107 -44c42 0 73 12.333 93 37s30 54 30 88h89c0 -40 -9.16699 -75 -27.5 -105
s-43.666 -53.333 -75.999 -70s-69.166 -25 -110.499 -25h-4c-72 0 -128.833 23.167 -170.5 69.5s-62.5 108.166 -62.5 185.499v20c0 50.667 9.33301 95.334 28 134.001s45.334 68.667 80.001 90s75.334 32 122.001 32h7c42 0 79.167 -8.83301 111.5 -26.5zM190.496 411.001
c-23.667 -23.333 -38.167 -58 -43.5 -104h262v12c0 38 -11.5 68.667 -34.5 92s-53.5 35 -91.5 35s-68.833 -11.667 -92.5 -35z" />
    <glyph glyph-name="igrave" unicode="&#xec;" horiz-adv-x="260" 
d="M176 575h-70l-115 142l1 3h91zM177 0h-94v511h94v-511z" />
    <glyph glyph-name="iacute" unicode="&#xed;" horiz-adv-x="260" 
d="M270 717l-116 -142h-69l94 145h90zM177 0h-94v511h94v-511z" />
    <glyph glyph-name="icircumflex" unicode="&#xee;" horiz-adv-x="260" 
d="M305 575h-80l-94 89l-95 -89h-80l136 145h78zM177 0h-94v511h94v-511z" />
    <glyph glyph-name="idieresis" unicode="&#xef;" horiz-adv-x="260" 
d="M83 622h-92v98h92v-98zM270 622h-91v98h91v-98zM177 0h-94v511h94v-511z" />
    <glyph glyph-name="eth" unicode="&#xf0;" horiz-adv-x="575" 
d="M268 673l94 44l32 -34l-87 -40c143.333 -118 215 -241 215 -369v-37c0 -76.667 -21 -137 -63 -181s-99.333 -66 -172 -66s-130 22 -172 66s-63 104.333 -63 181v37c0 76.667 21.333 137 64 181s99.667 66 171 66c10.667 0 21.334 -1 32.001 -3
c-22.667 27.333 -50.334 56.333 -83.001 87l-91 -43l-36 33l94 44c-12.667 10.667 -33.667 25.334 -63 44.001l-26 17l59 29c29.333 -14.667 61 -33.334 95 -56.001zM183 400c-24.667 -30.667 -36.999 -75.667 -36.999 -135v-19c0 -58 12.167 -102.667 36.5 -134
s59.166 -47 104.499 -47c44 0 78.5 15.5 103.5 46.5s37.5 75.833 37.5 134.5v19c0 58 -12.167 102.667 -36.5 134s-59.166 47 -104.499 47c-44.667 0 -79.334 -15.333 -104.001 -46z" />
    <glyph glyph-name="ntilde" unicode="&#xf1;" horiz-adv-x="593" 
d="M466 645.5c-20.667 -19.667 -47.666 -29.5 -80.999 -29.5c-22.667 0 -46 3.66699 -70 11c-6 1.33301 -11.5 2.83301 -16.5 4.5s-9.83301 3.16699 -14.5 4.5c-16.667 5.33301 -29.5 9 -38.5 11s-18.833 3 -29.5 3c-30 0 -48.333 -11.333 -55 -34h-50c0 28 10 52.333 30 73
s47 31 81 31c15.333 0 29.333 -1.5 42 -4.5s28.667 -7.5 48 -13.5c38 -11.333 64.667 -17 80 -17c29.333 0 47.666 11.667 54.999 35h50c0 -30 -10.333 -54.833 -31 -74.5zM467.001 476c32 -30 48.001 -73.999 48.001 -131.999v-344h-94v327c0 79.333 -36 119 -108 119
c-24 0 -46.333 -6.33301 -67 -19s-37.334 -29.834 -50.001 -51.501s-19 -45.5 -19 -71.5v-304h-94v511h68l13 -75c42.667 56.667 99.667 85 171 85c56 0 100 -15 132 -45z" />
    <glyph glyph-name="ograve" unicode="&#xf2;" horiz-adv-x="574" 
d="M323 575h-70l-115 142l1 3h89zM458 455c42.667 -44 64 -104.333 64 -181v-37c0 -76.667 -21 -137 -63 -181s-99.333 -66 -172 -66s-130 22 -172 66s-63 104.333 -63 181v37c0 76.667 21.333 137 64 181s99.667 66 171 66s128.333 -22 171 -66zM183 400
c-24.667 -30.667 -36.999 -75.667 -36.999 -135v-19c0 -58 12.167 -102.667 36.5 -134s59.166 -47 104.499 -47c44 0 78.5 15.5 103.5 46.5s37.5 75.833 37.5 134.5v19c0 58 -12.167 102.667 -36.5 134s-59.166 47 -104.499 47c-44.667 0 -79.334 -15.333 -104.001 -46z" />
    <glyph glyph-name="oacute" unicode="&#xf3;" horiz-adv-x="574" 
d="M440 717l-116 -142h-69l94 145h90zM458 455c42.667 -44 64 -104.333 64 -181v-37c0 -76.667 -21 -137 -63 -181s-99.333 -66 -172 -66s-130 22 -172 66s-63 104.333 -63 181v37c0 76.667 21.333 137 64 181s99.667 66 171 66s128.333 -22 171 -66zM183 400
c-24.667 -30.667 -36.999 -75.667 -36.999 -135v-19c0 -58 12.167 -102.667 36.5 -134s59.166 -47 104.499 -47c44 0 78.5 15.5 103.5 46.5s37.5 75.833 37.5 134.5v19c0 58 -12.167 102.667 -36.5 134s-59.166 47 -104.499 47c-44.667 0 -79.334 -15.333 -104.001 -46z" />
    <glyph glyph-name="ocircumflex" unicode="&#xf4;" horiz-adv-x="574" 
d="M460 575h-80l-94 89l-95 -89h-80l136 145h78zM458 455c42.667 -44 64 -104.333 64 -181v-37c0 -76.667 -21 -137 -63 -181s-99.333 -66 -172 -66s-130 22 -172 66s-63 104.333 -63 181v37c0 76.667 21.333 137 64 181s99.667 66 171 66s128.333 -22 171 -66zM183 400
c-24.667 -30.667 -36.999 -75.667 -36.999 -135v-19c0 -58 12.167 -102.667 36.5 -134s59.166 -47 104.499 -47c44 0 78.5 15.5 103.5 46.5s37.5 75.833 37.5 134.5v19c0 58 -12.167 102.667 -36.5 134s-59.166 47 -104.499 47c-44.667 0 -79.334 -15.333 -104.001 -46z" />
    <glyph glyph-name="otilde" unicode="&#xf5;" horiz-adv-x="574" 
d="M449 645c-20.667 -19.333 -47.666 -29 -80.999 -29c-22.667 0 -46 3.66699 -70 11c-6 1.33301 -11.5 2.83301 -16.5 4.5s-9.83301 3.16699 -14.5 4.5c-16.667 5.33301 -29.5 9 -38.5 11s-18.833 3 -29.5 3c-30 0 -48.333 -11.333 -55 -34h-50c0 28.667 10 53.167 30 73.5
s47 30.5 81 30.5c12.667 0 24.5 -1.16699 35.5 -3.5s21.5 -5 31.5 -8l22 -6.5c34 -11.333 61 -17 81 -17c29.333 0 47.666 11.667 54.999 35h50c0 -30.667 -10.333 -55.667 -31 -75zM458.001 455c42.667 -44 64 -104.333 64 -181v-37c0 -76.667 -21 -137 -63 -181
s-99.333 -66 -172 -66s-130 22 -172 66s-63 104.333 -63 181v37c0 76.667 21.333 137 64 181s99.667 66 171 66s128.333 -22 171 -66zM183.001 400c-24.667 -30.667 -36.999 -75.667 -36.999 -135v-19c0 -58 12.167 -102.667 36.5 -134s59.166 -47 104.499 -47
c44 0 78.5 15.5 103.5 46.5s37.5 75.833 37.5 134.5v19c0 58 -12.167 102.667 -36.5 134s-59.166 47 -104.499 47c-44.667 0 -79.334 -15.333 -104.001 -46z" />
    <glyph glyph-name="odieresis" unicode="&#xf6;" horiz-adv-x="574" 
d="M237 622h-90v98h90v-98zM426 622h-91v98h91v-98zM458 455c42.667 -44 64 -104.333 64 -181v-37c0 -76.667 -21 -137 -63 -181s-99.333 -66 -172 -66s-130 22 -172 66s-63 104.333 -63 181v37c0 76.667 21.333 137 64 181s99.667 66 171 66s128.333 -22 171 -66zM183 400
c-24.667 -30.667 -36.999 -75.667 -36.999 -135v-19c0 -58 12.167 -102.667 36.5 -134s59.166 -47 104.499 -47c44 0 78.5 15.5 103.5 46.5s37.5 75.833 37.5 134.5v19c0 58 -12.167 102.667 -36.5 134s-59.166 47 -104.499 47c-44.667 0 -79.334 -15.333 -104.001 -46z" />
    <glyph glyph-name="divide" unicode="&#xf7;" 
d="M349 369h-83v91h83v-91zM563 213h-512v84h512v-84zM349 51h-83v90h83v-90z" />
    <glyph glyph-name="oslash" unicode="&#xf8;" horiz-adv-x="574" 
d="M447 466c50 -44 75 -108 75 -192v-37c0 -76.667 -21 -137 -63 -181s-99.333 -66 -172 -66c-44.667 0 -84.667 9 -120 27l-45 -72h-59l63 100c-49.333 44 -74 108 -74 192v37c0 76.667 21.333 137 64 181s99.667 66 171 66c44 0 83.667 -9 119 -27l46 74h59zM183.5 399.5
c-25 -31 -37.5 -75.833 -37.5 -134.5v-19c0 -50 9.66699 -90.667 29 -122l188 301c-22 14 -45 21 -69 21c-48.667 0 -85.5 -15.5 -110.5 -46.5zM210 86c21.333 -14 44.333 -21 69 -21c50 0 87.333 15.5 112 46.5s37 75.833 37 134.5v19c0 51.333 -10 92.333 -30 123z" />
    <glyph glyph-name="ugrave" unicode="&#xf9;" horiz-adv-x="618" 
d="M338 575h-70l-115 142l1 3h89zM510 100c0 -12 2.66602 -20.833 7.99902 -26.5s12 -8.5 20 -8.5c14.667 0 29.667 4.66699 45 14v-69c-20.667 -13.333 -41.667 -20 -63 -20c-36 0 -61.167 7.33301 -75.5 22s-22.166 35.334 -23.499 62.001
c-18 -26.667 -41.167 -47.334 -69.5 -62.001s-60.833 -22 -97.5 -22c-51.333 0 -93.5 15.167 -126.5 45.5s-49.5 74.166 -49.5 131.499v344h94v-327c0 -79.333 36 -119 108 -119c23.333 0 45.5 6.33301 66.5 19s37.833 29.834 50.5 51.501s19 45.5 19 71.5v304h94v-411z" />
    <glyph glyph-name="uacute" unicode="&#xfa;" horiz-adv-x="618" 
d="M444 717l-116 -142h-69l94 145h90zM510 100c0 -12 2.66602 -20.833 7.99902 -26.5s12 -8.5 20 -8.5c14.667 0 29.667 4.66699 45 14v-69c-20.667 -13.333 -41.667 -20 -63 -20c-36 0 -61.167 7.33301 -75.5 22s-22.166 35.334 -23.499 62.001
c-18 -26.667 -41.167 -47.334 -69.5 -62.001s-60.833 -22 -97.5 -22c-51.333 0 -93.5 15.167 -126.5 45.5s-49.5 74.166 -49.5 131.499v344h94v-327c0 -79.333 36 -119 108 -119c23.333 0 45.5 6.33301 66.5 19s37.833 29.834 50.5 51.501s19 45.5 19 71.5v304h94v-411z" />
    <glyph glyph-name="ucircumflex" unicode="&#xfb;" horiz-adv-x="618" 
d="M466 575h-80l-94 89l-95 -89h-80l136 145h78zM510 100c0 -12 2.66602 -20.833 7.99902 -26.5s12 -8.5 20 -8.5c14.667 0 29.667 4.66699 45 14v-69c-20.667 -13.333 -41.667 -20 -63 -20c-36 0 -61.167 7.33301 -75.5 22s-22.166 35.334 -23.499 62.001
c-18 -26.667 -41.167 -47.334 -69.5 -62.001s-60.833 -22 -97.5 -22c-51.333 0 -93.5 15.167 -126.5 45.5s-49.5 74.166 -49.5 131.499v344h94v-327c0 -79.333 36 -119 108 -119c23.333 0 45.5 6.33301 66.5 19s37.833 29.834 50.5 51.501s19 45.5 19 71.5v304h94v-411z" />
    <glyph glyph-name="udieresis" unicode="&#xfc;" horiz-adv-x="618" 
d="M245 622h-90v98h90v-98zM434 622h-91v98h91v-98zM510 100c0 -12 2.66602 -20.833 7.99902 -26.5s12 -8.5 20 -8.5c14.667 0 29.667 4.66699 45 14v-69c-20.667 -13.333 -41.667 -20 -63 -20c-36 0 -61.167 7.33301 -75.5 22s-22.166 35.334 -23.499 62.001
c-18 -26.667 -41.167 -47.334 -69.5 -62.001s-60.833 -22 -97.5 -22c-51.333 0 -93.5 15.167 -126.5 45.5s-49.5 74.166 -49.5 131.499v344h94v-327c0 -79.333 36 -119 108 -119c23.333 0 45.5 6.33301 66.5 19s37.833 29.834 50.5 51.501s19 45.5 19 71.5v304h94v-411z" />
    <glyph glyph-name="yacute" unicode="&#xfd;" horiz-adv-x="512" 
d="M407 717l-116 -142h-69l94 145h90zM309 20c-22.667 -56 -43.666 -98.832 -62.999 -128.499s-39 -50 -59 -61s-43.333 -16.5 -70 -16.5c-24.667 0 -48 4.66699 -70 14v77c22 -9.33301 38.667 -14 50 -14c27.333 0 50.166 9.16699 68.499 27.5s33.5 47.166 45.5 86.499
l-199 506h100l147 -377h4l145 377h92z" />
    <glyph glyph-name="thorn" unicode="&#xfe;" horiz-adv-x="583" 
d="M177 455c36 44 84.998 66 146.998 66c64.667 0 115.334 -23.667 152.001 -71s55 -112.333 55 -195v-11c0 -78.667 -18.167 -140.667 -54.5 -186s-87.166 -68 -152.499 -68c-62.667 0 -111.667 25 -147 75v-246h-94v901h94v-265zM207.498 399
c-21 -31.333 -31.5 -79 -31.5 -143c0 -65.333 10.833 -113.5 32.5 -144.5s54.5 -46.5 98.5 -46.5s76.667 15.667 98 47s32 79.333 32 144c0 65.333 -10.833 113.333 -32.5 144s-54.167 46 -97.5 46c-45.333 0 -78.5 -15.667 -99.5 -47z" />
    <glyph glyph-name="ydieresis" unicode="&#xff;" horiz-adv-x="512" 
d="M210 622h-90v98h90v-98zM399 622h-91v98h91v-98zM309 20c-22.667 -56 -43.666 -98.832 -62.999 -128.499s-39 -50 -59 -61s-43.333 -16.5 -70 -16.5c-24.667 0 -48 4.66699 -70 14v77c22 -9.33301 38.667 -14 50 -14c27.333 0 50.166 9.16699 68.499 27.5
s33.5 47.166 45.5 86.499l-199 506h100l147 -377h4l145 377h92z" />
    <glyph glyph-name="Amacron" unicode="&#x100;" horiz-adv-x="652" 
d="M648 0h-106l-58 149h-328l-57 -149h-95l268 686h108zM318 568l-127 -330h259l-126 330h-6zM485 837h-318v74h318v-74z" />
    <glyph glyph-name="amacron" unicode="&#x101;" horiz-adv-x="585" 
d="M434.5 481c33 -26.667 49.5029 -65.334 49.5029 -116.001v-265c0 -12 2.66699 -20.833 8 -26.5s12 -8.5 20 -8.5c15.333 0 30.666 4.66699 45.999 14v-69c-22.667 -13.333 -48.334 -20 -77.001 -20s-50 8.16699 -64 24.5s-21.667 38.833 -23 67.5
c-41.333 -61.333 -101 -92 -179 -92c-56 0 -97.833 12.167 -125.5 36.5s-41.5 62.833 -41.5 115.5c0 41.333 10.667 73.833 32 97.5s56.666 40.834 105.999 51.501s117.333 16 204 16v47c0 34 -10 57.833 -30 71.5s-49 20.5 -87 20.5c-36 0 -64 -7 -84 -21
s-30 -33.667 -30 -59v-12h-92c-1.33301 9.33301 -2 20.333 -2 33c0 23.333 9.33301 45.333 28 66s44 37.167 76 49.5s67.333 18.5 106 18.5h9c67.333 0 117.5 -13.333 150.5 -40zM231.503 223.5c-35.667 -7 -59.5 -17.5 -71.5 -31.5s-18 -33.333 -18 -58
c0 -46 35 -69 105 -69c24.667 0 48 6.16699 70 18.5s39.667 29.833 53 52.5s20 48.667 20 78v20c-70 0 -122.833 -3.5 -158.5 -10.5zM452.003 662h-318v74h318v-74z" />
    <glyph glyph-name="Abreve" unicode="&#x102;" horiz-adv-x="652" 
d="M648 0h-106l-58 149h-328l-57 -149h-95l268 686h108zM318 568l-127 -330h259l-126 330h-6zM490.5 853c-19 -19.333 -43.3311 -35 -72.998 -47s-60.167 -18 -91.5 -18s-61.833 6 -91.5 18s-53.834 27.667 -72.501 47s-28 39 -28 59h67
c5.33301 -18 19.666 -32.833 42.999 -44.5s50.666 -17.5 81.999 -17.5c30.667 0 57.834 5.83301 81.501 17.5s38.167 26.5 43.5 44.5h68c0 -20 -9.5 -39.667 -28.5 -59z" />
    <glyph glyph-name="abreve" unicode="&#x103;" horiz-adv-x="585" 
d="M434.5 481c33 -26.667 49.5029 -65.334 49.5029 -116.001v-265c0 -12 2.66699 -20.833 8 -26.5s12 -8.5 20 -8.5c15.333 0 30.666 4.66699 45.999 14v-69c-22.667 -13.333 -48.334 -20 -77.001 -20s-50 8.16699 -64 24.5s-21.667 38.833 -23 67.5
c-41.333 -61.333 -101 -92 -179 -92c-56 0 -97.833 12.167 -125.5 36.5s-41.5 62.833 -41.5 115.5c0 41.333 10.667 73.833 32 97.5s56.666 40.834 105.999 51.501s117.333 16 204 16v47c0 34 -10 57.833 -30 71.5s-49 20.5 -87 20.5c-36 0 -64 -7 -84 -21
s-30 -33.667 -30 -59v-12h-92c-1.33301 9.33301 -2 20.333 -2 33c0 23.333 9.33301 45.333 28 66s44 37.167 76 49.5s67.333 18.5 106 18.5h9c67.333 0 117.5 -13.333 150.5 -40zM231.503 223.5c-35.667 -7 -59.5 -17.5 -71.5 -31.5s-18 -33.333 -18 -58
c0 -46 35 -69 105 -69c24.667 0 48 6.16699 70 18.5s39.667 29.833 53 52.5s20 48.667 20 78v20c-70 0 -122.833 -3.5 -158.5 -10.5zM457.503 678c-19 -19.333 -43.3311 -35 -72.998 -47s-60.167 -18 -91.5 -18s-61.833 6 -91.5 18s-53.834 27.667 -72.501 47s-28 39 -28 59
h67c5.33301 -18 19.666 -32.833 42.999 -44.5s50.666 -17.5 81.999 -17.5c30.667 0 57.834 5.83301 81.501 17.5s38.167 26.5 43.5 44.5h68c0 -20 -9.5 -39.667 -28.5 -59z" />
    <glyph glyph-name="Aogonek" unicode="&#x104;" horiz-adv-x="652" 
d="M648 0h-106l-58 149h-328l-57 -149h-95l268 686h108zM318 568l-127 -330h259l-126 330h-6zM595.5 -26c-9.66699 -10.667 -14.499 -21.332 -14.499 -31.999c0 -25.333 14.667 -38 44 -38c13.333 0 35.666 4.66699 66.999 14l13 -37c-27.333 -16 -57 -24 -89 -24
c-30.667 0 -54.5 6.16699 -71.5 18.5s-25.5 30.833 -25.5 55.5c0 22 18 45 54 69h54c-11.333 -6.66699 -21.833 -15.334 -31.5 -26.001z" />
    <glyph glyph-name="aogonek" unicode="&#x105;" horiz-adv-x="585" 
d="M604 -119c-26.667 -16 -56.3301 -24.001 -88.9971 -24.001c-30.667 0 -54.5 6.16699 -71.5 18.5s-25.5 30.833 -25.5 55.5c0 19.333 14 39.666 42 60.999c-40.667 7.33301 -62.667 37.333 -66 90c-41.333 -61.333 -101 -92 -179 -92c-56 0 -97.833 12.167 -125.5 36.5
s-41.5 62.833 -41.5 115.5c0 41.333 10.667 73.833 32 97.5s56.666 40.834 105.999 51.501s117.333 16 204 16v47c0 34 -10 57.833 -30 71.5s-49 20.5 -87 20.5c-36 0 -64 -7 -84 -21s-30 -33.667 -30 -59v-12h-92c-1.33301 9.33301 -2 20.333 -2 33
c0 23.333 9.33301 45.333 28 66s44 37.167 76 49.5s67.333 18.5 106 18.5h9c67.333 0 117.5 -13.333 150.5 -40s49.5 -65.334 49.5 -116.001v-265c0 -12 2.66699 -20.833 8 -26.5s12 -8.5 20 -8.5c15.333 0 30.666 4.66699 45.999 14v-69
c-12 -7.33301 -26 -12.666 -42 -15.999c-10 -7.33301 -18.5 -15.666 -25.5 -24.999s-10.5 -18.333 -10.5 -27c0 -25.333 14.667 -38 44 -38c13.333 0 35.666 4.66699 66.999 14zM390.004 233.999c-70 0 -122.833 -3.5 -158.5 -10.5s-59.5 -17.5 -71.5 -31.5
s-18 -33.333 -18 -58c0 -46 35 -69 105 -69c24.667 0 48 6.16699 70 18.5s39.667 29.833 53 52.5s20 48.667 20 78v20z" />
    <glyph glyph-name="Cacute" unicode="&#x106;" horiz-adv-x="663" 
d="M484 663c40 -22 70.833 -53.501 92.5 -94.501s32.5 -89.5 32.5 -145.5h-98c0 58 -14.333 103.167 -43 135.5s-70 48.5 -124 48.5c-60 0 -105.667 -18.5 -137 -55.5s-47 -91.5 -47 -163.5v-90c0 -71.333 15.333 -125.666 46 -162.999s76 -56 136 -56
c56 0 98.833 16 128.5 48s44.5 76.667 44.5 134h94c0 -55.333 -10.833 -103.333 -32.5 -144s-52.5 -72 -92.5 -94s-86.667 -33 -140 -33c-88.667 0 -157.834 27.167 -207.501 81.5s-74.5 129.833 -74.5 226.5v90c0 96 24.833 171.333 74.5 226s118.834 82 207.501 82
c53.333 0 100 -11 140 -33zM464 891.999l-116 -142h-69l94 145h90z" />
    <glyph glyph-name="cacute" unicode="&#x107;" horiz-adv-x="544" 
d="M392.5 494.5c32.333 -17.667 57.499 -42.499 75.499 -74.499s27 -68.667 27 -110h-93c0 41.333 -10.5 74.333 -31.5 99s-51.167 37 -90.5 37c-41.333 0 -74.166 -13.833 -98.499 -41.5s-36.5 -65.5 -36.5 -113.5v-54c0 -58 12 -101.167 36 -129.5s58 -42.5 102 -42.5
c40.667 0 71.167 12.167 91.5 36.5s30.5 57.166 30.5 98.499h90c0 -64 -19.167 -115 -57.5 -153s-89.5 -57 -153.5 -57h-8c-45.333 0 -85 10.5 -119 31.5s-60.167 50.5 -78.5 88.5s-27.5 82.333 -27.5 133v24c0 50.667 9.33301 95.167 28 133.5s45 68 79 89
s73 31.5 117 31.5h8c40.667 0 77.167 -8.83301 109.5 -26.5zM403.999 717.001l-116 -142h-69l94 145h90z" />
    <glyph glyph-name="Ccaron" unicode="&#x10c;" horiz-adv-x="663" 
d="M484 663c40 -22 70.833 -53.501 92.5 -94.501s32.5 -89.5 32.5 -145.5h-98c0 58 -14.333 103.167 -43 135.5s-70 48.5 -124 48.5c-60 0 -105.667 -18.5 -137 -55.5s-47 -91.5 -47 -163.5v-90c0 -71.333 15.333 -125.666 46 -162.999s76 -56 136 -56
c56 0 98.833 16 128.5 48s44.5 76.667 44.5 134h94c0 -55.333 -10.833 -103.333 -32.5 -144s-52.5 -72 -92.5 -94s-86.667 -33 -140 -33c-88.667 0 -157.834 27.167 -207.501 81.5s-74.5 129.833 -74.5 226.5v90c0 96 24.833 171.333 74.5 226s118.834 82 207.501 82
c53.333 0 100 -11 140 -33zM372 749.999h-78l-136 145h80l95 -89l94 89h80z" />
    <glyph glyph-name="ccaron" unicode="&#x10d;" horiz-adv-x="544" 
d="M392.5 494.5c32.333 -17.667 57.499 -42.499 75.499 -74.499s27 -68.667 27 -110h-93c0 41.333 -10.5 74.333 -31.5 99s-51.167 37 -90.5 37c-41.333 0 -74.166 -13.833 -98.499 -41.5s-36.5 -65.5 -36.5 -113.5v-54c0 -58 12 -101.167 36 -129.5s58 -42.5 102 -42.5
c40.667 0 71.167 12.167 91.5 36.5s30.5 57.166 30.5 98.499h90c0 -64 -19.167 -115 -57.5 -153s-89.5 -57 -153.5 -57h-8c-45.333 0 -85 10.5 -119 31.5s-60.167 50.5 -78.5 88.5s-27.5 82.333 -27.5 133v24c0 50.667 9.33301 95.167 28 133.5s45 68 79 89
s73 31.5 117 31.5h8c40.667 0 77.167 -8.83301 109.5 -26.5zM311.999 575.001h-78l-136 145h80l95 -89l94 89h80z" />
    <glyph glyph-name="Dcaron" unicode="&#x10e;" horiz-adv-x="675" 
d="M480 648.5c42.667 -25 75.667 -60.667 99 -107s35 -100.833 35 -163.5v-70c0 -62.667 -11.667 -117.167 -35 -163.5s-56.333 -82 -99 -107s-92.667 -37.5 -150 -37.5h-238v686h238c57.333 0 107.333 -12.5 150 -37.5zM190 597l0.00195312 -508.001h140
c59.333 0 105.166 18.5 137.499 55.5s48.5 91.5 48.5 163.5v70c0 70.667 -15.833 124.834 -47.5 162.501s-77.834 56.5 -138.501 56.5h-140zM378.002 749.999h-78l-136 145h80l95 -89l94 89h80z" />
    <glyph glyph-name="dcaron" unicode="&#x10f;" horiz-adv-x="583" 
d="M500 0l-69.999 0.000976562c-4.66699 21.333 -9 44.666 -13 69.999c-38 -53.333 -90.667 -80 -158 -80c-64 0 -114.5 23.667 -151.5 71s-55.5 112.333 -55.5 195v11c0 78 18.167 139.833 54.5 185.5s87.166 68.5 152.499 68.5c63.333 0 112.333 -25 147 -75v274h94v-720z
M177.501 399.501c-21 -31 -31.5 -79.167 -31.5 -144.5s10.667 -113.333 32 -144s54 -46 98 -46c87.333 0 131 63.333 131 190c0 65.333 -11 113.5 -33 144.5s-54.667 46.5 -98 46.5c-44.667 0 -77.5 -15.5 -98.5 -46.5zM673.001 601.001l-35 -150h-52l27 124h-41v111h101
v-85z" />
    <glyph glyph-name="Dcroat" unicode="&#x110;" horiz-adv-x="681" 
d="M486 648.5c42.667 -25 75.667 -60.667 99 -107s35 -100.833 35 -163.5v-70c0 -62.667 -11.667 -117.167 -35 -163.5s-56.333 -82 -99 -107s-92.667 -37.5 -150 -37.5h-238v310h-93v65h93v311h238c57.333 0 107.333 -12.5 150 -37.5zM196 597l0.00195312 -222.001h145v-65
h-145v-221h140c59.333 0 105.166 18.5 137.499 55.5s48.5 91.5 48.5 163.5v70c0 70.667 -15.833 124.834 -47.5 162.501s-77.834 56.5 -138.501 56.5h-140z" />
    <glyph glyph-name="dcroat" unicode="&#x111;" horiz-adv-x="583" 
d="M577 592l-76.999 0.000976562v-592h-70c-4.66699 21.333 -9 44.666 -13 69.999c-38 -53.333 -90.667 -80 -158 -80c-64 0 -114.5 23.667 -151.5 71s-55.5 112.333 -55.5 195v11c0 78 18.167 139.833 54.5 185.5s87.166 68.5 152.499 68.5c63.333 0 112.333 -25 147 -75
v146h-211v74h211v54h94v-54h77v-74zM407.001 255.001c0 65.333 -11 113.5 -33 144.5s-54.667 46.5 -98 46.5c-44.667 0 -77.5 -15.5 -98.5 -46.5s-31.5 -79.167 -31.5 -144.5s10.667 -113.333 32 -144s54 -46 98 -46c87.333 0 131 63.333 131 190z" />
    <glyph glyph-name="Emacron" unicode="&#x112;" horiz-adv-x="593" 
d="M529 597h-339v-202h307v-89h-307v-217h345l14 -89h-457v686h450zM456 837h-318v74h318v-74z" />
    <glyph glyph-name="emacron" unicode="&#x113;" horiz-adv-x="556" 
d="M399.5 494.5c32.333 -17.667 57.4961 -42.833 75.4961 -75.5s27 -70.667 27 -114v-71h-357c1.33301 -54 14 -95.667 38 -125s59.667 -44 107 -44c42 0 73 12.333 93 37s30 54 30 88h89c0 -40 -9.16699 -75 -27.5 -105s-43.666 -53.333 -75.999 -70
s-69.166 -25 -110.499 -25h-4c-72 0 -128.833 23.167 -170.5 69.5s-62.5 108.166 -62.5 185.499v20c0 50.667 9.33301 95.334 28 134.001s45.334 68.667 80.001 90s75.334 32 122.001 32h7c42 0 79.167 -8.83301 111.5 -26.5zM190.496 411.001
c-23.667 -23.333 -38.167 -58 -43.5 -104h262v12c0 38 -11.5 68.667 -34.5 92s-53.5 35 -91.5 35s-68.833 -11.667 -92.5 -35zM436.996 662.001h-318v74h318v-74z" />
    <glyph glyph-name="Edotaccent" unicode="&#x116;" horiz-adv-x="593" 
d="M529 597h-339v-202h307v-89h-307v-217h345l14 -89h-457v686h450zM344 891.5c12.667 -13 18.998 -28.833 18.998 -47.5c0 -18 -6.5 -33.333 -19.5 -46s-28.5 -19 -46.5 -19s-33.5 6.5 -46.5 19.5s-19.5 28.833 -19.5 47.5c0 18 6.33301 33.333 19 46s28.334 19 47.001 19
s34.334 -6.5 47.001 -19.5z" />
    <glyph glyph-name="edotaccent" unicode="&#x117;" horiz-adv-x="556" 
d="M399.5 494.5c32.333 -17.667 57.4961 -42.833 75.4961 -75.5s27 -70.667 27 -114v-71h-357c1.33301 -54 14 -95.667 38 -125s59.667 -44 107 -44c42 0 73 12.333 93 37s30 54 30 88h89c0 -40 -9.16699 -75 -27.5 -105s-43.666 -53.333 -75.999 -70
s-69.166 -25 -110.499 -25h-4c-72 0 -128.833 23.167 -170.5 69.5s-62.5 108.166 -62.5 185.499v20c0 50.667 9.33301 95.334 28 134.001s45.334 68.667 80.001 90s75.334 32 122.001 32h7c42 0 79.167 -8.83301 111.5 -26.5zM190.496 411.001
c-23.667 -23.333 -38.167 -58 -43.5 -104h262v12c0 38 -11.5 68.667 -34.5 92s-53.5 35 -91.5 35s-68.833 -11.667 -92.5 -35zM324.996 716.501c12.667 -13 18.998 -28.833 18.998 -47.5c0 -18 -6.5 -33.333 -19.5 -46s-28.5 -19 -46.5 -19s-33.5 6.5 -46.5 19.5
s-19.5 28.833 -19.5 47.5c0 18 6.33301 33.333 19 46s28.334 19 47.001 19s34.334 -6.5 47.001 -19.5z" />
    <glyph glyph-name="Eogonek" unicode="&#x118;" horiz-adv-x="593" 
d="M529 597h-339v-202h307v-89h-307v-217h345l14 -89h-457v686h450zM492.5 -26c-9.66699 -10.667 -14.499 -21.332 -14.499 -31.999c0 -25.333 14.667 -38 44 -38c13.333 0 35.666 4.66699 66.999 14l13 -37c-27.333 -16 -57 -24 -89 -24
c-30.667 0 -54.5 6.16699 -71.5 18.5s-25.5 30.833 -25.5 55.5c0 22 18 45 54 69h54c-11.333 -6.66699 -21.833 -15.334 -31.5 -26.001z" />
    <glyph glyph-name="eogonek" unicode="&#x119;" horiz-adv-x="556" 
d="M502 234l-357.001 0.00195312c1.33301 -54 14 -95.667 38 -125s59.667 -44 107 -44c42 0 73 12.333 93 37s30 54 30 88h89c0 -47.333 -12.667 -87.666 -38 -120.999s-59.666 -56.333 -102.999 -69h9c-11.333 -6.66699 -21.833 -15.334 -31.5 -26.001
s-14.5 -21.334 -14.5 -32.001c0 -25.333 14.667 -38 44 -38c13.333 0 35.666 4.66699 66.999 14l13 -37c-26.667 -16 -56.334 -24 -89.001 -24c-30.667 0 -54.5 6.16699 -71.5 18.5s-25.5 30.833 -25.5 55.5c0 19.333 13.333 39 40 59h-14h-4
c-72 0 -128.833 23.167 -170.5 69.5s-62.5 108.166 -62.5 185.499v20c0 50.667 9.33301 95.334 28 134.001s45.334 68.667 80.001 90s75.334 32 122.001 32h7c42 0 79.167 -8.83301 111.5 -26.5s57.5 -42.834 75.5 -75.501s27 -70.667 27 -114v-71zM408.999 319.002
c0 38 -11.5 68.667 -34.5 92s-53.5 35 -91.5 35s-68.833 -11.667 -92.5 -35s-38.167 -58 -43.5 -104h262v12z" />
    <glyph glyph-name="Ecaron" unicode="&#x11a;" horiz-adv-x="593" 
d="M529 597h-339v-202h307v-89h-307v-217h345l14 -89h-457v686h450zM337 750h-78l-136 145h80l95 -89l94 89h80z" />
    <glyph glyph-name="ecaron" unicode="&#x11b;" horiz-adv-x="556" 
d="M399.5 494.5c32.333 -17.667 57.4961 -42.833 75.4961 -75.5s27 -70.667 27 -114v-71h-357c1.33301 -54 14 -95.667 38 -125s59.667 -44 107 -44c42 0 73 12.333 93 37s30 54 30 88h89c0 -40 -9.16699 -75 -27.5 -105s-43.666 -53.333 -75.999 -70
s-69.166 -25 -110.499 -25h-4c-72 0 -128.833 23.167 -170.5 69.5s-62.5 108.166 -62.5 185.499v20c0 50.667 9.33301 95.334 28 134.001s45.334 68.667 80.001 90s75.334 32 122.001 32h7c42 0 79.167 -8.83301 111.5 -26.5zM190.496 411.001
c-23.667 -23.333 -38.167 -58 -43.5 -104h262v12c0 38 -11.5 68.667 -34.5 92s-53.5 35 -91.5 35s-68.833 -11.667 -92.5 -35zM317.996 575.001h-78l-136 145h80l95 -89l94 89h80z" />
    <glyph glyph-name="Gbreve" unicode="&#x11e;" horiz-adv-x="677" 
d="M483.5 665c39.667 -20.667 70.167 -49.998 91.5 -87.998s32 -82 32 -132h-98c0 51.333 -14.167 91.166 -42.5 119.499s-69.166 42.5 -122.499 42.5c-60 0 -105.667 -18.5 -137 -55.5s-47 -91.5 -47 -163.5v-90c0 -72 15.5 -126.5 46.5 -163.5s76.833 -55.5 137.5 -55.5
c58 0 100.333 14.5 127 43.5s40 75.167 40 138.5v13h-194v88h290v-234c0 -55.333 2 -98 6 -128h-58c-8.66699 27.333 -15.334 54.666 -20.001 81.999c-43.333 -61.333 -107 -92 -191 -92c-88.667 0 -157.834 27.167 -207.501 81.5s-74.5 129.833 -74.5 226.5v90
c0 96 24.833 171.333 74.5 226s118.834 82 207.501 82c53.333 0 99.833 -10.333 139.5 -31zM503.5 853.002c-19 -19.333 -43.3311 -35 -72.998 -47s-60.167 -18 -91.5 -18s-61.833 6 -91.5 18s-53.834 27.667 -72.501 47s-28 39 -28 59h67
c5.33301 -18 19.666 -32.833 42.999 -44.5s50.666 -17.5 81.999 -17.5c30.667 0 57.834 5.83301 81.501 17.5s38.167 26.5 43.5 44.5h68c0 -20 -9.5 -39.667 -28.5 -59z" />
    <glyph glyph-name="gbreve" unicode="&#x11f;" horiz-adv-x="568" 
d="M524 517.5c-18 -23 -43.001 -37.835 -75.001 -44.502l-2 -3c33.333 -29.333 50 -66 50 -110c0 -48 -18 -86.667 -54 -116s-85 -44 -147 -44h-68c-20 0 -36.667 -5.16699 -50 -15.5s-20 -23.5 -20 -39.5s6.33301 -28.667 19 -38s29.667 -14 51 -14h193
c39.333 0 70.833 -12.333 94.5 -37s35.5 -56 35.5 -94c0 -45.333 -17.167 -81.666 -51.5 -108.999s-80.5 -41 -138.5 -41h-201c-22.667 0 -43.5 6 -62.5 18s-34 27.167 -45 45.5s-16.5 37.166 -16.5 56.499c0 28 6.83301 52.333 20.5 73s31.834 36 54.501 46
c-30.667 18.667 -46 46.334 -46 83.001c0 24 7 44.667 21 62s33.667 30.333 59 39c-44.667 24.667 -67 66.334 -67 125.001c0 49.333 18.167 88.5 54.5 117.5s86.833 43.5 151.5 43.5h4c37.333 0 71.333 -5.66699 102 -17c47.333 23.333 74.333 56.333 81 99h80
c0 -34 -9 -62.5 -27 -85.5zM202.499 425.498c-21 -13.667 -31.5 -35.5 -31.5 -65.5s10.5 -51.667 31.5 -65s49.167 -20 84.5 -20s63.666 6.66699 84.999 20s32 35 32 65s-10.667 51.833 -32 65.5s-49.666 20.5 -84.999 20.5s-63.5 -6.83301 -84.5 -20.5zM186.999 2.99805
c-16 0 -29.666 -5.66699 -40.999 -17s-17 -25 -17 -41s5.66699 -29.667 17 -41s25 -17 41 -17h193c21.333 0 39.666 6.16699 54.999 18.5s23 26.5 23 42.5c0 16.667 -5.66699 30 -17 40s-27.333 15 -48 15h-206zM448.5 677.998c-19 -19.333 -43.3311 -35 -72.998 -47
s-60.167 -18 -91.5 -18s-61.833 6 -91.5 18s-53.834 27.667 -72.501 47s-28 39 -28 59h67c5.33301 -18 19.666 -32.833 42.999 -44.5s50.666 -17.5 81.999 -17.5c30.667 0 57.834 5.83301 81.501 17.5s38.167 26.5 43.5 44.5h68c0 -20 -9.5 -39.667 -28.5 -59z" />
    <glyph glyph-name="Gcommaaccent" unicode="&#x122;" horiz-adv-x="677" 
d="M483.5 665c39.667 -20.667 70.167 -49.998 91.5 -87.998s32 -82 32 -132h-98c0 51.333 -14.167 91.166 -42.5 119.499s-69.166 42.5 -122.499 42.5c-60 0 -105.667 -18.5 -137 -55.5s-47 -91.5 -47 -163.5v-90c0 -72 15.5 -126.5 46.5 -163.5s76.833 -55.5 137.5 -55.5
c58 0 100.333 14.5 127 43.5s40 75.167 40 138.5v13h-194v88h290v-234c0 -55.333 2 -98 6 -128h-58c-8.66699 27.333 -15.334 54.666 -20.001 81.999c-43.333 -61.333 -107 -92 -191 -92c-88.667 0 -157.834 27.167 -207.501 81.5s-74.5 129.833 -74.5 226.5v90
c0 96 24.833 171.333 74.5 226s118.834 82 207.501 82c53.333 0 99.833 -10.333 139.5 -31zM389 -124.998l-29 -125h-53l22 99h-41v111h101v-85z" />
    <glyph glyph-name="gcommaaccent" unicode="&#x123;" horiz-adv-x="568" 
d="M524 517.5c-18 -23 -43.001 -37.835 -75.001 -44.502l-2 -3c33.333 -29.333 50 -66 50 -110c0 -48 -18 -86.667 -54 -116s-85 -44 -147 -44h-68c-20 0 -36.667 -5.16699 -50 -15.5s-20 -23.5 -20 -39.5s6.33301 -28.667 19 -38s29.667 -14 51 -14h193
c39.333 0 70.833 -12.333 94.5 -37s35.5 -56 35.5 -94c0 -45.333 -17.167 -81.666 -51.5 -108.999s-80.5 -41 -138.5 -41h-201c-22.667 0 -43.5 6 -62.5 18s-34 27.167 -45 45.5s-16.5 37.166 -16.5 56.499c0 28 6.83301 52.333 20.5 73s31.834 36 54.501 46
c-30.667 18.667 -46 46.334 -46 83.001c0 24 7 44.667 21 62s33.667 30.333 59 39c-44.667 24.667 -67 66.334 -67 125.001c0 49.333 18.167 88.5 54.5 117.5s86.833 43.5 151.5 43.5h4c37.333 0 71.333 -5.66699 102 -17c47.333 23.333 74.333 56.333 81 99h80
c0 -34 -9 -62.5 -27 -85.5zM202.499 425.498c-21 -13.667 -31.5 -35.5 -31.5 -65.5s10.5 -51.667 31.5 -65s49.167 -20 84.5 -20s63.666 6.66699 84.999 20s32 35 32 65s-10.667 51.833 -32 65.5s-49.666 20.5 -84.999 20.5s-63.5 -6.83301 -84.5 -20.5zM186.999 2.99805
c-16 0 -29.666 -5.66699 -40.999 -17s-17 -25 -17 -41s5.66699 -29.667 17 -41s25 -17 41 -17h193c21.333 0 39.666 6.16699 54.999 18.5s23 26.5 23 42.5c0 16.667 -5.66699 30 -17 40s-27.333 15 -48 15h-206zM234 675.998l29 125h53l-22 -99h41v-111h-101v85z" />
    <glyph glyph-name="Imacron" unicode="&#x12a;" horiz-adv-x="364" 
d="M311 597h-80v-508h80v-89h-258v89h80v508h-80v89h258v-89zM341 837h-318v74h318v-74z" />
    <glyph glyph-name="imacron" unicode="&#x12b;" horiz-adv-x="260" 
d="M177 0h-94v511h94v-511zM289 662h-318v74h318v-74z" />
    <glyph glyph-name="Iogonek" unicode="&#x12e;" horiz-adv-x="364" 
d="M311 597h-80v-508h80v-89h-258v89h80v508h-80v89h258v-89zM256.5 -26c-9.66699 -10.667 -14.499 -21.332 -14.499 -31.999c0 -25.333 14.667 -38 44 -38c13.333 0 35.666 4.66699 66.999 14l13 -37c-27.333 -16 -57 -24 -89 -24c-30.667 0 -54.5 6.16699 -71.5 18.5
s-25.5 30.833 -25.5 55.5c0 22 18 45 54 69h54c-11.333 -6.66699 -21.833 -15.334 -31.5 -26.001z" />
    <glyph glyph-name="iogonek" unicode="&#x12f;" horiz-adv-x="260" 
d="M179 633h-98v87h98v-87zM252 -119c-27.333 -16 -56.999 -23.998 -88.999 -23.998c-30.667 0 -54.5 6.16699 -71.5 18.5s-25.5 30.833 -25.5 55.5c0 22 18 45 54 69h-37v511h94v-511h-3c-11.333 -6.66699 -21.833 -15.334 -31.5 -26.001s-14.5 -21.334 -14.5 -32.001
c0 -25.333 14.667 -38 44 -38c13.333 0 35.666 4.66699 66.999 14z" />
    <glyph glyph-name="Idotaccent" unicode="&#x130;" horiz-adv-x="364" 
d="M311 597h-80v-508h80v-89h-258v89h80v508h-80v89h258v-89zM229 891.5c12.667 -13 18.998 -28.833 18.998 -47.5c0 -18 -6.5 -33.333 -19.5 -46s-28.5 -19 -46.5 -19s-33.5 6.5 -46.5 19.5s-19.5 28.833 -19.5 47.5c0 18 6.33301 33.333 19 46s28.334 19 47.001 19
s34.334 -6.5 47.001 -19.5z" />
    <glyph glyph-name="dotlessi" unicode="&#x131;" horiz-adv-x="260" 
d="M177 0h-94v511h94v-511z" />
    <glyph glyph-name="Kcommaaccent" unicode="&#x136;" horiz-adv-x="623" 
d="M349 383l260 -383h-114l-208 308l-97 -102v-206h-98v686h98v-357l298 357h113zM362 -125l-29 -125h-53l22 99h-41v111h101v-85z" />
    <glyph glyph-name="kcommaaccent" unicode="&#x137;" horiz-adv-x="535" 
d="M177 226l228 285h103l-197 -248l210 -263h-114l-153 190l-77 -80v-110h-94v720h94v-494zM318 -125l-29 -125h-53l22 99h-41v111h101v-85z" />
    <glyph glyph-name="Lacute" unicode="&#x139;" horiz-adv-x="536" 
d="M190 89h315l14 -89h-427v686h98v-597zM300 892l-116 -142h-69l94 145h90z" />
    <glyph glyph-name="lacute" unicode="&#x13a;" horiz-adv-x="268" 
d="M181 0h-94v720h94v-720zM266 892l-116 -142h-69l94 145h90z" />
    <glyph glyph-name="Lcommaaccent" unicode="&#x13b;" horiz-adv-x="536" 
d="M190 89h315l14 -89h-427v686h98v-597zM318 -125l-29 -125h-53l22 99h-41v111h101v-85z" />
    <glyph glyph-name="lcommaaccent" unicode="&#x13c;" horiz-adv-x="268" 
d="M181 0h-94v720h94v-720zM184 -125l-29 -125h-53l22 99h-41v111h101v-85z" />
    <glyph glyph-name="Lcaron" unicode="&#x13d;" horiz-adv-x="536" 
d="M190 89h315l14 -89h-427v686h98v-597zM526 601l-35 -150h-52l27 124h-41v111h101v-85z" />
    <glyph glyph-name="lcaron" unicode="&#x13e;" horiz-adv-x="268" 
d="M181 0h-94v720h94v-720zM348 601l-35 -150h-52l27 124h-41v111h101v-85z" />
    <glyph glyph-name="Lslash" unicode="&#x141;" horiz-adv-x="539" 
d="M193 445l139 72v-71l-139 -72v-285h315l14 -89h-427v324l-62 -31v71l62 31v291h98v-241z" />
    <glyph glyph-name="lslash" unicode="&#x142;" horiz-adv-x="298" 
d="M196 440l82 41v-70l-82 -41v-370h-94v322l-82 -41v70l82 41v328h94v-280z" />
    <glyph glyph-name="Nacute" unicode="&#x143;" horiz-adv-x="694" 
d="M602 0h-83l-335 502l-3 -1v-501h-89v686h86l332 -496l3 1v495h89v-686zM479 892l-116 -142h-69l94 145h90z" />
    <glyph glyph-name="nacute" unicode="&#x144;" horiz-adv-x="593" 
d="M467 476c32 -30 48.001 -73.999 48.001 -131.999v-344h-94v327c0 79.333 -36 119 -108 119c-24 0 -46.333 -6.33301 -67 -19s-37.334 -29.834 -50.001 -51.501s-19 -45.5 -19 -71.5v-304h-94v511h68l13 -75c42.667 56.667 99.667 85 171 85c56 0 100 -15 132 -45z
M429.001 717.001l-116 -142h-69l94 145h90z" />
    <glyph glyph-name="Ncommaaccent" unicode="&#x145;" horiz-adv-x="694" 
d="M602 0h-83l-335 502l-3 -1v-501h-89v686h86l332 -496l3 1v495h89v-686zM397 -125l-29 -125h-53l22 99h-41v111h101v-85z" />
    <glyph glyph-name="ncommaaccent" unicode="&#x146;" horiz-adv-x="593" 
d="M467 476c32 -30 48.001 -73.999 48.001 -131.999v-344h-94v327c0 79.333 -36 119 -108 119c-24 0 -46.333 -6.33301 -67 -19s-37.334 -29.834 -50.001 -51.501s-19 -45.5 -19 -71.5v-304h-94v511h68l13 -75c42.667 56.667 99.667 85 171 85c56 0 100 -15 132 -45z
M347.001 -124.999l-29 -125h-53l22 99h-41v111h101v-85z" />
    <glyph glyph-name="Ncaron" unicode="&#x147;" horiz-adv-x="694" 
d="M602 0h-83l-335 502l-3 -1v-501h-89v686h86l332 -496l3 1v495h89v-686zM387 750h-78l-136 145h80l95 -89l94 89h80z" />
    <glyph glyph-name="ncaron" unicode="&#x148;" horiz-adv-x="593" 
d="M467 476c32 -30 48.001 -73.999 48.001 -131.999v-344h-94v327c0 79.333 -36 119 -108 119c-24 0 -46.333 -6.33301 -67 -19s-37.334 -29.834 -50.001 -51.501s-19 -45.5 -19 -71.5v-304h-94v511h68l13 -75c42.667 56.667 99.667 85 171 85c56 0 100 -15 132 -45z
M337.001 575.001h-78l-136 145h80l95 -89l94 89h80z" />
    <glyph glyph-name="Omacron" unicode="&#x14c;" horiz-adv-x="690" 
d="M494 659c42.667 -24.667 75.834 -60.167 99.501 -106.5s35.5 -101.166 35.5 -164.499v-90c0 -63.333 -11.833 -118.166 -35.5 -164.499s-56.834 -81.833 -99.501 -106.5s-92.334 -37 -149.001 -37s-106.334 12.333 -149.001 37s-75.834 60.167 -99.501 106.5
s-35.5 101.166 -35.5 164.499v90c0 63.333 11.833 118.166 35.5 164.499s56.834 81.833 99.501 106.5s92.334 37 149.001 37s106.334 -12.333 149.001 -37zM208 551c-32.667 -37.333 -49 -91.667 -49 -163v-90c0 -71.333 15.833 -125.666 47.5 -162.999
s77.834 -56 138.501 -56c58.667 0 104.334 18.5 137.001 55.5s49 91.5 49 163.5v90c0 71.333 -15.833 125.666 -47.5 162.999s-77.834 56 -138.501 56c-58.667 0 -104.334 -18.667 -137.001 -56zM504 836.999h-318v74h318v-74z" />
    <glyph glyph-name="omacron" unicode="&#x14d;" horiz-adv-x="574" 
d="M458 455c42.667 -44 64 -104.333 64 -181v-37c0 -76.667 -21 -137 -63 -181s-99.333 -66 -172 -66s-130 22 -172 66s-63 104.333 -63 181v37c0 76.667 21.333 137 64 181s99.667 66 171 66s128.333 -22 171 -66zM183 400c-24.667 -30.667 -36.999 -75.667 -36.999 -135
v-19c0 -58 12.167 -102.667 36.5 -134s59.166 -47 104.499 -47c44 0 78.5 15.5 103.5 46.5s37.5 75.833 37.5 134.5v19c0 58 -12.167 102.667 -36.5 134s-59.166 47 -104.499 47c-44.667 0 -79.334 -15.333 -104.001 -46zM446.001 662h-318v74h318v-74z" />
    <glyph glyph-name="Ohungarumlaut" unicode="&#x150;" horiz-adv-x="690" 
d="M494 659c42.667 -24.667 75.834 -60.167 99.501 -106.5s35.5 -101.166 35.5 -164.499v-90c0 -63.333 -11.833 -118.166 -35.5 -164.499s-56.834 -81.833 -99.501 -106.5s-92.334 -37 -149.001 -37s-106.334 12.333 -149.001 37s-75.834 60.167 -99.501 106.5
s-35.5 101.166 -35.5 164.499v90c0 63.333 11.833 118.166 35.5 164.499s56.834 81.833 99.501 106.5s92.334 37 149.001 37s106.334 -12.333 149.001 -37zM208 551c-32.667 -37.333 -49 -91.667 -49 -163v-90c0 -71.333 15.833 -125.666 47.5 -162.999
s77.834 -56 138.501 -56c58.667 0 104.334 18.5 137.001 55.5s49 91.5 49 163.5v90c0 71.333 -15.833 125.666 -47.5 162.999s-77.834 56 -138.501 56c-58.667 0 -104.334 -18.667 -137.001 -56zM400 891.999l-115 -142h-70l95 145h89zM555 891.999l-115 -142h-70l94 145h90
z" />
    <glyph glyph-name="ohungarumlaut" unicode="&#x151;" horiz-adv-x="574" 
d="M458 455c42.667 -44 64 -104.333 64 -181v-37c0 -76.667 -21 -137 -63 -181s-99.333 -66 -172 -66s-130 22 -172 66s-63 104.333 -63 181v37c0 76.667 21.333 137 64 181s99.667 66 171 66s128.333 -22 171 -66zM183 400c-24.667 -30.667 -36.999 -75.667 -36.999 -135
v-19c0 -58 12.167 -102.667 36.5 -134s59.166 -47 104.499 -47c44 0 78.5 15.5 103.5 46.5s37.5 75.833 37.5 134.5v19c0 58 -12.167 102.667 -36.5 134s-59.166 47 -104.499 47c-44.667 0 -79.334 -15.333 -104.001 -46zM342.001 717l-115 -142h-70l95 145h89zM497.001 717
l-115 -142h-70l94 145h90z" />
    <glyph glyph-name="OE" unicode="&#x152;" horiz-adv-x="1032" 
d="M531 628l0.00195312 58.002h450l-13 -89h-339v-202h307v-89h-307v-217h345l14 -89h-457v58c-47.333 -45.333 -109.333 -68 -186 -68c-56.667 0 -106.334 12.333 -149.001 37s-75.834 60.167 -99.501 106.5s-35.5 101.166 -35.5 164.499v90
c0 63.333 11.833 118.166 35.5 164.499s56.5 81.833 98.5 106.5s90.333 37 145 37c78 0 141.667 -22.667 191 -68zM208.002 551.002c-32.667 -37.333 -49 -91.667 -49 -163v-90c0 -71.333 15.833 -125.666 47.5 -162.999s77.834 -56 138.501 -56
c58.667 0 104.334 18.5 137.001 55.5s49 91.5 49 163.5v90c0 71.333 -15.833 125.666 -47.5 162.999s-77.834 56 -138.501 56c-58.667 0 -104.334 -18.667 -137.001 -56z" />
    <glyph glyph-name="oe" unicode="&#x153;" horiz-adv-x="933" 
d="M776 495c32.667 -17.333 58 -42.334 76 -75.001s27 -71 27 -115v-71h-357c1.33301 -54 14 -95.667 38 -125s59.667 -44 107 -44c42 0 73 12.333 93 37s30 54 30 88h89c0 -39.333 -9 -74.166 -27 -104.499s-43.167 -53.833 -75.5 -70.5s-69.5 -25 -111.5 -25h-4
c-80 0 -141.667 29 -185 87c-40.667 -58 -103.667 -87 -189 -87c-72.667 0 -130 22 -172 66s-63 104.333 -63 181v37c0 76.667 21.333 137 64 181s99.667 66 171 66c85.333 0 148.333 -29 189 -87c43.333 58 104 87 182 87h7c41.333 0 78.333 -8.66699 111 -26zM183 399.999
c-24.667 -30.667 -36.999 -75.667 -36.999 -135v-19c0 -58 12.167 -102.667 36.5 -134s59.166 -47 104.499 -47c44 0 78.5 15.5 103.5 46.5s37.5 75.833 37.5 134.5v19c0 58 -12.167 102.667 -36.5 134s-59.166 47 -104.499 47c-44.667 0 -79.334 -15.333 -104.001 -46z
M567.501 410.999c-23.667 -23.333 -38.167 -58 -43.5 -104h262v12c0 38 -11.5 68.667 -34.5 92s-53.5 35 -91.5 35s-68.833 -11.667 -92.5 -35z" />
    <glyph glyph-name="Racute" unicode="&#x154;" horiz-adv-x="670" 
d="M533.5 643c39 -28.667 58.5 -67.999 58.5 -117.999c0 -44.667 -11.833 -82.667 -35.5 -114s-52.834 -50.333 -87.501 -57v-5c32 -12.667 58.333 -34.667 79 -66s31 -69 31 -113c0 -36.667 2 -64.334 6 -83.001s9.33301 -31.667 16 -39s16.334 -13 29.001 -17v-28
c-14.667 -6 -30.334 -9 -47.001 -9c-32 0 -57 9.5 -75 28.5s-27 54.833 -27 107.5c0 54 -11.167 96.167 -33.5 126.5s-50.166 45.5 -83.499 45.5h-174v-302h-98v686h292c60.667 0 110.5 -14.333 149.5 -43zM190 597.001v-206h195c28.667 0 54 9.66699 76 29s33 43.333 33 72
v4c0 29.333 -10 53.5 -30 72.5s-46.333 28.5 -79 28.5h-195zM467 892.001l-116 -142h-69l94 145h90z" />
    <glyph glyph-name="racute" unicode="&#x155;" horiz-adv-x="490" 
d="M424 475.5c26.667 -30.333 39.999 -68.499 39.999 -114.499l-3 -38h-83v22c0 20 -5 37.667 -15 53s-22.667 27.166 -38 35.499s-30.666 12.5 -45.999 12.5c-32 0 -57 -12.667 -75 -38s-27 -59.666 -27 -102.999v-305h-94v511h67l14 -76c4 13.333 13 26.666 27 39.999
s31.5 24.333 52.5 33s44.167 13 69.5 13c47.333 0 84.333 -15.167 111 -45.5zM261.999 717.001l-116 -142h-69l94 145h90z" />
    <glyph glyph-name="Rcommaaccent" unicode="&#x156;" horiz-adv-x="670" 
d="M533.5 643c39 -28.667 58.5 -67.999 58.5 -117.999c0 -44.667 -11.833 -82.667 -35.5 -114s-52.834 -50.333 -87.501 -57v-5c32 -12.667 58.333 -34.667 79 -66s31 -69 31 -113c0 -36.667 2 -64.334 6 -83.001s9.33301 -31.667 16 -39s16.334 -13 29.001 -17v-28
c-14.667 -6 -30.334 -9 -47.001 -9c-32 0 -57 9.5 -75 28.5s-27 54.833 -27 107.5c0 54 -11.167 96.167 -33.5 126.5s-50.166 45.5 -83.499 45.5h-174v-302h-98v686h292c60.667 0 110.5 -14.333 149.5 -43zM190 597.001v-206h195c28.667 0 54 9.66699 76 29s33 43.333 33 72
v4c0 29.333 -10 53.5 -30 72.5s-46.333 28.5 -79 28.5h-195zM385 -124.999l-29 -125h-53l22 99h-41v111h101v-85z" />
    <glyph glyph-name="rcommaaccent" unicode="&#x157;" horiz-adv-x="490" 
d="M424 475.5c26.667 -30.333 39.999 -68.499 39.999 -114.499l-3 -38h-83v22c0 20 -5 37.667 -15 53s-22.667 27.166 -38 35.499s-30.666 12.5 -45.999 12.5c-32 0 -57 -12.667 -75 -38s-27 -59.666 -27 -102.999v-305h-94v511h67l14 -76c4 13.333 13 26.666 27 39.999
s31.5 24.333 52.5 33s44.167 13 69.5 13c47.333 0 84.333 -15.167 111 -45.5zM179.999 -124.999l-29 -125h-53l22 99h-41v111h101v-85z" />
    <glyph glyph-name="Rcaron" unicode="&#x158;" horiz-adv-x="670" 
d="M533.5 643c39 -28.667 58.5 -67.999 58.5 -117.999c0 -44.667 -11.833 -82.667 -35.5 -114s-52.834 -50.333 -87.501 -57v-5c32 -12.667 58.333 -34.667 79 -66s31 -69 31 -113c0 -36.667 2 -64.334 6 -83.001s9.33301 -31.667 16 -39s16.334 -13 29.001 -17v-28
c-14.667 -6 -30.334 -9 -47.001 -9c-32 0 -57 9.5 -75 28.5s-27 54.833 -27 107.5c0 54 -11.167 96.167 -33.5 126.5s-50.166 45.5 -83.499 45.5h-174v-302h-98v686h292c60.667 0 110.5 -14.333 149.5 -43zM190 597.001v-206h195c28.667 0 54 9.66699 76 29s33 43.333 33 72
v4c0 29.333 -10 53.5 -30 72.5s-46.333 28.5 -79 28.5h-195zM375 750.001h-78l-136 145h80l95 -89l94 89h80z" />
    <glyph glyph-name="rcaron" unicode="&#x159;" horiz-adv-x="490" 
d="M424 475.5c26.667 -30.333 39.999 -68.499 39.999 -114.499l-3 -38h-83v22c0 20 -5 37.667 -15 53s-22.667 27.166 -38 35.499s-30.666 12.5 -45.999 12.5c-32 0 -57 -12.667 -75 -38s-27 -59.666 -27 -102.999v-305h-94v511h67l14 -76c4 13.333 13 26.666 27 39.999
s31.5 24.333 52.5 33s44.167 13 69.5 13c47.333 0 84.333 -15.167 111 -45.5zM168.999 575.001h-78l-136 145h80l95 -89l94 89h80z" />
    <glyph glyph-name="Sacute" unicode="&#x15a;" horiz-adv-x="627" 
d="M491.5 646c43 -33.333 64.5039 -80.6689 64.5039 -142.002v-12h-98v15c0 32 -13 56.667 -39 74s-60.333 26 -103 26c-47.333 0 -84.166 -7.83301 -110.499 -23.5s-39.5 -38.167 -39.5 -67.5c0 -22 7.5 -40 22.5 -54s33.667 -25 56 -33s53.166 -17 92.499 -27
c50.667 -13.333 91.667 -26.333 123 -39s58.166 -31.667 80.499 -57s33.5 -59 33.5 -101c0 -74.667 -22.833 -129.167 -68.5 -163.5s-109.834 -51.5 -192.501 -51.5s-146.834 17.5 -192.501 52.5s-68.5 85.833 -68.5 152.5l1 20h98l-1 -21c0 -38.667 14.5 -67.5 43.5 -86.5
s69.167 -28.5 120.5 -28.5c50 0 89.5 9.16699 118.5 27.5s43.5 43.5 43.5 75.5c0 25.333 -7.83301 45.833 -23.5 61.5s-35.334 27.834 -59.001 36.501s-55.834 18.334 -96.501 29.001c-50 13.333 -90 26 -120 38s-55.667 30.5 -77 55.5s-32 57.833 -32 98.5
c0 66 22.333 115 67 147s104.334 48 179.001 48c75.333 0 134.5 -16.667 177.5 -50zM446.004 891.997l-116 -142h-69l94 145h90z" />
    <glyph glyph-name="sacute" unicode="&#x15b;" horiz-adv-x="534" 
d="M379.5 503c29.667 -12 52.666 -28.665 68.999 -49.998s24.5 -45 24.5 -71l-1 -18h-93v9c0 48.667 -37.667 73 -113 73c-74.667 0 -112 -22.333 -112 -67c0 -20.667 10.667 -35.834 32 -45.501s54 -18.834 98 -27.501c42 -8.66699 76.5 -17.667 103.5 -27s50 -24 69 -44
s28.5 -47 28.5 -81c0 -54.667 -18.667 -95.667 -56 -123s-91 -41 -161 -41h-15c-42 0 -78.667 6.5 -110 19.5s-55.5 30.667 -72.5 53s-25.167 47.5 -24.5 75.5v22h93v-10c0 -56.667 47.667 -85 143 -85c28 0 53.167 6.33301 75.5 19s33.5 30 33.5 52
c0 18.667 -6.16699 33.334 -18.5 44.001s-27.5 18.667 -45.5 24s-43 10.666 -75 15.999c-41.333 8 -74.666 16.167 -99.999 24.5s-47 22.5 -65 42.5s-27 47.333 -27 82c0 47.333 18.667 84.5 56 111.5s88.333 40.5 153 40.5h9c38 0 71.833 -6 101.5 -18zM398.999 717.002
l-116 -142h-69l94 145h90z" />
    <glyph glyph-name="Scedilla" unicode="&#x15e;" horiz-adv-x="627" 
d="M491.5 646c43 -33.333 64.5039 -80.6689 64.5039 -142.002v-12h-98v15c0 32 -13 56.667 -39 74s-60.333 26 -103 26c-47.333 0 -84.166 -7.83301 -110.499 -23.5s-39.5 -38.167 -39.5 -67.5c0 -22 7.5 -40 22.5 -54s33.667 -25 56 -33s53.166 -17 92.499 -27
c50.667 -13.333 91.667 -26.333 123 -39s58.166 -31.667 80.499 -57s33.5 -59 33.5 -101c0 -74.667 -22.833 -129.167 -68.5 -163.5s-109.834 -51.5 -192.501 -51.5s-146.834 17.5 -192.501 52.5s-68.5 85.833 -68.5 152.5l1 20h98l-1 -21c0 -38.667 14.5 -67.5 43.5 -86.5
s69.167 -28.5 120.5 -28.5c50 0 89.5 9.16699 118.5 27.5s43.5 43.5 43.5 75.5c0 25.333 -7.83301 45.833 -23.5 61.5s-35.334 27.834 -59.001 36.501s-55.834 18.334 -96.501 29.001c-50 13.333 -90 26 -120 38s-55.667 30.5 -77 55.5s-32 57.833 -32 98.5
c0 66 22.333 115 67 147s104.334 48 179.001 48c75.333 0 134.5 -16.667 177.5 -50zM419.004 -106.003c0 -27.333 -10.5 -49.333 -31.5 -66s-45.5 -25 -73.5 -25c-43.333 0 -78.333 7.33301 -105 22l9 49c28 -13.333 52.333 -20 73 -20c44 0 66 15 66 45
c0 12.667 -5 22.667 -15 30s-22.333 11 -37 11h-21v43h24c74 0 111 -29.667 111 -89z" />
    <glyph glyph-name="scedilla" unicode="&#x15f;" horiz-adv-x="534" 
d="M379.5 503c29.667 -12 52.666 -28.665 68.999 -49.998s24.5 -45 24.5 -71l-1 -18h-93v9c0 48.667 -37.667 73 -113 73c-74.667 0 -112 -22.333 -112 -67c0 -20.667 10.667 -35.834 32 -45.501s54 -18.834 98 -27.501c42 -8.66699 76.5 -17.667 103.5 -27s50 -24 69 -44
s28.5 -47 28.5 -81c0 -54.667 -18.667 -95.667 -56 -123s-91 -41 -161 -41h-15c-42 0 -78.667 6.5 -110 19.5s-55.5 30.667 -72.5 53s-25.167 47.5 -24.5 75.5v22h93v-10c0 -56.667 47.667 -85 143 -85c28 0 53.167 6.33301 75.5 19s33.5 30 33.5 52
c0 18.667 -6.16699 33.334 -18.5 44.001s-27.5 18.667 -45.5 24s-43 10.666 -75 15.999c-41.333 8 -74.666 16.167 -99.999 24.5s-47 22.5 -65 42.5s-27 47.333 -27 82c0 47.333 18.667 84.5 56 111.5s88.333 40.5 153 40.5h9c38 0 71.833 -6 101.5 -18zM371.999 -105.998
c0 -27.333 -10.5 -49.333 -31.5 -66s-45.5 -25 -73.5 -25c-43.333 0 -78.333 7.33301 -105 22l9 49c28 -13.333 52.333 -20 73 -20c44 0 66 15 66 45c0 12.667 -5 22.667 -15 30s-22.333 11 -37 11h-21v43h24c74 0 111 -29.667 111 -89z" />
    <glyph glyph-name="Scaron" unicode="&#x160;" horiz-adv-x="627" 
d="M355 750h-78l-136 145h80l95 -89l94 89h80zM491.5 646c43 -33.333 64.5039 -80.6689 64.5039 -142.002v-12h-98v15c0 32 -13 56.667 -39 74s-60.333 26 -103 26c-47.333 0 -84.166 -7.83301 -110.499 -23.5s-39.5 -38.167 -39.5 -67.5c0 -22 7.5 -40 22.5 -54
s33.667 -25 56 -33s53.166 -17 92.499 -27c50.667 -13.333 91.667 -26.333 123 -39s58.166 -31.667 80.499 -57s33.5 -59 33.5 -101c0 -74.667 -22.833 -129.167 -68.5 -163.5s-109.834 -51.5 -192.501 -51.5s-146.834 17.5 -192.501 52.5s-68.5 85.833 -68.5 152.5l1 20h98
l-1 -21c0 -38.667 14.5 -67.5 43.5 -86.5s69.167 -28.5 120.5 -28.5c50 0 89.5 9.16699 118.5 27.5s43.5 43.5 43.5 75.5c0 25.333 -7.83301 45.833 -23.5 61.5s-35.334 27.834 -59.001 36.501s-55.834 18.334 -96.501 29.001c-50 13.333 -90 26 -120 38
s-55.667 30.5 -77 55.5s-32 57.833 -32 98.5c0 66 22.333 115 67 147s104.334 48 179.001 48c75.333 0 134.5 -16.667 177.5 -50z" />
    <glyph glyph-name="scaron" unicode="&#x161;" horiz-adv-x="534" 
d="M305 575h-78l-136 145h80l95 -89l94 89h80zM379.5 503c29.667 -12 52.666 -28.665 68.999 -49.998s24.5 -45 24.5 -71l-1 -18h-93v9c0 48.667 -37.667 73 -113 73c-74.667 0 -112 -22.333 -112 -67c0 -20.667 10.667 -35.834 32 -45.501s54 -18.834 98 -27.501
c42 -8.66699 76.5 -17.667 103.5 -27s50 -24 69 -44s28.5 -47 28.5 -81c0 -54.667 -18.667 -95.667 -56 -123s-91 -41 -161 -41h-15c-42 0 -78.667 6.5 -110 19.5s-55.5 30.667 -72.5 53s-25.5 47.5 -25.5 75.5l1 22h93v-10c0 -56.667 47.667 -85 143 -85
c28 0 53.167 6.33301 75.5 19s33.5 30 33.5 52c0 18.667 -6.16699 33.334 -18.5 44.001s-27.5 18.667 -45.5 24s-43 10.666 -75 15.999c-41.333 8 -74.666 16.167 -99.999 24.5s-47 22.5 -65 42.5s-27 47.333 -27 82c0 47.333 18.667 84.5 56 111.5s88.333 40.5 153 40.5h9
c38 0 71.833 -6 101.5 -18z" />
    <glyph glyph-name="uni0162" unicode="&#x162;" horiz-adv-x="578" 
d="M553 597h-215v-597h-98v597h-215v89h528v-89zM394 -106c0 -27.333 -10.5 -49.333 -31.5 -66s-45.5 -25 -73.5 -25c-43.333 0 -78.333 7.33301 -105 22l9 49c28 -13.333 52.333 -20 73 -20c44 0 66 15 66 45c0 12.667 -5 22.667 -15 30s-22.333 11 -37 11h-21v43h24
c74 0 111 -29.667 111 -89z" />
    <glyph glyph-name="uni0163" unicode="&#x163;" horiz-adv-x="346" 
d="M193 511h119v-75h-119v-305c0 -24 4.66699 -41.333 14 -52s23.666 -16 42.999 -16c17.333 0 38 5 62 15v-70c-24 -12 -55 -18 -93 -18c-39.333 0 -69.166 11.667 -89.499 35s-30.5 60.333 -30.5 111v300h-56v75h59l32 163h59v-163zM278 -106
c0 -27.333 -10.5 -49.333 -31.5 -66s-45.5 -25 -73.5 -25c-43.333 0 -78.333 7.33301 -105 22l9 49c28 -13.333 52.333 -20 73 -20c44 0 66 15 66 45c0 12.667 -5 22.667 -15 30s-22.333 11 -37 11h-21v43h24c74 0 111 -29.667 111 -89z" />
    <glyph glyph-name="Tcaron" unicode="&#x164;" horiz-adv-x="578" 
d="M553 597h-215v-597h-98v597h-215v89h528v-89zM329 750h-78l-136 145h80l95 -89l94 89h80z" />
    <glyph glyph-name="tcaron" unicode="&#x165;" horiz-adv-x="346" 
d="M193 511h119v-75h-119v-305c0 -24 4.66699 -41.333 14 -52s23.666 -16 42.999 -16c17.333 0 38 5 62 15v-70c-24 -12 -55 -18 -93 -18c-39.333 0 -69.166 11.667 -89.499 35s-30.5 60.333 -30.5 111v300h-56v75h59l32 163h59v-163zM426 601l-35 -150h-52l27 124h-41v111
h101v-85z" />
    <glyph glyph-name="Umacron" unicode="&#x16a;" horiz-adv-x="680" 
d="M594 219c0 -45.333 -10.167 -85.334 -30.5 -120.001s-49.333 -61.5 -87 -80.5s-81.167 -28.5 -130.5 -28.5h-13c-49.333 0 -92.5 9.33301 -129.5 28s-65.833 45.334 -86.5 80.001s-31 75 -31 121v467h98v-465c0 -42.667 14.833 -77 44.5 -103s67.5 -39 113.5 -39
c47.333 0 84.833 13 112.5 39s41.5 60.333 41.5 103v465h98v-467zM499 836.999h-318v74h318v-74z" />
    <glyph glyph-name="umacron" unicode="&#x16b;" horiz-adv-x="618" 
d="M510 100c0 -12 2.66602 -20.833 7.99902 -26.5s12 -8.5 20 -8.5c14.667 0 29.667 4.66699 45 14v-69c-20.667 -13.333 -41.667 -20 -63 -20c-36 0 -61.167 7.33301 -75.5 22s-22.166 35.334 -23.499 62.001c-18 -26.667 -41.167 -47.334 -69.5 -62.001
s-60.833 -22 -97.5 -22c-51.333 0 -93.5 15.167 -126.5 45.5s-49.5 74.166 -49.5 131.499v344h94v-327c0 -79.333 36 -119 108 -119c23.333 0 45.5 6.33301 66.5 19s37.833 29.834 50.5 51.501s19 45.5 19 71.5v304h94v-411zM467.999 662h-318v74h318v-74z" />
    <glyph glyph-name="Uring" unicode="&#x16e;" horiz-adv-x="680" 
d="M594 219c0 -45.333 -10.167 -85.334 -30.5 -120.001s-49.333 -61.5 -87 -80.5s-81.167 -28.5 -130.5 -28.5h-13c-49.333 0 -92.5 9.33301 -129.5 28s-65.833 45.334 -86.5 80.001s-31 75 -31 121v467h98v-465c0 -42.667 14.833 -77 44.5 -103s67.5 -39 113.5 -39
c47.333 0 84.833 13 112.5 39s41.5 60.333 41.5 103v465h98v-467zM410 891.499c20.667 -19.667 31 -43.5 31 -71.5c0 -27.333 -9.83301 -50.833 -29.5 -70.5s-43.5 -29.5 -71.5 -29.5c-27.333 0 -51 9.66699 -71 29s-30 43 -30 71s9.83301 51.833 29.5 71.5
s43.5 29.5 71.5 29.5c26 0 49.333 -9.83301 70 -29.5zM300.5 858.499c-11 -10.333 -16.5 -23.166 -16.5 -38.499s5.33301 -28 16 -38s24 -15 40 -15c15.333 0 28.5 5.16699 39.5 15.5s16.5 23.166 16.5 38.499c0 14.667 -5.5 27.167 -16.5 37.5s-24.167 15.5 -39.5 15.5
s-28.5 -5.16699 -39.5 -15.5z" />
    <glyph glyph-name="uring" unicode="&#x16f;" horiz-adv-x="618" 
d="M510 100c0 -12 2.66602 -20.833 7.99902 -26.5s12 -8.5 20 -8.5c14.667 0 29.667 4.66699 45 14v-69c-20.667 -13.333 -41.667 -20 -63 -20c-36 0 -61.167 7.33301 -75.5 22s-22.166 35.334 -23.499 62.001c-18 -26.667 -41.167 -47.334 -69.5 -62.001
s-60.833 -22 -97.5 -22c-51.333 0 -93.5 15.167 -126.5 45.5s-49.5 74.166 -49.5 131.499v344h94v-327c0 -79.333 36 -119 108 -119c23.333 0 45.5 6.33301 66.5 19s37.833 29.834 50.5 51.501s19 45.5 19 71.5v304h94v-411zM378.999 716.5
c20.667 -19.667 31 -43.5 31 -71.5c0 -27.333 -9.83301 -50.833 -29.5 -70.5s-43.5 -29.5 -71.5 -29.5c-27.333 0 -51 9.66699 -71 29s-30 43 -30 71s9.83301 51.833 29.5 71.5s43.5 29.5 71.5 29.5c26 0 49.333 -9.83301 70 -29.5zM269.499 683.5
c-11 -10.333 -16.5 -23.166 -16.5 -38.499s5.33301 -28 16 -38s24 -15 40 -15c15.333 0 28.5 5.16699 39.5 15.5s16.5 23.166 16.5 38.499c0 14.667 -5.5 27.167 -16.5 37.5s-24.167 15.5 -39.5 15.5s-28.5 -5.16699 -39.5 -15.5z" />
    <glyph glyph-name="Uhungarumlaut" unicode="&#x170;" horiz-adv-x="680" 
d="M594 219c0 -45.333 -10.167 -85.334 -30.5 -120.001s-49.333 -61.5 -87 -80.5s-81.167 -28.5 -130.5 -28.5h-13c-49.333 0 -92.5 9.33301 -129.5 28s-65.833 45.334 -86.5 80.001s-31 75 -31 121v467h98v-465c0 -42.667 14.833 -77 44.5 -103s67.5 -39 113.5 -39
c47.333 0 84.833 13 112.5 39s41.5 60.333 41.5 103v465h98v-467zM395 891.999l-115 -142h-70l95 145h89zM550 891.999l-115 -142h-70l94 145h90z" />
    <glyph glyph-name="uhungarumlaut" unicode="&#x171;" horiz-adv-x="618" 
d="M510 100c0 -12 2.66602 -20.833 7.99902 -26.5s12 -8.5 20 -8.5c14.667 0 29.667 4.66699 45 14v-69c-20.667 -13.333 -41.667 -20 -63 -20c-36 0 -61.167 7.33301 -75.5 22s-22.166 35.334 -23.499 62.001c-18 -26.667 -41.167 -47.334 -69.5 -62.001
s-60.833 -22 -97.5 -22c-51.333 0 -93.5 15.167 -126.5 45.5s-49.5 74.166 -49.5 131.499v344h94v-327c0 -79.333 36 -119 108 -119c23.333 0 45.5 6.33301 66.5 19s37.833 29.834 50.5 51.501s19 45.5 19 71.5v304h94v-411zM363.999 717l-115 -142h-70l95 145h89z
M518.999 717l-115 -142h-70l94 145h90z" />
    <glyph glyph-name="Uogonek" unicode="&#x172;" horiz-adv-x="680" 
d="M594 686l0.00195312 -466.999c0 -55.333 -14.833 -102.333 -44.5 -141s-70.5 -64.667 -122.5 -78h5c-11.333 -6.66699 -21.833 -15.334 -31.5 -26.001s-14.5 -21.334 -14.5 -32.001c0 -25.333 14.667 -38 44 -38c13.333 0 35.666 4.66699 66.999 14l13 -37
c-26.667 -16 -56.334 -24 -89.001 -24c-30.667 0 -54.5 6.16699 -71.5 18.5s-25.5 30.833 -25.5 55.5c0 19.333 13.333 39 40 59h-18h-13c-49.333 0 -92.5 9.33301 -129.5 28s-65.833 45.334 -86.5 80.001s-31 75 -31 121v467h98v-465c0 -42.667 14.833 -77 44.5 -103
s67.5 -39 113.5 -39c47.333 0 84.833 13 112.5 39s41.5 60.333 41.5 103v465h98z" />
    <glyph glyph-name="uogonek" unicode="&#x173;" horiz-adv-x="618" 
d="M634 -119c-26.667 -16 -56.3311 -23.998 -88.998 -23.998c-30.667 0 -54.5 6.16699 -71.5 18.5s-25.5 30.833 -25.5 55.5c0 20 14.333 40.333 43 61c-25.333 4 -43 13 -53 27s-15.667 32.333 -17 55c-18 -26.667 -41.167 -47.334 -69.5 -62.001s-60.833 -22 -97.5 -22
c-51.333 0 -93.5 15.167 -126.5 45.5s-49.5 74.166 -49.5 131.499v344h94v-327c0 -79.333 36 -119 108 -119c23.333 0 45.5 6.33301 66.5 19s37.833 29.834 50.5 51.501s19 45.5 19 71.5v304h94v-411c0 -12 2.66699 -20.833 8 -26.5s12 -8.5 20 -8.5
c14.667 0 29.667 4.66699 45 14v-69c-12.667 -8.66699 -25.334 -14.334 -38.001 -17.001c-9.33301 -6.66699 -17.5 -14.667 -24.5 -24s-10.5 -18.333 -10.5 -27c0 -25.333 14.667 -38 44 -38c13.333 0 35.666 4.66699 66.999 14z" />
    <glyph glyph-name="Ydieresis" unicode="&#x178;" horiz-adv-x="572" 
d="M248 749h-90v98h90v-98zM437 749h-91v98h91v-98zM335 265v-265h-98v265l-242 421h112l183 -319h4l181 319h101z" />
    <glyph glyph-name="Zacute" unicode="&#x179;" horiz-adv-x="596" 
d="M547 648l-366 -559h374v-89h-523v38l365 559h-341v89h491v-38zM430 892l-116 -142h-69l94 145h90z" />
    <glyph glyph-name="zacute" unicode="&#x17a;" horiz-adv-x="463" 
d="M415 474l-250 -399h258v-75h-387v38l249 398h-234v75h364v-37zM364 717l-116 -142h-69l94 145h90z" />
    <glyph glyph-name="Zdotaccent" unicode="&#x17b;" horiz-adv-x="596" 
d="M547 648l-366 -559h374v-89h-523v38l365 559h-341v89h491v-38zM345 891.5c12.667 -13 18.998 -28.833 18.998 -47.5c0 -18 -6.5 -33.333 -19.5 -46s-28.5 -19 -46.5 -19s-33.5 6.5 -46.5 19.5s-19.5 28.833 -19.5 47.5c0 18 6.33301 33.333 19 46s28.334 19 47.001 19
s34.334 -6.5 47.001 -19.5z" />
    <glyph glyph-name="zdotaccent" unicode="&#x17c;" horiz-adv-x="463" 
d="M415 474l-250 -399h258v-75h-387v38l249 398h-234v75h364v-37zM279 716.5c12.667 -13 18.998 -28.833 18.998 -47.5c0 -18 -6.5 -33.333 -19.5 -46s-28.5 -19 -46.5 -19s-33.5 6.5 -46.5 19.5s-19.5 28.833 -19.5 47.5c0 18 6.33301 33.333 19 46s28.334 19 47.001 19
s34.334 -6.5 47.001 -19.5z" />
    <glyph glyph-name="Zcaron" unicode="&#x17d;" horiz-adv-x="596" 
d="M339 750h-78l-136 145h80l95 -89l94 89h80zM547 648l-366 -559h374v-89h-523v38l365 559h-341v89h491v-38z" />
    <glyph glyph-name="zcaron" unicode="&#x17e;" horiz-adv-x="463" 
d="M271 575h-78l-136 145h80l95 -89l94 89h80zM415 474l-250 -399h258v-75h-387v38l249 398h-234v75h364v-37z" />
    <glyph glyph-name="florin" unicode="&#x192;" horiz-adv-x="360" 
d="M374 709l-9.00098 -68.999c-22 9.33301 -42 14 -60 14c-22 0 -38 -5.5 -48 -16.5s-16 -26.833 -18 -47.5l-12 -79h120l-9 -75h-120l-71 -494c-6 -42.667 -21.667 -74.334 -47 -95.001s-57.333 -31 -96 -31c-36.667 0 -64.667 6.33301 -84 19l8 69
c22 -9.33301 39 -14 51 -14c26 0 44.333 4.83301 55 14.5s17.334 26.167 20.001 49.5l71 482h-59l9 75h59l13 91c12 84 59.667 126 143 126c35.333 0 63.333 -6.33301 84 -19z" />
    <glyph glyph-name="Scommaaccent" unicode="&#x218;" horiz-adv-x="627" 
d="M491.5 646c43 -33.333 64.5039 -80.6689 64.5039 -142.002v-12h-98v15c0 32 -13 56.667 -39 74s-60.333 26 -103 26c-47.333 0 -84.166 -7.83301 -110.499 -23.5s-39.5 -38.167 -39.5 -67.5c0 -22 7.5 -40 22.5 -54s33.667 -25 56 -33s53.166 -17 92.499 -27
c50.667 -13.333 91.667 -26.333 123 -39s58.166 -31.667 80.499 -57s33.5 -59 33.5 -101c0 -74.667 -22.833 -129.167 -68.5 -163.5s-109.834 -51.5 -192.501 -51.5s-146.834 17.5 -192.501 52.5s-68.5 85.833 -68.5 152.5l1 20h98l-1 -21c0 -38.667 14.5 -67.5 43.5 -86.5
s69.167 -28.5 120.5 -28.5c50 0 89.5 9.16699 118.5 27.5s43.5 43.5 43.5 75.5c0 25.333 -7.83301 45.833 -23.5 61.5s-35.334 27.834 -59.001 36.501s-55.834 18.334 -96.501 29.001c-50 13.333 -90 26 -120 38s-55.667 30.5 -77 55.5s-32 57.833 -32 98.5
c0 66 22.333 115 67 147s104.334 48 179.001 48c75.333 0 134.5 -16.667 177.5 -50zM364.004 -125.003l-29 -125h-53l22 99h-41v111h101v-85z" />
    <glyph glyph-name="scommaaccent" unicode="&#x219;" horiz-adv-x="534" 
d="M379.5 503c29.667 -12 52.666 -28.665 68.999 -49.998s24.5 -45 24.5 -71l-1 -18h-93v9c0 48.667 -37.667 73 -113 73c-74.667 0 -112 -22.333 -112 -67c0 -20.667 10.667 -35.834 32 -45.501s54 -18.834 98 -27.501c42 -8.66699 76.5 -17.667 103.5 -27s50 -24 69 -44
s28.5 -47 28.5 -81c0 -54.667 -18.667 -95.667 -56 -123s-91 -41 -161 -41h-15c-42 0 -78.667 6.5 -110 19.5s-55.5 30.667 -72.5 53s-25.167 47.5 -24.5 75.5v22h93v-10c0 -56.667 47.667 -85 143 -85c28 0 53.167 6.33301 75.5 19s33.5 30 33.5 52
c0 18.667 -6.16699 33.334 -18.5 44.001s-27.5 18.667 -45.5 24s-43 10.666 -75 15.999c-41.333 8 -74.666 16.167 -99.999 24.5s-47 22.5 -65 42.5s-27 47.333 -27 82c0 47.333 18.667 84.5 56 111.5s88.333 40.5 153 40.5h9c38 0 71.833 -6 101.5 -18zM316.999 -124.998
l-29 -125h-53l22 99h-41v111h101v-85z" />
    <glyph glyph-name="uni021A" unicode="&#x21a;" horiz-adv-x="578" 
d="M553 597h-215v-597h-98v597h-215v89h528v-89zM339 -125l-29 -125h-53l22 99h-41v111h101v-85z" />
    <glyph glyph-name="uni021B" unicode="&#x21b;" horiz-adv-x="346" 
d="M193 511h119v-75h-119v-305c0 -24 4.66699 -41.333 14 -52s23.666 -16 42.999 -16c17.333 0 38 5 62 15v-70c-24 -12 -55 -18 -93 -18c-39.333 0 -69.166 11.667 -89.499 35s-30.5 60.333 -30.5 111v300h-56v75h59l32 163h59v-163zM223 -125l-29 -125h-53l22 99h-41v111
h101v-85z" />
    <glyph glyph-name="circumflex" unicode="&#x2c6;" horiz-adv-x="536" 
d="M441 575h-80l-94 89l-95 -89h-80l136 145h78z" />
    <glyph glyph-name="caron" unicode="&#x2c7;" horiz-adv-x="536" 
d="M306 575h-78l-136 145h80l95 -89l94 89h80z" />
    <glyph glyph-name="uni02C9" unicode="&#x2c9;" horiz-adv-x="460" 
d="M389 662h-318v74h318v-74z" />
    <glyph glyph-name="breve" unicode="&#x2d8;" horiz-adv-x="520" 
d="M424.5 678c-19 -19.333 -43.3311 -35 -72.998 -47s-60.167 -18 -91.5 -18s-61.833 6 -91.5 18s-53.834 27.667 -72.501 47s-28 39 -28 59h67c5.33301 -18 19.666 -32.833 42.999 -44.5s50.666 -17.5 81.999 -17.5c30.667 0 57.834 5.83301 81.501 17.5
s38.167 26.5 43.5 44.5h68c0 -20 -9.5 -39.667 -28.5 -59z" />
    <glyph glyph-name="dotaccent" unicode="&#x2d9;" horiz-adv-x="280" 
d="M187 716.5c12.667 -13 18.998 -28.833 18.998 -47.5c0 -18 -6.5 -33.333 -19.5 -46s-28.5 -19 -46.5 -19s-33.5 6.5 -46.5 19.5s-19.5 28.833 -19.5 47.5c0 18 6.33301 33.333 19 46s28.334 19 47.001 19s34.334 -6.5 47.001 -19.5z" />
    <glyph glyph-name="ring" unicode="&#x2da;" horiz-adv-x="340" 
d="M240 716.5c20.667 -19.667 31 -43.5 31 -71.5c0 -27.333 -9.83301 -50.833 -29.5 -70.5s-43.5 -29.5 -71.5 -29.5c-27.333 0 -51 9.66699 -71 29s-30 43 -30 71s9.83301 51.833 29.5 71.5s43.5 29.5 71.5 29.5c26 0 49.333 -9.83301 70 -29.5zM130.5 683.5
c-11 -10.333 -16.5 -23.166 -16.5 -38.499s5.33301 -28 16 -38s24 -15 40 -15c15.333 0 28.5 5.16699 39.5 15.5s16.5 23.166 16.5 38.499c0 14.667 -5.5 27.167 -16.5 37.5s-24.167 15.5 -39.5 15.5s-28.5 -5.16699 -39.5 -15.5z" />
    <glyph glyph-name="ogonek" unicode="&#x2db;" horiz-adv-x="340" 
d="M145.5 -26c-9.66699 -10.667 -14.499 -21.332 -14.499 -31.999c0 -25.333 14.667 -38 44 -38c13.333 0 35.666 4.66699 66.999 14l13 -37c-27.333 -16 -57 -24 -89 -24c-30.667 0 -54.5 6.16699 -71.5 18.5s-25.5 30.833 -25.5 55.5c0 22 18 45 54 69h54
c-11.333 -6.66699 -21.833 -15.334 -31.5 -26.001z" />
    <glyph glyph-name="tilde" unicode="&#x2dc;" horiz-adv-x="364" 
d="M354 642.5c-20.667 -19.667 -47.666 -29.5 -80.999 -29.5c-22.667 0 -46 3.66699 -70 11c-6 1.33301 -11.5 2.83301 -16.5 4.5s-9.83301 3.16699 -14.5 4.5c-16.667 5.33301 -29.5 9 -38.5 11s-18.833 3 -29.5 3c-30 0 -48.333 -11.333 -55 -34h-50c0 28 10 52.333 30 73
s47 31 81 31c14.667 0 28 -1.33301 40 -4s28.667 -7 50 -13c37.333 -12 64 -18 80 -18c29.333 0 47.666 11.667 54.999 35h50c0 -30 -10.333 -54.833 -31 -74.5z" />
    <glyph glyph-name="hungarumlaut" unicode="&#x2dd;" horiz-adv-x="442" 
d="M236 717l-115 -142h-70l95 145h89zM391 717l-115 -142h-70l94 145h90z" />
    <glyph glyph-name="uni0326" unicode="&#x326;" horiz-adv-x="0" 
d="M-68 -125l-29 -125h-53l22 99h-41v111h101v-85z" />
    <glyph glyph-name="Delta" unicode="&#x394;" horiz-adv-x="622" 
d="M597 65v-65h-572v65l234 621h103zM113 65h396l-198 532z" />
    <glyph glyph-name="Omega" unicode="&#x3a9;" horiz-adv-x="699" 
d="M561.5 612.5c49 -55 73.5 -135.834 73.5 -242.501v-33c0 -112 -33 -197.667 -99 -257c37.333 4 65.333 7.33301 84 10h35v-90h-264v49c48 8.66699 83.333 32.334 106 71.001s34 97.667 34 177v78c0 82 -14.833 141.333 -44.5 178s-75.5 55 -137.5 55
c-59.333 0 -103.833 -18.667 -133.5 -56s-44.5 -96.333 -44.5 -177v-78c0 -78.667 11.167 -137.167 33.5 -175.5s57.166 -62.5 104.499 -72.5v-49h-264v90h35l50 -6c14.667 -1.33301 26.334 -2.66602 35.001 -3.99902c-65.333 55.333 -98 143.666 -98 264.999v25
c0 104 24.167 184.167 72.5 240.5s115.833 84.5 202.5 84.5h17c86 0 153.5 -27.5 202.5 -82.5z" />
    <glyph glyph-name="mu" unicode="&#x3bc;" horiz-adv-x="612" 
d="M514 100c0 -12 2.66699 -20.8359 8 -26.5029s12 -8.5 20 -8.5c14.667 0 29.667 4.66699 45 14v-69c-20.667 -13.333 -41.667 -20 -63 -20c-36 0 -61.167 7.33301 -75.5 22s-22.166 35.334 -23.499 62.001c-16.667 -25.333 -39.334 -45.666 -68.001 -60.999
s-59.667 -23 -93 -23c-36 0 -67.333 8.33301 -94 25l6 -47v-129h-94v672h94v-327c0 -79.333 36 -119 108 -119c23.333 0 45.5 6.33301 66.5 19s37.833 29.834 50.5 51.501s19 45.5 19 71.5v304h94v-411z" />
    <glyph glyph-name="pi" unicode="&#x3c0;" horiz-adv-x="628" 
d="M595 437h-86.999v-285c0 -70 5 -120.667 15 -152h-89c-11.333 17.333 -17 65 -17 143v294h-174c-4.66699 -117.333 -20.334 -234 -47.001 -350c-8.66699 -38.667 -17 -67.667 -25 -87h-90c18 50 33.667 113.5 47 190.5s21.333 159.167 24 246.5
c-55.333 0 -95 -4 -119 -12l-13 57c27.333 19.333 81 29 161 29h423z" />
    <glyph glyph-name="endash" unicode="&#x2013;" horiz-adv-x="638" 
d="M569 223h-500v95h500v-95z" />
    <glyph glyph-name="emdash" unicode="&#x2014;" horiz-adv-x="1058" 
d="M982 223h-910v94h910v-94z" />
    <glyph glyph-name="quoteleft" unicode="&#x2018;" horiz-adv-x="224" 
d="M121 562h41v-111h-101v85l35 150h52z" />
    <glyph glyph-name="quoteright" unicode="&#x2019;" horiz-adv-x="219" 
d="M162 601l-35 -150h-52l27 124h-41v111h101v-85z" />
    <glyph glyph-name="quotesinglbase" unicode="&#x201a;" horiz-adv-x="238" 
d="M170 26l-35 -150h-52l27 124h-41v111h101v-85z" />
    <glyph glyph-name="quotedblleft" unicode="&#x201c;" horiz-adv-x="366" 
d="M121 562h41v-111h-101v85l35 150h52zM263 562h41v-111h-101v85l35 150h52z" />
    <glyph glyph-name="quotedblright" unicode="&#x201d;" horiz-adv-x="361" 
d="M162 601l-35 -150h-52l27 124h-41v111h101v-85zM304 601l-35 -150h-52l27 124h-41v111h101v-85z" />
    <glyph glyph-name="quotedblbase" unicode="&#x201e;" horiz-adv-x="380" 
d="M170 26l-35 -150h-52l27 124h-41v111h101v-85zM312 26l-35 -150h-52l27 124h-41v111h101v-85z" />
    <glyph glyph-name="dagger" unicode="&#x2020;" horiz-adv-x="510" 
d="M282 493l205 17v-93l-185 18v-605h-74v605l-205 -18v93l205 -17l-17 193h88z" />
    <glyph glyph-name="daggerdbl" unicode="&#x2021;" horiz-adv-x="533" 
d="M293 492l205.003 18.001v-93l-205 17c5.33301 -44 11 -103.333 17 -178c-6.66699 -80 -12.334 -140 -17.001 -180c86 6 154.333 11.667 205 17v-93l-205 18c5.33301 -48 11 -112.333 17 -193h-87c6 80.667 11.667 145 17 193l-205 -18v93
c43.333 -4.66699 111.666 -10.334 204.999 -17.001c-4.66699 40 -10.334 100 -17.001 180c6 74.667 11.667 134 17 178c-44.667 -4 -113 -9.66699 -205 -17v93l205 -18l-17 194h87z" />
    <glyph glyph-name="bullet" unicode="&#x2022;" horiz-adv-x="600" 
d="M373.5 475.5c23 -13.667 41.498 -32.168 55.498 -55.501s21 -48.666 21 -75.999c0 -28.667 -7 -54.667 -21 -78s-32.5 -41.666 -55.5 -54.999s-47.833 -20 -74.5 -20s-51.5 7 -74.5 21s-41.167 32.667 -54.5 56s-20 48.666 -20 75.999c0 28 6.83301 53.5 20.5 76.5
s31.834 41.333 54.501 55s47.334 20.5 74.001 20.5s51.5 -6.83301 74.5 -20.5z" />
    <glyph glyph-name="ellipsis" unicode="&#x2026;" horiz-adv-x="735" 
d="M171 0h-102v111h102v-111zM419 0h-102v111h102v-111zM666 0h-102v111h102v-111z" />
    <glyph glyph-name="perthousand" unicode="&#x2030;" horiz-adv-x="1033" 
d="M180 0h-70l418 686h68zM248 650.5c22.667 -23 34 -51.833 34 -86.5v-107c0 -34.667 -11.5 -63.5 -34.5 -86.5s-51.833 -34.5 -86.5 -34.5h-7c-34.667 0 -63.5 11.5 -86.5 34.5s-34.5 51.833 -34.5 86.5v107c0 34.667 11.333 63.5 34 86.5s51.667 34.5 87 34.5h7
c35.333 0 64.333 -11.5 87 -34.5zM113.5 613.5c-11 -11 -16.5 -25.167 -16.5 -42.5v-121c0 -17.333 5.5 -31.5 16.5 -42.5s25.833 -16.5 44.5 -16.5s33.334 5.5 44.001 16.5s16 25.167 16 42.5v121c0 17.333 -5.33301 31.5 -16 42.5s-25.334 16.5 -44.001 16.5
s-33.5 -5.5 -44.5 -16.5zM637.5 313.5c23 -23 34.5 -51.833 34.5 -86.5v-107c0 -34.667 -11.333 -63.5 -34 -86.5s-51.667 -34.5 -87 -34.5h-7c-35.333 0 -64.333 11.5 -87 34.5s-34 51.833 -34 86.5v107c0 34.667 11.5 63.5 34.5 86.5s51.833 34.5 86.5 34.5h7
c34.667 0 63.5 -11.5 86.5 -34.5zM969.5 313.5c23 -23 34.5 -51.833 34.5 -86.5v-107c0 -34.667 -11.333 -63.5 -34 -86.5s-51.667 -34.5 -87 -34.5h-6c-35.333 0 -64.333 11.5 -87 34.5s-34 51.833 -34 86.5v107c0 34.667 11.5 63.5 34.5 86.5s51.833 34.5 86.5 34.5h6
c34.667 0 63.5 -11.5 86.5 -34.5zM503.5 276.5c-11 -11 -16.5 -25.167 -16.5 -42.5v-121c0 -17.333 5.5 -31.5 16.5 -42.5s25.833 -16.5 44.5 -16.5s33.334 5.5 44.001 16.5s16 25.167 16 42.5v121c0 17.333 -5.33301 31.5 -16 42.5s-25.334 16.5 -44.001 16.5
s-33.5 -5.5 -44.5 -16.5zM836.5 276.5c-11 -11 -16.5 -25.167 -16.5 -42.5v-121c0 -17.333 5.5 -31.5 16.5 -42.5s25.833 -16.5 44.5 -16.5c18 0 32.333 5.66699 43 17s16 25.333 16 42v121c0 16.667 -5.33301 30.667 -16 42s-25 17 -43 17
c-18.667 0 -33.5 -5.5 -44.5 -16.5z" />
    <glyph glyph-name="guilsinglleft" unicode="&#x2039;" horiz-adv-x="278" 
d="M128 337l94 -174h-51l-122 174l122 174h51z" />
    <glyph glyph-name="guilsinglright" unicode="&#x203a;" horiz-adv-x="278" 
d="M229 337l-122 -174h-51l94 174l-94 174h51z" />
    <glyph glyph-name="fraction" unicode="&#x2044;" horiz-adv-x="476" 
d="M61 0h-59l420 686h56z" />
    <glyph glyph-name="Euro" unicode="&#x20ac;" horiz-adv-x="562" 
d="M525 685l0.00195312 -90.999c-22 6.66699 -48.333 10 -79 10c-53.333 0 -99.333 -14.667 -138 -44s-65.334 -69 -80.001 -119h198v-64h-210c-1.33301 -6.66699 -2 -12.334 -2 -17.001v-38c0 -4.66699 0.666992 -11 2 -19h210v-65h-196c16 -49.333 43.667 -88 83 -116
s86 -42 140 -42c20 0 44 4.33301 72 13v-91c-27.333 -6.66699 -59 -10 -95 -10c-49.333 0 -94.833 10.333 -136.5 31s-76.667 49.667 -105 87s-47.833 80 -58.5 128h-100v65h90c-0.666992 4 -1 10.333 -1 19v38c0 7.33301 0.333008 13 1 17h-90v64h99
c16.667 76 52.5 137 107.5 183s121.833 69 200.5 69c21.333 0 50.666 -2.66699 87.999 -8z" />
    <glyph glyph-name="uni2113" unicode="&#x2113;" horiz-adv-x="499" 
d="M373 296.5c-44 -43 -103.999 -65.167 -179.999 -66.5v-59c0 -37.333 8.16699 -64.666 24.5 -81.999s41.166 -26 74.499 -26c26 0 56 5 90 15v-70c-30 -12 -66.333 -18 -109 -18c-58.667 0 -102.334 14.667 -131.001 44s-43 76.666 -43 141.999v54h-68v75h68v206
c0 60 14.833 105.833 44.5 137.5s70.167 47.5 121.5 47.5c52.667 0 94.834 -16.5 126.501 -49.5s47.5 -79.167 47.5 -138.5v-29c0 -78.667 -22 -139.5 -66 -182.5zM316.501 352.5c29 30.333 43.5 72.5 43.5 126.5v27c0 34.667 -7.66699 61.334 -23 80.001s-36 28 -62 28
c-24.667 0 -44.5 -8.83301 -59.5 -26.5s-22.5 -43.167 -22.5 -76.5v-206c53.333 1.33301 94.5 17.166 123.5 47.499z" />
    <glyph glyph-name="trademark" unicode="&#x2122;" horiz-adv-x="897" 
d="M360 626h-124v-338h-65v338h-125v60h314v-60zM825 288h-65v158c0 34 -0.666992 86.333 -2 157l-128 -315h-62l-63 156l-25.5 65l-37.5 91v-312h-58v398h99l27 -67l94 -234l123 301h98v-398z" />
    <glyph glyph-name="uni2126" unicode="&#x2126;" horiz-adv-x="699" 
d="M561.5 612.5c49 -55 73.5 -135.834 73.5 -242.501v-33c0 -112 -33 -197.667 -99 -257c37.333 4 65.333 7.33301 84 10h35v-90h-264v49c48 8.66699 83.333 32.334 106 71.001s34 97.667 34 177v78c0 82 -14.833 141.333 -44.5 178s-75.5 55 -137.5 55
c-59.333 0 -103.833 -18.667 -133.5 -56s-44.5 -96.333 -44.5 -177v-78c0 -78.667 11.167 -137.167 33.5 -175.5s57.166 -62.5 104.499 -72.5v-49h-264v90h35l50 -6c14.667 -1.33301 26.334 -2.66602 35.001 -3.99902c-65.333 55.333 -98 143.666 -98 264.999v25
c0 104 24.167 184.167 72.5 240.5s115.833 84.5 202.5 84.5h17c86 0 153.5 -27.5 202.5 -82.5z" />
    <glyph glyph-name="estimated" unicode="&#x212e;" horiz-adv-x="749" 
d="M534.5 656.5c45.667 -26.333 81.166 -64.167 106.499 -113.5s38 -107.666 38 -174.999v-52h-485v-172c20 -31.333 45.5 -54.833 76.5 -70.5s66.5 -23.5 106.5 -23.5c42.667 0 82 8.83301 118 26.5s64 44.167 84 79.5l57 -36c-26.667 -42 -62.334 -74.167 -107.001 -96.5
s-95.334 -33.5 -152.001 -33.5c-61.333 0 -115.166 13.167 -161.499 39.5s-82 64.166 -107 113.499s-37.5 108 -37.5 176v48c0 67.333 12.667 125.833 38 175.5s60.833 87.667 106.5 114s98.834 39.5 159.501 39.5s113.834 -13.167 159.501 -39.5zM193.999 370.999
l359 0.000976562v176c-20 29.333 -45.167 51.5 -75.5 66.5s-64.5 22.5 -102.5 22.5c-39.333 0 -74.5 -7.83301 -105.5 -23.5s-56.167 -38.834 -75.5 -69.501v-172z" />
    <glyph glyph-name="partialdiff" unicode="&#x2202;" horiz-adv-x="565" 
d="M391 665.5c34.667 -20.333 61.666 -48.1699 80.999 -83.5029s29 -74.666 29 -117.999v-243c0 -44 -10 -83.667 -30 -119s-47.833 -62.833 -83.5 -82.5s-75.5 -29.5 -119.5 -29.5h-8c-44.667 0 -84.5 9.5 -119.5 28.5s-62.5 45.833 -82.5 80.5s-30 74.334 -30 119.001
c0 42 9.33301 79.167 28 111.5s44.5 57.333 77.5 75s70.167 26.5 111.5 26.5c30.667 0 60.5 -6.5 89.5 -19.5s52.5 -31.167 70.5 -54.5v120c0 22 -6 43.333 -18 64s-28.5 37.334 -49.5 50.001s-43.5 19 -67.5 19h-98v86h103c42.667 0 81.334 -10.167 116.001 -30.5z
M162.999 319.996c-26.667 -25.333 -40 -57 -40 -95v-20c0 -38.667 13.5 -70.5 40.5 -95.5s60.833 -37.5 101.5 -37.5c40 0 73.333 12.667 100 38s40 57 40 95v20c0 38 -13.5 69.667 -40.5 95s-60.833 38 -101.5 38c-40 0 -73.333 -12.667 -100 -38z" />
    <glyph glyph-name="uni2206" unicode="&#x2206;" horiz-adv-x="622" 
d="M597 65v-65h-572v65l234 621h103zM113 65h396l-198 532z" />
    <glyph glyph-name="product" unicode="&#x220f;" horiz-adv-x="749" 
d="M725 611h-115v-709h-102v709h-267v-709h-102v709h-115v97h701v-97z" />
    <glyph glyph-name="summation" unicode="&#x2211;" horiz-adv-x="606" 
d="M558 613h-369v-4l231 -291l-252 -310l1 -4h407v-102h-549v63l276 341l-264 336v66h519v-95z" />
    <glyph glyph-name="minus" unicode="&#x2212;" 
d="M563 221h-512v91h512v-91z" />
    <glyph glyph-name="uni2215" unicode="&#x2215;" horiz-adv-x="476" 
d="M61 0h-59l420 686h56z" />
    <glyph glyph-name="uni2219" unicode="&#x2219;" horiz-adv-x="239" 
d="M170 232h-101v112h101v-112z" />
    <glyph glyph-name="radical" unicode="&#x221a;" horiz-adv-x="566" 
d="M333 -148h-90l-23 59l-146 382l-77 -30l-20 60l162 68l63 -174l37 -102c23.333 -61.333 36.333 -98.333 39 -111l9 -34l149 602l59 241h80z" />
    <glyph glyph-name="infinity" unicode="&#x221e;" horiz-adv-x="764" 
d="M650.5 426.5c23.667 -14.333 42.1689 -34.168 55.502 -59.501s20 -53.666 20 -84.999c0 -33.333 -7.5 -62.833 -22.5 -88.5s-34.833 -45.5 -59.5 -59.5s-50.667 -21 -78 -21c-31.333 0 -61.333 8.83301 -90 26.5s-60.334 47.5 -95.001 89.5
c-28 -32 -52.167 -56.333 -72.5 -73s-39.333 -28 -57 -34s-37.5 -9 -59.5 -9c-28 0 -53.833 7.5 -77.5 22.5s-42.5 35.167 -56.5 60.5s-21 53 -21 83c0 31.333 7 59.833 21 85.5s33.167 46 57.5 61s50.5 22.5 78.5 22.5c39.333 0 73.666 -9.83301 102.999 -29.5
s59 -48.167 89 -85.5l43.5 43.5c24.333 24.333 48 42.333 71 54s46.5 17.5 70.5 17.5c29.333 0 55.833 -7.16699 79.5 -21.5zM125.502 355.498c-17.667 -20.333 -26.5 -46.166 -26.5 -77.499c0 -28.667 9.5 -52.834 28.5 -72.501s43.167 -29.5 72.5 -29.5
c35.333 0 72 19.667 110 59l30 31l9 10c-49.333 73.333 -100.666 110 -153.999 110c-28.667 0 -51.834 -10.167 -69.501 -30.5zM446.002 311.998l-29 -29.998c36.667 -43.333 65 -71.833 85 -85.5s40 -20.5 60 -20.5c33.333 0 58.5 10.667 75.5 32s25.5 46.666 25.5 75.999
s-9.16699 53.666 -27.5 72.999s-41.5 29 -69.5 29c-36.667 0 -76.667 -24.667 -120 -74z" />
    <glyph glyph-name="integral" unicode="&#x222b;" horiz-adv-x="267" 
d="M242 701c-26 0 -47 -6 -63 -18s-24 -25 -24 -39c18.667 -410 28 -670.667 28 -782c0 -36 -13.333 -63.667 -40 -83s-65.667 -29 -117 -29v50c22.667 0 42.5 5 59.5 15s25.5 24.333 25.5 43c-18 398 -27 658 -27 780c0 36.667 14 64.5 42 83.5s66.667 28.5 116 28.5v-49z
" />
    <glyph glyph-name="approxequal" unicode="&#x2248;" 
d="M589 360c-19.333 -22 -43.666 -40.5 -72.999 -55.5s-58.666 -22.5 -87.999 -22.5c-19.333 0 -37.666 2.66699 -54.999 8s-38.333 13.333 -63 24c-24.667 11.333 -46.334 19.833 -65.001 25.5s-38.334 8.5 -59.001 8.5c-25.333 0 -52.833 -6.83301 -82.5 -20.5
s-55.834 -32.834 -78.501 -57.501v85c22.667 24.667 49 43.834 79 57.501s58 20.5 84 20.5c18.667 0 36.5 -2.66699 53.5 -8s37.833 -13.333 62.5 -24c24.667 -11.333 46.167 -19.833 64.5 -25.5s37.833 -8.5 58.5 -8.5c27.333 0 56 7 86 21s55.333 33 76 57v-85zM589 151
c-19.333 -22 -43.666 -40.5 -72.999 -55.5s-58.666 -22.5 -87.999 -22.5c-19.333 0 -37.666 2.66699 -54.999 8s-38.333 13.333 -63 24c-24.667 11.333 -46.334 19.833 -65.001 25.5s-38.334 8.5 -59.001 8.5c-25.333 0 -52.833 -6.83301 -82.5 -20.5
s-55.834 -32.834 -78.501 -57.501v85c22.667 24.667 49 43.834 79 57.501s58 20.5 84 20.5c18.667 0 36.5 -2.66699 53.5 -8s37.833 -13.333 62.5 -24c24.667 -11.333 46.167 -19.833 64.5 -25.5s37.833 -8.5 58.5 -8.5c27.333 0 56 7 86 21s55.333 33 76 57v-85z" />
    <glyph glyph-name="notequal" unicode="&#x2260;" 
d="M446 401h113.001v-83h-166l-45 -64l-46 -65h257v-84h-309l-74 -105h-82l28 40c17.333 26 32.666 47.667 45.999 65h-112v84h165l91 129h-256v83h309l78 110h79z" />
    <glyph glyph-name="lessequal" unicode="&#x2264;" 
d="M559 430l-429 -118l429 -118v-90l-194 59c-162.667 50 -267.667 81.667 -315 95v107l97 29l84 26l328 100v-90zM559 0h-510v83h510v-83z" />
    <glyph glyph-name="greaterequal" unicode="&#x2265;" 
d="M565 365v-107c-47.333 -13.333 -152.333 -45 -315 -95l-194 -59v90l183 50.5l245 67.5l-428 118v90zM566 0h-510v83h510v-83z" />
    <glyph glyph-name="lozenge" unicode="&#x25ca;" horiz-adv-x="490" 
d="M461 343l-164 -343h-103l-165 343l165 343h103zM112 343l134 -269l133 269l-133 268z" />
    <glyph glyph-name="caron.alt" horiz-adv-x="219" 
d="M162 601l-35 -150h-52l27 124h-41v111h101v-85z" />
    </font>
</defs>
</svg>
