<?xml version="1.0" standalone="no"?>
<!DOCTYPE svg PUBLIC "-//W3C//DTD SVG 1.1//EN" "http://www.w3.org/Graphics/SVG/1.1/DTD/svg11.dtd" >
<svg>
<metadata>
Created by FontForge 20090914 at Sun Jan 10 14:48:39 2016
 By www-data
Copyright (c) 2011-2015 by Omnibus-Type (www.omnibus-type.com omnibus.type@gmail.com)
</metadata>
<defs>
<font id="Chivo-BlackItalic" horiz-adv-x="600" >
  <font-face 
    font-family="Chivo Light"
    font-weight="900"
    font-style="italic"
    font-stretch="normal"
    units-per-em="1000"
    panose-1="2 11 10 3 3 2 2 9 8 4"
    ascent="800"
    descent="-200"
    x-height="511"
    cap-height="686"
    bbox="-306 -250.001 1078 937"
    underline-thickness="50"
    underline-position="-50"
    slope="-8"
    unicode-range="U+0020-U+FB02"
  />
<missing-glyph horiz-adv-x="500" 
d="M500 0h-500v700h500v-700zM80 650l170 -255l170 255h-340zM50 95l170 255l-170 255v-510zM280 350l170 -255v510zM80 50h340l-170 255z" />
    <glyph glyph-name="uniFB01" unicode="fi" horiz-adv-x="702" 
d="M404 722.5c26 -3.66699 45.999 -9.16895 59.999 -16.502l-15 -110c-22.667 6.66699 -43 10 -61 10c-25.333 0 -42 -6.33301 -50 -19s-13.167 -27.167 -15.5 -43.5s-3.83301 -27.166 -4.5 -32.499h120l-20 -142h-120l-55 -395
c-7.33301 -52.667 -29.666 -92.667 -66.999 -120s-83.666 -41 -138.999 -41c-21.333 0 -44.833 1.83301 -70.5 5.5s-45.834 9.16699 -60.501 16.5l16 112c8 -3.33301 17.833 -6.16602 29.5 -8.49902s21.834 -3.5 30.501 -3.5c20.667 0 36 6 46 18s17 29 21 51l51 365h-64
l20 142h64l9 66c7.33301 52.667 29.166 91 65.499 115s82.833 36 139.5 36c20.667 0 44 -1.83301 70 -5.5zM692.999 576.998h-197l20 143h197zM611.999 -0.00195312h-196l71 511h197z" />
    <glyph glyph-name="uniFB02" unicode="fl" horiz-adv-x="704" 
d="M404 722.5c26 -3.66699 45.999 -9.16895 59.999 -16.502l-15 -110c-22.667 6.66699 -43 10 -61 10c-25.333 0 -42 -6.33301 -50 -19s-13.167 -27.167 -15.5 -43.5s-3.83301 -27.166 -4.5 -32.499h120l-20 -142h-120l-55 -395
c-7.33301 -52.667 -29.666 -92.667 -66.999 -120s-83.666 -41 -138.999 -41c-21.333 0 -44.833 1.83301 -70.5 5.5s-45.834 9.16699 -60.501 16.5l16 112c8 -3.33301 17.833 -6.16602 29.5 -8.49902s21.834 -3.5 30.501 -3.5c20.667 0 36 6 46 18s17 29 21 51l51 365h-64
l20 142h64l9 66c7.33301 52.667 29.166 91 65.499 115s82.833 36 139.5 36c20.667 0 44 -1.83301 70 -5.5zM612.999 -0.00195312h-197l100 720h198z" />
    <glyph glyph-name=".notdef" horiz-adv-x="500" 
d="M500 0h-500v700h500v-700zM80 650l170 -255l170 255h-340zM50 95l170 255l-170 255v-510zM280 350l170 -255v510zM80 50h340l-170 255z" />
    <glyph glyph-name="space" unicode=" " horiz-adv-x="192" 
 />
    <glyph glyph-name="exclam" unicode="!" horiz-adv-x="315" 
d="M215 231h-127v455h248zM216 0h-191l26 183h191z" />
    <glyph glyph-name="quotedbl" unicode="&#x22;" horiz-adv-x="433" 
d="M226 539l-67 -143h-61l-27 143l21 147h155zM429 539l-68 -143h-60l-27 143l21 147h155z" />
    <glyph glyph-name="numbersign" unicode="#" horiz-adv-x="661" 
d="M570 502h91l-15 -108h-110l-43 -121h104l-15 -107h-131l-59 -166h-116l59 166h-112l-58 -166h-117l58 166h-97l15 107h122l45 121h-106l15 108h127l70 194h119l-71 -194h110l70 194h117zM306 393l-44 -121h113l45 121h-114z" />
    <glyph glyph-name="dollar" unicode="$" horiz-adv-x="608" 
d="M393 674c56.667 -4 102.5 -19.999 137.5 -47.999s52.5 -66.333 52.5 -115c0 -10 -1 -24 -3 -42h-173v6l1 8c0 14.667 -5.5 26.834 -16.5 36.501s-27.833 14.5 -50.5 14.5c-26.667 0 -46.834 -4 -60.501 -12s-20.5 -18.667 -20.5 -32c0 -14 8.16699 -25 24.5 -33
s41.833 -16.667 76.5 -26c41.333 -12 75.333 -23.667 102 -35s49.834 -28.666 69.501 -51.999s29.5 -54 29.5 -92c0 -154 -87 -231 -261 -231l3 -87h-128l27 88c-55.333 6 -100.333 23.667 -135 53s-52 69 -52 119v20c0 12 2 22.667 6 32h175l-2 -8l-2 -15
c0 -36 25.333 -54 76 -54c60.667 0 91 14.667 91 44c0 13.333 -7.33301 23.666 -22 30.999s-38.667 15.666 -72 24.999c-40.667 12 -74.667 24 -102 36s-51 30.667 -71 56s-30 58.666 -30 99.999c0 36.667 9.5 70.167 28.5 100.5s46 55.333 81 75s75.5 31.167 121.5 34.5
l-3 86h128z" />
    <glyph glyph-name="percent" unicode="%" horiz-adv-x="715" 
d="M155 0h-95l516 686h93zM306 655c20 -20 30 -45 30 -75v-9c0 -4 -0.333008 -7 -1 -9l-14 -102c-6 -35.333 -21.333 -64.666 -46 -87.999s-56.334 -35 -95.001 -35h-22c-31.333 0 -57 10 -77 30s-30 45 -30 75v9c0 4 0.333008 7 1 9l14 102
c4.66699 35.333 19.834 64.666 45.501 87.999s57.5 35 95.5 35h22c31.333 0 57 -10 77 -30zM180 603c-8.66699 -7.33301 -13.666 -16.668 -14.999 -28.001c-12.667 -85.333 -19 -129.666 -19 -132.999c0 -9.33301 3.16699 -17.166 9.5 -23.499s14.166 -9.5 23.499 -9.5
c10.667 0 20 3.66699 28 11s12.667 16.666 14 27.999l9 62c2.66699 15.333 4.66699 30.333 6 45s2.33301 23.334 3 26.001c0 9.33301 -2.83301 17.166 -8.5 23.499s-13.167 9.5 -22.5 9.5c-10 0 -19.333 -3.66699 -28 -11zM649.001 316.998c20 -20 30 -45 30 -75v-9
c0 -4 -0.333008 -7 -1 -9l-14 -102c-6 -35.333 -21.333 -64.666 -46 -87.999s-56.334 -35 -95.001 -35h-22c-31.333 0 -57 10 -77 30s-30 45 -30 75v9c0 4 0.333008 7 1 9l14 102c4.66699 35.333 19.834 64.666 45.501 87.999s57.5 35 95.5 35h22c31.333 0 57 -10 77 -30z
M523.001 264.998c-8.66699 -7.33301 -13.666 -16.668 -14.999 -28.001c-12.667 -85.333 -19 -129.666 -19 -132.999c0 -9.33301 3.16699 -17.166 9.5 -23.499s14.166 -9.5 23.499 -9.5c10.667 0 20 3.66699 28 11s12.667 16.666 14 27.999l9 62
c2.66699 15.333 4.66699 30.333 6 45s2.33301 23.334 3 26.001c0 9.33301 -2.83301 17.166 -8.5 23.499s-13.167 9.5 -22.5 9.5c-10 0 -19.333 -3.66699 -28 -11z" />
    <glyph glyph-name="ampersand" unicode="&#x26;" horiz-adv-x="709" 
d="M401 693l-21 -150c-10 3.33301 -19.333 5 -28 5c-26.667 0 -47.167 -6.33301 -61.5 -19s-21.5 -30.667 -21.5 -54c0 -14 4.5 -26.5 13.5 -37.5s23.167 -16.5 42.5 -16.5h121l70 119h137l-16 -119h80l-20 -142h-80l-39 -279h-319c-73.333 -0 -132.833 12.833 -178.5 38.5
s-68.5 68.167 -68.5 127.5c0 51.333 12.667 93.333 38 126s62 54.667 110 66c-27.333 9.33301 -48 24.666 -62 45.999s-21 46.333 -21 75c0 46.667 12.333 86.334 37 119.001s57.667 57.167 99 73.5s87.333 24.5 138 24.5c17.333 0 34 -1 50 -3zM305 279
c-35.333 0 -59.333 -8.33301 -72 -25s-19 -35 -19 -55c0 -20.667 7.16699 -36 21.5 -46s32.5 -15 54.5 -15h109l20 141h-114z" />
    <glyph glyph-name="quotesingle" unicode="'" horiz-adv-x="230" 
d="M226 539l-67 -143h-61l-27 143l21 147h155z" />
    <glyph glyph-name="parenleft" unicode="(" horiz-adv-x="311" 
d="M221.5 428.5c-31 -91 -46.501 -181.168 -46.501 -270.501c0 -57.333 5 -113.666 15 -168.999s24.333 -104.333 43 -147h-108c-34.667 46.667 -61 98.167 -79 154.5s-27 115.5 -27 177.5c0 92 19.833 183 59.5 273s94.834 169.667 165.501 239h108
c-56 -80.667 -99.5 -166.5 -130.5 -257.5z" />
    <glyph glyph-name="parenright" unicode=")" horiz-adv-x="312" 
d="M285 351c0 -92 -19.8311 -182.331 -59.498 -270.998s-94.834 -168 -165.501 -238h-108c55.333 78 98.666 163 129.999 255s47 182.333 47 271c0 56 -5 112.167 -15 168.5s-24.333 106.166 -43 149.499h108c70.667 -94.667 106 -206.334 106 -335.001z" />
    <glyph glyph-name="asterisk" unicode="*" horiz-adv-x="506" 
d="M331 533l156 60l20 -110l-155 -35l84 -113l-110 -70l-61 131l-96 -131l-90 70l116 113l-142 35l54 110l140 -60v153h120z" />
    <glyph glyph-name="plus" unicode="+" horiz-adv-x="615" 
d="M375 320h192l-17 -128h-192l-27 -192h-128l27 192h-192l17 128h192l27 192h128z" />
    <glyph glyph-name="comma" unicode="," horiz-adv-x="286" 
d="M201 22l-76 -187h-94l60 165h-84l26 183h191z" />
    <glyph glyph-name="hyphen" unicode="-" horiz-adv-x="351" 
d="M288 196h-253l22 158h254z" />
    <glyph glyph-name="period" unicode="." horiz-adv-x="287" 
d="M199 0h-191l25 183h191z" />
    <glyph glyph-name="slash" unicode="/" horiz-adv-x="541" 
d="M88 -171h-132l490 857h131z" />
    <glyph glyph-name="zero" unicode="0" horiz-adv-x="615" 
d="M498.5 668c33 -18.667 58.833 -44.501 77.5 -77.501s28 -69.833 28 -110.5c-0.666992 -4.66699 -1 -10.167 -1 -16.5s-0.333008 -12.166 -1 -17.499l-29 -206c-6.66699 -46.667 -22.667 -89 -48 -127s-58.333 -68 -99 -90s-86.667 -33 -138 -33h-45
c-40.667 0 -77.667 9.5 -111 28.5s-59.5 44.833 -78.5 77.5s-28.5 69 -28.5 109c0 11.333 1 23 3 35l29 206c6.66699 49.333 23.667 93 51 131s61.5 67.333 102.5 88s84.833 31 131.5 31h45c41.333 0 78.5 -9.33301 111.5 -28zM288 532.499
c-15.333 -13 -25.001 -33.167 -29.001 -60.5l-36 -257c-0.666992 -2 -1 -6.33301 -1 -13c0 -19.333 5.83301 -35.333 17.5 -48s26.834 -19 45.501 -19c24.667 0 44.5 7.5 59.5 22.5s24.167 34.167 27.5 57.5l37 269c0 19.333 -6 35.5 -18 48.5s-27.333 19.5 -46 19.5
c-22.667 0 -41.667 -6.5 -57 -19.5z" />
    <glyph glyph-name="one" unicode="1" horiz-adv-x="615" 
d="M402 153h146l-21 -153h-494l21 153h152l45 320h-152l16 115c42.667 2.66699 92 14.5 148 35.5s105.333 45.167 148 72.5h67z" />
    <glyph glyph-name="two" unicode="2" horiz-adv-x="615" 
d="M539 644.5c38.667 -34.333 57.999 -79.832 57.999 -136.499c0 -47.333 -11.333 -89 -34 -125s-50.167 -66.5 -82.5 -91.5s-75.833 -53.833 -130.5 -86.5c-26.667 -16 -46.667 -28.333 -60 -37h263l-23 -168h-534l5 36c5.33301 38.667 15.666 71.334 30.999 98.001
s39.333 51.667 72 75c34 24 50 35.333 48 34c78.667 56 132.834 95.667 162.501 119s50.167 43.166 61.5 59.499s17 35.5 17 57.5c0 17.333 -5.66699 31.833 -17 43.5s-26 17.5 -44 17.5h-13c-19.333 0 -36.666 -6.66699 -51.999 -20s-24.333 -30 -27 -50l-4 -28h-176
c3.33301 51.333 17.666 96.166 42.999 134.499s59.333 67.833 102 88.5s91 31 145 31h31c66.667 0 119.334 -17.167 158.001 -51.5z" />
    <glyph glyph-name="three" unicode="3" horiz-adv-x="615" 
d="M494.5 674.5c32.333 -14.333 57.3311 -34.0039 74.998 -59.0039s26.5 -52.833 26.5 -83.5c0 -38 -11.167 -73 -33.5 -105s-50.166 -54.667 -83.499 -68c30 -11.333 53 -28.666 69 -51.999s24 -52 24 -86c0 -48 -13 -89.5 -39 -124.5s-61 -61.5 -105 -79.5
s-92.667 -27 -146 -27h-42c-74.667 0 -132.167 15.833 -172.5 47.5s-60.5 72.834 -60.5 123.501c0 6 0.666992 16.333 2 31l3 17h175c-0.666992 -2 -1 -6.33301 -1 -13c0 -17.333 5.66699 -31.166 17 -41.499s29.333 -15.5 54 -15.5h27c28.667 0 51.167 8.33301 67.5 25
s24.5 39 24.5 67c0 18.667 -5.66699 33 -17 43s-26 15 -44 15h-104l17 123h88c21.333 0 40 7 56 21s24 33.667 24 59c0 16 -5.66699 29.167 -17 39.5s-26 15.5 -44 15.5h-18c-19.333 0 -36.666 -6.16699 -51.999 -18.5s-24.333 -27.166 -27 -44.499h-167
c0 40.667 12.667 77 38 109s59.333 57.167 102 75.5s89.334 27.5 140.001 27.5h30c43.333 0 81.166 -7.16699 113.499 -21.5z" />
    <glyph glyph-name="four" unicode="4" horiz-adv-x="615" 
d="M352.5 568.5c-30.333 -51.667 -64.332 -102.667 -101.999 -153s-70.5 -89.5 -98.5 -117.5h150l15 102c20.667 24.667 46 62 76 112s50.333 89.333 61 118h83l-47 -332h98l-20 -147h-98l-21 -151h-188l21 151h-279l20 149c33.333 49.333 73.166 116.333 119.499 201
s76.833 149.667 91.5 195h177c-8.66699 -33.333 -28.167 -75.833 -58.5 -127.5z" />
    <glyph glyph-name="five" unicode="5" horiz-adv-x="615" 
d="M560 516l-291 0.00390625l-23 -102c42 30 86.667 45 134 45c60 0 107.167 -16.667 141.5 -50s51.5 -80 51.5 -140c0 -53.333 -13.167 -101.333 -39.5 -144s-62 -75.834 -107 -99.501s-94.833 -35.5 -149.5 -35.5h-30c-48 0 -89.333 8.66699 -124 26
s-61 41.166 -79 71.499s-27 64.833 -27 103.5v17c0 4 0.666992 9.33301 2 16h176c-0.666992 -2 -1 -5.66699 -1 -11c0 -19.333 6.66699 -35.666 20 -48.999s30 -20 50 -20h17c24 0 45.667 9.16699 65 27.5s29 43.166 29 74.499c0 19.333 -6.66699 35.666 -20 48.999
s-30 20 -50 20h-14c-14.667 0 -26.667 -2.33301 -36 -7s-17.5 -9.83398 -24.5 -15.501s-12.167 -9.5 -15.5 -11.5l-154 22l82 383h440z" />
    <glyph glyph-name="six" unicode="6" horiz-adv-x="615" 
d="M534 646c40 -33.333 59.998 -80.3311 59.998 -140.998c0 -12.667 -1 -25.667 -3 -39h-178l1 21c-0.666992 17.333 -6.66699 31.5 -18 42.5s-25.666 16.5 -42.999 16.5h-6c-20.667 0 -39.667 -7.33301 -57 -22s-27.666 -32.334 -30.999 -53.001l-12 -86
c19.333 17.333 41.166 30.333 65.499 39s46.833 13 67.5 13c58.667 0 106.167 -14.833 142.5 -44.5s54.5 -72.167 54.5 -127.5s-13.5 -103.833 -40.5 -145.5s-63 -73.667 -108 -96s-93.5 -33.5 -145.5 -33.5h-28c-44 0 -83.167 9.33301 -117.5 28s-61.166 44.5 -80.499 77.5
s-29 70.5 -29 112.5c0 17.333 10.333 96.666 31 237.999c6 46.667 23.333 89.167 52 127.5s64.5 68.333 107.5 90s88.167 32.5 135.5 32.5h28c61.333 0 112 -16.667 152 -50zM312.998 321.002c-20 0 -38.499 -7.33203 -55.499 -21.999s-26.833 -32.334 -29.5 -53.001l-6 -41
c-0.666992 -1.33301 -1 -3.33301 -1 -6v-5c0 -18 6.16699 -33.167 18.5 -45.5s28.166 -18.5 47.499 -18.5h6c20.667 0 39.667 7.5 57 22.5s26.666 32.5 27.999 52.5l7 51c0 20 -6.16699 35.833 -18.5 47.5s-28.166 17.5 -47.499 17.5h-6z" />
    <glyph glyph-name="seven" unicode="7" horiz-adv-x="615" 
d="M612 595c-80.667 -94 -146.334 -183.669 -197.001 -269.002s-83 -174.333 -97 -267l-9 -59h-222c12 86.667 44.333 171.834 97 255.501s119.334 169.834 200.001 258.501h-292l24 172h509z" />
    <glyph glyph-name="eight" unicode="8" horiz-adv-x="615" 
d="M522 650.5c41.333 -30.333 62.002 -72.501 62.002 -126.501c0 -42.667 -8.83301 -76.667 -26.5 -102s-42.167 -49 -73.5 -71l-1 -4c27.333 -18 47.666 -36.667 60.999 -56s20 -43.666 20 -72.999c0 -37.333 -9.66699 -73.166 -29 -107.499s-51.333 -63 -96 -86
s-103 -34.5 -175 -34.5c-74.667 0 -133.834 14.833 -177.501 44.5s-65.5 71.834 -65.5 126.501c0 46 10.667 83 32 111s52.333 53 93 75l1 4c-20 16.667 -35 33.167 -45 49.5s-15 37.5 -15 63.5c0 47.333 12.667 88.666 38 123.999s59 62.166 101 80.499
s87.667 27.5 137 27.5c64.667 0 117.667 -15.167 159 -45.5zM292.502 545.499c-15.667 -13.667 -24.833 -30.167 -27.5 -49.5l-3 -23c-0.666992 -2 -1 -5.66699 -1 -11c0 -17.333 5.83301 -31.5 17.5 -42.5s26.5 -16.5 44.5 -16.5c19.333 0 37 6.83301 53 20.5
s25 30.167 27 49.5l3 32c0 18 -5.66699 32.667 -17 44s-26 17 -44 17c-19.333 0 -36.833 -6.83301 -52.5 -20.5zM255.003 274.499c-15.333 -13.667 -24.668 -30.1689 -28.001 -49.502l-5 -33c-0.666992 -1.33301 -1 -4.66602 -1 -9.99902
c0 -17.333 5.66699 -31.666 17 -42.999s26.333 -17 45 -17c20 0 37.5 6.66699 52.5 20s24.167 30 27.5 50l5 42c0 18 -5.66699 32.667 -17 44s-26 17 -44 17c-19.333 0 -36.666 -6.83301 -51.999 -20.5z" />
    <glyph glyph-name="nine" unicode="9" horiz-adv-x="615" 
d="M490.5 668c34.333 -18.667 61.1699 -44.333 80.5029 -77s29 -69.667 29 -111c0 -18.667 -10.333 -98.667 -31 -240c-6.66699 -48 -23.334 -91 -50.001 -129s-61.167 -67.667 -103.5 -89s-89.5 -32 -141.5 -32h-28c-62 0 -112.833 16.5 -152.5 49.5
s-59.5 80.167 -59.5 141.5c0 12 1 25 3 39h178c-0.666992 -2 -1 -4.66699 -1 -8v-12c0 -16 5.83301 -30 17.5 -42s26.167 -18 43.5 -18h6c24.667 0 44.5 7 59.5 21s24.5 32 28.5 54l12 86c-19.333 -17.333 -41.166 -30.333 -65.499 -39s-46.833 -13 -67.5 -13
c-58.667 0 -106.334 14.833 -143.001 44.5s-55 72.167 -55 127.5c0 52.667 13.667 100 41 142s63.666 74.667 108.999 98s93.666 35 144.999 35h28c44 0 83.167 -9.33301 117.5 -28zM335.004 556.001c-20 0 -38.498 -7.33301 -55.498 -22s-26.833 -32.334 -29.5 -53.001
l-5 -34c0 -0.666992 -0.333008 -2.66699 -1 -6s-1 -7.33301 -1 -12c0 -18 6.16699 -33.167 18.5 -45.5s28.166 -18.5 47.499 -18.5h6c20 0 38.5 7.33301 55.5 22s26.833 32.334 29.5 53.001l7 51c0 18.667 -6.33301 34.167 -19 46.5s-28.334 18.5 -47.001 18.5h-6z" />
    <glyph glyph-name="colon" unicode=":" horiz-adv-x="308" 
d="M255 328h-191l25 183h191zM209 0h-191l25 183h191z" />
    <glyph glyph-name="semicolon" unicode=";" horiz-adv-x="307" 
d="M254 328h-191l26 183h191zM211 22l-76 -187h-94l60 165h-84l26 183h191z" />
    <glyph glyph-name="less" unicode="&#x3c;" horiz-adv-x="615" 
d="M566 382l-366 -128l331 -127l-20 -138l-481 196l19 139l537 197z" />
    <glyph glyph-name="equal" unicode="=" horiz-adv-x="615" 
d="M565 301h-512l18 128h512zM534 81h-512l18 128h512z" />
    <glyph glyph-name="greater" unicode="&#x3e;" horiz-adv-x="615" 
d="M575 324l-19 -139l-537 -196l20 138l365 127l-330 128l20 139z" />
    <glyph glyph-name="question" unicode="?" horiz-adv-x="583" 
d="M476.5 672.5c32.333 -15.667 58 -37.6699 77 -66.0029s28.5 -60.833 28.5 -97.5c0 -36 -7.33301 -67.5 -22 -94.5s-32 -48.833 -52 -65.5s-44.333 -34 -73 -52c-20.667 -13.333 -35.667 -24 -45 -32s-14.333 -16.333 -15 -25l-3 -22h-171l9 59
c2.66699 16.667 10 32 22 46s30 31.667 54 53c27.333 23.333 48 43.833 62 61.5s21.333 37.834 22 60.501c0 16.667 -5.16699 30.834 -15.5 42.501s-24.166 17.5 -41.499 17.5c-20.667 0 -36.667 -5.33301 -48 -16s-19 -23.5 -23 -38.5s-7 -33.833 -9 -56.5h-184
c0 12.667 1 25.334 3 38.001c6.66699 42.667 23.167 80 49.5 112s59.666 56.5 99.999 73.5s83.833 25.5 130.5 25.5h38c38.667 0 74.167 -7.83301 106.5 -23.5zM357 -0.00292969h-191l25 183h191z" />
    <glyph glyph-name="at" unicode="@" horiz-adv-x="907" 
d="M790.5 622.5c65 -49.667 97.499 -125.5 97.499 -227.5c0 -90 -14.167 -163 -42.5 -219s-62.666 -95.667 -102.999 -119s-80.5 -35 -120.5 -35c-64.667 0 -104 25.667 -118 77c-23.333 -23.333 -48 -41.833 -74 -55.5s-56.333 -20.5 -91 -20.5
c-43.333 0 -79.5 10 -108.5 30s-43.5 52 -43.5 96c0 69.333 28.833 116.666 86.5 141.999s142.167 38 253.5 38l2 14c1.33301 10.667 2 18.334 2 23.001c0 14.667 -5 26 -15 34s-23 12 -39 12c-14.667 0 -29 -4.16699 -43 -12.5s-21.667 -18.833 -23 -31.5l-1 -4h-178
c0 28 10.5 54 31.5 78s50.167 43.167 87.5 57.5s79.666 21.5 126.999 21.5h31c67.333 0 118.166 -12 152.499 -36s51.5 -56 51.5 -96v-10c0 -4.66699 -0.333008 -8 -1 -10l-28 -198c0 -12 2.66699 -20.833 8 -26.5s12 -8.5 20 -8.5c16.667 0 33 10.667 49 32
s29 51.166 39 89.499s15 81.166 15 128.499c0 84.667 -26.333 147.5 -79 188.5s-125.667 61.5 -219 61.5c-82 0 -154.667 -17.167 -218 -51.5s-113 -86.333 -149 -156s-54 -155.167 -54 -256.5c0 -88.667 23.167 -154.834 69.5 -198.501s117.833 -65.5 214.5 -65.5
c24.667 0 54.667 3.16699 90 9.5s62 13.833 80 22.5l-9 -66c-21.333 -7.33301 -49.166 -13.666 -83.499 -18.999s-62.833 -8 -85.5 -8c-112 0 -198.167 26.333 -258.5 79s-90.5 133 -90.5 241c0 30.667 2.33301 62.334 7 95.001c14.667 101.333 45.834 184.333 93.501 249
s106 111.834 175 141.501s144.833 44.5 227.5 44.5c111.333 0 199.5 -24.833 264.5 -74.5zM416.499 224c-21 -12.667 -31.501 -30.001 -31.501 -52.001c0 -24 16.667 -36 50 -36c17.333 0 33.333 6.33301 48 19s23.334 28.334 26.001 47.001l5 41
c-44 0 -76.5 -6.33301 -97.5 -19z" />
    <glyph glyph-name="A" unicode="A" horiz-adv-x="709" 
d="M674 0h-218l-24 122h-218l-57 -122h-201l325 686h261zM371 475l-88 -208h122l-29 208h-5z" />
    <glyph glyph-name="B" unicode="B" horiz-adv-x="656" 
d="M570 666.5c24 -13 42.666 -30.4971 55.999 -52.4971s20 -46.667 20 -74c0 -52.667 -13.167 -93.334 -39.5 -122.001s-59.166 -48.667 -98.499 -60l-1 -4c72.667 -18 109 -63.333 109 -136c0 -36.667 -9 -71.834 -27 -105.501s-43.5 -60.834 -76.5 -81.501
s-71.167 -31 -114.5 -31h-382l97 686h376c30 0 57 -6.5 81 -19.5zM284.999 540.003l-16 -117h115c13.333 0 26 5 38 15s18.333 21.667 19 35l2 24c0 12.667 -4 23 -12 31s-18.333 12 -31 12h-115zM247.999 277.003l-16 -118h127c13.333 0 26 5 38 15s18.333 21.667 19 35
l2 25c0 12.667 -4 23 -12 31s-18.333 12 -31 12h-127z" />
    <glyph glyph-name="C" unicode="C" horiz-adv-x="684" 
d="M609.5 635c46.333 -40.667 69.499 -99.001 69.499 -175.001c0 -20 -1.33301 -38.333 -4 -55h-197l5 35c0.666992 2 1 4.66699 1 8v9c0 25.333 -8 45.5 -24 60.5s-37 22.5 -63 22.5h-5c-32.667 0 -58.834 -9.33301 -78.501 -28s-31.5 -42.667 -35.5 -72l-27 -193
c-0.666992 -1.33301 -1 -3.66602 -1 -6.99902v-7c0 -24.667 8.16699 -45.167 24.5 -61.5s37.166 -24.5 62.499 -24.5h14c65.333 0 103.333 33.333 114 100l5 33h188c-13.333 -90.667 -48.166 -161.667 -104.499 -213s-129.166 -77 -218.499 -77h-28
c-54 0 -102.167 10 -144.5 30s-75.5 48.833 -99.5 86.5s-36 82.834 -36 135.501c0 7.33301 1.5 23 4.5 47s7.83301 59.667 14.5 107c8 59.333 28.333 111.666 61 156.999s74.334 80.5 125.001 105.5s106 37.5 166 37.5h28c76 0 137.167 -20.333 183.5 -61z" />
    <glyph glyph-name="D" unicode="D" horiz-adv-x="697" 
d="M556.5 652c39.667 -22.667 70.6699 -53.668 93.0029 -93.001s33.5 -83 33.5 -131c0 -14 -1 -28 -3 -42l-13 -86c-8.66699 -56.667 -27.834 -107.667 -57.501 -153s-68.834 -81.166 -117.501 -107.499s-104.334 -39.5 -167.001 -39.5h-309l97 686h309
c50 0 94.833 -11.333 134.5 -34zM303.003 529.999l-52.002 -371.001h77c32.667 0 58.834 9.33301 78.501 28s31.5 42.667 35.5 72l25 184c0 24.667 -8.16699 45.334 -24.5 62.001s-37.166 25 -62.499 25h-77z" />
    <glyph glyph-name="E" unicode="E" 
d="M586 528h-289l-15 -100h278l-21 -153h-278l-16 -111h286v-164h-515l97 686h515z" />
    <glyph glyph-name="F" unicode="F" horiz-adv-x="563" 
d="M566 523h-271l-16 -112h252l-22 -154h-252l-36 -257h-205l97 686h496z" />
    <glyph glyph-name="G" unicode="G" horiz-adv-x="699" 
d="M559.5 668.5c37 -18.333 66.334 -43.999 88.001 -76.999s32.5 -70.5 32.5 -112.5c0 -7.33301 -0.666992 -18.333 -2 -33l-1 -7h-194c0.666992 2 1 5.33301 1 10v10c0 27.333 -8 47.666 -24 60.999s-37 20 -63 20h-5c-31.333 0 -57.166 -9.33301 -77.499 -28
s-32.5 -42.667 -36.5 -72l-27 -193c-0.666992 -2 -1 -4.33301 -1 -7v-7c0 -24.667 8.16699 -45.167 24.5 -61.5s37.166 -24.5 62.499 -24.5h18c28 0 50.667 8.83301 68 26.5s28.333 42.5 33 74.5h-116l19 136h310l-33 -240c-9.33301 -54.667 -14 -102.667 -14 -144h-112
l-17 73c-28 -26.667 -58 -47.167 -90 -61.5s-71.333 -21.5 -118 -21.5h-10c-48.667 0 -91.834 11 -129.501 33s-66.667 52.333 -87 91s-30.5 82 -30.5 130c0 14.667 1 30 3 46l15 106c8 56 27.5 106.833 58.5 152.5s72.333 81.667 124 108s111.167 39.5 178.5 39.5h28
c46 0 87.5 -9.16699 124.5 -27.5z" />
    <glyph glyph-name="H" unicode="H" horiz-adv-x="697" 
d="M599 0h-210l38 267h-162l-38 -267h-211l97 686h210l-36 -253h162l36 253h211z" />
    <glyph glyph-name="I" unicode="I" horiz-adv-x="446" 
d="M445 539h-81l-55 -391h81l-21 -148h-374l21 148h81l55 391h-81l21 147h374z" />
    <glyph glyph-name="J" unicode="J" horiz-adv-x="543" 
d="M473 180c-9.33301 -60.667 -37.167 -107.499 -83.5 -140.499s-103.833 -49.5 -172.5 -49.5h-31c-62 0 -110 13.667 -144 41s-51 66 -51 116v11c0 12.667 4 42.667 12 90h192l-5 -32c-3.33301 -18.667 -5 -31.334 -5 -38.001c0 -11.333 3.5 -20.5 10.5 -27.5
s15.5 -10.5 25.5 -10.5c12 0 22.5 4.16699 31.5 12.5s14.5 19.5 16.5 33.5l70 500h205z" />
    <glyph glyph-name="K" unicode="K" horiz-adv-x="684" 
d="M497 411l157 -411h-235l-84 248l-93 -96l-22 -152h-204l97 686h204l-38 -271l234 271h232z" />
    <glyph glyph-name="L" unicode="L" horiz-adv-x="540" 
d="M252 168h245v-168h-481l97 686h212z" />
    <glyph glyph-name="M" unicode="M" horiz-adv-x="1004" 
d="M906 0h-210l62 440h-4l-182 -440h-241l-57 440h-5l-62 -440h-191l97 686h344l47 -366h4l149 366h346z" />
    <glyph glyph-name="N" unicode="N" horiz-adv-x="696" 
d="M598 0h-180l-136 246c-4 5.33301 -9.66699 16 -17 32l-13 26l-43 -304h-193l97 686h176l140 -255l28 -56l44 311h194z" />
    <glyph glyph-name="O" unicode="O" horiz-adv-x="719" 
d="M578.5 660c39.667 -22.667 70.666 -53.6709 92.999 -93.0039s33.5 -83 33.5 -131c0 -9.33301 -0.5 -18.166 -1.5 -26.499s-2.5 -19.166 -4.5 -32.499l-12 -87c-8 -56 -27.333 -106.667 -58 -152s-70.5 -81.333 -119.5 -108s-103.833 -40 -164.5 -40h-56
c-50 0 -94.833 11.333 -134.5 34s-70.667 53.667 -93 93s-33.5 83 -33.5 131c0 8.66699 0.5 17.834 1.5 27.501s2.33301 20 4 31s2.83398 20.167 3.50098 27.5c2 9.33301 3.66699 19 5 29l4 31c8 55.333 27.333 105.833 58 151.5s70.5 81.834 119.5 108.501
s103.833 40 164.5 40h56c50 0 94.833 -11.333 134.5 -34zM391.999 539.996c-32.667 0 -58.834 -9.33398 -78.501 -28.001s-31.5 -42.667 -35.5 -72l-27 -193c-0.666992 -1.33301 -1 -3.66602 -1 -6.99902v-7c0 -24.667 8.16699 -45.167 24.5 -61.5
s37.166 -24.5 62.499 -24.5h5c32.667 0 58.834 9.33301 78.501 28s31.5 42.667 35.5 72l27 193c0.666992 2 1 6.66699 1 14c0 24 -8.16699 44.333 -24.5 61s-37.166 25 -62.499 25h-5z" />
    <glyph glyph-name="P" unicode="P" horiz-adv-x="645" 
d="M571.5 662c27.667 -16 49.332 -37.832 64.999 -65.499s23.5 -58.167 23.5 -91.5c0 -46.667 -9.83301 -89.834 -29.5 -129.501s-48 -71.5 -85 -95.5s-80.167 -36 -129.5 -36h-155l-35 -244h-210l97 686h365c34.667 0 65.834 -8 93.501 -24zM300.998 529.001l-19 -132h92
c20 0 36 6 48 18s19 26 21 42l2 21c0 14 -4.5 26 -13.5 36s-21.833 15 -38.5 15h-92z" />
    <glyph glyph-name="Q" unicode="Q" horiz-adv-x="718" 
d="M577.5 660.5c39.667 -22.333 70.6631 -53 92.9961 -92s33.5 -82.833 33.5 -131.5c0 -12 -0.333008 -22.333 -1 -31s-2 -19.334 -4 -32.001l-12 -84c-10 -68 -35.667 -127.167 -77 -177.5s-96.666 -85.833 -165.999 -106.5c8.66699 -30 32.667 -45 72 -45
c16 0 35.167 2.16699 57.5 6.5s41.833 8.83301 58.5 13.5l13 4l-15 -105c-56 -28 -118.333 -42 -187 -42c-47.333 0 -86.5 8 -117.5 24s-53.833 36 -68.5 60s-23 48.667 -25 74c-61.333 12 -110.666 40.833 -147.999 86.5s-56 100.5 -56 164.5
c0 13.333 5.66699 62.333 17 147c6.66699 55.333 25.834 105.833 57.501 151.5s72.334 81.834 122.001 108.501s104.167 40 163.5 40h56c49.333 0 93.833 -11.167 133.5 -33.5zM391.996 540c-32.667 0 -58.834 -9.33301 -78.501 -28s-31.5 -42.667 -35.5 -72l-27 -193
c-0.666992 -2 -1 -4.33301 -1 -7v-7c0 -24.667 8.16699 -45.167 24.5 -61.5s37.166 -24.5 62.499 -24.5h5c32.667 0 58.834 9.33301 78.501 28s31.5 42.667 35.5 72l27 193c0.666992 2 1 6.66699 1 14c0 24 -8.16699 44.333 -24.5 61s-37.166 25 -62.499 25h-5z" />
    <glyph glyph-name="R" unicode="R" horiz-adv-x="682" 
d="M581.5 667.5c25.667 -12.333 45.999 -29.665 60.999 -51.998s22.5 -48.166 22.5 -77.499c0 -32 -6.66699 -61.167 -20 -87.5s-31.166 -47.833 -53.499 -64.5s-46.833 -27.334 -73.5 -32.001l-1 -5c30 -9.33301 52.167 -25.833 66.5 -49.5s21.5 -52.5 21.5 -86.5
c0 -8.66699 -0.333008 -16.334 -1 -23.001s-1.33398 -12.334 -2.00098 -17.001c-2.66699 -21.333 -4 -38.333 -4 -51c0 -41.333 12.667 -65.333 38 -72l-6 -41c-32.667 -12.667 -73.334 -19 -122.001 -19c-41.333 0 -72.666 7.66699 -93.999 23s-32 40.333 -32 75
c0 8 1.33301 22 4 42c2.66699 21.333 4 37.666 4 48.999c0 26.667 -5.5 47.834 -16.5 63.501s-30.167 23.5 -57.5 23.5h-58l-37 -266h-205l96 686h385c30.667 0 58.834 -6.16699 84.501 -18.5zM294.999 529.001l-15 -110h106c16 0 29 4.66699 39 14s16 21.333 18 36l1 19
c0.666992 11.333 -3.5 21 -12.5 29s-19.167 12 -30.5 12h-106z" />
    <glyph glyph-name="S" unicode="S" horiz-adv-x="651" 
d="M570 651c46.667 -30 69.9971 -74.668 69.9971 -134.001c0 -15.333 -1.33301 -29.666 -4 -42.999h-192l1 19c0.666992 14 -5.5 26 -18.5 36s-31.5 15 -55.5 15c-29.333 0 -51.666 -4.33301 -66.999 -13s-23 -20 -23 -34c0 -15.333 8.83301 -26.833 26.5 -34.5
s47.167 -16.5 88.5 -26.5c44.667 -9.33301 81.834 -19.5 111.501 -30.5s55.167 -28.167 76.5 -51.5s32 -54.333 32 -93c0 -76 -26 -140.167 -78 -192.5s-139.333 -78.5 -262 -78.5c-76 0 -139 15.833 -189 47.5s-75 78.167 -75 139.5c0 12.667 2 31.667 6 57h194
c-2.66699 -6 -4 -13.333 -4 -22c0 -18 6.66699 -32.667 20 -44s35 -17 65 -17c67.333 0 101 16 101 48c0 14.667 -8.5 25.667 -25.5 33s-44.5 15.333 -82.5 24c-44.667 9.33301 -82 19.833 -112 31.5s-56 30 -78 55s-33 58.5 -33 100.5c0 81.333 29.833 143.833 89.5 187.5
s138.167 65.5 235.5 65.5c74.667 0 135.334 -15 182.001 -45z" />
    <glyph glyph-name="T" unicode="T" horiz-adv-x="585" 
d="M603 521h-174l-74 -521h-208l74 521h-174l23 165h556z" />
    <glyph glyph-name="U" unicode="U" horiz-adv-x="687" 
d="M625 218c-10.667 -71.333 -41.667 -127.169 -93 -167.502s-121 -60.5 -209 -60.5h-43c-74 0 -132.667 17.333 -176 52s-65 81.334 -65 140.001c0 12 1 24 3 36l65 468h211l-65 -465c-0.666992 -2 -1 -5.66699 -1 -11c0 -19.333 6.83301 -34.833 20.5 -46.5
s30.834 -17.5 51.501 -17.5c26.667 0 47.667 6.83301 63 20.5s24.666 31.834 27.999 54.501l65 465h210z" />
    <glyph glyph-name="V" unicode="V" horiz-adv-x="655" 
d="M409 0h-250l-108 686h218l60 -426h4l179 426h202z" />
    <glyph glyph-name="W" unicode="W" horiz-adv-x="1022" 
d="M795 0h-238l-36 329h-6l-130 -329h-242l-90 686h217l43 -381h4l152 381h215l42 -381h4l151 381h197z" />
    <glyph glyph-name="X" unicode="X" horiz-adv-x="672" 
d="M484 362l164 -362h-244l-86 213h-4l-145 -213h-225l265 363l-147 323h243l70 -175h4l120 175h225z" />
    <glyph glyph-name="Y" unicode="Y" horiz-adv-x="644" 
d="M421 262l-37 -262h-209l37 262l-168 424h236l71 -225h5l137 225h215z" />
    <glyph glyph-name="Z" unicode="Z" horiz-adv-x="607" 
d="M623 625l-329 -464h272l-23 -161h-570l9 61l333 465h-245l23 160h539z" />
    <glyph glyph-name="bracketleft" unicode="[" horiz-adv-x="318" 
d="M337 603h-88l-95 -681h88l-12 -83h-237l119 847h237z" />
    <glyph glyph-name="backslash" unicode="\" horiz-adv-x="648" 
d="M568 -171h-132l-368 857h131z" />
    <glyph glyph-name="bracketright" unicode="]" horiz-adv-x="317" 
d="M197 -161h-237l12 83h88l95 681h-88l12 83h237z" />
    <glyph glyph-name="asciicircum" unicode="^" 
d="M530 0h-138l-78 350l-177 -350h-139l267 511h139z" />
    <glyph glyph-name="underscore" unicode="_" horiz-adv-x="662" 
d="M521 -127h-499l8 62h500z" />
    <glyph glyph-name="grave" unicode="`" horiz-adv-x="333" 
d="M275 575h-118l-106 142l3 3h151z" />
    <glyph glyph-name="a" unicode="a" horiz-adv-x="628" 
d="M335 502.5c24.667 -12.333 44.0029 -29.833 58.0029 -52.5h5l34 61h149c-14 -84.667 -26.333 -164.167 -37 -238.5s-16 -119.5 -16 -135.5c0 -18 8.66699 -27 26 -27c11.333 0 23.666 4.33301 36.999 13l-15 -110c-14 -7.33301 -30.5 -13 -49.5 -17s-36.833 -6 -53.5 -6
c-36 0 -65.833 5.33301 -89.5 16s-39.167 31.334 -46.5 62.001c-18 -22.667 -40.5 -41.334 -67.5 -56.001s-54.167 -22 -81.5 -22c-58.667 0 -101.834 18.667 -129.501 56s-41.5 86.333 -41.5 147c0 52 8.5 103.167 25.5 153.5s43.667 92 80 125s81.166 49.5 134.499 49.5
c27.333 0 53.333 -6.16699 78 -18.5zM258.503 376c-13.667 -13.333 -21.833 -30 -24.5 -50c-14 -98.667 -21 -150.667 -21 -156c0 -17.333 5 -31.5 15 -42.5s22.667 -16.5 38 -16.5c20.667 0 37 6.5 49 19.5s19.667 29.833 23 50.5l10 72l4 32c4.66699 29.333 7 47 7 53
c0 18.667 -4.83301 33 -14.5 43s-22.5 15 -38.5 15c-18 0 -33.833 -6.66699 -47.5 -20z" />
    <glyph glyph-name="b" unicode="b" horiz-adv-x="599" 
d="M270 458c42 42 88.999 62.999 140.999 62.999c48.667 0 87.667 -16.667 117 -50s44 -81.666 44 -144.999c0 -58 -9.33301 -112.5 -28 -163.5s-47.5 -92.5 -86.5 -124.5s-87.5 -48 -145.5 -48c-36 0 -67.167 7.16699 -93.5 21.5s-47.166 35.5 -62.499 63.5l-78 -75h-69
l100 720h198zM275.499 375.999c-13.667 -13.333 -21.833 -30 -24.5 -50c-14 -98.667 -21 -150.667 -21 -156c0 -17.333 5 -31.5 15 -42.5s22.667 -16.5 38 -16.5c20.667 0 37 6.5 49 19.5s19.667 29.833 23 50.5l10 72l4 32c4.66699 29.333 7 47 7 53
c0 18.667 -4.83301 33 -14.5 43s-22.5 15 -38.5 15c-18 0 -33.833 -6.66699 -47.5 -20z" />
    <glyph glyph-name="c" unicode="c" horiz-adv-x="568" 
d="M500 466c32.667 -36.667 49.002 -78.665 49.002 -125.998c0 -12 -1 -24 -3 -36h-168c0 5.33301 0.5 11.666 1.5 18.999s1.5 12.666 1.5 15.999c0 17.333 -5.5 31.833 -16.5 43.5s-25.167 17.5 -42.5 17.5c-22.667 0 -40.834 -6.5 -54.501 -19.5
s-21.834 -29.833 -24.501 -50.5c-6 -32.667 -11.167 -65.167 -15.5 -97.5s-6.5 -52.833 -6.5 -61.5c0 -18 5.83301 -32.5 17.5 -43.5s28.167 -16.5 49.5 -16.5c25.333 0 44.833 7 58.5 21s21.834 30.333 24.501 49l4 26h158c-10.667 -68.667 -39.834 -122 -87.501 -160
s-108.167 -57 -181.5 -57c-54.667 0 -100.5 9.5 -137.5 28.5s-64.667 44.167 -83 75.5s-27.5 66 -27.5 104c0 60 12 114.5 36 163.5s59.333 87.833 106 116.5s102.667 43 168 43c83.333 0 141.333 -18.333 174 -55z" />
    <glyph glyph-name="d" unicode="d" horiz-adv-x="639" 
d="M571 442l-6.99902 -50.999c-22.667 -154.667 -33.667 -236.334 -33 -245.001c0 -12 1.5 -21 4.5 -27s9.83301 -9 20.5 -9c11.333 0 23.666 4.33301 36.999 13l-15 -110c-14 -7.33301 -30.5 -13 -49.5 -17s-36.833 -6 -53.5 -6c-34.667 0 -63.5 4.66699 -86.5 14
s-38.5 27.666 -46.5 54.999c-20 -21.333 -40.833 -38.166 -62.5 -50.499s-49.167 -18.5 -82.5 -18.5c-55.333 0 -99 17.167 -131 51.5s-48 84.833 -48 151.5c0 70 11.167 129.667 33.5 179s51.5 86.5 87.5 111.5s74 37.5 114 37.5c62.667 0 103.667 -21 123 -63l37 262h198z
M257.501 376.001c-13.667 -13.333 -21.833 -30 -24.5 -50c-14 -98.667 -21 -150.667 -21 -156c0 -17.333 5 -31.5 15 -42.5s22.667 -16.5 38 -16.5c20.667 0 37 6.5 49 19.5s19.667 29.833 23 50.5l10 72l4 32c4.66699 29.333 7 47 7 53c0 18.667 -4.83301 33 -14.5 43
s-22.5 15 -38.5 15c-18 0 -33.833 -6.66699 -47.5 -20z" />
    <glyph glyph-name="e" unicode="e" 
d="M518 469c37.333 -34.667 55.9971 -80.999 55.9971 -138.999l-2 -27c-0.666992 -10 -3.66699 -34.667 -9 -74h-333l-4 -25c-3.33301 -20.667 -4.66602 -32 -3.99902 -34c0 -18.667 6.33301 -33.167 19 -43.5s29 -15.5 49 -15.5c23.333 0 42.333 7.16699 57 21.5
s23.667 34.166 27 59.499h183c-5.33301 -38 -20.166 -72.333 -44.499 -103s-56.666 -54.834 -96.999 -72.501s-85.833 -26.5 -136.5 -26.5h-15c-48 0 -90.833 8.33301 -128.5 25s-67 40.834 -88 72.501s-31.5 69.167 -31.5 112.5c0 66 13.5 123.167 40.5 171.5
s64.333 85.333 112 111s102.167 38.5 163.5 38.5h25c70 0 123.667 -17.333 161 -52zM270.497 379.501c-15 -13.667 -23.833 -30.167 -26.5 -49.5l-2 -14h138c0 2 0.333008 5 1 9s1 8.66699 1 14c0 17.333 -5.5 31.833 -16.5 43.5s-25.167 17.5 -42.5 17.5
c-20 0 -37.5 -6.83301 -52.5 -20.5z" />
    <glyph glyph-name="f" unicode="f" horiz-adv-x="418" 
d="M404 722.5c26 -3.66699 45.999 -9.16895 59.999 -16.502l-15 -110c-22.667 6.66699 -43 10 -61 10c-25.333 0 -42 -6.33301 -50 -19s-13.167 -27.167 -15.5 -43.5s-3.83301 -27.166 -4.5 -32.499h120l-20 -142h-120l-55 -395
c-7.33301 -52.667 -29.666 -92.667 -66.999 -120s-83.666 -41 -138.999 -41c-21.333 0 -44.833 1.83301 -70.5 5.5s-45.834 9.16699 -60.501 16.5l16 112c8 -3.33301 17.833 -6.16602 29.5 -8.49902s21.834 -3.5 30.501 -3.5c20.667 0 36 6 46 18s17 29 21 51l51 365h-64
l20 142h64l9 66c7.33301 52.667 29.166 91 65.499 115s82.833 36 139.5 36c20.667 0 44 -1.83301 70 -5.5z" />
    <glyph glyph-name="g" unicode="g" 
d="M366.5 500c27 -14 48.166 -35.333 63.499 -64l79 75h70l-66 -471c-10.667 -74.667 -40.167 -131 -88.5 -169s-108.166 -57 -179.499 -57c-70.667 0 -129.667 13 -177 39s-71 68.667 -71 128h199c0 -10.667 4.66699 -20.667 14 -30s23.333 -14 42 -14
c20 0 34.167 6.5 42.5 19.5s14.166 29.833 17.499 50.5l9 75c-18.667 -20 -40.167 -35.5 -64.5 -46.5s-50.166 -16.5 -77.499 -16.5c-54 0 -94.333 18.667 -121 56s-40 84.333 -40 141c0 50 9.16699 98.333 27.5 145s46.833 85 85.5 115s86.667 45 144 45
c34 0 64.5 -7 91.5 -21zM255.499 380.5c-13.667 -13 -21.833 -29.833 -24.5 -50.5l-9 -60c-2.66699 -15.333 -4.66699 -29 -6 -41s-2 -20.667 -2 -26c0 -17.333 5 -31.5 15 -42.5s22.667 -16.5 38 -16.5c20.667 0 37.167 6.5 49.5 19.5s19.833 29.833 22.5 50.5l6 42
c7.33301 48 11 76.667 11 86c0 18.667 -4.83301 33 -14.5 43s-22.5 15 -38.5 15c-18 0 -33.833 -6.5 -47.5 -19.5z" />
    <glyph glyph-name="h" unicode="h" horiz-adv-x="597" 
d="M269 451c12.667 18 31.502 34.168 56.502 48.501s56.5 21.5 94.5 21.5c55.333 0 93 -14 113 -42s30 -57 30 -87v-12c0 -8.66699 -3.33301 -34.334 -10 -77.001c-8.66699 -56.667 -23 -157.667 -43 -303h-198c22 161.333 35.667 257.666 41 288.999
c3.33301 21.333 5 36 5 44c0 13.333 -4 24.5 -12 33.5s-19.333 13.5 -34 13.5c-16.667 0 -30.334 -5.66699 -41.001 -17s-17.334 -25.666 -20.001 -42.999l-45 -320h-197l100 720h198z" />
    <glyph glyph-name="i" unicode="i" horiz-adv-x="296" 
d="M286 577h-197l20 143h197zM205 0h-196l71 511h197z" />
    <glyph glyph-name="j" unicode="j" horiz-adv-x="298" 
d="M288 577h-199l20 143h199zM203 -26c-7.33301 -52.667 -29.334 -92.6689 -66.001 -120.002s-83 -41 -139 -41c-18.667 0 -41.167 2.16699 -67.5 6.5s-47.166 9.5 -62.499 15.5l16 112c7.33301 -3.33301 17.166 -6.16602 29.499 -8.49902s22.5 -3.5 30.5 -3.5
c16.667 0 30.834 4.83301 42.501 14.5s19.167 27.834 22.5 54.501l71 507h199z" />
    <glyph glyph-name="k" unicode="k" horiz-adv-x="601" 
d="M251 321l157 190h226l-212 -231l143 -280h-233l-70 145l-40 -31l-16 -114h-197l100 720h198z" />
    <glyph glyph-name="l" unicode="l" horiz-adv-x="297" 
d="M206 0h-197l100 720h198z" />
    <glyph glyph-name="m" unicode="m" horiz-adv-x="869" 
d="M798 485c24.667 -24 36.999 -54.999 36.999 -92.999c0 -14.667 -5.66699 -60.667 -17 -138l-10 -70l-9 -63c-8 -60 -13.667 -100.333 -17 -121h-194c6 46.667 15.667 114 29 202c11.333 77.333 17 121.333 17 132c0 13.333 -3.83301 24.166 -11.5 32.499
s-17.5 12.5 -29.5 12.5c-14.667 0 -27.167 -5 -37.5 -15s-16.5 -23.333 -18.5 -40l-45 -324h-194c6 46.667 15.667 114 29 202c11.333 77.333 17 121.333 17 132c0 13.333 -3.83301 24.166 -11.5 32.499s-17.5 12.5 -29.5 12.5c-14.667 0 -27.167 -5 -37.5 -15
s-16.5 -23.333 -18.5 -40l-45 -324h-194l72 511h148l10 -74c13.333 19.333 34.333 38.166 63 56.499s62.334 27.5 101.001 27.5c36 0 64.667 -6.66699 86 -20s37 -32.666 47 -57.999c18 24.667 39.5 43.834 64.5 57.501s55.833 20.5 92.5 20.5c46 0 81.333 -12 106 -36z" />
    <glyph glyph-name="n" unicode="n" horiz-adv-x="597" 
d="M525.5 485c25 -24 37.5039 -55.001 37.5039 -93.001c0 -13.333 -5.66699 -59 -17 -137l-10 -70l-9 -65c-8.66699 -63.333 -14.334 -103.333 -17.001 -120h-198c9.33301 72.667 18.666 137.667 27.999 195c12 84 18 129 18 135c0 14.667 -4 26.667 -12 36
s-19.333 14 -34 14c-16.667 0 -30.334 -5.66699 -41.001 -17s-17.334 -25.666 -20.001 -42.999l-45 -320h-198l72 511h149l9 -74c42.667 56 103 84 181 84c46 0 81.5 -12 106.5 -36z" />
    <glyph glyph-name="o" unicode="o" horiz-adv-x="613" 
d="M522.5 462.5c43 -39 64.5 -91.5 64.5 -157.5c0 -60 -13 -114 -39 -162s-62.333 -85.5 -109 -112.5s-99.667 -40.5 -159 -40.5h-15c-80 0 -141.5 19.5 -184.5 58.5s-64.5 91.167 -64.5 156.5c0 52.667 11.333 103.167 34 151.5s57.167 87.833 103.5 118.5
s102.833 46 169.5 46h17c78.667 0 139.5 -19.5 182.5 -58.5zM270 380c-14.667 -13.333 -23.665 -30.001 -26.998 -50.001c-6 -36.667 -11 -69.167 -15 -97.5s-6.33301 -48.833 -7 -61.5c0 -17.333 5.66699 -31.666 17 -42.999s25.666 -17 42.999 -17
c20.667 0 38.167 6.66699 52.5 20s23.166 30 26.499 50l11 73l11 85c0 16 -5.5 30.167 -16.5 42.5s-25.5 18.5 -43.5 18.5c-20 0 -37.333 -6.66699 -52 -20z" />
    <glyph glyph-name="p" unicode="p" horiz-adv-x="599" 
d="M521.5 469.5c33.667 -34.333 50.4971 -84.502 50.4971 -150.502c0 -51.333 -8.16699 -102.166 -24.5 -152.499s-42.166 -92.333 -77.499 -126s-79.666 -50.5 -132.999 -50.5c-29.333 0 -55.166 6 -77.499 18s-37.5 27 -45.5 45l-33 -234h-197l96 692h158l10 -59
c20 20.667 41 37.334 63 50.001s47.333 19 76 19c56 0 100.833 -17.167 134.5 -51.5zM277.497 379.998c-13.667 -13.333 -21.833 -30 -24.5 -50c-14 -98.667 -21 -150.667 -21 -156c0 -17.333 5 -31.5 15 -42.5s22.667 -16.5 38 -16.5c20.667 0 37 6.5 49 19.5
s19.667 29.833 23 50.5l10 72l4 32c4.66699 29.333 7 47 7 53c0 18.667 -4.83301 33 -14.5 43s-22.5 15 -38.5 15c-18 0 -33.833 -6.66699 -47.5 -20z" />
    <glyph glyph-name="q" unicode="q" horiz-adv-x="599" 
d="M365 501.5c24.667 -12.333 44.666 -31.8311 59.999 -58.498l85 68h70l-97 -691h-198l33 232c-42 -42 -89 -63 -141 -63c-48.667 0 -87.667 16.667 -117 50s-44 81.666 -44 144.999c0 55.333 8.83301 108.666 26.5 159.999s46 93.5 85 126.5s88.5 49.5 148.5 49.5
c34.667 0 64.334 -6.16699 89.001 -18.5zM256.499 379.002c-13.667 -13.333 -21.833 -30 -24.5 -50c-14 -98.667 -21 -150.667 -21 -156c0 -17.333 5 -31.5 15 -42.5s22.667 -16.5 38 -16.5c20.667 0 37 6.5 49 19.5s19.667 29.833 23 50.5l10 72l4 32
c4.66699 29.333 7 47 7 53c0 18.667 -4.83301 33 -14.5 43s-22.5 15 -38.5 15c-18 0 -33.833 -6.66699 -47.5 -20z" />
    <glyph glyph-name="r" unicode="r" horiz-adv-x="504" 
d="M476.5 491.5c21 -19.667 31.501 -46.833 31.501 -81.5c0 -12 -4 -38 -12 -78c-0.666992 -7.33301 -2.33398 -16.666 -5.00098 -27.999h-162c0 6.66699 0.5 12.667 1.5 18s1.5 10 1.5 14c0 28 -11.667 42 -35 42c-13.333 0 -24.5 -4.66699 -33.5 -14
s-14.5 -21.333 -16.5 -36l-46 -328h-193l72 511h148l11 -74c4 7.33301 12.833 17.666 26.5 30.999s31 25.5 52 36.5s43.833 16.5 68.5 16.5c39.333 0 69.5 -9.83301 90.5 -29.5z" />
    <glyph glyph-name="s" unicode="s" horiz-adv-x="559" 
d="M471.5 489c42.333 -21.333 63.501 -51.999 63.501 -91.999c0 -11.333 -1.16699 -20.5 -3.5 -27.5s-3.5 -10.833 -3.5 -11.5h-164v5c0 14.667 -6.33301 25 -19 31s-27.667 9 -45 9c-52 0 -78 -10.667 -78 -32c0 -10.667 7.33301 -18.167 22 -22.5s38 -8.5 70 -12.5
c40 -4 73.667 -9.5 101 -16.5s51 -20 71 -39s30 -46.167 30 -81.5c0 -62.667 -22.333 -113.167 -67 -151.5s-114.334 -57.5 -209.001 -57.5h-10c-73.333 0 -129.833 11.167 -169.5 33.5s-59.5 56.833 -59.5 103.5c0 16 1.33301 29.333 4 40h162
c-0.666992 -0.666992 -1 -2 -1 -4v-7c0 -16 8.16699 -27.5 24.5 -34.5s34.5 -10.5 54.5 -10.5c20.667 0 40.834 2.16699 60.501 6.5s29.5 13.5 29.5 27.5c0 11.333 -7.33301 19.333 -22 24s-38.667 9.66699 -72 15c-39.333 5.33301 -72.333 11.666 -99 18.999
s-49.667 20.5 -69 39.5s-29 45.5 -29 79.5c0 44.667 13.333 82 40 112s60.667 52 102 66s83.666 21 126.999 21h8c58 0 108.167 -10.667 150.5 -32z" />
    <glyph glyph-name="t" unicode="t" horiz-adv-x="419" 
d="M308 511l119.999 0.000976562l-20 -142h-120c-19.333 -130.667 -29 -200 -29 -208c0 -20 4.16699 -33.333 12.5 -40s20.833 -10 37.5 -10c8 0 18.5 1.16699 31.5 3.5s23.5 5.16602 31.5 8.49902l-16 -112c-16 -6 -38.167 -11.167 -66.5 -15.5s-51.833 -6.5 -70.5 -6.5
c-53.333 0 -94.166 8.66699 -122.499 26s-42.5 46.333 -42.5 87c0 8 0.666992 18.167 2 30.5s4.33301 32.833 9 61.5l25 175h-56l20 142h56l23 163h209z" />
    <glyph glyph-name="u" unicode="u" horiz-adv-x="627" 
d="M527 140c0 -9.33301 2.66504 -16.502 7.99805 -21.502s11.666 -7.5 18.999 -7.5c10 0 22 3 36 9l-15 -107c-24.667 -15.333 -59.334 -23 -104.001 -23c-42.667 0 -74.5 6.83301 -95.5 20.5s-34.5 33.834 -40.5 60.501c-15.333 -19.333 -36.666 -37.666 -63.999 -54.999
s-61.666 -26 -102.999 -26c-46 0 -81.5 12 -106.5 36s-37.5 55 -37.5 93c0 18 5.33301 65.833 16 143.5s23 160.5 37 248.5h198l-23 -159c-6 -35.333 -11.167 -69.666 -15.5 -102.999s-6.83301 -56 -7.5 -68c0 -14.667 4 -26.667 12 -36s19.333 -14 34 -14
c16.667 0 30.334 5.66699 41.001 17s17.334 25.666 20.001 42.999l45 320h198c-34.667 -233.333 -52 -357 -52 -371z" />
    <glyph glyph-name="v" unicode="v" horiz-adv-x="558" 
d="M350 0h-229l-94 511h211l34 -292h7l116 292h193z" />
    <glyph glyph-name="w" unicode="w" horiz-adv-x="855" 
d="M664 0h-224l-19 213h-8l-78 -213h-228l-74 511h206l21 -258h7l97 258h200l24 -258h8l93 258h192z" />
    <glyph glyph-name="x" unicode="x" horiz-adv-x="583" 
d="M418 265l130 -265h-227l-56 143h-4l-97 -143h-212l207 270l-119 241h227l46 -118h4l78 118h213z" />
    <glyph glyph-name="y" unicode="y" horiz-adv-x="552" 
d="M347 36c-34 -67.333 -75.665 -121.333 -124.998 -162s-103 -61 -161 -61c-46 0 -77.667 5 -95 15l17 129c6.66699 -3.33301 17.167 -6.5 31.5 -9.5s28.166 -4.5 41.499 -4.5c43.333 0 72.666 24 87.999 72l-118 496h211l41 -265h8l105 265h195z" />
    <glyph glyph-name="z" unicode="z" horiz-adv-x="497" 
d="M488 451l-235 -327h197l-17 -124h-451l8 63l233 324h-177l17 124h433z" />
    <glyph glyph-name="braceleft" unicode="{" horiz-adv-x="342" 
d="M365 618c-48.667 0 -75.6641 -13.667 -80.9971 -41l-39 -206c-12.667 -68.667 -51.334 -103 -116.001 -103l-1 -9c58 0 87 -28 87 -84c0 -12 -3.66699 -55.333 -11 -130c-5.33301 -58.667 -8 -91.667 -8 -99c0 -24.667 23.333 -37 70 -37l-10 -68h-81
c-34.667 0 -64.334 8.16699 -89.001 24.5s-37 40.166 -37 71.499c0 9.33301 2.5 30.333 7.5 63s8.16699 54.667 9.5 66c10 62.667 15 100 15 112c0 15.333 -6.66699 26.833 -20 34.5s-30 11.5 -50 11.5l11 79c19.333 0 37.666 4.83301 54.999 14.5s27.333 23.834 30 42.501
l30 214c5.33301 36 23.333 63.667 54 83s65 29 103 29h81z" />
    <glyph glyph-name="bar" unicode="|" horiz-adv-x="291" 
d="M201 -199h-120v919h120v-919z" />
    <glyph glyph-name="braceright" unicode="}" horiz-adv-x="341" 
d="M247 661.5c24.667 -16.333 36.999 -40.167 36.999 -71.5c0 -2.66699 -0.666992 -10.667 -2 -24s-3.33301 -28 -6 -44l-16 -104c-2.66699 -15.333 -4.5 -29.5 -5.5 -42.5s-1.83301 -20.833 -2.5 -23.5c0 -16 6.83301 -28.167 20.5 -36.5s30.167 -12.5 49.5 -12.5l-12 -79
c-20.667 0 -39.334 -4.5 -56.001 -13.5s-26 -22.833 -28 -41.5l-30 -216c-5.33301 -36 -23.333 -63.667 -54 -83s-65 -29 -103 -29h-80l10 68c48.667 0 75.667 14 81 42l38 205c12.667 68.667 51.334 103 116.001 103l1 9c-58 0 -87 27.667 -87 83c0 15.333 4 60.333 12 135
c5.33301 60 8 91.333 8 94c0 25.333 -23.667 38 -71 38l10 68h81c34.667 0 64.334 -8.16699 89.001 -24.5z" />
    <glyph glyph-name="asciitilde" unicode="~" horiz-adv-x="649" 
d="M606 280c-20.667 -20.667 -46.334 -38.834 -77.001 -54.501s-63 -23.5 -97 -23.5c-19.333 0 -37.5 2.83301 -54.5 8.5s-36.5 13.834 -58.5 24.501c-25.333 11.333 -46.166 19.666 -62.499 24.999s-34.166 8 -53.499 8c-34.667 0 -66.667 -7.66699 -96 -23
s-55.333 -33.666 -78 -54.999l18 126c22.667 21.333 48.667 39.666 78 54.999s61.333 23 96 23c19.333 0 37.5 -2.83301 54.5 -8.5s36.5 -13.834 58.5 -24.501c25.333 -11.333 46.166 -19.666 62.499 -24.999s34.166 -8 53.499 -8c34 0 66.333 7.83301 97 23.5
s56.334 33.834 77.001 54.501z" />
    <glyph glyph-name="uni00A0" unicode="&#xa0;" horiz-adv-x="192" 
 />
    <glyph glyph-name="exclamdown" unicode="&#xa1;" horiz-adv-x="303" 
d="M248 328h-191l26 183h191zM210 -177h-247l120 455h127v-455z" />
    <glyph glyph-name="cent" unicode="&#xa2;" horiz-adv-x="580" 
d="M395 604c64 -8.66699 108.835 -30.166 134.502 -64.499s38.5 -72.166 38.5 -113.499c0 -12 -1 -24 -3 -36h-168c0 5.33301 0.5 11.666 1.5 18.999s1.5 12.666 1.5 15.999c0 17.333 -5.5 31.833 -16.5 43.5s-25.167 17.5 -42.5 17.5c-22.667 0 -40.834 -6.5 -54.501 -19.5
s-21.834 -29.833 -24.501 -50.5c-6 -32.667 -11.167 -65.167 -15.5 -97.5s-6.5 -52.833 -6.5 -61.5c0 -18 5.83301 -32.5 17.5 -43.5s28.167 -16.5 49.5 -16.5c25.333 0 44.833 7 58.5 21s21.834 30.333 24.501 49l4 26h158c-9.33301 -62.667 -34.333 -112.5 -75 -149.5
s-92.334 -58.833 -155.001 -65.5v-88h-131l27 91c-59.333 10 -104.666 34 -135.999 72s-47 81.667 -47 131c0 54 9.66699 103.667 29 149s48.166 83 86.499 113s84.833 49 139.5 57v91h129z" />
    <glyph glyph-name="sterling" unicode="&#xa3;" horiz-adv-x="668" 
d="M559.5 676c35 -16 62.501 -38.0029 82.501 -66.0029s30 -59 30 -93c0 -7.33301 -0.333008 -13.666 -1 -18.999s-1.33398 -10 -2.00098 -14l-3 -18h-199l2 12c1.33301 9.33301 2 17 2 23c0 14.667 -4.66699 26.834 -14 36.501s-21.333 14.5 -36 14.5
c-19.333 0 -34.5 -5.33301 -45.5 -16s-17.833 -24.667 -20.5 -42l-12 -81h96l-20 -147h-97l-37 -119h282l-21 -147h-522l20 147h64l17 119h-93l19 147h94l12 80c6 38.667 21.333 73.834 46 105.501s57.667 56.5 99 74.5s88 27 140 27c43.333 0 82.5 -8 117.5 -24z" />
    <glyph glyph-name="currency" unicode="&#xa4;" horiz-adv-x="607" 
d="M600 535l-64.0029 -56.001c8 -10.667 14.167 -24.5 18.5 -41.5s6.5 -35.833 6.5 -56.5c0 -34.667 -5.83301 -68.667 -17.5 -102s-28.167 -60.666 -49.5 -81.999l48 -56l-68 -60l-50 58c-17.333 -15.333 -39.166 -27.166 -65.499 -35.499s-54.166 -12.5 -83.499 -12.5
c-28 0 -54 4 -78 12s-43 19.333 -57 34l-65 -57l-53 61l66 58c-19.333 25.333 -29 59.666 -29 102.999c0 32.667 6.33301 65.667 19 99s29.334 59.333 50.001 78l-50 58l72 63l49 -57c16 13.333 37.667 24 65 32s54.333 12 81 12c27.333 0 52.833 -4 76.5 -12
s41.5 -18 53.5 -30l66 58zM255.497 454.999c-23 -14.667 -41.332 -34.333 -54.999 -59s-20.5 -51 -20.5 -79c0 -34 10.167 -61.833 30.5 -83.5s47.166 -32.5 80.499 -32.5c27.333 0 52.333 7.5 75 22.5s40.667 35 54 60s20 51.167 20 78.5c0 32.667 -10 60 -30 82
s-46.667 33 -80 33c-26.667 0 -51.5 -7.33301 -74.5 -22z" />
    <glyph glyph-name="yen" unicode="&#xa5;" horiz-adv-x="712" 
d="M586 457h84l-14 -93h-133l-32 -47h159l-13 -93h-188l-32 -224h-209l32 224h-182l13 93h153l-20 47h-127l14 93h77l-91 229h236l71 -225h5l137 225h215z" />
    <glyph glyph-name="brokenbar" unicode="&#xa6;" horiz-adv-x="270" 
d="M227 412h-150l39 274h150zM169 0h-150l39 274h150z" />
    <glyph glyph-name="section" unicode="&#xa7;" horiz-adv-x="568" 
d="M487.5 664.5c43.667 -21 65.4971 -54.833 65.4971 -101.5v-11l-2 -19h-164c0 14.667 -6.16699 25.834 -18.5 33.501s-27.833 11.5 -46.5 11.5c-17.333 0 -33 -2.83301 -47 -8.5s-21 -16.5 -21 -32.5c0 -14.667 7.83301 -27.167 23.5 -37.5s41.834 -23.833 78.501 -40.5
c36.667 -16 67 -31 91 -45s44.667 -32.167 62 -54.5s26 -48.833 26 -79.5c0 -40.667 -10.5 -75.667 -31.5 -105s-44.5 -51.333 -70.5 -66c15.333 -10 27.166 -24.667 35.499 -44s12.5 -39.666 12.5 -60.999c0 -44 -13.333 -80.167 -40 -108.5s-59.834 -48.833 -99.501 -61.5
s-79.5 -19 -119.5 -19c-57.333 0 -107.666 10.5 -150.999 31.5s-65 55.167 -65 102.5v10l2 16h164c0 -14.667 6.5 -25.334 19.5 -32.001s29.833 -10 50.5 -10c41.333 0 62 13.667 62 41c0 14.667 -8.16699 27.334 -24.5 38.001s-41.833 23.667 -76.5 39
c-38 17.333 -68.667 32.833 -92 46.5s-43.666 31.667 -60.999 54s-26 49.166 -26 80.499c0 40.667 8.83301 74.167 26.5 100.5s42.834 49.5 75.501 69.5c-15.333 10 -27.333 24.667 -36 44s-13 39.666 -13 60.999c0 44 13.5 80.167 40.5 108.5s60.333 48.833 100 61.5
s79.5 19 119.5 19c56.667 0 106.834 -10.5 150.501 -31.5zM193.497 320c-7 -10.667 -10.5 -21.999 -10.5 -33.999c0 -22.667 12 -42.167 36 -58.5s55.667 -33.166 95 -50.499l29 -13c9.33301 4 17.833 10.667 25.5 20s11.5 21.333 11.5 36c0 22.667 -11.333 42 -34 58
s-53 32.333 -91 49c-20.667 9.33301 -32 14.666 -34 15.999c-11.333 -4.66699 -20.5 -12.334 -27.5 -23.001z" />
    <glyph glyph-name="dieresis" unicode="&#xa8;" horiz-adv-x="440" 
d="M178 603h-152l21 147h152zM398 603h-152l21 147h152z" />
    <glyph glyph-name="copyright" unicode="&#xa9;" horiz-adv-x="775" 
d="M572.5 648.5c54.333 -31.667 97.333 -74.333 129 -128s47.5 -112.5 47.5 -176.5c0 -64.667 -15.833 -124 -47.5 -178s-74.667 -96.833 -129 -128.5s-113.5 -47.5 -177.5 -47.5c-64.667 0 -124 15.833 -178 47.5s-96.833 74.5 -128.5 128.5s-47.5 113.333 -47.5 178
c0 64 15.833 123 47.5 177s74.5 96.667 128.5 128s113.333 47 178 47c64 0 123.167 -15.833 177.5 -47.5zM247.5 596.501c-41.667 -23.667 -73.834 -57.334 -96.501 -101.001s-34 -94.167 -34 -151.5c0 -58 11.333 -108.833 34 -152.5s54.834 -77.334 96.501 -101.001
s90.834 -35.5 147.501 -35.5c55.333 0 104 11.833 146 35.5s74.5 57.334 97.5 101.001s34.5 94.5 34.5 152.5c0 57.333 -11.5 107.833 -34.5 151.5s-55.5 77.334 -97.5 101.001s-90.667 35.5 -146 35.5c-56.667 0 -105.834 -11.833 -147.501 -35.5zM529.5 510.001
c32.333 -30 48.5039 -73.3301 48.5039 -129.997h-118v21c0 18 -5.83301 32.5 -17.5 43.5s-26.834 16.5 -45.501 16.5c-16.667 0 -30.834 -5.83301 -42.501 -17.5s-17.5 -25.834 -17.5 -42.501v-116c0 -16.667 5.83301 -30.834 17.5 -42.501s25.834 -17.5 42.501 -17.5h9
c17.333 0 31.666 5.33301 42.999 16s17 25.334 17 44.001v20h112c0 -52.667 -15.833 -94.834 -47.5 -126.501s-72.167 -47.5 -121.5 -47.5h-17c-35.333 0 -67.5 7.16699 -96.5 21.5s-51.833 35 -68.5 62s-25 59.167 -25 96.5v64c0 35.333 8.5 66.666 25.5 93.999
s39.667 48.5 68 63.5s59.166 22.5 92.499 22.5h16c51.333 0 93.166 -15 125.499 -45z" />
    <glyph glyph-name="ordfeminine" unicode="&#xaa;" horiz-adv-x="418" 
d="M253.5 685c14.333 -7.33301 26.167 -18 35.5 -32h4l20 37h90l-22 -147c-6.66699 -43.333 -10 -69.333 -10 -78c0 -11.333 5.33301 -17 16 -17c5.33301 0 12.666 2.66699 21.999 8l-9 -66c-20 -9.33301 -40.667 -14 -62 -14c-22 0 -39.833 3.16699 -53.5 9.5
s-23.167 18.833 -28.5 37.5c-10.667 -14 -24.167 -25.333 -40.5 -34s-32.833 -13 -49.5 -13c-35.333 0 -61.333 11.167 -78 33.5s-25 51.833 -25 88.5c0 32 5.16699 63.167 15.5 93.5s26.333 55.333 48 75s48.834 29.5 81.501 29.5c16 0 31.167 -3.66699 45.5 -11z
M208.001 608.5c-8 -8.33301 -12.666 -18.501 -13.999 -30.501l-4 -24c-6 -40 -9 -62 -9 -66v-4c0 -10 3 -18.333 9 -25s13.667 -10 23 -10c12.667 0 22.667 3.83301 30 11.5s11.666 17.834 12.999 30.501l6 43l4 26c2 12 3 20.667 3 26c0 11.333 -2.83301 20 -8.5 26
s-13.5 9 -23.5 9c-11.333 0 -21 -4.16699 -29 -12.5z" />
    <glyph glyph-name="guillemotleft" unicode="&#xab;" horiz-adv-x="442" 
d="M146 337l60 -174h-74l-95 174l144 174h74zM327 337l60 -174h-74l-95 174l144 174h74z" />
    <glyph glyph-name="logicalnot" unicode="&#xac;" horiz-adv-x="621" 
d="M551 158h-150l24 176h-388l21 150h538z" />
    <glyph glyph-name="uni00AD" unicode="&#xad;" horiz-adv-x="351" 
d="M288 196h-253l22 158h254z" />
    <glyph glyph-name="registered" unicode="&#xae;" horiz-adv-x="775" 
d="M572.5 648.5c54.333 -31.667 97.333 -74.333 129 -128s47.5 -112.5 47.5 -176.5c0 -64.667 -15.833 -124 -47.5 -178s-74.667 -96.833 -129 -128.5s-113.5 -47.5 -177.5 -47.5c-64.667 0 -124 15.833 -178 47.5s-96.833 74.5 -128.5 128.5s-47.5 113.333 -47.5 178
c0 64 15.833 123 47.5 177s74.5 96.667 128.5 128s113.333 47 178 47c64 0 123.167 -15.833 177.5 -47.5zM247.5 596.501c-41.667 -23.667 -73.834 -57.334 -96.501 -101.001s-34 -94.167 -34 -151.5c0 -58 11.333 -108.833 34 -152.5s54.834 -77.334 96.501 -101.001
s90.834 -35.5 147.501 -35.5c55.333 0 104 11.833 146 35.5s74.5 57.334 97.5 101.001s34.5 94.5 34.5 152.5c0 57.333 -11.5 107.833 -34.5 151.5s-55.5 77.334 -97.5 101.001s-90.667 35.5 -146 35.5c-56.667 0 -105.834 -11.833 -147.501 -35.5zM541 518.501
c22.667 -19 33.999 -43.499 33.999 -73.499c0 -22 -7 -41.667 -21 -59s-31.667 -28 -53 -32l-1 -3c22.667 -7.33301 39.5 -21 50.5 -41s16.5 -43.667 16.5 -71c0 -18.667 1.83301 -34.834 5.5 -48.501s11.834 -22.167 24.501 -25.5v-24c-18.667 -8 -42.667 -12 -72 -12
c-28 0 -49 6 -63 18s-21 32 -21 60s-3.33301 51 -10 69s-21.334 27 -44.001 27h-34v-168h-123v412h231c30.667 0 57.334 -9.5 80.001 -28.5zM352.999 459.002v-70.002h63c8.66699 0 15.834 2.83301 21.501 8.5s8.5 12.834 8.5 21.501v10
c0 8.66699 -2.83301 15.834 -8.5 21.501s-12.834 8.5 -21.501 8.5h-63z" />
    <glyph glyph-name="macron" unicode="&#xaf;" horiz-adv-x="460" 
d="M389 662h-318v74h318v-74z" />
    <glyph glyph-name="degree" unicode="&#xb0;" horiz-adv-x="354" 
d="M327 658.5c24.667 -25 37 -55.834 37 -92.501c0 -28 -8 -55.167 -24 -81.5s-37.333 -47.666 -64 -63.999s-55 -24.5 -85 -24.5c-38 0 -69.167 12.333 -93.5 37s-36.5 55.334 -36.5 92.001c0 29.333 8.16699 57.166 24.5 83.499s37.833 47.5 64.5 63.5s54.667 24 84 24
c37.333 0 68.333 -12.5 93 -37.5zM170.5 585.999c-15 -14 -22.5 -30 -22.5 -48c0 -15.333 5.16699 -28.333 15.5 -39s23.5 -16 39.5 -16c18.667 0 35.167 7 49.5 21s21.5 30.667 21.5 50c0 15.333 -5.16699 28 -15.5 38s-23.5 15 -39.5 15c-17.333 0 -33.5 -7 -48.5 -21z
" />
    <glyph glyph-name="plusminus" unicode="&#xb1;" horiz-adv-x="615" 
d="M387 400h192l-18 -128h-192l-16 -112h-128l16 112h-192l18 128h192l15 112h128zM523 0h-512l18 128h512z" />
    <glyph glyph-name="uni00B2" unicode="&#xb2;" horiz-adv-x="369" 
d="M349.5 776c21 -18.667 31.502 -43.3311 31.502 -73.998c0 -25.333 -6 -47.833 -18 -67.5s-26.5 -36.334 -43.5 -50.001s-40.167 -29.834 -69.5 -48.501l-36 -24h141l-12 -90h-287l2 19c2 20 7.33301 37 16 51s22 28 40 42l119 92c24.667 18.667 37 39.667 37 63
c0 9.33301 -2.83301 16.833 -8.5 22.5s-13.167 8.5 -22.5 8.5h-7c-10.667 0 -20.334 -3.5 -29.001 -10.5s-13.667 -15.833 -15 -26.5l-2 -15h-95c0 18.667 5.16699 38.5 15.5 59.5s27.166 39 50.499 54s53.333 22.5 90 22.5h17c36 0 64.5 -9.33301 85.5 -28z" />
    <glyph glyph-name="uni00B3" unicode="&#xb3;" horiz-adv-x="354" 
d="M339.5 776c21 -16.667 31.502 -37.998 31.502 -63.998c0 -20.667 -6.16699 -39.834 -18.5 -57.501s-27.5 -30.5 -45.5 -38.5c32.667 -12.667 49 -38.334 49 -77.001c0 -41.333 -15.5 -72.666 -46.5 -93.999s-67.5 -32 -109.5 -32h-22
c-40.667 0 -71.834 8.66699 -93.501 26s-32.5 39.666 -32.5 66.999c0 6 1 14.333 3 25h95c0 -12 2.5 -21.333 7.5 -28s14.833 -10 29.5 -10h14c16 0 28.333 4.83301 37 14.5s13 22.5 13 38.5c0 21.333 -11 32 -33 32h-55l10 66h47c11.333 0 21.166 3.66699 29.499 11
s12.5 19 12.5 35c0 8.66699 -2.83301 16 -8.5 22s-13.167 9 -22.5 9h-10c-10.667 0 -20 -3.33301 -28 -10s-12.667 -14.667 -14 -24h-90c0 34 14.5 61.5 43.5 82.5s64.5 31.5 106.5 31.5h16c35.333 0 63.5 -8.33301 84.5 -25z" />
    <glyph glyph-name="acute" unicode="&#xb4;" horiz-adv-x="333" 
d="M295 717l-146 -142h-118l112 145h151z" />
    <glyph glyph-name="uni00B5" unicode="&#xb5;" horiz-adv-x="650" 
d="M537 140c0 -9.33301 2.66699 -16.502 8 -21.502s11.666 -7.5 18.999 -7.5c10 0 22 3 36 9l-15 -107c-24.667 -15.333 -59.334 -23 -104.001 -23c-42.667 0 -74.5 6.83301 -95.5 20.5s-34.5 33.834 -40.5 60.501c-12.667 -16.667 -30.667 -33.167 -54 -49.5
s-52 -26.166 -86 -29.499v-10c0 -25.333 -1.33301 -47 -4 -65l-11 -78h-198l95 672h198l-23 -159c-6 -35.333 -11.167 -69.666 -15.5 -102.999s-6.83301 -56 -7.5 -68c0 -14.667 4 -26.667 12 -36s19.333 -14 34 -14c16.667 0 30.334 5.66699 41.001 17
s17.334 25.666 20.001 42.999l45 320h198c-34.667 -233.333 -52 -357 -52 -371z" />
    <glyph glyph-name="paragraph" unicode="&#xb6;" horiz-adv-x="582" 
d="M592 607l-66 -0.00195312l-108 -768h-88l108 768h-76l-108 -768h-88l58 414c-34 0.666992 -64.667 9.33398 -92 26.001s-48.5 38.834 -63.5 66.501s-22.5 58.167 -22.5 91.5c0 44 11.5 85 34.5 123s53.667 68.5 92 91.5s78.833 34.5 121.5 34.5h309z" />
    <glyph glyph-name="periodcentered" unicode="&#xb7;" horiz-adv-x="287" 
d="M226 197h-191l25 183h191z" />
    <glyph glyph-name="cedilla" unicode="&#xb8;" horiz-adv-x="334" 
d="M260 -34c20.667 -11.333 30.999 -30.666 30.999 -57.999v-8c0 -35.333 -14.167 -60.333 -42.5 -75s-57.833 -22 -88.5 -22c-24.667 0 -47.667 3.16699 -69 9.5s-38.666 15.166 -51.999 26.499l40 54c6 -8 15.833 -15.333 29.5 -22s30.5 -10 50.5 -10c30 0 45 13 45 39
c0 16 -11.333 24 -34 24h-18l8 59h21c32 0 58.333 -5.66699 79 -17z" />
    <glyph glyph-name="uni00B9" unicode="&#xb9;" horiz-adv-x="335" 
d="M256 504l78 0.000976562l-12 -82h-265l12 82h82l24 172h-82l9 62c22.667 1.33301 48.667 7.66602 78 18.999s56.333 24.333 81 39h36z" />
    <glyph glyph-name="ordmasculine" unicode="&#xba;" horiz-adv-x="395" 
d="M363.5 661c25.667 -23.333 38.5 -54.666 38.5 -93.999c0 -36 -7.83301 -68.333 -23.5 -97s-37.334 -51.167 -65.001 -67.5s-59.5 -24.5 -95.5 -24.5h-9c-47.333 0 -84 11.667 -110 35s-39 54.666 -39 93.999c0 32 6.83301 62.333 20.5 91s34.334 52.167 62.001 70.5
s61.5 27.5 101.5 27.5h10c47.333 0 83.833 -11.667 109.5 -35zM211.5 612c-9 -8 -14.168 -17.999 -15.501 -29.999l-7 -46c-4 -22.667 -6 -39.334 -6 -50.001c0 -10 3.33301 -18.5 10 -25.5s15.334 -10.5 26.001 -10.5c12.667 0 23.334 4 32.001 12s13.667 18 15 30l6 44
l4 28l3 23c0 10 -3.33301 18.667 -10 26s-15.334 11 -26.001 11c-12 0 -22.5 -4 -31.5 -12z" />
    <glyph glyph-name="guillemotright" unicode="&#xbb;" horiz-adv-x="443" 
d="M238 337l-145 -174h-74l110 174l-61 174h74zM419 337l-145 -174h-74l110 174l-61 174h74z" />
    <glyph glyph-name="onequarter" unicode="&#xbc;" horiz-adv-x="765" 
d="M192 0h-89l517 686h86zM238 393l78.001 0.000976562l-12 -82h-265l12 82h82l24 172h-82l8 62c23.333 1.33301 49.666 7.66602 78.999 18.999s56.333 24.333 81 39h36zM567.501 267.501c-30.333 -45 -57.834 -80.5 -82.501 -106.5h81l8 55c11.333 13.333 25 33.5 41 60.5
s26.667 47.833 32 62.5h45l-25 -178h53l-11 -80h-53l-12 -81h-101l12 81h-151l11 81c17.333 24 38.333 59 63 105s41.667 82 51 108h95c-7.33301 -26.667 -26.166 -62.5 -56.499 -107.5z" />
    <glyph glyph-name="onehalf" unicode="&#xbd;" horiz-adv-x="765" 
d="M235 394l78 0.000976562l-12 -82h-265l12 82h82l24 172h-82l9 62c22.667 1.33301 48.667 7.66602 78 18.999s56.333 24.333 81 39h36zM189 0.000976562h-89l517 686h86zM702.5 354.001c21 -18.667 31.502 -43.3311 31.502 -73.998c0 -25.333 -6 -47.833 -18 -67.5
s-26.5 -36.334 -43.5 -50.001s-40.167 -29.834 -69.5 -48.501l-36 -24h141l-12 -90h-287l2 19c2 20 7.33301 37 16 51s22 28 40 42l119 92c24.667 18.667 37 39.667 37 63c0 9.33301 -2.83301 16.833 -8.5 22.5s-13.167 8.5 -22.5 8.5h-7
c-10.667 0 -20.334 -3.5 -29.001 -10.5s-13.667 -15.833 -15 -26.5l-2 -15h-95c0 18.667 5.16699 38.5 15.5 59.5s27.166 39 50.499 54s53.333 22.5 90 22.5h17c36 0 64.5 -9.33301 85.5 -28z" />
    <glyph glyph-name="threequarters" unicode="&#xbe;" horiz-adv-x="757" 
d="M330.5 668c21 -16.667 31.502 -37.998 31.502 -63.998c0 -20.667 -6.16699 -39.834 -18.5 -57.501s-27.5 -30.5 -45.5 -38.5c32.667 -12.667 49 -38.334 49 -77.001c0 -41.333 -15.5 -72.666 -46.5 -93.999s-67.5 -32 -109.5 -32h-22
c-40.667 0 -71.834 8.66699 -93.501 26s-32.5 39.666 -32.5 66.999c0 6 1 14.333 3 25h95c0 -12 2.5 -21.333 7.5 -28s14.833 -10 29.5 -10h14c16 0 28.333 4.83301 37 14.5s13 22.5 13 38.5c0 21.333 -11 32 -33 32h-55l10 66h47c11.333 0 21.166 3.66699 29.499 11
s12.5 19 12.5 35c0 8.66699 -2.83301 16 -8.5 22s-13.167 9 -22.5 9h-10c-10.667 0 -20 -3.33301 -28 -10s-12.667 -14.667 -14 -24h-90c0 34 14.5 61.5 43.5 82.5s64.5 31.5 106.5 31.5h16c35.333 0 63.5 -8.33301 84.5 -25zM185.002 0.00195312h-89l516 686h86z
M560.002 266.502c-30.667 -45.667 -58.333 -80.833 -83 -105.5h81l8 55c11.333 13.333 25 33.5 41 60.5s26.667 47.833 32 62.5h45l-25 -178h53l-11 -80h-53l-11 -81h-101l11 81h-151l12 81c18.667 28 40.167 64.333 64.5 109s40.833 79.334 49.5 104.001h95
c-7.33301 -26.667 -26.333 -62.834 -57 -108.501z" />
    <glyph glyph-name="questiondown" unicode="&#xbf;" horiz-adv-x="578" 
d="M382 328h-191l25 183h191zM360 233c-2.66699 -17.333 -9.99707 -32.834 -21.9971 -46.501s-30.333 -31.167 -55 -52.5c-27.333 -23.333 -48 -43.833 -62 -61.5s-21 -37.834 -21 -60.501c0 -16.667 5.16699 -30.834 15.5 -42.501s24.166 -17.5 41.499 -17.5
c30 0 50.833 10.833 62.5 32.5s17.5 47.834 17.5 78.501h184c0 -12 -1 -24.667 -3 -38c-6.66699 -42.667 -22.834 -80 -48.501 -112s-58.5 -56.5 -98.5 -73.5s-84.333 -25.5 -133 -25.5h-38c-38.667 0 -74.167 7.83301 -106.5 23.5s-58 37.834 -77 66.501
s-28.5 61.334 -28.5 98.001c0 36 7.16699 67.333 21.5 94s31.166 48 50.499 64s43.666 33.333 72.999 52c20.667 13.333 35.834 24 45.501 32s15.167 16.667 16.5 26l3 22h171z" />
    <glyph glyph-name="Agrave" unicode="&#xc0;" horiz-adv-x="709" 
d="M472 750h-118l-106 142l3 3h151zM674 0h-218l-24 122h-218l-57 -122h-201l325 686h261zM371 475l-88 -208h122l-29 208h-5z" />
    <glyph glyph-name="Aacute" unicode="&#xc1;" horiz-adv-x="709" 
d="M620 892l-146 -142h-118l112 145h151zM674 0h-218l-24 122h-218l-57 -122h-201l325 686h261zM371 475l-88 -208h122l-29 208h-5z" />
    <glyph glyph-name="Acircumflex" unicode="&#xc2;" horiz-adv-x="709" 
d="M617 751h-130l-63 77l-85 -77h-128l160 145h128zM674 0h-218l-24 122h-218l-57 -122h-201l325 686h261zM371 475l-88 -208h122l-29 208h-5z" />
    <glyph glyph-name="Atilde" unicode="&#xc3;" horiz-adv-x="709" 
d="M625 819.5c-14.667 -21.667 -33.499 -39.332 -56.499 -52.999s-48.5 -20.5 -76.5 -20.5c-14.667 0 -28.5 1.66699 -41.5 5s-29.5 8.66602 -49.5 15.999c-16 6 -29.833 10.667 -41.5 14s-23.167 5 -34.5 5c-12 0 -22.833 -3.66699 -32.5 -11s-17.5 -17 -23.5 -29h-80
c4 24.667 13.333 47.834 28 69.501s33.5 39.334 56.5 53.001s48.167 20.5 75.5 20.5c14.667 0 28.667 -1.83301 42 -5.5s29.666 -8.83398 48.999 -15.501c32 -12.667 57.333 -19 76 -19c12 0 22.833 3.66699 32.5 11s17.5 17 23.5 29h81
c-4 -24.667 -13.333 -47.834 -28 -69.501zM674.001 0.00195312h-218l-24 122h-218l-57 -122h-201l325 686h261zM371.001 475.002l-88 -208h122l-29 208h-5z" />
    <glyph glyph-name="Adieresis" unicode="&#xc4;" horiz-adv-x="709" 
d="M380 750h-152l21 147h152zM600 750h-152l21 147h152zM674 0h-218l-24 122h-218l-57 -122h-201l325 686h261zM371 475l-88 -208h122l-29 208h-5z" />
    <glyph glyph-name="Aring" unicode="&#xc5;" horiz-adv-x="709" 
d="M501.5 912.5c16.333 -16.333 24.502 -36.833 24.502 -61.5c0 -32 -11.333 -59.167 -34 -81.5s-50 -33.5 -82 -33.5c-25.333 0 -46.333 8.16699 -63 24.5s-25 37.166 -25 62.499c0 30.667 11.667 57.334 35 80.001s50.666 34 81.999 34
c25.333 0 46.166 -8.16699 62.499 -24.5zM400.502 859.5c-7.66699 -7.66699 -11.5 -17.167 -11.5 -28.5c0 -8.66699 2.83301 -15.834 8.5 -21.501s13.167 -8.5 22.5 -8.5c10.667 0 20 3.33301 28 10s12 16.334 12 29.001c0 9.33301 -2.83301 16.833 -8.5 22.5
s-13.167 8.5 -22.5 8.5c-11.333 0 -20.833 -3.83301 -28.5 -11.5zM674.002 0h-218l-24 122h-218l-57 -122h-201l325 686h261zM371.002 475l-88 -208h122l-29 208h-5z" />
    <glyph glyph-name="AE" unicode="&#xc6;" horiz-adv-x="1011" 
d="M997 528h-355v-100h329l-21 -153h-294v-111h286v-164h-503v122h-218l-75 -122h-199l421 686h671zM428 475l-117 -208h122v208h-5z" />
    <glyph glyph-name="Ccedilla" unicode="&#xc7;" horiz-adv-x="684" 
d="M609.5 635c46.333 -40.667 69.499 -99 69.499 -175c0 -20 -1.33301 -38.333 -4 -55h-197l5 35c0.666992 2 1 4.66699 1 8v9c0 25.333 -8 45.5 -24 60.5s-37 22.5 -63 22.5h-5c-32.667 0 -58.834 -9.33301 -78.501 -28s-31.5 -42.667 -35.5 -72l-27 -193
c-0.666992 -2 -1 -4.33301 -1 -7v-7c0 -24.667 8.16699 -45.167 24.5 -61.5s37.166 -24.5 62.499 -24.5h14c65.333 0 103.333 33.333 114 100l5 33h188c-13.333 -90.667 -48.166 -161.667 -104.499 -213s-129.166 -77 -218.499 -77h-28c-54 0 -102.167 10 -144.5 30
s-75.5 48.833 -99.5 86.5s-36 82.834 -36 135.501c0 7.33301 1.5 23 4.5 47s7.83301 59.667 14.5 107c8 59.333 28.333 111.666 61 156.999s74.334 80.5 125.001 105.5s106 37.5 166 37.5h28c76 0 137.167 -20.333 183.5 -61zM375.999 -34
c20.667 -11.333 30.999 -30.666 30.999 -57.999v-8c0 -35.333 -14.167 -60.333 -42.5 -75s-57.833 -22 -88.5 -22c-24.667 0 -47.667 3.16699 -69 9.5s-38.666 15.166 -51.999 26.499l40 54c6 -8 15.833 -15.333 29.5 -22s30.5 -10 50.5 -10c30 0 45 13 45 39
c0 16 -11.333 24 -34 24h-18l8 59h21c32 0 58.333 -5.66699 79 -17z" />
    <glyph glyph-name="Egrave" unicode="&#xc8;" 
d="M440 751h-118l-106 142l3 3h151zM586 528h-289l-15 -100h278l-21 -153h-278l-16 -111h286v-164h-515l97 686h515z" />
    <glyph glyph-name="Eacute" unicode="&#xc9;" 
d="M572 892l-146 -142h-118l112 145h151zM586 528h-289l-15 -100h278l-21 -153h-278l-16 -111h286v-164h-515l97 686h515z" />
    <glyph glyph-name="Ecircumflex" unicode="&#xca;" 
d="M582 751h-130l-63 77l-85 -77h-128l160 145h128zM586 528h-289l-15 -100h278l-21 -153h-278l-16 -111h286v-164h-515l97 686h515z" />
    <glyph glyph-name="Edieresis" unicode="&#xcb;" 
d="M335 751h-152l21 147h152zM555 751h-152l21 147h152zM586 528h-289l-15 -100h278l-21 -153h-278l-16 -111h286v-164h-515l97 686h515z" />
    <glyph glyph-name="Igrave" unicode="&#xcc;" horiz-adv-x="446" 
d="M338 750h-118l-106 142l3 3h151zM445 539h-81l-55 -391h81l-21 -148h-374l21 148h81l55 391h-81l21 147h374z" />
    <glyph glyph-name="Iacute" unicode="&#xcd;" horiz-adv-x="446" 
d="M488 892l-146 -142h-118l112 145h151zM445 539h-81l-55 -391h81l-21 -148h-374l21 148h81l55 391h-81l21 147h374z" />
    <glyph glyph-name="Icircumflex" unicode="&#xce;" horiz-adv-x="446" 
d="M487 750h-130l-63 77l-85 -77h-128l160 145h128zM445 539h-81l-55 -391h81l-21 -148h-374l21 148h81l55 391h-81l21 147h374z" />
    <glyph glyph-name="Idieresis" unicode="&#xcf;" horiz-adv-x="446" 
d="M250 750h-152l21 147h152zM470 750h-152l21 147h152zM445 539h-81l-55 -391h81l-21 -148h-374l21 148h81l55 391h-81l21 147h374z" />
    <glyph glyph-name="Eth" unicode="&#xd0;" horiz-adv-x="718" 
d="M577.5 652c39.667 -22.667 70.6699 -53.668 93.0029 -93.001s33.5 -83 33.5 -131c0 -14 -1 -28 -3 -42l-13 -86c-8.66699 -56.667 -27.834 -107.667 -57.501 -153s-68.834 -81.166 -117.501 -107.499s-104.334 -39.5 -167.001 -39.5h-309l42 297h-74l13 94h74l42 295h309
c50 0 94.833 -11.333 134.5 -34zM324.003 529.999l-20.002 -139.001h77l-13 -94h-77l-19 -138h77c32.667 0 58.834 9.33301 78.501 28s31.5 42.667 35.5 72l25 184c0 24.667 -8.16699 45.334 -24.5 62.001s-37.166 25 -62.499 25h-77z" />
    <glyph glyph-name="Ntilde" unicode="&#xd1;" horiz-adv-x="696" 
d="M629 819.5c-14.667 -21.667 -33.498 -39.332 -56.498 -52.999s-48.5 -20.5 -76.5 -20.5c-14.667 0 -28.5 1.66699 -41.5 5s-29.5 8.66602 -49.5 15.999c-16 6 -29.833 10.667 -41.5 14s-23.167 5 -34.5 5c-12 0 -22.833 -3.66699 -32.5 -11s-17.5 -17 -23.5 -29h-80
c4 24.667 13.333 47.834 28 69.501s33.5 39.334 56.5 53.001s48.167 20.5 75.5 20.5c14.667 0 28.667 -1.83301 42 -5.5s29.666 -8.83398 48.999 -15.501c31.333 -12.667 56.666 -19 75.999 -19c12 0 22.833 3.66699 32.5 11s17.5 17 23.5 29h81
c-4 -24.667 -13.333 -47.834 -28 -69.501zM598.002 0.00195312h-180l-136 246c-4 5.33301 -9.66699 16 -17 32l-13 26l-43 -304h-193l97 686h176l140 -255l28 -56l44 311h194z" />
    <glyph glyph-name="Ograve" unicode="&#xd2;" horiz-adv-x="719" 
d="M475 750h-118l-106 142l3 3h151zM578.5 660c39.667 -22.667 70.666 -53.6709 92.999 -93.0039s33.5 -83 33.5 -131c0 -9.33301 -0.5 -18.166 -1.5 -26.499s-2.5 -19.166 -4.5 -32.499l-12 -87c-8 -56 -27.333 -106.667 -58 -152s-70.5 -81.333 -119.5 -108
s-103.833 -40 -164.5 -40h-56c-50 0 -94.833 11.333 -134.5 34s-70.667 53.667 -93 93s-33.5 83 -33.5 131c0 8.66699 0.5 17.834 1.5 27.501s2.33301 20 4 31s2.83398 20.167 3.50098 27.5c2 9.33301 3.66699 19 5 29l4 31c8 55.333 27.333 105.833 58 151.5
s70.5 81.834 119.5 108.501s103.833 40 164.5 40h56c50 0 94.833 -11.333 134.5 -34zM391.999 539.996c-32.667 0 -58.834 -9.33301 -78.501 -28s-31.5 -42.667 -35.5 -72l-27 -193c-0.666992 -2 -1 -4.33301 -1 -7v-7c0 -24.667 8.16699 -45.167 24.5 -61.5
s37.166 -24.5 62.499 -24.5h5c32.667 0 58.834 9.33301 78.501 28s31.5 42.667 35.5 72l27 193c0.666992 2 1 6.66699 1 14c0 24 -8.16699 44.333 -24.5 61s-37.166 25 -62.499 25h-5z" />
    <glyph glyph-name="Oacute" unicode="&#xd3;" horiz-adv-x="719" 
d="M634 892l-146 -142h-118l112 145h151zM578.5 660c39.667 -22.667 70.666 -53.6709 92.999 -93.0039s33.5 -83 33.5 -131c0 -9.33301 -0.5 -18.166 -1.5 -26.499s-2.5 -19.166 -4.5 -32.499l-12 -87c-8 -56 -27.333 -106.667 -58 -152s-70.5 -81.333 -119.5 -108
s-103.833 -40 -164.5 -40h-56c-50 0 -94.833 11.333 -134.5 34s-70.667 53.667 -93 93s-33.5 83 -33.5 131c0 8.66699 0.5 17.834 1.5 27.501s2.33301 20 4 31s2.83398 20.167 3.50098 27.5c2 9.33301 3.66699 19 5 29l4 31c8 55.333 27.333 105.833 58 151.5
s70.5 81.834 119.5 108.501s103.833 40 164.5 40h56c50 0 94.833 -11.333 134.5 -34zM391.999 539.996c-32.667 0 -58.834 -9.33301 -78.501 -28s-31.5 -42.667 -35.5 -72l-27 -193c-0.666992 -2 -1 -4.33301 -1 -7v-7c0 -24.667 8.16699 -45.167 24.5 -61.5
s37.166 -24.5 62.499 -24.5h5c32.667 0 58.834 9.33301 78.501 28s31.5 42.667 35.5 72l27 193c0.666992 2 1 6.66699 1 14c0 24 -8.16699 44.333 -24.5 61s-37.166 25 -62.499 25h-5z" />
    <glyph glyph-name="Ocircumflex" unicode="&#xd4;" horiz-adv-x="719" 
d="M628 750h-130l-63 77l-85 -77h-128l160 145h128zM578.5 660c39.667 -22.667 70.666 -53.6709 92.999 -93.0039s33.5 -83 33.5 -131c0 -9.33301 -0.5 -18.166 -1.5 -26.499s-2.5 -19.166 -4.5 -32.499l-12 -87c-8 -56 -27.333 -106.667 -58 -152
s-70.5 -81.333 -119.5 -108s-103.833 -40 -164.5 -40h-56c-50 0 -94.833 11.333 -134.5 34s-70.667 53.667 -93 93s-33.5 83 -33.5 131c0 8.66699 0.5 17.834 1.5 27.501s2.33301 20 4 31s2.83398 20.167 3.50098 27.5c2 9.33301 3.66699 19 5 29l4 31
c8 55.333 27.333 105.833 58 151.5s70.5 81.834 119.5 108.501s103.833 40 164.5 40h56c50 0 94.833 -11.333 134.5 -34zM391.999 539.996c-32.667 0 -58.834 -9.33301 -78.501 -28s-31.5 -42.667 -35.5 -72l-27 -193c-0.666992 -2 -1 -4.33301 -1 -7v-7
c0 -24.667 8.16699 -45.167 24.5 -61.5s37.166 -24.5 62.499 -24.5h5c32.667 0 58.834 9.33301 78.501 28s31.5 42.667 35.5 72l27 193c0.666992 2 1 6.66699 1 14c0 24 -8.16699 44.333 -24.5 61s-37.166 25 -62.499 25h-5z" />
    <glyph glyph-name="Otilde" unicode="&#xd5;" horiz-adv-x="719" 
d="M646 818.5c-14.667 -21.667 -33.499 -39.332 -56.499 -52.999s-48.5 -20.5 -76.5 -20.5c-14.667 0 -28.5 1.66699 -41.5 5s-29.5 8.66602 -49.5 15.999c-16 6 -29.833 10.667 -41.5 14s-23.167 5 -34.5 5c-12 0 -22.833 -3.66699 -32.5 -11s-17.5 -17 -23.5 -29h-80
c4 24.667 13.333 47.834 28 69.501s33.5 39.334 56.5 53.001s48.167 20.5 75.5 20.5c14.667 0 28.667 -1.83301 42 -5.5s29.666 -8.83398 48.999 -15.501c32 -12.667 57.333 -19 76 -19c12 0 22.833 3.66699 32.5 11s17.5 17 23.5 29h81
c-4 -24.667 -13.333 -47.834 -28 -69.501zM578.501 660.002c39.667 -22.667 70.666 -53.6709 92.999 -93.0039s33.5 -83 33.5 -131c0 -9.33301 -0.5 -18.166 -1.5 -26.499s-2.5 -19.166 -4.5 -32.499l-12 -87c-8 -56 -27.333 -106.667 -58 -152s-70.5 -81.333 -119.5 -108
s-103.833 -40 -164.5 -40h-56c-50 0 -94.833 11.333 -134.5 34s-70.667 53.667 -93 93s-33.5 83 -33.5 131c0 8.66699 0.5 17.834 1.5 27.501s2.33301 20 4 31s2.83398 20.167 3.50098 27.5c2 9.33301 3.66699 19 5 29l4 31c8 55.333 27.333 105.833 58 151.5
s70.5 81.834 119.5 108.501s103.833 40 164.5 40h56c50 0 94.833 -11.333 134.5 -34zM392 539.998c-32.667 0 -58.834 -9.33301 -78.501 -28s-31.5 -42.667 -35.5 -72l-27 -193c-0.666992 -2 -1 -4.33301 -1 -7v-7c0 -24.667 8.16699 -45.167 24.5 -61.5
s37.166 -24.5 62.499 -24.5h5c32.667 0 58.834 9.33301 78.501 28s31.5 42.667 35.5 72l27 193c0.666992 2 1 6.66699 1 14c0 24 -8.16699 44.333 -24.5 61s-37.166 25 -62.499 25h-5z" />
    <glyph glyph-name="Odieresis" unicode="&#xd6;" horiz-adv-x="719" 
d="M395 750h-152l21 147h152zM615 750h-152l21 147h152zM578.5 660c39.667 -22.667 70.666 -53.6709 92.999 -93.0039s33.5 -83 33.5 -131c0 -9.33301 -0.5 -18.166 -1.5 -26.499s-2.5 -19.166 -4.5 -32.499l-12 -87c-8 -56 -27.333 -106.667 -58 -152
s-70.5 -81.333 -119.5 -108s-103.833 -40 -164.5 -40h-56c-50 0 -94.833 11.333 -134.5 34s-70.667 53.667 -93 93s-33.5 83 -33.5 131c0 8.66699 0.5 17.834 1.5 27.501s2.33301 20 4 31s2.83398 20.167 3.50098 27.5c2 9.33301 3.66699 19 5 29l4 31
c8 55.333 27.333 105.833 58 151.5s70.5 81.834 119.5 108.501s103.833 40 164.5 40h56c50 0 94.833 -11.333 134.5 -34zM391.999 539.996c-32.667 0 -58.834 -9.33301 -78.501 -28s-31.5 -42.667 -35.5 -72l-27 -193c-0.666992 -2 -1 -4.33301 -1 -7v-7
c0 -24.667 8.16699 -45.167 24.5 -61.5s37.166 -24.5 62.499 -24.5h5c32.667 0 58.834 9.33301 78.501 28s31.5 42.667 35.5 72l27 193c0.666992 2 1 6.66699 1 14c0 24 -8.16699 44.333 -24.5 61s-37.166 25 -62.499 25h-5z" />
    <glyph glyph-name="multiply" unicode="&#xd7;" horiz-adv-x="615" 
d="M547 392l-154 -136l115 -136l-102 -90l-117 135l-155 -135l-78 90l155 136l-116 136l102 90l117 -135l155 135z" />
    <glyph glyph-name="Oslash" unicode="&#xd8;" horiz-adv-x="719" 
d="M628 623c24.667 -24 43.666 -51.8369 56.999 -83.5039s20 -66.167 20 -103.5c0 -9.33301 -0.5 -18.166 -1.5 -26.499s-2.5 -19.166 -4.5 -32.499l-12 -87c-8 -56 -27.333 -106.667 -58 -152s-70.5 -81.333 -119.5 -108s-103.833 -40 -164.5 -40h-56
c-40 0 -79.333 8.33301 -118 25l-60 -80h-107l97 129c-23.333 23.333 -41.333 50.833 -54 82.5s-19 65.5 -19 101.5c0 8.66699 0.5 17.834 1.5 27.501s2.33301 20 4 31s2.83398 20.167 3.50098 27.5c2 9.33301 3.66699 19 5 29l4 31c8 55.333 27.333 105.833 58 151.5
s70.5 81.834 119.5 108.501s103.833 40 164.5 40h56c38.667 0 76 -7.66699 112 -23l62 83h108zM391.999 539.996c-32.667 0 -58.834 -9.33301 -78.501 -28s-31.5 -42.667 -35.5 -72l-24 -172l192 257c-15.333 10 -31.666 15 -48.999 15h-5zM282.999 163.996
c15.333 -11.333 33.332 -17 53.999 -17h5c32.667 0 58.834 9.33301 78.501 28s31.5 42.667 35.5 72l25 181z" />
    <glyph glyph-name="Ugrave" unicode="&#xd9;" horiz-adv-x="687" 
d="M463 750h-118l-106 142l3 3h151zM625 218c-10.667 -71.333 -41.667 -127.169 -93 -167.502s-121 -60.5 -209 -60.5h-43c-74 0 -132.667 17.333 -176 52s-65 81.334 -65 140.001c0 12 1 24 3 36l65 468h211l-65 -465c-0.666992 -2 -1 -5.66699 -1 -11
c0 -19.333 6.83301 -34.833 20.5 -46.5s30.834 -17.5 51.501 -17.5c26.667 0 47.667 6.83301 63 20.5s24.666 31.834 27.999 54.501l65 465h210z" />
    <glyph glyph-name="Uacute" unicode="&#xda;" horiz-adv-x="687" 
d="M609 892l-146 -142h-118l112 145h151zM625 218c-10.667 -71.333 -41.667 -127.169 -93 -167.502s-121 -60.5 -209 -60.5h-43c-74 0 -132.667 17.333 -176 52s-65 81.334 -65 140.001c0 12 1 24 3 36l65 468h211l-65 -465c-0.666992 -2 -1 -5.66699 -1 -11
c0 -19.333 6.83301 -34.833 20.5 -46.5s30.834 -17.5 51.501 -17.5c26.667 0 47.667 6.83301 63 20.5s24.666 31.834 27.999 54.501l65 465h210z" />
    <glyph glyph-name="Ucircumflex" unicode="&#xdb;" horiz-adv-x="687" 
d="M609 750h-130l-63 77l-85 -77h-128l160 145h128zM625 218c-10.667 -71.333 -41.667 -127.169 -93 -167.502s-121 -60.5 -209 -60.5h-43c-74 0 -132.667 17.333 -176 52s-65 81.334 -65 140.001c0 12 1 24 3 36l65 468h211l-65 -465c-0.666992 -2 -1 -5.66699 -1 -11
c0 -19.333 6.83301 -34.833 20.5 -46.5s30.834 -17.5 51.501 -17.5c26.667 0 47.667 6.83301 63 20.5s24.666 31.834 27.999 54.501l65 465h210z" />
    <glyph glyph-name="Udieresis" unicode="&#xdc;" horiz-adv-x="687" 
d="M370 750h-152l21 147h152zM590 750h-152l21 147h152zM625 218c-10.667 -71.333 -41.667 -127.169 -93 -167.502s-121 -60.5 -209 -60.5h-43c-74 0 -132.667 17.333 -176 52s-65 81.334 -65 140.001c0 12 1 24 3 36l65 468h211l-65 -465c-0.666992 -2 -1 -5.66699 -1 -11
c0 -19.333 6.83301 -34.833 20.5 -46.5s30.834 -17.5 51.501 -17.5c26.667 0 47.667 6.83301 63 20.5s24.666 31.834 27.999 54.501l65 465h210z" />
    <glyph glyph-name="Yacute" unicode="&#xdd;" horiz-adv-x="644" 
d="M599 892l-146 -142h-118l112 145h151zM421 262l-37 -262h-209l37 262l-168 424h236l71 -225h5l137 225h215z" />
    <glyph glyph-name="Thorn" unicode="&#xde;" horiz-adv-x="646" 
d="M307 583h155.998c34.667 0 66 -8 94 -24s49.833 -37.833 65.5 -65.5s23.5 -58.167 23.5 -91.5c0 -46 -10.667 -88.667 -32 -128s-50.666 -70.5 -87.999 -93.5s-78.666 -34.5 -123.999 -34.5h-156l-21 -146h-209l97 686h209zM284.998 427l-17.999 -133h103
c13.333 0 25.666 4.83301 36.999 14.5s18 21.5 20 35.5l4 40c0 12.667 -4 23 -12 31s-18.333 12 -31 12h-103z" />
    <glyph glyph-name="germandbls" unicode="&#xdf;" horiz-adv-x="652" 
d="M570.5 689c45 -26 67.501 -66 67.501 -120c0 -37.333 -10.667 -72.333 -32 -105s-49.666 -55.667 -84.999 -69v-5c30 -11.333 53.667 -30.333 71 -57s26 -57 26 -91c0 -47.333 -11.5 -89.333 -34.5 -126s-55.333 -65.167 -97 -85.5s-89.5 -30.5 -143.5 -30.5h-63l21 148
h28c24 0 45.667 10 65 30s29 43 29 69c0 21.333 -6.5 39 -19.5 53s-29.833 21 -50.5 21h-28l17 122h27c19.333 0 36.666 7.66699 51.999 23s23 33.666 23 54.999c0 16.667 -5.16699 30.5 -15.5 41.5s-23.5 16.5 -39.5 16.5c-18 0 -34 -6.5 -48 -19.5
s-22.333 -29.167 -25 -48.5l-81 -577h-198l61 435h-62l20 142h62c8.66699 48 27.667 88.333 57 121s64.666 56.834 105.999 72.501s84.333 23.5 129 23.5c62 0 115.5 -13 160.5 -39z" />
    <glyph glyph-name="agrave" unicode="&#xe0;" horiz-adv-x="628" 
d="M409 575h-118l-106 142l3 3h151zM335 502.5c24.667 -12.333 44.0029 -29.833 58.0029 -52.5h5l34 61h149c-14 -84.667 -26.333 -164.167 -37 -238.5s-16 -119.5 -16 -135.5c0 -18 8.66699 -27 26 -27c11.333 0 23.666 4.33301 36.999 13l-15 -110
c-14 -7.33301 -30.5 -13 -49.5 -17s-36.833 -6 -53.5 -6c-36 0 -65.833 5.33301 -89.5 16s-39.167 31.334 -46.5 62.001c-18 -22.667 -40.5 -41.334 -67.5 -56.001s-54.167 -22 -81.5 -22c-58.667 0 -101.834 18.667 -129.501 56s-41.5 86.333 -41.5 147
c0 52 8.5 103.167 25.5 153.5s43.667 92 80 125s81.166 49.5 134.499 49.5c27.333 0 53.333 -6.16699 78 -18.5zM258.503 376c-13.667 -13.333 -21.833 -30 -24.5 -50c-14 -98.667 -21 -150.667 -21 -156c0 -17.333 5 -31.5 15 -42.5s22.667 -16.5 38 -16.5
c20.667 0 37 6.5 49 19.5s19.667 29.833 23 50.5l10 72l4 32c4.66699 29.333 7 47 7 53c0 18.667 -4.83301 33 -14.5 43s-22.5 15 -38.5 15c-18 0 -33.833 -6.66699 -47.5 -20z" />
    <glyph glyph-name="aacute" unicode="&#xe1;" horiz-adv-x="628" 
d="M528 717l-146 -142h-118l112 145h151zM335 502.5c24.667 -12.333 44.0029 -29.833 58.0029 -52.5h5l34 61h149c-14 -84.667 -26.333 -164.167 -37 -238.5s-16 -119.5 -16 -135.5c0 -18 8.66699 -27 26 -27c11.333 0 23.666 4.33301 36.999 13l-15 -110
c-14 -7.33301 -30.5 -13 -49.5 -17s-36.833 -6 -53.5 -6c-36 0 -65.833 5.33301 -89.5 16s-39.167 31.334 -46.5 62.001c-18 -22.667 -40.5 -41.334 -67.5 -56.001s-54.167 -22 -81.5 -22c-58.667 0 -101.834 18.667 -129.501 56s-41.5 86.333 -41.5 147
c0 52 8.5 103.167 25.5 153.5s43.667 92 80 125s81.166 49.5 134.499 49.5c27.333 0 53.333 -6.16699 78 -18.5zM258.503 376c-13.667 -13.333 -21.833 -30 -24.5 -50c-14 -98.667 -21 -150.667 -21 -156c0 -17.333 5 -31.5 15 -42.5s22.667 -16.5 38 -16.5
c20.667 0 37 6.5 49 19.5s19.667 29.833 23 50.5l10 72l4 32c4.66699 29.333 7 47 7 53c0 18.667 -4.83301 33 -14.5 43s-22.5 15 -38.5 15c-18 0 -33.833 -6.66699 -47.5 -20z" />
    <glyph glyph-name="acircumflex" unicode="&#xe2;" horiz-adv-x="628" 
d="M554 575h-130l-63 77l-85 -77h-128l160 145h128zM335 502.5c24.667 -12.333 44.0029 -29.833 58.0029 -52.5h5l34 61h149c-14 -84.667 -26.333 -164.167 -37 -238.5s-16 -119.5 -16 -135.5c0 -18 8.66699 -27 26 -27c11.333 0 23.666 4.33301 36.999 13l-15 -110
c-14 -7.33301 -30.5 -13 -49.5 -17s-36.833 -6 -53.5 -6c-36 0 -65.833 5.33301 -89.5 16s-39.167 31.334 -46.5 62.001c-18 -22.667 -40.5 -41.334 -67.5 -56.001s-54.167 -22 -81.5 -22c-58.667 0 -101.834 18.667 -129.501 56s-41.5 86.333 -41.5 147
c0 52 8.5 103.167 25.5 153.5s43.667 92 80 125s81.166 49.5 134.499 49.5c27.333 0 53.333 -6.16699 78 -18.5zM258.503 376c-13.667 -13.333 -21.833 -30 -24.5 -50c-14 -98.667 -21 -150.667 -21 -156c0 -17.333 5 -31.5 15 -42.5s22.667 -16.5 38 -16.5
c20.667 0 37 6.5 49 19.5s19.667 29.833 23 50.5l10 72l4 32c4.66699 29.333 7 47 7 53c0 18.667 -4.83301 33 -14.5 43s-22.5 15 -38.5 15c-18 0 -33.833 -6.66699 -47.5 -20z" />
    <glyph glyph-name="atilde" unicode="&#xe3;" horiz-adv-x="628" 
d="M558 650.5c-14.667 -21.667 -33.499 -39.332 -56.499 -52.999s-48.5 -20.5 -76.5 -20.5c-14.667 0 -28.5 1.66699 -41.5 5s-29.5 8.66602 -49.5 15.999c-16 6 -29.833 10.667 -41.5 14s-23.167 5 -34.5 5c-12 0 -22.833 -3.66699 -32.5 -11s-17.5 -17 -23.5 -29h-80
c4 24.667 13.333 47.834 28 69.501s33.5 39.334 56.5 53.001s48.167 20.5 75.5 20.5c14.667 0 28.667 -1.83301 42 -5.5s29.666 -8.83398 48.999 -15.501c32 -12.667 57.333 -19 76 -19c12 0 22.833 3.66699 32.5 11s17.5 17 23.5 29h81
c-4 -24.667 -13.333 -47.834 -28 -69.501zM335.001 502.502c24.667 -12.333 44.0029 -29.833 58.0029 -52.5h5l34 61h149c-14 -84.667 -26.333 -164.167 -37 -238.5s-16 -119.5 -16 -135.5c0 -18 8.66699 -27 26 -27c11.333 0 23.666 4.33301 36.999 13l-15 -110
c-14 -7.33301 -30.5 -13 -49.5 -17s-36.833 -6 -53.5 -6c-36 0 -65.833 5.33301 -89.5 16s-39.167 31.334 -46.5 62.001c-18 -22.667 -40.5 -41.334 -67.5 -56.001s-54.167 -22 -81.5 -22c-58.667 0 -101.834 18.667 -129.501 56s-41.5 86.333 -41.5 147
c0 52 8.5 103.167 25.5 153.5s43.667 92 80 125s81.166 49.5 134.499 49.5c27.333 0 53.333 -6.16699 78 -18.5zM258.504 376.002c-13.667 -13.333 -21.833 -30 -24.5 -50c-14 -98.667 -21 -150.667 -21 -156c0 -17.333 5 -31.5 15 -42.5s22.667 -16.5 38 -16.5
c20.667 0 37 6.5 49 19.5s19.667 29.833 23 50.5l10 72l4 32c4.66699 29.333 7 47 7 53c0 18.667 -4.83301 33 -14.5 43s-22.5 15 -38.5 15c-18 0 -33.833 -6.66699 -47.5 -20z" />
    <glyph glyph-name="adieresis" unicode="&#xe4;" horiz-adv-x="628" 
d="M328 573h-152l21 147h152zM548 573h-152l21 147h152zM335 502.5c24.667 -12.333 44.0029 -29.833 58.0029 -52.5h5l34 61h149c-14 -84.667 -26.333 -164.167 -37 -238.5s-16 -119.5 -16 -135.5c0 -18 8.66699 -27 26 -27c11.333 0 23.666 4.33301 36.999 13l-15 -110
c-14 -7.33301 -30.5 -13 -49.5 -17s-36.833 -6 -53.5 -6c-36 0 -65.833 5.33301 -89.5 16s-39.167 31.334 -46.5 62.001c-18 -22.667 -40.5 -41.334 -67.5 -56.001s-54.167 -22 -81.5 -22c-58.667 0 -101.834 18.667 -129.501 56s-41.5 86.333 -41.5 147
c0 52 8.5 103.167 25.5 153.5s43.667 92 80 125s81.166 49.5 134.499 49.5c27.333 0 53.333 -6.16699 78 -18.5zM258.503 376c-13.667 -13.333 -21.833 -30 -24.5 -50c-14 -98.667 -21 -150.667 -21 -156c0 -17.333 5 -31.5 15 -42.5s22.667 -16.5 38 -16.5
c20.667 0 37 6.5 49 19.5s19.667 29.833 23 50.5l10 72l4 32c4.66699 29.333 7 47 7 53c0 18.667 -4.83301 33 -14.5 43s-22.5 15 -38.5 15c-18 0 -33.833 -6.66699 -47.5 -20z" />
    <glyph glyph-name="aring" unicode="&#xe5;" horiz-adv-x="628" 
d="M447.5 735.5c16.333 -16.333 24.502 -36.833 24.502 -61.5c0 -32 -11.333 -59.167 -34 -81.5s-50 -33.5 -82 -33.5c-25.333 0 -46.333 8.16699 -63 24.5s-25 37.166 -25 62.499c0 30.667 11.667 57.334 35 80.001s50.666 34 81.999 34
c25.333 0 46.166 -8.16699 62.499 -24.5zM346.502 682.5c-7.66699 -7.66699 -11.5 -17.167 -11.5 -28.5c0 -8.66699 2.83301 -15.834 8.5 -21.501s13.167 -8.5 22.5 -8.5c10.667 0 20 3.33301 28 10s12 16.334 12 29.001c0 9.33301 -2.83301 16.833 -8.5 22.5
s-13.167 8.5 -22.5 8.5c-11.333 0 -20.833 -3.83301 -28.5 -11.5zM335.002 502.5c24.667 -12.333 44.0029 -29.833 58.0029 -52.5h5l34 61h149c-14 -84.667 -26.333 -164.167 -37 -238.5s-16 -119.5 -16 -135.5c0 -18 8.66699 -27 26 -27c11.333 0 23.666 4.33301 36.999 13
l-15 -110c-14 -7.33301 -30.5 -13 -49.5 -17s-36.833 -6 -53.5 -6c-36 0 -65.833 5.33301 -89.5 16s-39.167 31.334 -46.5 62.001c-18 -22.667 -40.5 -41.334 -67.5 -56.001s-54.167 -22 -81.5 -22c-58.667 0 -101.834 18.667 -129.501 56s-41.5 86.333 -41.5 147
c0 52 8.5 103.167 25.5 153.5s43.667 92 80 125s81.166 49.5 134.499 49.5c27.333 0 53.333 -6.16699 78 -18.5zM258.505 376c-13.667 -13.333 -21.833 -30 -24.5 -50c-14 -98.667 -21 -150.667 -21 -156c0 -17.333 5 -31.5 15 -42.5s22.667 -16.5 38 -16.5
c20.667 0 37 6.5 49 19.5s19.667 29.833 23 50.5l10 72l4 32c4.66699 29.333 7 47 7 53c0 18.667 -4.83301 33 -14.5 43s-22.5 15 -38.5 15c-18 0 -33.833 -6.66699 -47.5 -20z" />
    <glyph glyph-name="ae" unicode="&#xe6;" horiz-adv-x="924" 
d="M842 469c37.333 -34.667 55.998 -80.998 55.998 -138.998l-2 -27c-0.666992 -10 -3.66699 -34.667 -9 -74h-333l-7 -48c-0.666992 -2 -1 -5.66699 -1 -11c0 -18.667 6.33301 -33.167 19 -43.5s29 -15.5 49 -15.5c23.333 0 42.333 7.16699 57 21.5
s23.667 34.166 27 59.499h183c-5.33301 -38 -20.166 -72.333 -44.499 -103s-56.666 -54.834 -96.999 -72.501s-85.833 -26.5 -136.5 -26.5h-15c-40.667 0 -77.5 5.83301 -110.5 17.5s-60.5 28.5 -82.5 50.5c-26 -20.667 -58.5 -37.167 -97.5 -49.5
s-79.833 -18.5 -122.5 -18.5c-49.333 0 -90.666 8.5 -123.999 25.5s-50 49.833 -50 98.5c0 53.333 14.5 94.833 43.5 124.5s69.5 50 121.5 61s117.333 16.5 196 16.5l2 17l2 12c0.666992 4 1 7.66699 1 11c0 15.333 -5.33301 27.333 -16 36s-24.334 13 -41.001 13
c-16 0 -31.5 -4.5 -46.5 -13.5s-23.167 -20.167 -24.5 -33.5l-1 -4h-190c0 30 11.167 57.833 33.5 83.5s53.5 46 93.5 61s85.333 22.5 136 22.5h33c65.333 0 117.333 -11.333 156 -34c46 22.667 98 34 156 34h25c70 0 123.667 -17.333 161 -52zM593.998 380.002
c-14.667 -13.333 -23.332 -30 -25.999 -50l-2 -14h138c0 4.66699 0.333008 9 1 13s1 7.33301 1 10c0 17.333 -5.5 31.833 -16.5 43.5s-25.167 17.5 -42.5 17.5c-20.667 0 -38.334 -6.66699 -53.001 -20zM244.5 204.502c-22.333 -13.667 -33.502 -32.167 -33.502 -55.5
c0 -25.333 18 -38 54 -38c18 0 34.833 6.5 50.5 19.5s24.834 29.833 27.501 50.5l6 44c-47.333 0 -82.166 -6.83301 -104.499 -20.5z" />
    <glyph glyph-name="ccedilla" unicode="&#xe7;" horiz-adv-x="568" 
d="M500 466c32.667 -36.667 49.002 -78.665 49.002 -125.998c0 -12 -1 -24 -3 -36h-168c0 5.33301 0.5 11.666 1.5 18.999s1.5 12.666 1.5 15.999c0 17.333 -5.5 31.833 -16.5 43.5s-25.167 17.5 -42.5 17.5c-22.667 0 -40.834 -6.5 -54.501 -19.5
s-21.834 -29.833 -24.501 -50.5c-6 -32.667 -11.167 -65.167 -15.5 -97.5s-6.5 -52.833 -6.5 -61.5c0 -18 5.83301 -32.5 17.5 -43.5s28.167 -16.5 49.5 -16.5c25.333 0 44.833 7 58.5 21s21.834 30.333 24.501 49l4 26h158c-10.667 -68.667 -39.834 -122 -87.501 -160
s-108.167 -57 -181.5 -57c-54.667 0 -100.5 9.5 -137.5 28.5s-64.667 44.167 -83 75.5s-27.5 66 -27.5 104c0 60 12 114.5 36 163.5s59.333 87.833 106 116.5s102.667 43 168 43c83.333 0 141.333 -18.333 174 -55zM328.002 -33.998c20.667 -11.333 31 -30.666 31 -57.999
v-8c0 -35.333 -14.167 -60.333 -42.5 -75s-57.833 -22 -88.5 -22c-24 0 -46.833 3.16699 -68.5 9.5s-39.167 15.166 -52.5 26.499l40 54c6 -8 15.833 -15.333 29.5 -22s30.5 -10 50.5 -10c30 0 45 13 45 39c0 16 -11.333 24 -34 24h-18l8 59h21c32 0 58.333 -5.66699 79 -17
z" />
    <glyph glyph-name="egrave" unicode="&#xe8;" 
d="M407 575h-118l-106 142l3 3h151zM518 469c37.333 -34.667 55.9971 -80.999 55.9971 -138.999l-2 -27c-0.666992 -10 -3.66699 -34.667 -9 -74h-333l-4 -25c-3.33301 -20.667 -4.66602 -32 -3.99902 -34c0 -18.667 6.33301 -33.167 19 -43.5s29 -15.5 49 -15.5
c23.333 0 42.333 7.16699 57 21.5s23.667 34.166 27 59.499h183c-5.33301 -38 -20.166 -72.333 -44.499 -103s-56.666 -54.834 -96.999 -72.501s-85.833 -26.5 -136.5 -26.5h-15c-48 0 -90.833 8.33301 -128.5 25s-67 40.834 -88 72.501s-31.5 69.167 -31.5 112.5
c0 66 13.5 123.167 40.5 171.5s64.333 85.333 112 111s102.167 38.5 163.5 38.5h25c70 0 123.667 -17.333 161 -52zM270.497 379.501c-15 -13.667 -23.833 -30.167 -26.5 -49.5l-2 -14h138c0 2 0.333008 5 1 9s1 8.66699 1 14c0 17.333 -5.5 31.833 -16.5 43.5
s-25.167 17.5 -42.5 17.5c-20 0 -37.5 -6.83301 -52.5 -20.5z" />
    <glyph glyph-name="eacute" unicode="&#xe9;" 
d="M549 717l-146 -142h-118l112 145h151zM518 469c37.333 -34.667 55.9971 -80.999 55.9971 -138.999l-2 -27c-0.666992 -10 -3.66699 -34.667 -9 -74h-333l-4 -25c-3.33301 -20.667 -4.66602 -32 -3.99902 -34c0 -18.667 6.33301 -33.167 19 -43.5s29 -15.5 49 -15.5
c23.333 0 42.333 7.16699 57 21.5s23.667 34.166 27 59.499h183c-5.33301 -38 -20.166 -72.333 -44.499 -103s-56.666 -54.834 -96.999 -72.501s-85.833 -26.5 -136.5 -26.5h-15c-48 0 -90.833 8.33301 -128.5 25s-67 40.834 -88 72.501s-31.5 69.167 -31.5 112.5
c0 66 13.5 123.167 40.5 171.5s64.333 85.333 112 111s102.167 38.5 163.5 38.5h25c70 0 123.667 -17.333 161 -52zM270.497 379.501c-15 -13.667 -23.833 -30.167 -26.5 -49.5l-2 -14h138c0 2 0.333008 5 1 9s1 8.66699 1 14c0 17.333 -5.5 31.833 -16.5 43.5
s-25.167 17.5 -42.5 17.5c-20 0 -37.5 -6.83301 -52.5 -20.5z" />
    <glyph glyph-name="ecircumflex" unicode="&#xea;" 
d="M564 575h-130l-63 77l-85 -77h-128l160 145h128zM518 469c37.333 -34.667 55.9971 -80.999 55.9971 -138.999l-2 -27c-0.666992 -10 -3.66699 -34.667 -9 -74h-333l-4 -25c-3.33301 -20.667 -4.66602 -32 -3.99902 -34c0 -18.667 6.33301 -33.167 19 -43.5
s29 -15.5 49 -15.5c23.333 0 42.333 7.16699 57 21.5s23.667 34.166 27 59.499h183c-5.33301 -38 -20.166 -72.333 -44.499 -103s-56.666 -54.834 -96.999 -72.501s-85.833 -26.5 -136.5 -26.5h-15c-48 0 -90.833 8.33301 -128.5 25s-67 40.834 -88 72.501
s-31.5 69.167 -31.5 112.5c0 66 13.5 123.167 40.5 171.5s64.333 85.333 112 111s102.167 38.5 163.5 38.5h25c70 0 123.667 -17.333 161 -52zM270.497 379.501c-15 -13.667 -23.833 -30.167 -26.5 -49.5l-2 -14h138c0 2 0.333008 5 1 9s1 8.66699 1 14
c0 17.333 -5.5 31.833 -16.5 43.5s-25.167 17.5 -42.5 17.5c-20 0 -37.5 -6.83301 -52.5 -20.5z" />
    <glyph glyph-name="edieresis" unicode="&#xeb;" 
d="M316 573h-152l21 147h152zM536 573h-152l21 147h152zM518 469c37.333 -34.667 55.9971 -80.999 55.9971 -138.999l-2 -27c-0.666992 -10 -3.66699 -34.667 -9 -74h-333l-4 -25c-3.33301 -20.667 -4.66602 -32 -3.99902 -34c0 -18.667 6.33301 -33.167 19 -43.5
s29 -15.5 49 -15.5c23.333 0 42.333 7.16699 57 21.5s23.667 34.166 27 59.499h183c-5.33301 -38 -20.166 -72.333 -44.499 -103s-56.666 -54.834 -96.999 -72.501s-85.833 -26.5 -136.5 -26.5h-15c-48 0 -90.833 8.33301 -128.5 25s-67 40.834 -88 72.501
s-31.5 69.167 -31.5 112.5c0 66 13.5 123.167 40.5 171.5s64.333 85.333 112 111s102.167 38.5 163.5 38.5h25c70 0 123.667 -17.333 161 -52zM270.497 379.501c-15 -13.667 -23.833 -30.167 -26.5 -49.5l-2 -14h138c0 2 0.333008 5 1 9s1 8.66699 1 14
c0 17.333 -5.5 31.833 -16.5 43.5s-25.167 17.5 -42.5 17.5c-20 0 -37.5 -6.83301 -52.5 -20.5z" />
    <glyph glyph-name="igrave" unicode="&#xec;" horiz-adv-x="296" 
d="M272 575h-118l-106 142l3 3h151zM206 0h-197l71 511h197z" />
    <glyph glyph-name="iacute" unicode="&#xed;" horiz-adv-x="296" 
d="M356 717l-146 -142h-118l112 145h151zM206 0h-197l71 511h197z" />
    <glyph glyph-name="icircumflex" unicode="&#xee;" horiz-adv-x="296" 
d="M388 575h-130l-63 77l-85 -77h-128l160 145h128zM206 0h-197l71 511h197z" />
    <glyph glyph-name="idieresis" unicode="&#xef;" horiz-adv-x="296" 
d="M153 573h-152l21 147h152zM373 573h-152l21 147h152zM206 0h-197l71 511h197z" />
    <glyph glyph-name="eth" unicode="&#xf0;" horiz-adv-x="613" 
d="M358 695l76.0029 32.998l47 -51l-63 -28c51.333 -45.333 92.166 -97.666 122.499 -156.999s45.5 -119.666 45.5 -180.999c0 -14.667 -1 -29.667 -3 -45l-3 -21c-6.66699 -50 -24.334 -94.333 -53.001 -133s-64.667 -68.667 -108 -90s-90 -32 -140 -32h-32
c-46 0 -86.5 9 -121.5 27s-62.167 43.333 -81.5 76s-29 70.667 -29 114c0 12.667 1 25.334 3 38.001l3 21c6 44.667 22 84.5 48 119.5s58.5 63.167 97.5 84.5s80.833 34.666 125.5 39.999c-0.666992 8 -3.33398 18.333 -8.00098 31s-11 25.667 -19 39l-71 -31l-51 51l80 35
c-23.333 23.333 -48.333 40 -75 50l2 4l120 50c32.667 -11.333 62 -26 88 -44zM268.003 379.998c-14.667 -13.333 -23.333 -30 -26 -50l-21 -149c-0.666992 -2 -1 -5.66699 -1 -11c0 -17.333 5.66699 -31.5 17 -42.5s25.666 -16.5 42.999 -16.5
c18 0 34.833 6.83301 50.5 20.5s25.167 30.167 28.5 49.5l21 149v9c0 17.333 -5.66699 31.833 -17 43.5s-25.666 17.5 -42.999 17.5c-20 0 -37.333 -6.66699 -52 -20z" />
    <glyph glyph-name="ntilde" unicode="&#xf1;" horiz-adv-x="597" 
d="M547 650.5c-14.667 -21.667 -33.498 -39.332 -56.498 -52.999s-48.5 -20.5 -76.5 -20.5c-14.667 0 -28.5 1.66699 -41.5 5s-29.5 8.66602 -49.5 15.999c-16 6 -29.833 10.667 -41.5 14s-23.167 5 -34.5 5c-12 0 -22.833 -3.66699 -32.5 -11s-17.5 -17 -23.5 -29h-80
c4 24.667 13.333 47.834 28 69.501s33.5 39.334 56.5 53.001s48.167 20.5 75.5 20.5c14.667 0 28.667 -1.83301 42 -5.5s29.666 -8.83398 48.999 -15.501c31.333 -12.667 56.666 -19 75.999 -19c12 0 22.833 3.66699 32.5 11s17.5 17 23.5 29h81
c-4 -24.667 -13.333 -47.834 -28 -69.501zM525.502 485.002c25 -24 37.5039 -55.001 37.5039 -93.001c0 -13.333 -5.66699 -59 -17 -137l-10 -70l-9 -65c-8.66699 -63.333 -14.334 -103.333 -17.001 -120h-198c9.33301 72.667 18.666 137.667 27.999 195
c12 84 18 129 18 135c0 14.667 -4 26.667 -12 36s-19.333 14 -34 14c-16.667 0 -30.334 -5.66699 -41.001 -17s-17.334 -25.666 -20.001 -42.999l-45 -320h-198l72 511h149l9 -74c42.667 56 103 84 181 84c46 0 81.5 -12 106.5 -36z" />
    <glyph glyph-name="ograve" unicode="&#xf2;" horiz-adv-x="613" 
d="M399 575h-118l-106 142l3 3h151zM522.5 462.5c43 -39 64.5 -91.5 64.5 -157.5c0 -60 -13 -114 -39 -162s-62.333 -85.5 -109 -112.5s-99.667 -40.5 -159 -40.5h-15c-80 0 -141.5 19.5 -184.5 58.5s-64.5 91.167 -64.5 156.5c0 52.667 11.333 103.167 34 151.5
s57.167 87.833 103.5 118.5s102.833 46 169.5 46h17c78.667 0 139.5 -19.5 182.5 -58.5zM270 380c-14.667 -13.333 -23.665 -30.001 -26.998 -50.001c-6 -36.667 -11 -69.167 -15 -97.5s-6.33301 -48.833 -7 -61.5c0 -17.333 5.66699 -31.666 17 -42.999
s25.666 -17 42.999 -17c20.667 0 38.167 6.66699 52.5 20s23.166 30 26.499 50l11 73l11 85c0 16 -5.5 30.167 -16.5 42.5s-25.5 18.5 -43.5 18.5c-20 0 -37.333 -6.66699 -52 -20z" />
    <glyph glyph-name="oacute" unicode="&#xf3;" horiz-adv-x="613" 
d="M551 717l-146 -142h-118l112 145h151zM522.5 462.5c43 -39 64.5 -91.5 64.5 -157.5c0 -60 -13 -114 -39 -162s-62.333 -85.5 -109 -112.5s-99.667 -40.5 -159 -40.5h-15c-80 0 -141.5 19.5 -184.5 58.5s-64.5 91.167 -64.5 156.5c0 52.667 11.333 103.167 34 151.5
s57.167 87.833 103.5 118.5s102.833 46 169.5 46h17c78.667 0 139.5 -19.5 182.5 -58.5zM270 380c-14.667 -13.333 -23.665 -30.001 -26.998 -50.001c-6 -36.667 -11 -69.167 -15 -97.5s-6.33301 -48.833 -7 -61.5c0 -17.333 5.66699 -31.666 17 -42.999
s25.666 -17 42.999 -17c20.667 0 38.167 6.66699 52.5 20s23.166 30 26.499 50l11 73l11 85c0 16 -5.5 30.167 -16.5 42.5s-25.5 18.5 -43.5 18.5c-20 0 -37.333 -6.66699 -52 -20z" />
    <glyph glyph-name="ocircumflex" unicode="&#xf4;" horiz-adv-x="613" 
d="M554 575h-130l-63 77l-85 -77h-128l160 145h128zM522.5 462.5c43 -39 64.5 -91.5 64.5 -157.5c0 -60 -13 -114 -39 -162s-62.333 -85.5 -109 -112.5s-99.667 -40.5 -159 -40.5h-15c-80 0 -141.5 19.5 -184.5 58.5s-64.5 91.167 -64.5 156.5
c0 52.667 11.333 103.167 34 151.5s57.167 87.833 103.5 118.5s102.833 46 169.5 46h17c78.667 0 139.5 -19.5 182.5 -58.5zM270 380c-14.667 -13.333 -23.665 -30.001 -26.998 -50.001c-6 -36.667 -11 -69.167 -15 -97.5s-6.33301 -48.833 -7 -61.5
c0 -17.333 5.66699 -31.666 17 -42.999s25.666 -17 42.999 -17c20.667 0 38.167 6.66699 52.5 20s23.166 30 26.499 50l11 73l11 85c0 16 -5.5 30.167 -16.5 42.5s-25.5 18.5 -43.5 18.5c-20 0 -37.333 -6.66699 -52 -20z" />
    <glyph glyph-name="otilde" unicode="&#xf5;" horiz-adv-x="613" 
d="M562 650.5c-14.667 -21.667 -33.498 -39.332 -56.498 -52.999s-48.5 -20.5 -76.5 -20.5c-14.667 0 -28.5 1.66699 -41.5 5s-29.5 8.66602 -49.5 15.999c-16 6 -29.833 10.667 -41.5 14s-23.167 5 -34.5 5c-12 0 -22.833 -3.66699 -32.5 -11s-17.5 -17 -23.5 -29h-80
c4 24.667 13.333 47.834 28 69.501s33.5 39.334 56.5 53.001s48.167 20.5 75.5 20.5c14.667 0 28.667 -1.83301 42 -5.5s29.666 -8.83398 48.999 -15.501c31.333 -12.667 56.666 -19 75.999 -19c12 0 22.833 3.66699 32.5 11s17.5 17 23.5 29h81
c-4 -24.667 -13.333 -47.834 -28 -69.501zM522.502 462.502c43 -39 64.5 -91.5 64.5 -157.5c0 -60 -13 -114 -39 -162s-62.333 -85.5 -109 -112.5s-99.667 -40.5 -159 -40.5h-15c-80 0 -141.5 19.5 -184.5 58.5s-64.5 91.167 -64.5 156.5c0 52.667 11.333 103.167 34 151.5
s57.167 87.833 103.5 118.5s102.833 46 169.5 46h17c78.667 0 139.5 -19.5 182.5 -58.5zM270.002 380.002c-14.667 -13.333 -23.665 -30.001 -26.998 -50.001c-6 -36.667 -11 -69.167 -15 -97.5s-6.33301 -48.833 -7 -61.5c0 -17.333 5.66699 -31.666 17 -42.999
s25.666 -17 42.999 -17c20.667 0 38.167 6.66699 52.5 20s23.166 30 26.499 50l11 73l11 85c0 16 -5.5 30.167 -16.5 42.5s-25.5 18.5 -43.5 18.5c-20 0 -37.333 -6.66699 -52 -20z" />
    <glyph glyph-name="odieresis" unicode="&#xf6;" horiz-adv-x="613" 
d="M314 573h-152l21 147h152zM534 573h-152l21 147h152zM522.5 462.5c43 -39 64.5 -91.5 64.5 -157.5c0 -60 -13 -114 -39 -162s-62.333 -85.5 -109 -112.5s-99.667 -40.5 -159 -40.5h-15c-80 0 -141.5 19.5 -184.5 58.5s-64.5 91.167 -64.5 156.5
c0 52.667 11.333 103.167 34 151.5s57.167 87.833 103.5 118.5s102.833 46 169.5 46h17c78.667 0 139.5 -19.5 182.5 -58.5zM270 380c-14.667 -13.333 -23.665 -30.001 -26.998 -50.001c-6 -36.667 -11 -69.167 -15 -97.5s-6.33301 -48.833 -7 -61.5
c0 -17.333 5.66699 -31.666 17 -42.999s25.666 -17 42.999 -17c20.667 0 38.167 6.66699 52.5 20s23.166 30 26.499 50l11 73l11 85c0 16 -5.5 30.167 -16.5 42.5s-25.5 18.5 -43.5 18.5c-20 0 -37.333 -6.66699 -52 -20z" />
    <glyph glyph-name="divide" unicode="&#xf7;" horiz-adv-x="615" 
d="M383 369h-127l18 127h127zM550 193h-512l18 128h512zM334 17h-127l18 127h127z" />
    <glyph glyph-name="oslash" unicode="&#xf8;" horiz-adv-x="613" 
d="M513 470c49.333 -39.333 74 -94.334 74 -165.001c0 -60 -13 -114 -39 -162s-62.333 -85.5 -109 -112.5s-99.667 -40.5 -159 -40.5h-15c-40 0 -77 5.66699 -111 17l-48 -62h-92l75 96c-48.667 38.667 -73 93.334 -73 164.001c0 52.667 11.333 103.167 34 151.5
s57.167 87.833 103.5 118.5s102.833 46 169.5 46h17c39.333 0 75.333 -5.66699 108 -17l50 65h92zM269.5 379.999c-15 -13.333 -23.833 -30 -26.5 -50l-16 -111l131 169c-10 8 -22 12 -36 12c-20 0 -37.5 -6.66699 -52.5 -20zM244 122.999
c10 -8 22.3311 -12.001 36.998 -12.001c22.667 0 39.834 6 51.501 18s19.834 26.833 24.501 44.5s8.66699 41.5 12 71.5c0.666992 5.33301 1.5 12.833 2.5 22.5s2.16699 17.834 3.5 24.501z" />
    <glyph glyph-name="ugrave" unicode="&#xf9;" horiz-adv-x="627" 
d="M393 575h-118l-106 142l3 3h151zM527 140c0 -9.33301 2.66504 -16.502 7.99805 -21.502s11.666 -7.5 18.999 -7.5c10 0 22 3 36 9l-15 -107c-24.667 -15.333 -59.334 -23 -104.001 -23c-42.667 0 -74.5 6.83301 -95.5 20.5s-34.5 33.834 -40.5 60.501
c-15.333 -19.333 -36.666 -37.666 -63.999 -54.999s-61.666 -26 -102.999 -26c-46 0 -81.5 12 -106.5 36s-37.5 55 -37.5 93c0 18 5.33301 65.833 16 143.5s23 160.5 37 248.5h198l-23 -159c-6 -35.333 -11.167 -69.666 -15.5 -102.999s-6.83301 -56 -7.5 -68
c0 -14.667 4 -26.667 12 -36s19.333 -14 34 -14c16.667 0 30.334 5.66699 41.001 17s17.334 25.666 20.001 42.999l45 320h198c-34.667 -233.333 -52 -357 -52 -371z" />
    <glyph glyph-name="uacute" unicode="&#xfa;" horiz-adv-x="627" 
d="M531 717l-146 -142h-118l112 145h151zM527 140c0 -9.33301 2.66504 -16.502 7.99805 -21.502s11.666 -7.5 18.999 -7.5c10 0 22 3 36 9l-15 -107c-24.667 -15.333 -59.334 -23 -104.001 -23c-42.667 0 -74.5 6.83301 -95.5 20.5s-34.5 33.834 -40.5 60.501
c-15.333 -19.333 -36.666 -37.666 -63.999 -54.999s-61.666 -26 -102.999 -26c-46 0 -81.5 12 -106.5 36s-37.5 55 -37.5 93c0 18 5.33301 65.833 16 143.5s23 160.5 37 248.5h198l-23 -159c-6 -35.333 -11.167 -69.666 -15.5 -102.999s-6.83301 -56 -7.5 -68
c0 -14.667 4 -26.667 12 -36s19.333 -14 34 -14c16.667 0 30.334 5.66699 41.001 17s17.334 25.666 20.001 42.999l45 320h198c-34.667 -233.333 -52 -357 -52 -371z" />
    <glyph glyph-name="ucircumflex" unicode="&#xfb;" horiz-adv-x="627" 
d="M541 575h-130l-63 77l-85 -77h-128l160 145h128zM527 140c0 -9.33301 2.66504 -16.502 7.99805 -21.502s11.666 -7.5 18.999 -7.5c10 0 22 3 36 9l-15 -107c-24.667 -15.333 -59.334 -23 -104.001 -23c-42.667 0 -74.5 6.83301 -95.5 20.5s-34.5 33.834 -40.5 60.501
c-15.333 -19.333 -36.666 -37.666 -63.999 -54.999s-61.666 -26 -102.999 -26c-46 0 -81.5 12 -106.5 36s-37.5 55 -37.5 93c0 18 5.33301 65.833 16 143.5s23 160.5 37 248.5h198l-23 -159c-6 -35.333 -11.167 -69.666 -15.5 -102.999s-6.83301 -56 -7.5 -68
c0 -14.667 4 -26.667 12 -36s19.333 -14 34 -14c16.667 0 30.334 5.66699 41.001 17s17.334 25.666 20.001 42.999l45 320h198c-34.667 -233.333 -52 -357 -52 -371z" />
    <glyph glyph-name="udieresis" unicode="&#xfc;" horiz-adv-x="627" 
d="M301 573h-152l21 147h152zM521 573h-152l21 147h152zM527 140c0 -9.33301 2.66504 -16.502 7.99805 -21.502s11.666 -7.5 18.999 -7.5c10 0 22 3 36 9l-15 -107c-24.667 -15.333 -59.334 -23 -104.001 -23c-42.667 0 -74.5 6.83301 -95.5 20.5s-34.5 33.834 -40.5 60.501
c-15.333 -19.333 -36.666 -37.666 -63.999 -54.999s-61.666 -26 -102.999 -26c-46 0 -81.5 12 -106.5 36s-37.5 55 -37.5 93c0 18 5.33301 65.833 16 143.5s23 160.5 37 248.5h198l-23 -159c-6 -35.333 -11.167 -69.666 -15.5 -102.999s-6.83301 -56 -7.5 -68
c0 -14.667 4 -26.667 12 -36s19.333 -14 34 -14c16.667 0 30.334 5.66699 41.001 17s17.334 25.666 20.001 42.999l45 320h198c-34.667 -233.333 -52 -357 -52 -371z" />
    <glyph glyph-name="yacute" unicode="&#xfd;" horiz-adv-x="552" 
d="M520 717l-146 -142h-118l112 145h151zM347 36c-34 -67.333 -75.665 -121.333 -124.998 -162s-103 -61 -161 -61c-46 0 -77.667 5 -95 15l17 129c6.66699 -3.33301 17.167 -6.5 31.5 -9.5s28.166 -4.5 41.499 -4.5c43.333 0 72.666 24 87.999 72l-118 496h211l41 -265h8
l105 265h195z" />
    <glyph glyph-name="thorn" unicode="&#xfe;" horiz-adv-x="599" 
d="M270 458c32.667 42 79.666 62.998 140.999 62.998c48.667 0 87.667 -16.667 117 -50s44 -81.666 44 -144.999c0 -18 -1.66699 -39.667 -5 -65l-1 -11c-8 -56 -23.167 -103.667 -45.5 -143s-49.666 -68.666 -81.999 -87.999s-66.5 -29 -102.5 -29
c-62.667 0 -103.667 21 -123 63l-33 -234h-197l126 901h198zM276.999 379.498c-14 -13.667 -22.333 -30.166 -25 -49.499l-20 -145c-0.666992 -2 -1 -6 -1 -12c0 -16.667 5 -30.5 15 -41.5s22.667 -16.5 38 -16.5c16.667 0 32.167 6.83301 46.5 20.5
s22.833 30.167 25.5 49.5l21 155c0 17.333 -5 31.666 -15 42.999s-22.667 17 -38 17c-17.333 0 -33 -6.83301 -47 -20.5z" />
    <glyph glyph-name="ydieresis" unicode="&#xff;" horiz-adv-x="552" 
d="M279 573h-152l21 147h152zM499 573h-152l21 147h152zM347 36c-34 -67.333 -75.665 -121.333 -124.998 -162s-103 -61 -161 -61c-46 0 -77.667 5 -95 15l17 129c6.66699 -3.33301 17.167 -6.5 31.5 -9.5s28.166 -4.5 41.499 -4.5c43.333 0 72.666 24 87.999 72l-118 496
h211l41 -265h8l105 265h195z" />
    <glyph glyph-name="Amacron" unicode="&#x100;" horiz-adv-x="709" 
d="M674 0h-218l-24 122h-218l-57 -122h-201l325 686h261zM371 475l-88 -208h122l-29 208h-5zM581 837h-318v74h318v-74z" />
    <glyph glyph-name="amacron" unicode="&#x101;" horiz-adv-x="628" 
d="M335 502.5c24.667 -12.333 44.0029 -29.833 58.0029 -52.5h5l34 61h149c-14 -84.667 -26.333 -164.167 -37 -238.5s-16 -119.5 -16 -135.5c0 -18 8.66699 -27 26 -27c11.333 0 23.666 4.33301 36.999 13l-15 -110c-14 -7.33301 -30.5 -13 -49.5 -17s-36.833 -6 -53.5 -6
c-36 0 -65.833 5.33301 -89.5 16s-39.167 31.334 -46.5 62.001c-18 -22.667 -40.5 -41.334 -67.5 -56.001s-54.167 -22 -81.5 -22c-58.667 0 -101.834 18.667 -129.501 56s-41.5 86.333 -41.5 147c0 52 8.5 103.167 25.5 153.5s43.667 92 80 125s81.166 49.5 134.499 49.5
c27.333 0 53.333 -6.16699 78 -18.5zM258.503 376c-13.667 -13.333 -21.833 -30 -24.5 -50c-14 -98.667 -21 -150.667 -21 -156c0 -17.333 5 -31.5 15 -42.5s22.667 -16.5 38 -16.5c20.667 0 37 6.5 49 19.5s19.667 29.833 23 50.5l10 72l4 32c4.66699 29.333 7 47 7 53
c0 18.667 -4.83301 33 -14.5 43s-22.5 15 -38.5 15c-18 0 -33.833 -6.66699 -47.5 -20zM523.004 662h-318v74h318v-74z" />
    <glyph glyph-name="Abreve" unicode="&#x102;" horiz-adv-x="709" 
d="M674 0h-218l-24 122h-218l-57 -122h-201l325 686h261zM371 475l-88 -208h122l-29 208h-5zM597.5 855c-17.667 -19.333 -41.334 -35.333 -71.001 -48s-61.5 -19 -95.5 -19s-65.833 6.33301 -95.5 19s-53.167 28.667 -70.5 48s-26 38.333 -26 57h96c0 -4 4.5 -9 13.5 -15
s20.833 -11.333 35.5 -16s30.334 -7 47.001 -7s32.5 2.33301 47.5 7s27.167 10 36.5 16s14 11 14 15h95c0 -18.667 -8.83301 -37.667 -26.5 -57z" />
    <glyph glyph-name="abreve" unicode="&#x103;" horiz-adv-x="628" 
d="M335 502.5c24.667 -12.333 44.0029 -29.833 58.0029 -52.5h5l34 61h149c-14 -84.667 -26.333 -164.167 -37 -238.5s-16 -119.5 -16 -135.5c0 -18 8.66699 -27 26 -27c11.333 0 23.666 4.33301 36.999 13l-15 -110c-14 -7.33301 -30.5 -13 -49.5 -17s-36.833 -6 -53.5 -6
c-36 0 -65.833 5.33301 -89.5 16s-39.167 31.334 -46.5 62.001c-18 -22.667 -40.5 -41.334 -67.5 -56.001s-54.167 -22 -81.5 -22c-58.667 0 -101.834 18.667 -129.501 56s-41.5 86.333 -41.5 147c0 52 8.5 103.167 25.5 153.5s43.667 92 80 125s81.166 49.5 134.499 49.5
c27.333 0 53.333 -6.16699 78 -18.5zM258.503 376c-13.667 -13.333 -21.833 -30 -24.5 -50c-14 -98.667 -21 -150.667 -21 -156c0 -17.333 5 -31.5 15 -42.5s22.667 -16.5 38 -16.5c20.667 0 37 6.5 49 19.5s19.667 29.833 23 50.5l10 72l4 32c4.66699 29.333 7 47 7 53
c0 18.667 -4.83301 33 -14.5 43s-22.5 15 -38.5 15c-18 0 -33.833 -6.66699 -47.5 -20zM539.504 680c-17.667 -19.333 -41.334 -35.333 -71.001 -48s-61.5 -19 -95.5 -19s-65.833 6.33301 -95.5 19s-53.167 28.667 -70.5 48s-26 38.333 -26 57h96c0 -4 4.5 -9 13.5 -15
s20.833 -11.333 35.5 -16s30.334 -7 47.001 -7s32.5 2.33301 47.5 7s27.167 10 36.5 16s14 11 14 15h95c0 -18.667 -8.83301 -37.667 -26.5 -57z" />
    <glyph glyph-name="Aogonek" unicode="&#x104;" horiz-adv-x="709" 
d="M674 0h-218l-24 122h-218l-57 -122h-201l325 686h261zM371 475l-88 -208h122l-29 208h-5zM597 -28.5c-10 -9 -14.999 -20.168 -14.999 -33.501c0 -9.33301 4 -16.333 12 -21s17.333 -7 28 -7c19.333 0 42.333 4.66699 69 14l7 -43c-34.667 -16 -70.667 -24 -108 -24
c-24.667 0 -45.334 4.83301 -62.001 14.5s-25 24.834 -25 45.501c0 17.333 5.83301 32.5 17.5 45.5s27.5 25.5 47.5 37.5h70c-17.333 -10 -31 -19.5 -41 -28.5z" />
    <glyph glyph-name="aogonek" unicode="&#x105;" horiz-adv-x="628" 
d="M625 -119c-34.667 -16 -70.6631 -24 -107.996 -24c-24.667 0 -45.334 4.83301 -62.001 14.5s-25 24.834 -25 45.501c0 15.333 4.33301 28.666 13 39.999s20.667 22.333 36 33h-6c-36 0 -65.833 5.33301 -89.5 16s-39.167 31.334 -46.5 62.001
c-18 -22.667 -40.5 -41.334 -67.5 -56.001s-54.167 -22 -81.5 -22c-58.667 0 -101.834 18.667 -129.501 56s-41.5 86.333 -41.5 147c0 52 8.5 103.167 25.5 153.5s43.667 92 80 125s81.166 49.5 134.499 49.5c27.333 0 53.333 -6.16699 78 -18.5s44 -29.833 58 -52.5h5
l34 61h149c-14 -84.667 -26.333 -164.167 -37 -238.5s-16 -119.5 -16 -135.5c0 -18 8.66699 -27 26 -27c11.333 0 23.666 4.33301 36.999 13l-15 -110c-12 -6 -23.333 -10.333 -34 -13h23c-17.333 -10 -31 -19.5 -41 -28.5s-15 -20.167 -15 -33.5
c0 -9.33301 4 -16.333 12 -21s17.333 -7 28 -7c19.333 0 42.333 4.66699 69 14zM352.004 285c4.66699 29.333 7.00098 47 7.00098 53c0 18.667 -4.83301 33 -14.5 43s-22.5 15 -38.5 15c-18 0 -33.833 -6.66699 -47.5 -20s-21.834 -30 -24.501 -50
c-14 -98.667 -21 -150.667 -21 -156c0 -17.333 5 -31.5 15 -42.5s22.667 -16.5 38 -16.5c20.667 0 37 6.5 49 19.5s19.667 29.833 23 50.5l10 72z" />
    <glyph glyph-name="Cacute" unicode="&#x106;" horiz-adv-x="684" 
d="M609.5 635c46.333 -40.667 69.499 -99.001 69.499 -175.001c0 -20 -1.33301 -38.333 -4 -55h-197l5 35c0.666992 2 1 4.66699 1 8v9c0 25.333 -8 45.5 -24 60.5s-37 22.5 -63 22.5h-5c-32.667 0 -58.834 -9.33301 -78.501 -28s-31.5 -42.667 -35.5 -72l-27 -193
c-0.666992 -1.33301 -1 -3.66602 -1 -6.99902v-7c0 -24.667 8.16699 -45.167 24.5 -61.5s37.166 -24.5 62.499 -24.5h14c65.333 0 103.333 33.333 114 100l5 33h188c-13.333 -90.667 -48.166 -161.667 -104.499 -213s-129.166 -77 -218.499 -77h-28
c-54 0 -102.167 10 -144.5 30s-75.5 48.833 -99.5 86.5s-36 82.834 -36 135.501c0 7.33301 1.5 23 4.5 47s7.83301 59.667 14.5 107c8 59.333 28.333 111.666 61 156.999s74.334 80.5 125.001 105.5s106 37.5 166 37.5h28c76 0 137.167 -20.333 183.5 -61zM613.999 891.999
l-146 -142h-118l112 145h151z" />
    <glyph glyph-name="cacute" unicode="&#x107;" horiz-adv-x="568" 
d="M500 466c32.667 -36.667 49.002 -78.665 49.002 -125.998c0 -12 -1 -24 -3 -36h-168c0 5.33301 0.5 11.666 1.5 18.999s1.5 12.666 1.5 15.999c0 17.333 -5.5 31.833 -16.5 43.5s-25.167 17.5 -42.5 17.5c-22.667 0 -40.834 -6.5 -54.501 -19.5
s-21.834 -29.833 -24.501 -50.5c-6 -32.667 -11.167 -65.167 -15.5 -97.5s-6.5 -52.833 -6.5 -61.5c0 -18 5.83301 -32.5 17.5 -43.5s28.167 -16.5 49.5 -16.5c25.333 0 44.833 7 58.5 21s21.834 30.333 24.501 49l4 26h158c-10.667 -68.667 -39.834 -122 -87.501 -160
s-108.167 -57 -181.5 -57c-54.667 0 -100.5 9.5 -137.5 28.5s-64.667 44.167 -83 75.5s-27.5 66 -27.5 104c0 60 12 114.5 36 163.5s59.333 87.833 106 116.5s102.667 43 168 43c83.333 0 141.333 -18.333 174 -55zM516.002 717.002l-146 -142h-118l112 145h151z" />
    <glyph glyph-name="Ccaron" unicode="&#x10c;" horiz-adv-x="684" 
d="M609.5 635c46.333 -40.667 69.499 -99.001 69.499 -175.001c0 -20 -1.33301 -38.333 -4 -55h-197l5 35c0.666992 2 1 4.66699 1 8v9c0 25.333 -8 45.5 -24 60.5s-37 22.5 -63 22.5h-5c-32.667 0 -58.834 -9.33301 -78.501 -28s-31.5 -42.667 -35.5 -72l-27 -193
c-0.666992 -1.33301 -1 -3.66602 -1 -6.99902v-7c0 -24.667 8.16699 -45.167 24.5 -61.5s37.166 -24.5 62.499 -24.5h14c65.333 0 103.333 33.333 114 100l5 33h188c-13.333 -90.667 -48.166 -161.667 -104.499 -213s-129.166 -77 -218.499 -77h-28
c-54 0 -102.167 10 -144.5 30s-75.5 48.833 -99.5 86.5s-36 82.834 -36 135.501c0 7.33301 1.5 23 4.5 47s7.83301 59.667 14.5 107c8 59.333 28.333 111.666 61 156.999s74.334 80.5 125.001 105.5s106 37.5 166 37.5h28c76 0 137.167 -20.333 183.5 -61zM504.999 749.999
h-128l-118 145h130l63 -77l85 77h128z" />
    <glyph glyph-name="ccaron" unicode="&#x10d;" horiz-adv-x="568" 
d="M500 466c32.667 -36.667 49.002 -78.665 49.002 -125.998c0 -12 -1 -24 -3 -36h-168c0 5.33301 0.5 11.666 1.5 18.999s1.5 12.666 1.5 15.999c0 17.333 -5.5 31.833 -16.5 43.5s-25.167 17.5 -42.5 17.5c-22.667 0 -40.834 -6.5 -54.501 -19.5
s-21.834 -29.833 -24.501 -50.5c-6 -32.667 -11.167 -65.167 -15.5 -97.5s-6.5 -52.833 -6.5 -61.5c0 -18 5.83301 -32.5 17.5 -43.5s28.167 -16.5 49.5 -16.5c25.333 0 44.833 7 58.5 21s21.834 30.333 24.501 49l4 26h158c-10.667 -68.667 -39.834 -122 -87.501 -160
s-108.167 -57 -181.5 -57c-54.667 0 -100.5 9.5 -137.5 28.5s-64.667 44.167 -83 75.5s-27.5 66 -27.5 104c0 60 12 114.5 36 163.5s59.333 87.833 106 116.5s102.667 43 168 43c83.333 0 141.333 -18.333 174 -55zM407.002 575.002h-128l-118 145h130l63 -77l85 77h128z
" />
    <glyph glyph-name="Dcaron" unicode="&#x10e;" horiz-adv-x="697" 
d="M556.5 652c39.667 -22.667 70.6699 -53.668 93.0029 -93.001s33.5 -83 33.5 -131c0 -14 -1 -28 -3 -42l-13 -86c-8.66699 -56.667 -27.834 -107.667 -57.501 -153s-68.834 -81.166 -117.501 -107.499s-104.334 -39.5 -167.001 -39.5h-309l97 686h309
c50 0 94.833 -11.333 134.5 -34zM303.003 529.999l-52.002 -371.001h77c32.667 0 58.834 9.33301 78.501 28s31.5 42.667 35.5 72l25 184c0 24.667 -8.16699 45.334 -24.5 62.001s-37.166 25 -62.499 25h-77zM432.001 749.998h-128l-118 145h130l63 -77l85 77h128z" />
    <glyph glyph-name="dcaron" unicode="&#x10f;" horiz-adv-x="639" 
d="M571 442l-6.99902 -50.999c-22.667 -154.667 -33.667 -236.334 -33 -245.001c0 -12 1.5 -21 4.5 -27s9.83301 -9 20.5 -9c11.333 0 23.666 4.33301 36.999 13l-15 -110c-14 -7.33301 -30.5 -13 -49.5 -17s-36.833 -6 -53.5 -6c-34.667 0 -63.5 4.66699 -86.5 14
s-38.5 27.666 -46.5 54.999c-20 -21.333 -40.833 -38.166 -62.5 -50.499s-49.167 -18.5 -82.5 -18.5c-55.333 0 -99 17.167 -131 51.5s-48 84.833 -48 151.5c0 70 11.167 129.667 33.5 179s51.5 86.5 87.5 111.5s74 37.5 114 37.5c62.667 0 103.667 -21 123 -63l37 262h198z
M257.501 376.001c-13.667 -13.333 -21.833 -30 -24.5 -50c-14 -98.667 -21 -150.667 -21 -156c0 -17.333 5 -31.5 15 -42.5s22.667 -16.5 38 -16.5c20.667 0 37 6.5 49 19.5s19.667 29.833 23 50.5l10 72l4 32c4.66699 29.333 7 47 7 53c0 18.667 -4.83301 33 -14.5 43
s-22.5 15 -38.5 15c-18 0 -33.833 -6.66699 -47.5 -20zM821.002 525.001l-76 -187h-94l60 165h-84l26 183h191z" />
    <glyph glyph-name="Dcroat" unicode="&#x110;" horiz-adv-x="718" 
d="M577.5 652c39.667 -22.667 70.6699 -53.668 93.0029 -93.001s33.5 -83 33.5 -131c0 -14 -1 -28 -3 -42l-13 -86c-8.66699 -56.667 -27.834 -107.667 -57.501 -153s-68.834 -81.166 -117.501 -107.499s-104.334 -39.5 -167.001 -39.5h-309l42 297h-74l13 94h74l42 295h309
c50 0 94.833 -11.333 134.5 -34zM324.003 529.999l-20.002 -139.001h77l-13 -94h-77l-19 -138h77c32.667 0 58.834 9.33301 78.501 28s31.5 42.667 35.5 72l25 184c0 24.667 -8.16699 45.334 -24.5 62.001s-37.166 25 -62.499 25h-77z" />
    <glyph glyph-name="dcroat" unicode="&#x111;" horiz-adv-x="639" 
d="M571 442l-6.99902 -50.999c-22.667 -154.667 -33.667 -236.334 -33 -245.001c0 -12 1.5 -21 4.5 -27s9.83301 -9 20.5 -9c11.333 0 23.666 4.33301 36.999 13l-15 -110c-14 -7.33301 -30.5 -13 -49.5 -17s-36.833 -6 -53.5 -6c-34.667 0 -63.5 4.66699 -86.5 14
s-38.5 27.666 -46.5 54.999c-20 -21.333 -40.833 -38.166 -62.5 -50.499s-49.167 -18.5 -82.5 -18.5c-55.333 0 -99 17.167 -131 51.5s-48 84.833 -48 151.5c0 70 11.167 129.667 33.5 179s51.5 86.5 87.5 111.5s74 37.5 114 37.5c62.667 0 103.667 -21 123 -63l19 134h-110
l12 74h108l8 54h198l-8 -54h76l-12 -74h-74zM351.001 285.001c4.66699 29.333 7.00098 47 7.00098 53c0 18.667 -4.83301 33 -14.5 43s-22.5 15 -38.5 15c-18 0 -33.833 -6.66699 -47.5 -20s-21.834 -30 -24.501 -50c-14 -98.667 -21 -150.667 -21 -156
c0 -17.333 5 -31.5 15 -42.5s22.667 -16.5 38 -16.5c20.667 0 37 6.5 49 19.5s19.667 29.833 23 50.5l10 72z" />
    <glyph glyph-name="Emacron" unicode="&#x112;" 
d="M586 528h-289l-15 -100h278l-21 -153h-278l-16 -111h286v-164h-515l97 686h515zM519 837h-318v74h318v-74z" />
    <glyph glyph-name="emacron" unicode="&#x113;" 
d="M518 469c37.333 -34.667 55.9971 -80.999 55.9971 -138.999l-2 -27c-0.666992 -10 -3.66699 -34.667 -9 -74h-333l-4 -25c-3.33301 -20.667 -4.66602 -32 -3.99902 -34c0 -18.667 6.33301 -33.167 19 -43.5s29 -15.5 49 -15.5c23.333 0 42.333 7.16699 57 21.5
s23.667 34.166 27 59.499h183c-5.33301 -38 -20.166 -72.333 -44.499 -103s-56.666 -54.834 -96.999 -72.501s-85.833 -26.5 -136.5 -26.5h-15c-48 0 -90.833 8.33301 -128.5 25s-67 40.834 -88 72.501s-31.5 69.167 -31.5 112.5c0 66 13.5 123.167 40.5 171.5
s64.333 85.333 112 111s102.167 38.5 163.5 38.5h25c70 0 123.667 -17.333 161 -52zM270.497 379.501c-15 -13.667 -23.833 -30.167 -26.5 -49.5l-2 -14h138c0 2 0.333008 5 1 9s1 8.66699 1 14c0 17.333 -5.5 31.833 -16.5 43.5s-25.167 17.5 -42.5 17.5
c-20 0 -37.5 -6.83301 -52.5 -20.5zM508.997 662.001h-318v74h318v-74z" />
    <glyph glyph-name="Edotaccent" unicode="&#x116;" 
d="M586 528h-289l-15 -100h278l-21 -153h-278l-16 -111h286v-164h-515l97 686h515zM421 894.5c10.667 -11 16.001 -24.5 16.001 -40.5c0 -20 -7.83301 -37.5 -23.5 -52.5s-33.834 -22.5 -54.501 -22.5c-16 0 -29.333 5.33301 -40 16s-16 24 -16 40
c0 20.667 7.5 38.5 22.5 53.5s32.833 22.5 53.5 22.5c17.333 0 31.333 -5.5 42 -16.5z" />
    <glyph glyph-name="edotaccent" unicode="&#x117;" 
d="M518 469c37.333 -34.667 55.9971 -80.999 55.9971 -138.999l-2 -27c-0.666992 -10 -3.66699 -34.667 -9 -74h-333l-4 -25c-3.33301 -20.667 -4.66602 -32 -3.99902 -34c0 -18.667 6.33301 -33.167 19 -43.5s29 -15.5 49 -15.5c23.333 0 42.333 7.16699 57 21.5
s23.667 34.166 27 59.499h183c-5.33301 -38 -20.166 -72.333 -44.499 -103s-56.666 -54.834 -96.999 -72.501s-85.833 -26.5 -136.5 -26.5h-15c-48 0 -90.833 8.33301 -128.5 25s-67 40.834 -88 72.501s-31.5 69.167 -31.5 112.5c0 66 13.5 123.167 40.5 171.5
s64.333 85.333 112 111s102.167 38.5 163.5 38.5h25c70 0 123.667 -17.333 161 -52zM270.497 379.501c-15 -13.667 -23.833 -30.167 -26.5 -49.5l-2 -14h138c0 2 0.333008 5 1 9s1 8.66699 1 14c0 17.333 -5.5 31.833 -16.5 43.5s-25.167 17.5 -42.5 17.5
c-20 0 -37.5 -6.83301 -52.5 -20.5zM410.997 719.501c10.667 -11 16.001 -24.5 16.001 -40.5c0 -20 -7.83301 -37.5 -23.5 -52.5s-33.834 -22.5 -54.501 -22.5c-16 0 -29.333 5.33301 -40 16s-16 24 -16 40c0 20.667 7.5 38.5 22.5 53.5s32.833 22.5 53.5 22.5
c17.333 0 31.333 -5.5 42 -16.5z" />
    <glyph glyph-name="Eogonek" unicode="&#x118;" 
d="M586 528h-289l-15 -100h278l-21 -153h-278l-16 -111h286v-164h-515l97 686h515zM469 -28.5c-10 -9 -14.999 -20.168 -14.999 -33.501c0 -9.33301 4 -16.333 12 -21s17.333 -7 28 -7c19.333 0 42.333 4.66699 69 14l7 -43c-34.667 -16 -70.667 -24 -108 -24
c-24.667 0 -45.334 4.83301 -62.001 14.5s-25 24.834 -25 45.501c0 17.333 5.83301 32.5 17.5 45.5s27.5 25.5 47.5 37.5h70c-17.333 -10 -31 -19.5 -41 -28.5z" />
    <glyph glyph-name="eogonek" unicode="&#x119;" 
d="M518 469c37.333 -34.667 56.001 -81 56.001 -139l-2 -27c-0.666992 -10 -3.66699 -34.667 -9 -74h-333l-4 -25c-3.33301 -20.667 -4.66602 -32 -3.99902 -34c0 -18.667 6.33301 -33.167 19 -43.5s29 -15.5 49 -15.5c23.333 0 42.333 7.16699 57 21.5
s23.667 34.166 27 59.499h183c-6.66699 -47.333 -27.834 -88.5 -63.501 -123.5s-81.5 -58.5 -137.5 -70.5c-15.333 -8.66699 -27.833 -17.667 -37.5 -27s-14.5 -20.333 -14.5 -33c0 -9.33301 4 -16.333 12 -21s17.333 -7 28 -7c19.333 0 42.333 4.66699 69 14l7 -43
c-34.667 -16 -70.667 -24 -108 -24c-24.667 0 -45.334 4.83301 -62.001 14.5s-25 24.834 -25 45.501c0 15.333 4.33301 28.666 13 39.999s20.667 22.333 36 33h-10c-48 0 -90.833 8.33301 -128.5 25s-67 40.834 -88 72.501s-31.5 69.167 -31.5 112.5
c0 66 13.5 123.167 40.5 171.5s64.333 85.333 112 111s102.167 38.5 163.5 38.5h25c70 0 123.667 -17.333 161 -52zM381.001 325c0.666992 4 1 8.66699 1 14c0 17.333 -5.5 31.833 -16.5 43.5s-25.167 17.5 -42.5 17.5c-20 0 -37.5 -6.83301 -52.5 -20.5
s-23.833 -30.167 -26.5 -49.5l-2 -14h138c0 2 0.333008 5 1 9z" />
    <glyph glyph-name="Ecaron" unicode="&#x11a;" 
d="M586 528h-289l-15 -100h278l-21 -153h-278l-16 -111h286v-164h-515l97 686h515zM433 750h-128l-118 145h130l63 -77l85 77h128z" />
    <glyph glyph-name="ecaron" unicode="&#x11b;" 
d="M518 469c37.333 -34.667 55.9971 -80.999 55.9971 -138.999l-2 -27c-0.666992 -10 -3.66699 -34.667 -9 -74h-333l-4 -25c-3.33301 -20.667 -4.66602 -32 -3.99902 -34c0 -18.667 6.33301 -33.167 19 -43.5s29 -15.5 49 -15.5c23.333 0 42.333 7.16699 57 21.5
s23.667 34.166 27 59.499h183c-5.33301 -38 -20.166 -72.333 -44.499 -103s-56.666 -54.834 -96.999 -72.501s-85.833 -26.5 -136.5 -26.5h-15c-48 0 -90.833 8.33301 -128.5 25s-67 40.834 -88 72.501s-31.5 69.167 -31.5 112.5c0 66 13.5 123.167 40.5 171.5
s64.333 85.333 112 111s102.167 38.5 163.5 38.5h25c70 0 123.667 -17.333 161 -52zM270.497 379.501c-15 -13.667 -23.833 -30.167 -26.5 -49.5l-2 -14h138c0 2 0.333008 5 1 9s1 8.66699 1 14c0 17.333 -5.5 31.833 -16.5 43.5s-25.167 17.5 -42.5 17.5
c-20 0 -37.5 -6.83301 -52.5 -20.5zM422.997 575.001h-128l-118 145h130l63 -77l85 77h128z" />
    <glyph glyph-name="Gbreve" unicode="&#x11e;" horiz-adv-x="699" 
d="M559.5 668.5c37 -18.333 66.334 -43.999 88.001 -76.999s32.5 -70.5 32.5 -112.5c0 -7.33301 -0.666992 -18.333 -2 -33l-1 -7h-194c0.666992 2 1 5.33301 1 10v10c0 27.333 -8 47.666 -24 60.999s-37 20 -63 20h-5c-31.333 0 -57.166 -9.33301 -77.499 -28
s-32.5 -42.667 -36.5 -72l-27 -193c-0.666992 -2 -1 -4.33301 -1 -7v-7c0 -24.667 8.16699 -45.167 24.5 -61.5s37.166 -24.5 62.499 -24.5h18c28 0 50.667 8.83301 68 26.5s28.333 42.5 33 74.5h-116l19 136h310l-33 -240c-9.33301 -54.667 -14 -102.667 -14 -144h-112
l-17 73c-28 -26.667 -58 -47.167 -90 -61.5s-71.333 -21.5 -118 -21.5h-10c-48.667 0 -91.834 11 -129.501 33s-66.667 52.333 -87 91s-30.5 82 -30.5 130c0 14.667 1 30 3 46l15 106c8 56 27.5 106.833 58.5 152.5s72.333 81.667 124 108s111.167 39.5 178.5 39.5h28
c46 0 87.5 -9.16699 124.5 -27.5zM595.501 855.001c-17.667 -19.333 -41.334 -35.333 -71.001 -48s-61.5 -19 -95.5 -19s-65.833 6.33301 -95.5 19s-53.167 28.667 -70.5 48s-26 38.333 -26 57h96c0 -4 4.5 -9 13.5 -15s20.833 -11.333 35.5 -16s30.334 -7 47.001 -7
s32.5 2.33301 47.5 7s27.167 10 36.5 16s14 11 14 15h95c0 -18.667 -8.83301 -37.667 -26.5 -57z" />
    <glyph glyph-name="gbreve" unicode="&#x11f;" 
d="M366.5 500c27 -14 48.166 -35.333 63.499 -64l79 75h70l-66 -471c-10.667 -74.667 -40.167 -131 -88.5 -169s-108.166 -57 -179.499 -57c-70.667 0 -129.667 13 -177 39s-71 68.667 -71 128h199c0 -10.667 4.66699 -20.667 14 -30s23.333 -14 42 -14
c20 0 34.167 6.5 42.5 19.5s14.166 29.833 17.499 50.5l9 75c-18.667 -20 -40.167 -35.5 -64.5 -46.5s-50.166 -16.5 -77.499 -16.5c-54 0 -94.333 18.667 -121 56s-40 84.333 -40 141c0 50 9.16699 98.333 27.5 145s46.833 85 85.5 115s86.667 45 144 45
c34 0 64.5 -7 91.5 -21zM255.499 380.5c-13.667 -13 -21.833 -29.833 -24.5 -50.5l-9 -60c-2.66699 -15.333 -4.66699 -29 -6 -41s-2 -20.667 -2 -26c0 -17.333 5 -31.5 15 -42.5s22.667 -16.5 38 -16.5c20.667 0 37.167 6.5 49.5 19.5s19.833 29.833 22.5 50.5l6 42
c7.33301 48 11 76.667 11 86c0 18.667 -4.83301 33 -14.5 43s-22.5 15 -38.5 15c-18 0 -33.833 -6.5 -47.5 -19.5zM515.5 680c-17.667 -19.333 -41.334 -35.333 -71.001 -48s-61.5 -19 -95.5 -19s-65.833 6.33301 -95.5 19s-53.167 28.667 -70.5 48s-26 38.333 -26 57h96
c0 -4 4.5 -9 13.5 -15s20.833 -11.333 35.5 -16s30.334 -7 47.001 -7s32.5 2.33301 47.5 7s27.167 10 36.5 16s14 11 14 15h95c0 -18.667 -8.83301 -37.667 -26.5 -57z" />
    <glyph glyph-name="Gcommaaccent" unicode="&#x122;" horiz-adv-x="699" 
d="M559.5 668.5c37 -18.333 66.334 -43.999 88.001 -76.999s32.5 -70.5 32.5 -112.5c0 -7.33301 -0.666992 -18.333 -2 -33l-1 -7h-194c0.666992 2 1 5.33301 1 10v10c0 27.333 -8 47.666 -24 60.999s-37 20 -63 20h-5c-31.333 0 -57.166 -9.33301 -77.499 -28
s-32.5 -42.667 -36.5 -72l-27 -193c-0.666992 -2 -1 -4.33301 -1 -7v-7c0 -24.667 8.16699 -45.167 24.5 -61.5s37.166 -24.5 62.499 -24.5h18c28 0 50.667 8.83301 68 26.5s28.333 42.5 33 74.5h-116l19 136h310l-33 -240c-9.33301 -54.667 -14 -102.667 -14 -144h-112
l-17 73c-28 -26.667 -58 -47.167 -90 -61.5s-71.333 -21.5 -118 -21.5h-10c-48.667 0 -91.834 11 -129.501 33s-66.667 52.333 -87 91s-30.5 82 -30.5 130c0 14.667 1 30 3 46l15 106c8 56 27.5 106.833 58.5 152.5s72.333 81.667 124 108s111.167 39.5 178.5 39.5h28
c46 0 87.5 -9.16699 124.5 -27.5zM425.001 -138.999l-44 -111h-94l28 79h-85l21 151h191z" />
    <glyph glyph-name="gcommaaccent" unicode="&#x123;" 
d="M366.5 500c27 -14 48.166 -35.333 63.499 -64l79 75h70l-66 -471c-10.667 -74.667 -40.167 -131 -88.5 -169s-108.166 -57 -179.499 -57c-70.667 0 -129.667 13 -177 39s-71 68.667 -71 128h199c0 -10.667 4.66699 -20.667 14 -30s23.333 -14 42 -14
c20 0 34.167 6.5 42.5 19.5s14.166 29.833 17.499 50.5l9 75c-18.667 -20 -40.167 -35.5 -64.5 -46.5s-50.166 -16.5 -77.499 -16.5c-54 0 -94.333 18.667 -121 56s-40 84.333 -40 141c0 50 9.16699 98.333 27.5 145s46.833 85 85.5 115s86.667 45 144 45
c34 0 64.5 -7 91.5 -21zM255.499 380.5c-13.667 -13 -21.833 -29.833 -24.5 -50.5l-9 -60c-2.66699 -15.333 -4.66699 -29 -6 -41s-2 -20.667 -2 -26c0 -17.333 5 -31.5 15 -42.5s22.667 -16.5 38 -16.5c20.667 0 37.167 6.5 49.5 19.5s19.833 29.833 22.5 50.5l6 42
c7.33301 48 11 76.667 11 86c0 18.667 -4.83301 33 -14.5 43s-22.5 15 -38.5 15c-18 0 -33.833 -6.5 -47.5 -19.5zM255 700l44 111h94l-28 -79h85l-21 -151h-191z" />
    <glyph glyph-name="Imacron" unicode="&#x12a;" horiz-adv-x="446" 
d="M445 539h-81l-55 -391h81l-21 -148h-374l21 148h81l55 391h-81l21 147h374zM452 837h-318v74h318v-74z" />
    <glyph glyph-name="imacron" unicode="&#x12b;" horiz-adv-x="296" 
d="M206 0h-197l71 511h197zM348 662h-318v74h318v-74z" />
    <glyph glyph-name="Iogonek" unicode="&#x12e;" horiz-adv-x="446" 
d="M445 539h-81l-55 -391h81l-21 -148h-374l21 148h81l55 391h-81l21 147h374zM310 -28.5c-10 -9 -14.999 -20.168 -14.999 -33.501c0 -9.33301 4 -16.333 12 -21s17.333 -7 28 -7c19.333 0 42.333 4.66699 69 14l7 -43c-34.667 -16 -70.667 -24 -108 -24
c-24.667 0 -45.334 4.83301 -62.001 14.5s-25 24.834 -25 45.501c0 17.333 5.83301 32.5 17.5 45.5s27.5 25.5 47.5 37.5h70c-17.333 -10 -31 -19.5 -41 -28.5z" />
    <glyph glyph-name="iogonek" unicode="&#x12f;" horiz-adv-x="296" 
d="M306 720l-20 -143h-197l20 143h197zM155 -28.5c-10 -9 -14.999 -20.168 -14.999 -33.501c0 -9.33301 4 -16.333 12 -21s17.333 -7 28 -7c19.333 0 42.333 4.66699 69 14l7 -43c-35.333 -16 -71.333 -24 -108 -24c-24.667 0 -45.334 4.83301 -62.001 14.5
s-25 24.834 -25 45.501c0 17.333 5.83301 32.5 17.5 45.5s27.5 25.5 47.5 37.5h-117l71 511h197l-71 -511h-10c-17.333 -10 -31 -19.5 -41 -28.5z" />
    <glyph glyph-name="Idotaccent" unicode="&#x130;" horiz-adv-x="446" 
d="M445 539h-81l-55 -391h81l-21 -148h-374l21 148h81l55 391h-81l21 147h374zM354 894.5c10.667 -11 16.001 -24.5 16.001 -40.5c0 -20 -7.83301 -37.5 -23.5 -52.5s-33.834 -22.5 -54.501 -22.5c-16 0 -29.333 5.33301 -40 16s-16 24 -16 40c0 20.667 7.5 38.5 22.5 53.5
s32.833 22.5 53.5 22.5c17.333 0 31.333 -5.5 42 -16.5z" />
    <glyph glyph-name="dotlessi" unicode="&#x131;" horiz-adv-x="296" 
d="M206 0h-197l71 511h197z" />
    <glyph glyph-name="Kcommaaccent" unicode="&#x136;" horiz-adv-x="684" 
d="M497 411l157 -411h-235l-84 248l-93 -96l-22 -152h-204l97 686h204l-38 -271l234 271h232zM417 -139l-44 -111h-94l28 79h-85l21 151h191z" />
    <glyph glyph-name="kcommaaccent" unicode="&#x137;" horiz-adv-x="601" 
d="M251 321l157 190h226l-212 -231l143 -280h-233l-70 145l-40 -31l-16 -114h-197l100 720h198zM376 -139l-44 -111h-94l28 79h-85l21 151h191z" />
    <glyph glyph-name="Lacute" unicode="&#x139;" horiz-adv-x="540" 
d="M252 168h245v-168h-481l97 686h212zM462 892l-146 -142h-118l112 145h151z" />
    <glyph glyph-name="lacute" unicode="&#x13a;" horiz-adv-x="297" 
d="M206 0h-197l100 720h198zM395 892l-146 -142h-118l112 145h151z" />
    <glyph glyph-name="Lcommaaccent" unicode="&#x13b;" horiz-adv-x="540" 
d="M252 168h245v-168h-481l97 686h212zM345 -139l-44 -111h-94l28 79h-85l21 151h191z" />
    <glyph glyph-name="lcommaaccent" unicode="&#x13c;" horiz-adv-x="297" 
d="M206 0h-197l100 720h198zM183 -139l-44 -111h-94l28 79h-85l21 151h191z" />
    <glyph glyph-name="Lcaron" unicode="&#x13d;" horiz-adv-x="540" 
d="M252 168h245v-168h-481l97 686h212zM586 525l-76 -187h-94l60 165h-84l26 183h191z" />
    <glyph glyph-name="lcaron" unicode="&#x13e;" horiz-adv-x="297" 
d="M206 0h-197l100 720h198zM526 525l-76 -187h-94l60 165h-84l26 183h191z" />
    <glyph glyph-name="Lslash" unicode="&#x141;" horiz-adv-x="555" 
d="M313 499l98 45l-15 -105l-97 -45l-32 -226h239v-168h-475l41 288l-70 -33l15 105l70 33l41 293h212z" />
    <glyph glyph-name="lslash" unicode="&#x142;" horiz-adv-x="346" 
d="M299 488l66 31l-15 -105l-65 -30l-54 -384h-197l39 285l-62 -30l14 105l63 29l46 331h198z" />
    <glyph glyph-name="Nacute" unicode="&#x143;" horiz-adv-x="696" 
d="M598 0h-180l-136 246c-4 5.33301 -9.66699 16 -17 32l-13 26l-43 -304h-193l97 686h176l140 -255l28 -56l44 311h194zM620 892l-146 -142h-118l112 145h151z" />
    <glyph glyph-name="nacute" unicode="&#x144;" horiz-adv-x="597" 
d="M525.5 485c25 -24 37.5039 -55.001 37.5039 -93.001c0 -13.333 -5.66699 -59 -17 -137l-10 -70l-9 -65c-8.66699 -63.333 -14.334 -103.333 -17.001 -120h-198c9.33301 72.667 18.666 137.667 27.999 195c12 84 18 129 18 135c0 14.667 -4 26.667 -12 36
s-19.333 14 -34 14c-16.667 0 -30.334 -5.66699 -41.001 -17s-17.334 -25.666 -20.001 -42.999l-45 -320h-198l72 511h149l9 -74c42.667 56 103 84 181 84c46 0 81.5 -12 106.5 -36zM561.004 716.999l-146 -142h-118l112 145h151z" />
    <glyph glyph-name="Ncommaaccent" unicode="&#x145;" horiz-adv-x="696" 
d="M598 0h-180l-136 246c-4 5.33301 -9.66699 16 -17 32l-13 26l-43 -304h-193l97 686h176l140 -255l28 -56l44 311h194zM423 -139l-44 -111h-94l28 79h-85l21 151h191z" />
    <glyph glyph-name="ncommaaccent" unicode="&#x146;" horiz-adv-x="597" 
d="M525.5 485c25 -24 37.5039 -55.001 37.5039 -93.001c0 -13.333 -5.66699 -59 -17 -137l-10 -70l-9 -65c-8.66699 -63.333 -14.334 -103.333 -17.001 -120h-198c9.33301 72.667 18.666 137.667 27.999 195c12 84 18 129 18 135c0 14.667 -4 26.667 -12 36
s-19.333 14 -34 14c-16.667 0 -30.334 -5.66699 -41.001 -17s-17.334 -25.666 -20.001 -42.999l-45 -320h-198l72 511h149l9 -74c42.667 56 103 84 181 84c46 0 81.5 -12 106.5 -36zM374.004 -139.001l-44 -111h-94l28 79h-85l21 151h191z" />
    <glyph glyph-name="Ncaron" unicode="&#x147;" horiz-adv-x="696" 
d="M598 0h-180l-136 246c-4 5.33301 -9.66699 16 -17 32l-13 26l-43 -304h-193l97 686h176l140 -255l28 -56l44 311h194zM511 750h-128l-118 145h130l63 -77l85 77h128z" />
    <glyph glyph-name="ncaron" unicode="&#x148;" horiz-adv-x="597" 
d="M525.5 485c25 -24 37.5039 -55.001 37.5039 -93.001c0 -13.333 -5.66699 -59 -17 -137l-10 -70l-9 -65c-8.66699 -63.333 -14.334 -103.333 -17.001 -120h-198c9.33301 72.667 18.666 137.667 27.999 195c12 84 18 129 18 135c0 14.667 -4 26.667 -12 36
s-19.333 14 -34 14c-16.667 0 -30.334 -5.66699 -41.001 -17s-17.334 -25.666 -20.001 -42.999l-45 -320h-198l72 511h149l9 -74c42.667 56 103 84 181 84c46 0 81.5 -12 106.5 -36zM452.004 574.999h-128l-118 145h130l63 -77l85 77h128z" />
    <glyph glyph-name="Omacron" unicode="&#x14c;" horiz-adv-x="719" 
d="M578.5 660c39.667 -22.667 70.666 -53.6709 92.999 -93.0039s33.5 -83 33.5 -131c0 -9.33301 -0.5 -18.166 -1.5 -26.499s-2.5 -19.166 -4.5 -32.499l-12 -87c-8 -56 -27.333 -106.667 -58 -152s-70.5 -81.333 -119.5 -108s-103.833 -40 -164.5 -40h-56
c-50 0 -94.833 11.333 -134.5 34s-70.667 53.667 -93 93s-33.5 83 -33.5 131c0 8.66699 0.5 17.834 1.5 27.501s2.33301 20 4 31s2.83398 20.167 3.50098 27.5c2 9.33301 3.66699 19 5 29l4 31c8 55.333 27.333 105.833 58 151.5s70.5 81.834 119.5 108.501
s103.833 40 164.5 40h56c50 0 94.833 -11.333 134.5 -34zM391.999 539.996c-32.667 0 -58.834 -9.33398 -78.501 -28.001s-31.5 -42.667 -35.5 -72l-27 -193c-0.666992 -1.33301 -1 -3.66602 -1 -6.99902v-7c0 -24.667 8.16699 -45.167 24.5 -61.5
s37.166 -24.5 62.499 -24.5h5c32.667 0 58.834 9.33301 78.501 28s31.5 42.667 35.5 72l27 193c0.666992 2 1 6.66699 1 14c0 24 -8.16699 44.333 -24.5 61s-37.166 25 -62.499 25h-5zM598.999 836.995h-318v74h318v-74z" />
    <glyph glyph-name="omacron" unicode="&#x14d;" horiz-adv-x="613" 
d="M522.5 462.5c43 -39 64.5 -91.5 64.5 -157.5c0 -60 -13 -114 -39 -162s-62.333 -85.5 -109 -112.5s-99.667 -40.5 -159 -40.5h-15c-80 0 -141.5 19.5 -184.5 58.5s-64.5 91.167 -64.5 156.5c0 52.667 11.333 103.167 34 151.5s57.167 87.833 103.5 118.5
s102.833 46 169.5 46h17c78.667 0 139.5 -19.5 182.5 -58.5zM270 380c-14.667 -13.333 -23.665 -30.001 -26.998 -50.001c-6 -36.667 -11 -69.167 -15 -97.5s-6.33301 -48.833 -7 -61.5c0 -17.333 5.66699 -31.666 17 -42.999s25.666 -17 42.999 -17
c20.667 0 38.167 6.66699 52.5 20s23.166 30 26.499 50l11 73l11 85c0 16 -5.5 30.167 -16.5 42.5s-25.5 18.5 -43.5 18.5c-20 0 -37.333 -6.66699 -52 -20zM526.002 661.999h-318v74h318v-74z" />
    <glyph glyph-name="Ohungarumlaut" unicode="&#x150;" horiz-adv-x="719" 
d="M578.5 660c39.667 -22.667 70.666 -53.6709 92.999 -93.0039s33.5 -83 33.5 -131c0 -9.33301 -0.5 -18.166 -1.5 -26.499s-2.5 -19.166 -4.5 -32.499l-12 -87c-8 -56 -27.333 -106.667 -58 -152s-70.5 -81.333 -119.5 -108s-103.833 -40 -164.5 -40h-56
c-50 0 -94.833 11.333 -134.5 34s-70.667 53.667 -93 93s-33.5 83 -33.5 131c0 8.66699 0.5 17.834 1.5 27.501s2.33301 20 4 31s2.83398 20.167 3.50098 27.5c2 9.33301 3.66699 19 5 29l4 31c8 55.333 27.333 105.833 58 151.5s70.5 81.834 119.5 108.501
s103.833 40 164.5 40h56c50 0 94.833 -11.333 134.5 -34zM391.999 539.996c-32.667 0 -58.834 -9.33398 -78.501 -28.001s-31.5 -42.667 -35.5 -72l-27 -193c-0.666992 -1.33301 -1 -3.66602 -1 -6.99902v-7c0 -24.667 8.16699 -45.167 24.5 -61.5
s37.166 -24.5 62.499 -24.5h5c32.667 0 58.834 9.33301 78.501 28s31.5 42.667 35.5 72l27 193c0.666992 2 1 6.66699 1 14c0 24 -8.16699 44.333 -24.5 61s-37.166 25 -62.499 25h-5zM517.999 891.995l-146 -142h-118l112 145h151zM744.999 891.995l-146 -142h-118l112 145
h151z" />
    <glyph glyph-name="ohungarumlaut" unicode="&#x151;" horiz-adv-x="613" 
d="M522.5 462.5c43 -39 64.5 -91.5 64.5 -157.5c0 -60 -13 -114 -39 -162s-62.333 -85.5 -109 -112.5s-99.667 -40.5 -159 -40.5h-15c-80 0 -141.5 19.5 -184.5 58.5s-64.5 91.167 -64.5 156.5c0 52.667 11.333 103.167 34 151.5s57.167 87.833 103.5 118.5
s102.833 46 169.5 46h17c78.667 0 139.5 -19.5 182.5 -58.5zM270 380c-14.667 -13.333 -23.665 -30.001 -26.998 -50.001c-6 -36.667 -11 -69.167 -15 -97.5s-6.33301 -48.833 -7 -61.5c0 -17.333 5.66699 -31.666 17 -42.999s25.666 -17 42.999 -17
c20.667 0 38.167 6.66699 52.5 20s23.166 30 26.499 50l11 73l11 85c0 16 -5.5 30.167 -16.5 42.5s-25.5 18.5 -43.5 18.5c-20 0 -37.333 -6.66699 -52 -20zM445.002 716.999l-146 -142h-118l112 145h151zM672.002 716.999l-146 -142h-118l112 145h151z" />
    <glyph glyph-name="OE" unicode="&#x152;" horiz-adv-x="1004" 
d="M990 528l-289 -0.00292969l-15 -100h278l-21 -153h-278l-16 -111h286v-164h-646c-50 0 -94.833 10.833 -134.5 32.5s-70.667 51.334 -93 89.001s-33.5 79.834 -33.5 126.501c0.666992 14 2.16699 30.5 4.5 49.5s6.83301 51.167 13.5 96.5c8 54 27.333 103.333 58 148
s70.667 79.834 120 105.501s104 38.5 164 38.5h644zM392 531.997c-32.667 0 -58.667 -9.16699 -78 -27.5s-31.333 -42.5 -36 -72.5l-27 -175c-0.666992 -2 -1 -6.66699 -1 -14c0 -24.667 8.16699 -45.167 24.5 -61.5s37.166 -24.5 62.499 -24.5h5
c32.667 0 58.667 9.16699 78 27.5s31.333 42.5 36 72.5l27 175c0.666992 2 1 6.66699 1 14c0 24.667 -8.16699 45.167 -24.5 61.5s-37.166 24.5 -62.499 24.5h-5z" />
    <glyph glyph-name="oe" unicode="&#x153;" horiz-adv-x="943" 
d="M861 469c37.333 -34.667 55.9961 -80.998 55.9961 -138.998c0 -4.66699 -0.333008 -8 -1 -10l-1 -17c-0.666992 -10 -3.66699 -34.667 -9 -74h-333l-4 -25c-3.33301 -20.667 -4.66602 -32 -3.99902 -34c0 -18.667 6.33301 -33.167 19 -43.5s29 -15.5 49 -15.5
c23.333 0 42.333 7.16699 57 21.5s23.667 34.166 27 59.499h183c-5.33301 -38 -20.166 -72.333 -44.499 -103s-56.666 -54.834 -96.999 -72.501s-85.833 -26.5 -136.5 -26.5h-15c-66 0 -120.333 14.333 -163 43c-50 -28.667 -104.667 -43 -164 -43h-15
c-80 0 -141.5 19.5 -184.5 58.5s-64.5 91.167 -64.5 156.5c0 52.667 11.333 103.167 34 151.5s57.167 87.833 103.5 118.5s102.833 46 169.5 46h17c64.667 0 118.667 -14.333 162 -43c48.667 28.667 106.334 43 173.001 43h25c70 0 123.667 -17.333 161 -52z
M269.996 380.002c-14.667 -13.333 -23.665 -30.001 -26.998 -50.001c-6 -36.667 -11 -69.167 -15 -97.5s-6.33301 -48.833 -7 -61.5c0 -17.333 5.66699 -31.666 17 -42.999s25.666 -17 42.999 -17c20.667 0 38.167 6.66699 52.5 20s23.166 30 26.499 50l11 73l11 85
c0 16 -5.5 30.167 -16.5 42.5s-25.5 18.5 -43.5 18.5c-20 0 -37.333 -6.66699 -52 -20zM613.498 379.501c-15 -13.667 -23.833 -30.167 -26.5 -49.5l-2 -14h138c0 2 0.333008 5 1 9s1 8.66699 1 14c0 17.333 -5.5 31.833 -16.5 43.5s-25.167 17.5 -42.5 17.5
c-20 0 -37.5 -6.83301 -52.5 -20.5z" />
    <glyph glyph-name="Racute" unicode="&#x154;" horiz-adv-x="682" 
d="M581.5 667.5c25.667 -12.333 45.999 -29.665 60.999 -51.998s22.5 -48.166 22.5 -77.499c0 -32 -6.66699 -61.167 -20 -87.5s-31.166 -47.833 -53.499 -64.5s-46.833 -27.334 -73.5 -32.001l-1 -5c30 -9.33301 52.167 -25.833 66.5 -49.5s21.5 -52.5 21.5 -86.5
c0 -8.66699 -0.333008 -16.334 -1 -23.001s-1.33398 -12.334 -2.00098 -17.001c-2.66699 -21.333 -4 -38.333 -4 -51c0 -41.333 12.667 -65.333 38 -72l-6 -41c-32.667 -12.667 -73.334 -19 -122.001 -19c-41.333 0 -72.666 7.66699 -93.999 23s-32 40.333 -32 75
c0 8 1.33301 22 4 42c2.66699 21.333 4 37.666 4 48.999c0 26.667 -5.5 47.834 -16.5 63.501s-30.167 23.5 -57.5 23.5h-58l-37 -266h-205l96 686h385c30.667 0 58.834 -6.16699 84.501 -18.5zM294.999 529.001l-15 -110h106c16 0 29 4.66699 39 14s16 21.333 18 36l1 19
c0.666992 11.333 -3.5 21 -12.5 29s-19.167 12 -30.5 12h-106zM532.999 892.001l-146 -142h-118l112 145h151z" />
    <glyph glyph-name="racute" unicode="&#x155;" horiz-adv-x="504" 
d="M476.5 491.5c21 -19.667 31.501 -46.833 31.501 -81.5c0 -12 -4 -38 -12 -78c-0.666992 -7.33301 -2.33398 -16.666 -5.00098 -27.999h-162c0 6.66699 0.5 12.667 1.5 18s1.5 10 1.5 14c0 28 -11.667 42 -35 42c-13.333 0 -24.5 -4.66699 -33.5 -14
s-14.5 -21.333 -16.5 -36l-46 -328h-193l72 511h148l11 -74c4 7.33301 12.833 17.666 26.5 30.999s31 25.5 52 36.5s43.833 16.5 68.5 16.5c39.333 0 69.5 -9.83301 90.5 -29.5zM404.001 717.001l-146 -142h-118l112 145h151z" />
    <glyph glyph-name="Rcommaaccent" unicode="&#x156;" horiz-adv-x="682" 
d="M581.5 667.5c25.667 -12.333 45.999 -29.665 60.999 -51.998s22.5 -48.166 22.5 -77.499c0 -32 -6.66699 -61.167 -20 -87.5s-31.166 -47.833 -53.499 -64.5s-46.833 -27.334 -73.5 -32.001l-1 -5c30 -9.33301 52.167 -25.833 66.5 -49.5s21.5 -52.5 21.5 -86.5
c0 -8.66699 -0.333008 -16.334 -1 -23.001s-1.33398 -12.334 -2.00098 -17.001c-2.66699 -21.333 -4 -38.333 -4 -51c0 -41.333 12.667 -65.333 38 -72l-6 -41c-32.667 -12.667 -73.334 -19 -122.001 -19c-41.333 0 -72.666 7.66699 -93.999 23s-32 40.333 -32 75
c0 8 1.33301 22 4 42c2.66699 21.333 4 37.666 4 48.999c0 26.667 -5.5 47.834 -16.5 63.501s-30.167 23.5 -57.5 23.5h-58l-37 -266h-205l96 686h385c30.667 0 58.834 -6.16699 84.501 -18.5zM294.999 529.001l-15 -110h106c16 0 29 4.66699 39 14s16 21.333 18 36l1 19
c0.666992 11.333 -3.5 21 -12.5 29s-19.167 12 -30.5 12h-106zM415.999 -138.999l-44 -111h-94l28 79h-85l21 151h191z" />
    <glyph glyph-name="rcommaaccent" unicode="&#x157;" horiz-adv-x="504" 
d="M476.5 491.5c21 -19.667 31.501 -46.833 31.501 -81.5c0 -12 -4 -38 -12 -78c-0.666992 -7.33301 -2.33398 -16.666 -5.00098 -27.999h-162c0 6.66699 0.5 12.667 1.5 18s1.5 10 1.5 14c0 28 -11.667 42 -35 42c-13.333 0 -24.5 -4.66699 -33.5 -14
s-14.5 -21.333 -16.5 -36l-46 -328h-193l72 511h148l11 -74c4 7.33301 12.833 17.666 26.5 30.999s31 25.5 52 36.5s43.833 16.5 68.5 16.5c39.333 0 69.5 -9.83301 90.5 -29.5zM180.001 -138.999l-44 -111h-94l28 79h-85l21 151h191z" />
    <glyph glyph-name="Rcaron" unicode="&#x158;" horiz-adv-x="682" 
d="M581.5 667.5c25.667 -12.333 45.999 -29.665 60.999 -51.998s22.5 -48.166 22.5 -77.499c0 -32 -6.66699 -61.167 -20 -87.5s-31.166 -47.833 -53.499 -64.5s-46.833 -27.334 -73.5 -32.001l-1 -5c30 -9.33301 52.167 -25.833 66.5 -49.5s21.5 -52.5 21.5 -86.5
c0 -8.66699 -0.333008 -16.334 -1 -23.001s-1.33398 -12.334 -2.00098 -17.001c-2.66699 -21.333 -4 -38.333 -4 -51c0 -41.333 12.667 -65.333 38 -72l-6 -41c-32.667 -12.667 -73.334 -19 -122.001 -19c-41.333 0 -72.666 7.66699 -93.999 23s-32 40.333 -32 75
c0 8 1.33301 22 4 42c2.66699 21.333 4 37.666 4 48.999c0 26.667 -5.5 47.834 -16.5 63.501s-30.167 23.5 -57.5 23.5h-58l-37 -266h-205l96 686h385c30.667 0 58.834 -6.16699 84.501 -18.5zM294.999 529.001l-15 -110h106c16 0 29 4.66699 39 14s16 21.333 18 36l1 19
c0.666992 11.333 -3.5 21 -12.5 29s-19.167 12 -30.5 12h-106zM423.999 750.001h-128l-118 145h130l63 -77l85 77h128z" />
    <glyph glyph-name="rcaron" unicode="&#x159;" horiz-adv-x="504" 
d="M476.5 491.5c21 -19.667 31.501 -46.833 31.501 -81.5c0 -12 -4 -38 -12 -78c-0.666992 -7.33301 -2.33398 -16.666 -5.00098 -27.999h-162c0 6.66699 0.5 12.667 1.5 18s1.5 10 1.5 14c0 28 -11.667 42 -35 42c-13.333 0 -24.5 -4.66699 -33.5 -14
s-14.5 -21.333 -16.5 -36l-46 -328h-193l72 511h148l11 -74c4 7.33301 12.833 17.666 26.5 30.999s31 25.5 52 36.5s43.833 16.5 68.5 16.5c39.333 0 69.5 -9.83301 90.5 -29.5zM295.001 575.001h-128l-118 145h130l63 -77l85 77h128z" />
    <glyph glyph-name="Sacute" unicode="&#x15a;" horiz-adv-x="651" 
d="M570 651c46.667 -30 69.9971 -74.668 69.9971 -134.001c0 -15.333 -1.33301 -29.666 -4 -42.999h-192l1 19c0.666992 14 -5.5 26 -18.5 36s-31.5 15 -55.5 15c-29.333 0 -51.666 -4.33301 -66.999 -13s-23 -20 -23 -34c0 -15.333 8.83301 -26.833 26.5 -34.5
s47.167 -16.5 88.5 -26.5c44.667 -9.33301 81.834 -19.5 111.501 -30.5s55.167 -28.167 76.5 -51.5s32 -54.333 32 -93c0 -76 -26 -140.167 -78 -192.5s-139.333 -78.5 -262 -78.5c-76 0 -139 15.833 -189 47.5s-75 78.167 -75 139.5c0 12.667 2 31.667 6 57h194
c-2.66699 -6 -4 -13.333 -4 -22c0 -18 6.66699 -32.667 20 -44s35 -17 65 -17c67.333 0 101 16 101 48c0 14.667 -8.5 25.667 -25.5 33s-44.5 15.333 -82.5 24c-44.667 9.33301 -82 19.833 -112 31.5s-56 30 -78 55s-33 58.5 -33 100.5c0 81.333 29.833 143.833 89.5 187.5
s138.167 65.5 235.5 65.5c74.667 0 135.334 -15 182.001 -45zM557.997 891.999l-146 -142h-118l112 145h151z" />
    <glyph glyph-name="sacute" unicode="&#x15b;" horiz-adv-x="559" 
d="M471.5 489c42.333 -21.333 63.501 -51.999 63.501 -91.999c0 -11.333 -1.16699 -20.5 -3.5 -27.5s-3.5 -10.833 -3.5 -11.5h-164v5c0 14.667 -6.33301 25 -19 31s-27.667 9 -45 9c-52 0 -78 -10.667 -78 -32c0 -10.667 7.33301 -18.167 22 -22.5s38 -8.5 70 -12.5
c40 -4 73.667 -9.5 101 -16.5s51 -20 71 -39s30 -46.167 30 -81.5c0 -62.667 -22.333 -113.167 -67 -151.5s-114.334 -57.5 -209.001 -57.5h-10c-73.333 0 -129.833 11.167 -169.5 33.5s-59.5 56.833 -59.5 103.5c0 16 1.33301 29.333 4 40h162
c-0.666992 -0.666992 -1 -2 -1 -4v-7c0 -16 8.16699 -27.5 24.5 -34.5s34.5 -10.5 54.5 -10.5c20.667 0 40.834 2.16699 60.501 6.5s29.5 13.5 29.5 27.5c0 11.333 -7.33301 19.333 -22 24s-38.667 9.66699 -72 15c-39.333 5.33301 -72.333 11.666 -99 18.999
s-49.667 20.5 -69 39.5s-29 45.5 -29 79.5c0 44.667 13.333 82 40 112s60.667 52 102 66s83.666 21 126.999 21h8c58 0 108.167 -10.667 150.5 -32zM502.001 717.001l-146 -142h-118l112 145h151z" />
    <glyph glyph-name="Scedilla" unicode="&#x15e;" horiz-adv-x="651" 
d="M570 651c46.667 -30 69.9971 -74.668 69.9971 -134.001c0 -15.333 -1.33301 -29.666 -4 -42.999h-192l1 19c0.666992 14 -5.5 26 -18.5 36s-31.5 15 -55.5 15c-29.333 0 -51.666 -4.33301 -66.999 -13s-23 -20 -23 -34c0 -15.333 8.83301 -26.833 26.5 -34.5
s47.167 -16.5 88.5 -26.5c44.667 -9.33301 81.834 -19.5 111.501 -30.5s55.167 -28.167 76.5 -51.5s32 -54.333 32 -93c0 -76 -26 -140.167 -78 -192.5s-139.333 -78.5 -262 -78.5c-76 0 -139 15.833 -189 47.5s-75 78.167 -75 139.5c0 12.667 2 31.667 6 57h194
c-2.66699 -6 -4 -13.333 -4 -22c0 -18 6.66699 -32.667 20 -44s35 -17 65 -17c67.333 0 101 16 101 48c0 14.667 -8.5 25.667 -25.5 33s-44.5 15.333 -82.5 24c-44.667 9.33301 -82 19.833 -112 31.5s-56 30 -78 55s-33 58.5 -33 100.5c0 81.333 29.833 143.833 89.5 187.5
s138.167 65.5 235.5 65.5c74.667 0 135.334 -15 182.001 -45zM420.997 -34.001c20.667 -11.333 30.999 -30.666 30.999 -57.999v-8c0 -35.333 -14.167 -60.333 -42.5 -75s-57.833 -22 -88.5 -22c-24.667 0 -47.667 3.16699 -69 9.5s-38.666 15.166 -51.999 26.499l40 54
c6 -8 15.833 -15.333 29.5 -22s30.5 -10 50.5 -10c30 0 45 13 45 39c0 16 -11.333 24 -34 24h-18l8 59h21c32 0 58.333 -5.66699 79 -17z" />
    <glyph glyph-name="scedilla" unicode="&#x15f;" horiz-adv-x="559" 
d="M471.5 489c42.333 -21.333 63.501 -51.999 63.501 -91.999c0 -11.333 -1.16699 -20.5 -3.5 -27.5s-3.5 -10.833 -3.5 -11.5h-164v5c0 14.667 -6.33301 25 -19 31s-27.667 9 -45 9c-52 0 -78 -10.667 -78 -32c0 -10.667 7.33301 -18.167 22 -22.5s38 -8.5 70 -12.5
c40 -4 73.667 -9.5 101 -16.5s51 -20 71 -39s30 -46.167 30 -81.5c0 -62.667 -22.333 -113.167 -67 -151.5s-114.334 -57.5 -209.001 -57.5h-10c-73.333 0 -129.833 11.167 -169.5 33.5s-59.5 56.833 -59.5 103.5c0 16 1.33301 29.333 4 40h162
c-0.666992 -0.666992 -1 -2 -1 -4v-7c0 -16 8.16699 -27.5 24.5 -34.5s34.5 -10.5 54.5 -10.5c20.667 0 40.834 2.16699 60.501 6.5s29.5 13.5 29.5 27.5c0 11.333 -7.33301 19.333 -22 24s-38.667 9.66699 -72 15c-39.333 5.33301 -72.333 11.666 -99 18.999
s-49.667 20.5 -69 39.5s-29 45.5 -29 79.5c0 44.667 13.333 82 40 112s60.667 52 102 66s83.666 21 126.999 21h8c58 0 108.167 -10.667 150.5 -32zM375.001 -33.999c20.667 -11.333 30.999 -30.666 30.999 -57.999v-8c0 -35.333 -14.167 -60.333 -42.5 -75
s-57.833 -22 -88.5 -22c-24.667 0 -47.667 3.16699 -69 9.5s-38.666 15.166 -51.999 26.499l40 54c6 -8 15.833 -15.333 29.5 -22s30.5 -10 50.5 -10c30 0 45 13 45 39c0 16 -11.333 24 -34 24h-18l8 59h21c32 0 58.333 -5.66699 79 -17z" />
    <glyph glyph-name="Scaron" unicode="&#x160;" horiz-adv-x="651" 
d="M450 750h-128l-118 145h130l63 -77l85 77h128zM570 651c46.667 -30 69.9971 -74.668 69.9971 -134.001c0 -15.333 -1.33301 -29.666 -4 -42.999h-192l1 19c0.666992 14 -5.5 26 -18.5 36s-31.5 15 -55.5 15c-29.333 0 -51.666 -4.33301 -66.999 -13s-23 -20 -23 -34
c0 -15.333 8.83301 -26.833 26.5 -34.5s47.167 -16.5 88.5 -26.5c44.667 -9.33301 81.834 -19.5 111.501 -30.5s55.167 -28.167 76.5 -51.5s32 -54.333 32 -93c0 -76 -26 -140.167 -78 -192.5s-139.333 -78.5 -262 -78.5c-76 0 -139 15.833 -189 47.5s-75 78.167 -75 139.5
c0 12.667 2 31.667 6 57h194c-2.66699 -6 -4 -13.333 -4 -22c0 -18 6.66699 -32.667 20 -44s35 -17 65 -17c67.333 0 101 16 101 48c0 14.667 -8.5 25.667 -25.5 33s-44.5 15.333 -82.5 24c-44.667 9.33301 -82 19.833 -112 31.5s-56 30 -78 55s-33 58.5 -33 100.5
c0 81.333 29.833 143.833 89.5 187.5s138.167 65.5 235.5 65.5c74.667 0 135.334 -15 182.001 -45z" />
    <glyph glyph-name="scaron" unicode="&#x161;" horiz-adv-x="559" 
d="M389 575h-128l-118 145h130l63 -77l85 77h128zM471.5 489c42.333 -21.333 63.501 -51.999 63.501 -91.999c0 -11.333 -1.16699 -20.5 -3.5 -27.5s-3.5 -10.833 -3.5 -11.5h-164v5c0 14.667 -6.33301 25 -19 31s-27.667 9 -45 9c-52 0 -78 -10.667 -78 -32
c0 -10.667 7.33301 -18.167 22 -22.5s38 -8.5 70 -12.5c40 -4 73.667 -9.5 101 -16.5s51 -20 71 -39s30 -46.167 30 -81.5c0 -62.667 -22.333 -113.167 -67 -151.5s-114.334 -57.5 -209.001 -57.5h-10c-73.333 0 -129.833 11.167 -169.5 33.5s-59.5 56.833 -59.5 103.5
c0 16 1.33301 29.333 4 40h162c-0.666992 -0.666992 -1 -2 -1 -4v-7c0 -16 8.16699 -27.5 24.5 -34.5s34.5 -10.5 54.5 -10.5c20.667 0 40.834 2.16699 60.501 6.5s29.5 13.5 29.5 27.5c0 11.333 -7.33301 19.333 -22 24s-38.667 9.66699 -72 15
c-39.333 5.33301 -72.333 11.666 -99 18.999s-49.667 20.5 -69 39.5s-29 45.5 -29 79.5c0 44.667 13.333 82 40 112s60.667 52 102 66s83.666 21 126.999 21h8c58 0 108.167 -10.667 150.5 -32z" />
    <glyph glyph-name="uni0162" unicode="&#x162;" horiz-adv-x="585" 
d="M603 521h-174l-74 -521h-208l74 521h-174l23 165h556zM346 -34c20.667 -11.333 30.999 -30.666 30.999 -57.999v-8c0 -35.333 -14.167 -60.333 -42.5 -75s-57.833 -22 -88.5 -22c-24.667 0 -47.667 3.16699 -69 9.5s-38.666 15.166 -51.999 26.499l40 54
c6 -8 15.833 -15.333 29.5 -22s30.5 -10 50.5 -10c30 0 45 13 45 39c0 16 -11.333 24 -34 24h-18l8 59h21c32 0 58.333 -5.66699 79 -17z" />
    <glyph glyph-name="uni0163" unicode="&#x163;" horiz-adv-x="419" 
d="M308 511l119.999 0.000976562l-20 -142h-120c-19.333 -130.667 -29 -200 -29 -208c0 -20 4.16699 -33.333 12.5 -40s20.833 -10 37.5 -10c8 0 18.5 1.16699 31.5 3.5s23.5 5.16602 31.5 8.49902l-16 -112c-16 -6 -38.167 -11.167 -66.5 -15.5s-51.833 -6.5 -70.5 -6.5
c-53.333 0 -94.166 8.66699 -122.499 26s-42.5 46.333 -42.5 87c0 8 0.666992 18.167 2 30.5s4.33301 32.833 9 61.5l25 175h-56l20 142h56l23 163h209zM304.999 -33.999c20.667 -11.333 30.999 -30.666 30.999 -57.999v-8c0 -35.333 -14.167 -60.333 -42.5 -75
s-57.833 -22 -88.5 -22c-24.667 0 -47.667 3.16699 -69 9.5s-38.666 15.166 -51.999 26.499l40 54c6 -8 15.833 -15.333 29.5 -22s30.5 -10 50.5 -10c30 0 45 13 45 39c0 16 -11.333 24 -34 24h-18l8 59h21c32 0 58.333 -5.66699 79 -17z" />
    <glyph glyph-name="Tcaron" unicode="&#x164;" horiz-adv-x="585" 
d="M603 521h-174l-74 -521h-208l74 521h-174l23 165h556zM426 750h-128l-118 145h130l63 -77l85 77h128z" />
    <glyph glyph-name="tcaron" unicode="&#x165;" horiz-adv-x="419" 
d="M308 511l119.999 0.000976562l-20 -142h-120c-19.333 -130.667 -29 -200 -29 -208c0 -20 4.16699 -33.333 12.5 -40s20.833 -10 37.5 -10c8 0 18.5 1.16699 31.5 3.5s23.5 5.16602 31.5 8.49902l-16 -112c-16 -6 -38.167 -11.167 -66.5 -15.5s-51.833 -6.5 -70.5 -6.5
c-53.333 0 -94.166 8.66699 -122.499 26s-42.5 46.333 -42.5 87c0 8 0.666992 18.167 2 30.5s4.33301 32.833 9 61.5l25 175h-56l20 142h56l23 163h209zM656.999 525.001l-76 -187h-94l60 165h-84l26 183h191z" />
    <glyph glyph-name="Umacron" unicode="&#x16a;" horiz-adv-x="687" 
d="M625 218c-10.667 -71.333 -41.667 -127.169 -93 -167.502s-121 -60.5 -209 -60.5h-43c-74 0 -132.667 17.333 -176 52s-65 81.334 -65 140.001c0 12 1 24 3 36l65 468h211l-65 -465c-0.666992 -2 -1 -5.66699 -1 -11c0 -19.333 6.83301 -34.833 20.5 -46.5
s30.834 -17.5 51.501 -17.5c26.667 0 47.667 6.83301 63 20.5s24.666 31.834 27.999 54.501l65 465h210zM573 836.997h-318v74h318v-74z" />
    <glyph glyph-name="umacron" unicode="&#x16b;" horiz-adv-x="627" 
d="M527 140c0 -9.33301 2.66504 -16.502 7.99805 -21.502s11.666 -7.5 18.999 -7.5c10 0 22 3 36 9l-15 -107c-24.667 -15.333 -59.334 -23 -104.001 -23c-42.667 0 -74.5 6.83301 -95.5 20.5s-34.5 33.834 -40.5 60.501c-15.333 -19.333 -36.666 -37.666 -63.999 -54.999
s-61.666 -26 -102.999 -26c-46 0 -81.5 12 -106.5 36s-37.5 55 -37.5 93c0 18 5.33301 65.833 16 143.5s23 160.5 37 248.5h198l-23 -159c-6 -35.333 -11.167 -69.666 -15.5 -102.999s-6.83301 -56 -7.5 -68c0 -14.667 4 -26.667 12 -36s19.333 -14 34 -14
c16.667 0 30.334 5.66699 41.001 17s17.334 25.666 20.001 42.999l45 320h198c-34.667 -233.333 -52 -357 -52 -371zM496.998 661.998h-318v74h318v-74z" />
    <glyph glyph-name="Uring" unicode="&#x16e;" horiz-adv-x="687" 
d="M625 218c-10.667 -71.333 -41.667 -127.169 -93 -167.502s-121 -60.5 -209 -60.5h-43c-74 0 -132.667 17.333 -176 52s-65 81.334 -65 140.001c0 12 1 24 3 36l65 468h211l-65 -465c-0.666992 -2 -1 -5.66699 -1 -11c0 -19.333 6.83301 -34.833 20.5 -46.5
s30.834 -17.5 51.501 -17.5c26.667 0 47.667 6.83301 63 20.5s24.666 31.834 27.999 54.501l65 465h210zM481.5 896.497c16.333 -16.333 24.502 -36.833 24.502 -61.5c0 -32 -11.333 -59.167 -34 -81.5s-50 -33.5 -82 -33.5c-25.333 0 -46.333 8.16699 -63 24.5
s-25 37.166 -25 62.499c0 30.667 11.667 57.334 35 80.001s50.666 34 81.999 34c25.333 0 46.166 -8.16699 62.499 -24.5zM380.502 843.497c-7.66699 -7.66699 -11.5 -17.167 -11.5 -28.5c0 -8.66699 2.83301 -15.834 8.5 -21.501s13.167 -8.5 22.5 -8.5
c10.667 0 20 3.33301 28 10s12 16.334 12 29.001c0 9.33301 -2.83301 16.833 -8.5 22.5s-13.167 8.5 -22.5 8.5c-11.333 0 -20.833 -3.83301 -28.5 -11.5z" />
    <glyph glyph-name="uring" unicode="&#x16f;" horiz-adv-x="627" 
d="M527 140c0 -9.33301 2.66504 -16.502 7.99805 -21.502s11.666 -7.5 18.999 -7.5c10 0 22 3 36 9l-15 -107c-24.667 -15.333 -59.334 -23 -104.001 -23c-42.667 0 -74.5 6.83301 -95.5 20.5s-34.5 33.834 -40.5 60.501c-15.333 -19.333 -36.666 -37.666 -63.999 -54.999
s-61.666 -26 -102.999 -26c-46 0 -81.5 12 -106.5 36s-37.5 55 -37.5 93c0 18 5.33301 65.833 16 143.5s23 160.5 37 248.5h198l-23 -159c-6 -35.333 -11.167 -69.666 -15.5 -102.999s-6.83301 -56 -7.5 -68c0 -14.667 4 -26.667 12 -36s19.333 -14 34 -14
c16.667 0 30.334 5.66699 41.001 17s17.334 25.666 20.001 42.999l45 320h198c-34.667 -233.333 -52 -357 -52 -371zM405.498 721.498c16.333 -16.333 24.502 -36.833 24.502 -61.5c0 -32 -11.333 -59.167 -34 -81.5s-50 -33.5 -82 -33.5
c-25.333 0 -46.333 8.16699 -63 24.5s-25 37.166 -25 62.499c0 30.667 11.667 57.334 35 80.001s50.666 34 81.999 34c25.333 0 46.166 -8.16699 62.499 -24.5zM304.5 668.498c-7.66699 -7.66699 -11.5 -17.167 -11.5 -28.5c0 -8.66699 2.83301 -15.834 8.5 -21.501
s13.167 -8.5 22.5 -8.5c10.667 0 20 3.33301 28 10s12 16.334 12 29.001c0 9.33301 -2.83301 16.833 -8.5 22.5s-13.167 8.5 -22.5 8.5c-11.333 0 -20.833 -3.83301 -28.5 -11.5z" />
    <glyph glyph-name="Uhungarumlaut" unicode="&#x170;" horiz-adv-x="687" 
d="M625 218c-10.667 -71.333 -41.667 -127.169 -93 -167.502s-121 -60.5 -209 -60.5h-43c-74 0 -132.667 17.333 -176 52s-65 81.334 -65 140.001c0 12 1 24 3 36l65 468h211l-65 -465c-0.666992 -2 -1 -5.66699 -1 -11c0 -19.333 6.83301 -34.833 20.5 -46.5
s30.834 -17.5 51.501 -17.5c26.667 0 47.667 6.83301 63 20.5s24.666 31.834 27.999 54.501l65 465h210zM492 891.997l-146 -142h-118l112 145h151zM719 891.997l-146 -142h-118l112 145h151z" />
    <glyph glyph-name="uhungarumlaut" unicode="&#x171;" horiz-adv-x="627" 
d="M527 140c0 -9.33301 2.66504 -16.502 7.99805 -21.502s11.666 -7.5 18.999 -7.5c10 0 22 3 36 9l-15 -107c-24.667 -15.333 -59.334 -23 -104.001 -23c-42.667 0 -74.5 6.83301 -95.5 20.5s-34.5 33.834 -40.5 60.501c-15.333 -19.333 -36.666 -37.666 -63.999 -54.999
s-61.666 -26 -102.999 -26c-46 0 -81.5 12 -106.5 36s-37.5 55 -37.5 93c0 18 5.33301 65.833 16 143.5s23 160.5 37 248.5h198l-23 -159c-6 -35.333 -11.167 -69.666 -15.5 -102.999s-6.83301 -56 -7.5 -68c0 -14.667 4 -26.667 12 -36s19.333 -14 34 -14
c16.667 0 30.334 5.66699 41.001 17s17.334 25.666 20.001 42.999l45 320h198c-34.667 -233.333 -52 -357 -52 -371zM415.998 716.998l-146 -142h-118l112 145h151zM642.998 716.998l-146 -142h-118l112 145h151z" />
    <glyph glyph-name="Uogonek" unicode="&#x172;" horiz-adv-x="687" 
d="M690 686l-64.9971 -468.002c-8.66699 -56.667 -30.334 -103.834 -65.001 -141.501s-81.334 -63.167 -140.001 -76.5h8c-17.333 -10 -31 -19.5 -41 -28.5s-15 -20.167 -15 -33.5c0 -9.33301 4 -16.333 12 -21s17.333 -7 28 -7c19.333 0 42.333 4.66699 69 14l7 -43
c-34.667 -16 -70.667 -24 -108 -24c-24.667 0 -45.334 4.83301 -62.001 14.5s-25 24.834 -25 45.501c0 28 16.667 52.333 50 73h-20h-43c-74 0 -132.667 17.333 -176 52s-65 81.334 -65 140.001c0 12 1 24 3 36l65 468h211l-65 -465c-0.666992 -2 -1 -5.66699 -1 -11
c0 -19.333 6.83301 -34.833 20.5 -46.5s30.834 -17.5 51.501 -17.5c26.667 0 47.667 6.83301 63 20.5s24.666 31.834 27.999 54.501l65 465h210z" />
    <glyph glyph-name="uogonek" unicode="&#x173;" horiz-adv-x="627" 
d="M624 -119c-34.667 -16 -70.6689 -24.002 -108.002 -24.002c-24.667 0 -45.334 4.83301 -62.001 14.5s-25 24.834 -25 45.501c0 15.333 4.33301 28.666 13 39.999s20.667 22.333 36 33h-7c-42.667 0 -74.5 6.83301 -95.5 20.5s-34.5 33.834 -40.5 60.501
c-15.333 -19.333 -36.666 -37.666 -63.999 -54.999s-61.666 -26 -102.999 -26c-46 0 -81.5 12 -106.5 36s-37.5 55 -37.5 93c0 18 5.33301 65.833 16 143.5s23 160.5 37 248.5h198l-23 -159c-6 -35.333 -11.167 -69.666 -15.5 -102.999s-6.83301 -56 -7.5 -68
c0 -14.667 4 -26.667 12 -36s19.333 -14 34 -14c16.667 0 30.334 5.66699 41.001 17s17.334 25.666 20.001 42.999l45 320h198c-34.667 -233.333 -52 -357 -52 -371c0 -9.33301 2.66699 -16.5 8 -21.5s11.666 -7.5 18.999 -7.5c10 0 22 3 36 9l-15 -107
c-7.33301 -4.66699 -17 -9 -29 -13h18c-17.333 -10 -31 -19.5 -41 -28.5s-15 -20.167 -15 -33.5c0 -9.33301 4 -16.333 12 -21s17.333 -7 28 -7c19.333 0 42.333 4.66699 69 14z" />
    <glyph glyph-name="Ydieresis" unicode="&#x178;" horiz-adv-x="644" 
d="M351 750h-152l21 147h152zM571 750h-152l21 147h152zM421 262l-37 -262h-209l37 262l-168 424h236l71 -225h5l137 225h215z" />
    <glyph glyph-name="Zacute" unicode="&#x179;" horiz-adv-x="607" 
d="M623 625l-329 -464h272l-23 -161h-570l9 61l333 465h-245l23 160h539zM526 892l-146 -142h-118l112 145h151z" />
    <glyph glyph-name="zacute" unicode="&#x17a;" horiz-adv-x="497" 
d="M488 451l-235 -327h197l-17 -124h-451l8 63l233 324h-177l17 124h433zM441 717l-146 -142h-118l112 145h151z" />
    <glyph glyph-name="Zdotaccent" unicode="&#x17b;" horiz-adv-x="607" 
d="M623 625l-329 -464h272l-23 -161h-570l9 61l333 465h-245l23 160h539zM405 894.5c10.667 -11 16.001 -24.5 16.001 -40.5c0 -20 -7.83301 -37.5 -23.5 -52.5s-33.834 -22.5 -54.501 -22.5c-16 0 -29.333 5.33301 -40 16s-16 24 -16 40c0 20.667 7.5 38.5 22.5 53.5
s32.833 22.5 53.5 22.5c17.333 0 31.333 -5.5 42 -16.5z" />
    <glyph glyph-name="zdotaccent" unicode="&#x17c;" horiz-adv-x="497" 
d="M488 451l-235 -327h197l-17 -124h-451l8 63l233 324h-177l17 124h433zM320 719.5c10.667 -11 16.001 -24.5 16.001 -40.5c0 -20 -7.83301 -37.5 -23.5 -52.5s-33.834 -22.5 -54.501 -22.5c-16 0 -29.333 5.33301 -40 16s-16 24 -16 40c0 20.667 7.5 38.5 22.5 53.5
s32.833 22.5 53.5 22.5c17.333 0 31.333 -5.5 42 -16.5z" />
    <glyph glyph-name="Zcaron" unicode="&#x17d;" horiz-adv-x="607" 
d="M436 750h-128l-118 145h130l63 -77l85 77h128zM623 625l-329 -464h272l-23 -161h-570l9 61l333 465h-245l23 160h539z" />
    <glyph glyph-name="zcaron" unicode="&#x17e;" horiz-adv-x="497" 
d="M351 575h-128l-118 145h130l63 -77l85 77h128zM488 451l-235 -327h197l-17 -124h-451l8 63l233 324h-177l17 124h433z" />
    <glyph glyph-name="florin" unicode="&#x192;" horiz-adv-x="418" 
d="M401.5 721.5c26.333 -4.33301 47.166 -9.5 62.499 -15.5l-15 -110c-6 2.66699 -15.833 5 -29.5 7s-24.167 3 -31.5 3c-17.333 0 -31.666 -3.66699 -42.999 -11s-18.666 -23 -21.999 -47l-5 -37h120l-20 -142h-120l-57 -402c-7.33301 -52 -28.833 -90.167 -64.5 -114.5
s-82.167 -36.5 -139.5 -36.5c-19.333 0 -42.166 2.16699 -68.499 6.5s-47.166 9.5 -62.499 15.5l15 110c7.33301 -2.66699 17.5 -5 30.5 -7s23.167 -3 30.5 -3c17.333 0 31.666 3.5 42.999 10.5s18.666 22.833 21.999 47.5l53 373h-64l20 142h64l9 66
c7.33301 52 28.833 90.167 64.5 114.5s82.167 36.5 139.5 36.5c19.333 0 42.166 -2.16699 68.499 -6.5z" />
    <glyph glyph-name="Scommaaccent" unicode="&#x218;" horiz-adv-x="651" 
d="M570 651c46.667 -30 69.9971 -74.668 69.9971 -134.001c0 -15.333 -1.33301 -29.666 -4 -42.999h-192l1 19c0.666992 14 -5.5 26 -18.5 36s-31.5 15 -55.5 15c-29.333 0 -51.666 -4.33301 -66.999 -13s-23 -20 -23 -34c0 -15.333 8.83301 -26.833 26.5 -34.5
s47.167 -16.5 88.5 -26.5c44.667 -9.33301 81.834 -19.5 111.501 -30.5s55.167 -28.167 76.5 -51.5s32 -54.333 32 -93c0 -76 -26 -140.167 -78 -192.5s-139.333 -78.5 -262 -78.5c-76 0 -139 15.833 -189 47.5s-75 78.167 -75 139.5c0 12.667 2 31.667 6 57h194
c-2.66699 -6 -4 -13.333 -4 -22c0 -18 6.66699 -32.667 20 -44s35 -17 65 -17c67.333 0 101 16 101 48c0 14.667 -8.5 25.667 -25.5 33s-44.5 15.333 -82.5 24c-44.667 9.33301 -82 19.833 -112 31.5s-56 30 -78 55s-33 58.5 -33 100.5c0 81.333 29.833 143.833 89.5 187.5
s138.167 65.5 235.5 65.5c74.667 0 135.334 -15 182.001 -45zM400.997 -139.001l-44 -111h-94l28 79h-85l21 151h191z" />
    <glyph glyph-name="scommaaccent" unicode="&#x219;" horiz-adv-x="559" 
d="M471.5 489c42.333 -21.333 63.501 -51.999 63.501 -91.999c0 -11.333 -1.16699 -20.5 -3.5 -27.5s-3.5 -10.833 -3.5 -11.5h-164v5c0 14.667 -6.33301 25 -19 31s-27.667 9 -45 9c-52 0 -78 -10.667 -78 -32c0 -10.667 7.33301 -18.167 22 -22.5s38 -8.5 70 -12.5
c40 -4 73.667 -9.5 101 -16.5s51 -20 71 -39s30 -46.167 30 -81.5c0 -62.667 -22.333 -113.167 -67 -151.5s-114.334 -57.5 -209.001 -57.5h-10c-73.333 0 -129.833 11.167 -169.5 33.5s-59.5 56.833 -59.5 103.5c0 16 1.33301 29.333 4 40h162
c-0.666992 -0.666992 -1 -2 -1 -4v-7c0 -16 8.16699 -27.5 24.5 -34.5s34.5 -10.5 54.5 -10.5c20.667 0 40.834 2.16699 60.501 6.5s29.5 13.5 29.5 27.5c0 11.333 -7.33301 19.333 -22 24s-38.667 9.66699 -72 15c-39.333 5.33301 -72.333 11.666 -99 18.999
s-49.667 20.5 -69 39.5s-29 45.5 -29 79.5c0 44.667 13.333 82 40 112s60.667 52 102 66s83.666 21 126.999 21h8c58 0 108.167 -10.667 150.5 -32zM355.001 -138.999l-44 -111h-94l28 79h-85l21 151h191z" />
    <glyph glyph-name="uni021A" unicode="&#x21a;" horiz-adv-x="585" 
d="M603 521h-174l-74 -521h-208l74 521h-174l23 165h556zM326 -139l-44 -111h-94l28 79h-85l21 151h191z" />
    <glyph glyph-name="uni021B" unicode="&#x21b;" horiz-adv-x="419" 
d="M308 511l119.999 0.000976562l-20 -142h-120c-19.333 -130.667 -29 -200 -29 -208c0 -20 4.16699 -33.333 12.5 -40s20.833 -10 37.5 -10c8 0 18.5 1.16699 31.5 3.5s23.5 5.16602 31.5 8.49902l-16 -112c-16 -6 -38.167 -11.167 -66.5 -15.5s-51.833 -6.5 -70.5 -6.5
c-53.333 0 -94.166 8.66699 -122.499 26s-42.5 46.333 -42.5 87c0 8 0.666992 18.167 2 30.5s4.33301 32.833 9 61.5l25 175h-56l20 142h56l23 163h209zM284.999 -138.999l-44 -111h-94l28 79h-85l21 151h191z" />
    <glyph glyph-name="circumflex" unicode="&#x2c6;" horiz-adv-x="540" 
d="M460 575h-130l-63 77l-85 -77h-128l160 145h128z" />
    <glyph glyph-name="caron" unicode="&#x2c7;" horiz-adv-x="540" 
d="M321 575h-128l-118 145h130l63 -77l85 77h128z" />
    <glyph glyph-name="uni02C9" unicode="&#x2c9;" horiz-adv-x="460" 
d="M389 662h-318v74h318v-74z" />
    <glyph glyph-name="breve" unicode="&#x2d8;" horiz-adv-x="520" 
d="M426.5 680c-17.667 -19.333 -41.334 -35.333 -71.001 -48s-61.5 -19 -95.5 -19s-65.833 6.33301 -95.5 19s-53.167 28.667 -70.5 48s-26 38.333 -26 57h96c0 -4 4.5 -9 13.5 -15s20.833 -11.333 35.5 -16s30.334 -7 47.001 -7s32.5 2.33301 47.5 7s27.167 10 36.5 16
s14 11 14 15h95c0 -18.667 -8.83301 -37.667 -26.5 -57z" />
    <glyph glyph-name="dotaccent" unicode="&#x2d9;" horiz-adv-x="280" 
d="M191 719.5c10.667 -11 16.001 -24.5 16.001 -40.5c0 -20 -7.83301 -37.5 -23.5 -52.5s-33.834 -22.5 -54.501 -22.5c-16 0 -29.333 5.33301 -40 16s-16 24 -16 40c0 20.667 7.5 38.5 22.5 53.5s32.833 22.5 53.5 22.5c17.333 0 31.333 -5.5 42 -16.5z" />
    <glyph glyph-name="ring" unicode="&#x2da;" horiz-adv-x="340" 
d="M246.5 721.5c16.333 -16.333 24.502 -36.833 24.502 -61.5c0 -32 -11.333 -59.167 -34 -81.5s-50 -33.5 -82 -33.5c-25.333 0 -46.333 8.16699 -63 24.5s-25 37.166 -25 62.499c0 30.667 11.667 57.334 35 80.001s50.666 34 81.999 34
c25.333 0 46.166 -8.16699 62.499 -24.5zM145.502 668.5c-7.66699 -7.66699 -11.5 -17.167 -11.5 -28.5c0 -8.66699 2.83301 -15.834 8.5 -21.501s13.167 -8.5 22.5 -8.5c10.667 0 20 3.33301 28 10s12 16.334 12 29.001c0 9.33301 -2.83301 16.833 -8.5 22.5
s-13.167 8.5 -22.5 8.5c-11.333 0 -20.833 -3.83301 -28.5 -11.5z" />
    <glyph glyph-name="ogonek" unicode="&#x2db;" horiz-adv-x="340" 
d="M162 -28.5c-10 -9 -14.999 -20.168 -14.999 -33.501c0 -9.33301 4 -16.333 12 -21s17.333 -7 28 -7c19.333 0 42.333 4.66699 69 14l7 -43c-34.667 -16 -70.667 -24 -108 -24c-24.667 0 -45.334 4.83301 -62.001 14.5s-25 24.834 -25 45.501
c0 17.333 5.83301 32.5 17.5 45.5s27.5 25.5 47.5 37.5h70c-17.333 -10 -31 -19.5 -41 -28.5z" />
    <glyph glyph-name="tilde" unicode="&#x2dc;" horiz-adv-x="333" 
d="M394 649.5c-14.667 -21.667 -33.499 -39.332 -56.499 -52.999s-48.5 -20.5 -76.5 -20.5c-14.667 0 -28.5 1.66699 -41.5 5s-29.5 8.66602 -49.5 15.999c-16 6 -29.833 10.667 -41.5 14s-23.167 5 -34.5 5c-12 0 -22.833 -3.66699 -32.5 -11s-17.5 -17 -23.5 -29h-80
c4 24.667 13.333 47.834 28 69.501s33.5 39.334 56.5 53.001s48.167 20.5 75.5 20.5c14.667 0 28.667 -1.83301 42 -5.5s29.666 -8.83398 48.999 -15.501c32 -12.667 57.333 -19 76 -19c12 0 22.833 3.66699 32.5 11s17.5 17 23.5 29h81
c-4 -24.667 -13.333 -47.834 -28 -69.501z" />
    <glyph glyph-name="hungarumlaut" unicode="&#x2dd;" horiz-adv-x="555" 
d="M295 717l-146 -142h-118l112 145h151zM522 717l-146 -142h-118l112 145h151z" />
    <glyph glyph-name="uni0326" unicode="&#x326;" horiz-adv-x="0" 
d="M-111 -139l-44 -111h-94l28 79h-85l21 151h191z" />
    <glyph glyph-name="Delta" unicode="&#x394;" horiz-adv-x="635" 
d="M583 93l-13 -93h-584l13 93l306 593h139zM146 109h296l-89 416z" />
    <glyph glyph-name="Omega" unicode="&#x3a9;" horiz-adv-x="765" 
d="M600.5 660c39.667 -22.667 70.667 -53.6699 93 -93.0029s33.5 -83 33.5 -131c0 -14 -1 -28 -3 -42l-6 -44c-10 -72.667 -55 -142 -135 -208l115 20h11l-22 -162h-305l12 85c19.333 8 36 20.167 50 36.5s22.333 34.833 25 55.5l19 131
c3.33301 26.667 7.66602 58 12.999 94c1.33301 11.333 2.66602 21.5 3.99902 30.5s2 15.833 2 20.5c0 24.667 -8.16699 45.334 -24.5 62.001s-37.166 25 -62.499 25h-5c-28 0 -53 -9.83301 -75 -29.5s-35 -43.167 -39 -70.5l-37 -263c-0.666992 -2 -1 -4.33301 -1 -7v-7
c0 -17.333 4.33301 -33 13 -47s20.667 -24.333 36 -31l-12 -85h-304l22 162h11l109 -20c-52 55.333 -78 114 -78 176c0 6.66699 0.666992 17.334 2 32.001l6 44c7.33301 54.667 27.833 104.834 61.5 150.501s75.334 82 125.001 109s101.5 40.5 155.5 40.5h56
c50 0 94.833 -11.333 134.5 -34z" />
    <glyph glyph-name="mu" unicode="&#x3bc;" horiz-adv-x="650" 
d="M537 140c0 -9.33301 2.66699 -16.502 8 -21.502s11.666 -7.5 18.999 -7.5c10 0 22 3 36 9l-15 -107c-24.667 -15.333 -59.334 -23 -104.001 -23c-42.667 0 -74.5 6.83301 -95.5 20.5s-34.5 33.834 -40.5 60.501c-12.667 -16.667 -30.667 -33.167 -54 -49.5
s-52 -26.166 -86 -29.499v-10c0 -25.333 -1.33301 -47 -4 -65l-11 -78h-198l95 672h198l-23 -159c-6 -35.333 -11.167 -69.666 -15.5 -102.999s-6.83301 -56 -7.5 -68c0 -14.667 4 -26.667 12 -36s19.333 -14 34 -14c16.667 0 30.334 5.66699 41.001 17
s17.334 25.666 20.001 42.999l45 320h198c-34.667 -233.333 -52 -357 -52 -371z" />
    <glyph glyph-name="pi" unicode="&#x3c0;" horiz-adv-x="718" 
d="M709 386l-78.002 -0.000976562l-31 -221c-7.33301 -54.667 -11 -97.334 -11 -128.001c0 -10 0.666992 -22.333 2 -37h-187c-5.33301 6 -8 22.333 -8 49c0 36 3 70.667 9 104l33 233h-98c-12 -65.333 -29.5 -136.666 -52.5 -213.999s-45.833 -134.666 -68.5 -171.999h-188
c24.667 54.667 48.834 119.5 72.501 194.5s39.5 138.833 47.5 191.5c-48.667 0 -87.667 -3.33301 -117 -10v99c32.667 24 104.334 36 215.001 36h491z" />
    <glyph glyph-name="endash" unicode="&#x2013;" horiz-adv-x="597" 
d="M534 196h-499l22 158h500z" />
    <glyph glyph-name="emdash" unicode="&#x2014;" horiz-adv-x="1015" 
d="M947 196h-909l22 158h910z" />
    <glyph glyph-name="quoteleft" unicode="&#x2018;" horiz-adv-x="272" 
d="M181 521h84l-26 -183h-191l23 161l76 187h94z" />
    <glyph glyph-name="quoteright" unicode="&#x2019;" horiz-adv-x="265" 
d="M259 525l-76 -187h-94l60 165h-84l26 183h191z" />
    <glyph glyph-name="quotesinglbase" unicode="&#x201a;" horiz-adv-x="286" 
d="M201 22l-76 -187h-94l60 165h-84l26 183h191z" />
    <glyph glyph-name="quotedblleft" unicode="&#x201c;" horiz-adv-x="514" 
d="M258 503h-84l14 -165h-94l-24 187l23 161h191zM506 503h-84l14 -165h-94l-24 187l23 161h191z" />
    <glyph glyph-name="quotedblright" unicode="&#x201d;" horiz-adv-x="513" 
d="M259 525l-76 -187h-94l60 165h-84l26 183h191zM507 525l-76 -187h-94l60 165h-84l26 183h191z" />
    <glyph glyph-name="quotedblbase" unicode="&#x201e;" horiz-adv-x="534" 
d="M201 22l-76 -187h-94l60 165h-84l26 183h191zM449 22l-76 -187h-94l60 165h-84l26 183h191z" />
    <glyph glyph-name="dagger" unicode="&#x2020;" horiz-adv-x="568" 
d="M363 490l211 20l-20 -142l-205 20l-57 -549h-143l97 549l-211 -20l20 142l213 -20v196h143z" />
    <glyph glyph-name="daggerdbl" unicode="&#x2021;" horiz-adv-x="590" 
d="M374 490l211 20l-20 -142l-203 20v-131l-39 -133l211 20l-20 -142l-209 20v-197h-147l48 197l-211 -20l20 142l204 -20v133l38 131l-211 -20l20 142l208 -20v196h148z" />
    <glyph glyph-name="bullet" unicode="&#x2022;" 
d="M408.5 494.5c23 -13 40.834 -30.668 53.501 -53.001s19 -47.166 19 -74.499c0 -38.667 -10 -73 -30 -103s-45.333 -53 -76 -69s-61.667 -24 -93 -24c-42.667 0 -78 13.833 -106 41.5s-42 62.5 -42 104.5c0 35.333 9.16699 68 27.5 98s42.666 54 72.999 72
s62.5 27 96.5 27c28.667 0 54.5 -6.5 77.5 -19.5z" />
    <glyph glyph-name="ellipsis" unicode="&#x2026;" horiz-adv-x="953" 
d="M199 0h-191l25 183h191zM532 0h-191l25 183h191zM865 0h-191l25 183h191z" />
    <glyph glyph-name="perthousand" unicode="&#x2030;" horiz-adv-x="1058" 
d="M308 656c20 -20 30 -45 30 -75v-9c0 -4 -0.333008 -7 -1 -9l-14 -102c-6 -35.333 -21.333 -64.666 -46 -87.999s-56.334 -35 -95.001 -35h-22c-31.333 0 -57 10 -77 30s-30 45 -30 75v9c0 4 0.333008 7 1 9l14 102c4.66699 35.333 19.834 64.666 45.501 87.999
s57.5 35 95.5 35h22c31.333 0 57 -10 77 -30zM157 0h-95l516 686h93zM182 604c-8.66699 -7.33301 -13.666 -16.668 -14.999 -28.001c-12.667 -85.333 -19 -129.666 -19 -132.999c0 -9.33301 3.16699 -17.166 9.5 -23.499s14.166 -9.5 23.499 -9.5c10.667 0 20 3.66699 28 11
s12.667 16.666 14 27.999l9 62c2.66699 15.333 4.66699 30.333 6 45s2.33301 23.334 3 26.001c0 9.33301 -2.83301 17.166 -8.5 23.499s-13.167 9.5 -22.5 9.5c-10 0 -19.333 -3.66699 -28 -11zM651.001 316.998c20 -20 30 -45 30 -75v-9c0 -4 -0.333008 -7 -1 -9l-14 -102
c-6 -35.333 -21.333 -64.666 -46 -87.999s-56.334 -35 -95.001 -35h-22c-31.333 0 -57 10 -77 30s-30 45 -30 75v9c0 4 0.333008 7 1 9l14 102c4.66699 35.333 19.834 64.666 45.501 87.999s57.5 35 95.5 35h22c31.333 0 57 -10 77 -30zM993.001 316.998
c20 -20 30 -45 30 -75v-9c0 -4 -0.333008 -7 -1 -9l-14 -102c-6 -35.333 -21.333 -64.666 -46 -87.999s-56.334 -35 -95.001 -35h-22c-31.333 0 -57 10 -77 30s-30 45 -30 75v9c0 4 0.333008 7 1 9l14 102c4.66699 35.333 19.834 64.666 45.501 87.999s57.5 35 95.5 35h22
c31.333 0 57 -10 77 -30zM525.001 264.998c-8.66699 -7.33301 -13.666 -16.668 -14.999 -28.001c-12.667 -85.333 -19 -129.666 -19 -132.999c0 -9.33301 3.16699 -17.166 9.5 -23.499s14.166 -9.5 23.499 -9.5c10.667 0 20 3.66699 28 11s12.667 16.666 14 27.999l9 62
c2.66699 15.333 4.66699 30.333 6 45s2.33301 23.334 3 26.001c0 9.33301 -2.83301 17.166 -8.5 23.499s-13.167 9.5 -22.5 9.5c-10 0 -19.333 -3.66699 -28 -11zM867.002 264.996c-8.66699 -7.33301 -13.666 -16.668 -14.999 -28.001
c-12.667 -85.333 -19 -129.666 -19 -132.999c0 -9.33301 3.16699 -17.166 9.5 -23.499s14.166 -9.5 23.499 -9.5c10.667 0 20 3.66699 28 11s12.667 16.666 14 27.999l9 62c2.66699 15.333 4.66699 30.333 6 45s2.33301 23.334 3 26.001
c0 9.33301 -2.83301 17.166 -8.5 23.499s-13.167 9.5 -22.5 9.5c-10 0 -19.333 -3.66699 -28 -11z" />
    <glyph glyph-name="guilsinglleft" unicode="&#x2039;" horiz-adv-x="261" 
d="M146 337l60 -174h-74l-95 174l144 174h74z" />
    <glyph glyph-name="guilsinglright" unicode="&#x203a;" horiz-adv-x="262" 
d="M238 337l-145 -174h-74l110 174l-61 174h74z" />
    <glyph glyph-name="fraction" unicode="&#x2044;" horiz-adv-x="482" 
d="M38 0h-89l516 686h86z" />
    <glyph glyph-name="Euro" unicode="&#x20ac;" horiz-adv-x="597" 
d="M607 674l-22 -160.002c-11.333 4.66699 -25.833 8.83398 -43.5 12.501s-36.5 5.5 -56.5 5.5c-58 0 -103.333 -25 -136 -75h137l-13 -92h-158c-4.66699 -17.333 -7 -33.333 -7 -48h158l-13 -92h-133c10.667 -25.333 27.5 -43.166 50.5 -53.499s47.5 -15.5 73.5 -15.5
c15.333 0 31.333 2.33301 48 7s32 11 46 19l-23 -167c-50 -16.667 -96.667 -25 -140 -25c-41.333 0 -80.833 7.33301 -118.5 22s-70.167 39.667 -97.5 75s-44 81.333 -50 138h-90l13 92h78l7 48h-78l13 92h90c30 82.667 76.167 142.5 138.5 179.5s127.833 55.5 196.5 55.5
c48 0 91.333 -6 130 -18z" />
    <glyph glyph-name="uni2113" unicode="&#x2113;" horiz-adv-x="539" 
d="M269 194c-2 -14 -3.00293 -23.998 -3.00293 -29.998c0 -19.333 5.83301 -33 17.5 -41s25.167 -12 40.5 -12c28.667 0 64.334 10.667 107.001 32l-16 -112c-20.667 -12.667 -47.167 -22.834 -79.5 -30.501s-65.5 -11.5 -99.5 -11.5c-50.667 0 -92.167 11.167 -124.5 33.5
s-48.5 54.166 -48.5 95.499c0 8.66699 1.66699 26 5 52l8 59h-71l13 97h72l19 141c10.667 76 37.834 133.833 81.501 173.5s100.5 59.5 170.5 59.5c121.333 0 182 -59.667 182 -179c0 -46 -9.16699 -90.333 -27.5 -133s-47.666 -78.5 -87.999 -107.5
s-91.5 -45.5 -153.5 -49.5zM334.997 539.502c-14 -17 -23.333 -41.167 -28 -72.5l-20 -141c53.333 6 91.5 25.5 114.5 58.5s34.5 69.833 34.5 110.5c0 46.667 -16.333 70 -49 70c-20.667 0 -38 -8.5 -52 -25.5z" />
    <glyph glyph-name="trademark" unicode="&#x2122;" horiz-adv-x="1007" 
d="M438 590h-114l-42 -302h-122l42 302h-114l13 96h350zM947 288h-122l40 275h-4l-107 -275h-140l-31 275l-4 27l-36 -302h-112l55 398h200l24 -232h4l88 232h200z" />
    <glyph glyph-name="uni2126" unicode="&#x2126;" horiz-adv-x="765" 
d="M600.5 660c39.667 -22.667 70.667 -53.6699 93 -93.0029s33.5 -83 33.5 -131c0 -14 -1 -28 -3 -42l-6 -44c-10 -72.667 -55 -142 -135 -208l115 20h11l-22 -162h-305l12 85c19.333 8 36 20.167 50 36.5s22.333 34.833 25 55.5l19 131
c3.33301 26.667 7.66602 58 12.999 94c1.33301 11.333 2.66602 21.5 3.99902 30.5s2 15.833 2 20.5c0 24.667 -8.16699 45.334 -24.5 62.001s-37.166 25 -62.499 25h-5c-28 0 -53 -9.83301 -75 -29.5s-35 -43.167 -39 -70.5l-37 -263c-0.666992 -2 -1 -4.33301 -1 -7v-7
c0 -17.333 4.33301 -33 13 -47s20.667 -24.333 36 -31l-12 -85h-304l22 162h11l109 -20c-52 55.333 -78 114 -78 176c0 6.66699 0.666992 17.334 2 32.001l6 44c7.33301 54.667 27.833 104.834 61.5 150.501s75.334 82 125.001 109s101.5 40.5 155.5 40.5h56
c50 0 94.833 -11.333 134.5 -34z" />
    <glyph glyph-name="estimated" unicode="&#x212e;" horiz-adv-x="723" 
d="M527.5 655.5c49 -27 87 -66 114 -117s40.5 -111.167 40.5 -180.5v-60h-429v-192c31.333 -14 66.333 -21 105 -21c41.333 0 78.333 7.16699 111 21.5s59 35.833 79 64.5l84 -59c-29.333 -39.333 -67.333 -69.5 -114 -90.5s-100 -31.5 -160 -31.5
c-66 0 -123.667 13.5 -173 40.5s-87.5 66 -114.5 117s-40.5 111.5 -40.5 181.5v28c0 70 13.5 130.5 40.5 181.5s65 90 114 117s106.167 40.5 171.5 40.5s122.5 -13.5 171.5 -40.5zM253 393h204.999v189c-29.333 12.667 -63.333 19 -102 19
c-39.333 0 -73.666 -6.33301 -102.999 -19v-189z" />
    <glyph glyph-name="partialdiff" unicode="&#x2202;" horiz-adv-x="621" 
d="M486 668.5c34.667 -18.333 61.665 -43.833 80.998 -76.5s29 -69.334 29 -110.001v-18c0 -4 -0.666992 -10 -2 -18l-29 -206c-6.66699 -48 -23 -91 -49 -129s-60.167 -67.667 -102.5 -89s-90.166 -32 -143.499 -32h-28c-44 0 -83.167 8.33301 -117.5 25
s-61.166 40.5 -80.499 71.5s-29 66.833 -29 107.5c0 51.333 11.833 95.333 35.5 132s55 64.334 94 83.001s81.167 28 126.5 28c20.667 0 42 -4.33301 64 -13s39.667 -21.667 53 -39l13 96c0 18 -6.5 33.333 -19.5 46s-28.833 19 -47.5 19h-142l21 150h156
c43.333 0 82.333 -9.16699 117 -27.5zM297.998 321c-20 0 -38.498 -7.33301 -55.498 -22s-26.833 -32.334 -29.5 -53.001l-6 -41c-0.666992 -2 -1 -5.66699 -1 -11c0 -18 6.16699 -33.167 18.5 -45.5s28.166 -18.5 47.499 -18.5h6c20 0 38.5 7.33301 55.5 22
s26.833 32.334 29.5 53.001l7 51c0 18.667 -6.33301 34.167 -19 46.5s-28.334 18.5 -47.001 18.5h-6z" />
    <glyph glyph-name="uni2206" unicode="&#x2206;" horiz-adv-x="635" 
d="M583 93l-13 -93h-584l13 93l306 593h139zM146 109h296l-89 416z" />
    <glyph glyph-name="product" unicode="&#x220f;" horiz-adv-x="898" 
d="M908 551h-117l-92 -652h-215l92 652h-183l-92 -652h-214l92 652h-117l25 180h846z" />
    <glyph glyph-name="summation" unicode="&#x2211;" horiz-adv-x="711" 
d="M693 556h-317v-4l162 -215l-253 -252l-1 -5h368l-25 -181h-654l17 118l297 295l-204 281l19 138h616z" />
    <glyph glyph-name="minus" unicode="&#x2212;" horiz-adv-x="615" 
d="M552 213h-512l21 150h512z" />
    <glyph glyph-name="uni2215" unicode="&#x2215;" horiz-adv-x="482" 
d="M38 0h-89l516 686h86z" />
    <glyph glyph-name="uni2219" unicode="&#x2219;" horiz-adv-x="287" 
d="M226 197h-191l25 183h191z" />
    <glyph glyph-name="radical" unicode="&#x221a;" horiz-adv-x="736" 
d="M392 -153h-160l-129 424l-90 -35l-21 92l253 99l77 -307l11 -48l9 -40l16 40c11.333 30 18 47.333 20 52l297 705h149z" />
    <glyph glyph-name="infinity" unicode="&#x221e;" horiz-adv-x="822" 
d="M740 434.5c30 -27.667 44.999 -65.166 44.999 -112.499v-16c0 -4 -0.666992 -9.33301 -2 -16c-5.33301 -40.667 -18.666 -76.167 -39.999 -106.5s-47.333 -53.333 -78 -69s-61.667 -23.5 -93 -23.5c-32.667 0 -64 7.66699 -94 23s-57.333 45.333 -82 90
c-34.667 -37.333 -68 -65.5 -100 -84.5s-67.667 -28.5 -107 -28.5c-28.667 0 -54.667 6.5 -78 19.5s-41.833 31.5 -55.5 55.5s-20.5 52 -20.5 84c0 43.333 10.167 82.166 30.5 116.499s47.333 61.166 81 80.499s69.834 29 108.501 29c39.333 0 72.666 -8.66699 99.999 -26
s52 -44.666 74 -81.999c4.66699 4 17.834 16.5 39.501 37.5s46.167 38 73.5 51s55.666 19.5 84.999 19.5c45.333 0 83 -13.833 113 -41.5zM191.999 365.001c-15.333 -8.66699 -28.167 -21.168 -38.5 -37.501s-15.5 -35.833 -15.5 -58.5c0 -22 7.16699 -40.667 21.5 -56
s32.5 -23 54.5 -23c24 0 47.333 8 70 24s46 37 70 63l-4 8c-12.667 23.333 -23.167 40.833 -31.5 52.5s-18.833 21.334 -31.5 29.001s-28.667 11.5 -48 11.5c-16 0 -31.667 -4.33301 -47 -13zM542.998 355c-20 -15.333 -42.999 -36.667 -68.999 -64
c-3.33301 -2 -5.33301 -4 -6 -6c21.333 -38 40.666 -63.333 57.999 -76s37.333 -19 60 -19c20 0 37 6.16699 51 18.5s24.667 27 32 44s11 32.5 11 46.5c0 24 -6.33301 43.167 -19 57.5s-30.667 21.5 -54 21.5c-22.667 0 -44 -7.66699 -64 -23z" />
    <glyph glyph-name="integral" unicode="&#x222b;" horiz-adv-x="318" 
d="M354 683c-22.667 0 -42.832 -2.49902 -60.499 -7.49902s-27.5 -16.167 -29.5 -33.5l-34 -331c-20.667 -198.667 -37.334 -348.334 -50.001 -449.001c-5.33301 -36 -23.333 -63.667 -54 -83s-65 -29 -103 -29h-80l10 68c56 0 85.667 13.667 89 41l34 331l14 129
c15.333 149.333 27.333 256 36 320c5.33301 36 23.333 63.667 54 83s65 29 103 29h81z" />
    <glyph glyph-name="approxequal" unicode="&#x2248;" horiz-adv-x="615" 
d="M599 356c-20.667 -20.667 -46.3369 -38.834 -77.0039 -54.501s-63 -23.5 -97 -23.5c-19.333 0 -37.5 2.83301 -54.5 8.5s-36.5 13.834 -58.5 24.501c-25.333 11.333 -46.166 19.666 -62.499 24.999s-34.166 8 -53.499 8c-34.667 0 -66.667 -7.66699 -96 -23
s-55.333 -33.666 -78 -54.999l18 126c22.667 21.333 48.667 39.666 78 54.999s61.333 23 96 23c18.667 0 35.834 -2.66699 51.501 -8s35.5 -13.333 59.5 -24c24 -11.333 44.5 -19.833 61.5 -25.5s35.5 -8.5 55.5 -8.5c34 0 66.333 7.83301 97 23.5
s56.334 33.834 77.001 54.501zM566.997 135c-20.667 -20.667 -46.3311 -38.834 -76.998 -54.501s-63 -23.5 -97 -23.5c-18.667 0 -35.834 2.66699 -51.501 8s-35.5 13.333 -59.5 24c-24 11.333 -44.5 19.833 -61.5 25.5s-35.5 8.5 -55.5 8.5
c-34.667 0 -66.667 -7.66699 -96 -23s-55.333 -33.666 -78 -54.999l17 126c22.667 21.333 48.667 39.666 78 54.999s61.333 23 96 23c19.333 0 37.5 -2.83301 54.5 -8.5s36.5 -13.834 58.5 -24.501c25.333 -11.333 46.166 -19.666 62.499 -24.999s34.166 -8 53.499 -8
c34 0 66.333 7.83301 97 23.5s56.334 33.834 77.001 54.501z" />
    <glyph glyph-name="notequal" unicode="&#x2260;" horiz-adv-x="615" 
d="M500 429h83l-18 -128h-169l-76 -92h232l-18 -128h-318l-66 -81h-111l66 81h-83l18 128h171l76 92h-234l18 128h321l67 82h108z" />
    <glyph glyph-name="lessequal" unicode="&#x2264;" horiz-adv-x="615" 
d="M575 381l-355 -48l341 -47l-19 -138l-493 116l20 139l525 117zM521 0h-511l18 128h511z" />
    <glyph glyph-name="greaterequal" unicode="&#x2265;" horiz-adv-x="615" 
d="M578 403l-20 -139l-525 -116l19 138l355 47l-341 48l19 139zM523 0h-511l18 128h511z" />
    <glyph glyph-name="lozenge" unicode="&#x25ca;" horiz-adv-x="535" 
d="M516 343l-221 -343h-139l-123 343l220 343h139zM169 343l75 -222l138 222l-75 222z" />
    <glyph glyph-name="caron.alt" horiz-adv-x="265" 
d="M259 525l-76 -187h-94l60 165h-84l26 183h191z" />
    </font>
</defs>
</svg>
